%TF.GenerationSoftware,KiCad,Pcbnew,(5.1.10)-1*%
%TF.CreationDate,2021-07-06T00:11:38-07:00*%
%TF.ProjectId,rc-cfcardh,72632d63-6663-4617-9264-682e6b696361,rev?*%
%TF.SameCoordinates,PX9157080PY9071968*%
%TF.FileFunction,Soldermask,Top*%
%TF.FilePolarity,Negative*%
%FSLAX46Y46*%
G04 Gerber Fmt 4.6, Leading zero omitted, Abs format (unit mm)*
G04 Created by KiCad (PCBNEW (5.1.10)-1) date 2021-07-06 00:11:38*
%MOMM*%
%LPD*%
G01*
G04 APERTURE LIST*
%ADD10C,0.100000*%
%ADD11C,2.700000*%
%ADD12O,1.350000X1.350000*%
%ADD13O,1.700000X1.700000*%
%ADD14C,1.700000*%
%ADD15O,1.600000X2.400000*%
%ADD16C,1.600000*%
%ADD17O,2.400000X1.600000*%
%ADD18O,1.600000X1.600000*%
%ADD19C,1.800000*%
%ADD20C,3.200000*%
G04 APERTURE END LIST*
D10*
G36*
X16637000Y9855200D02*
G01*
X3683000Y9855200D01*
X3683000Y16205200D01*
X16637000Y16205200D01*
X16637000Y9855200D01*
G37*
X16637000Y9855200D02*
X3683000Y9855200D01*
X3683000Y16205200D01*
X16637000Y16205200D01*
X16637000Y9855200D01*
D11*
%TO.C,MNT2*%
X86365000Y38560200D03*
%TD*%
%TO.C,MNT1*%
X36835000Y38560200D03*
%TD*%
D12*
%TO.C,J3*%
X40550000Y21380200D03*
X40550000Y19380200D03*
X42550000Y21380200D03*
X42550000Y19380200D03*
X44550000Y21380200D03*
X44550000Y19380200D03*
X46550000Y21380200D03*
X46550000Y19380200D03*
X48550000Y21380200D03*
X48550000Y19380200D03*
X50550000Y21380200D03*
X50550000Y19380200D03*
X52550000Y21380200D03*
X52550000Y19380200D03*
X54550000Y21380200D03*
X54550000Y19380200D03*
X56550000Y21380200D03*
X56550000Y19380200D03*
X58550000Y21380200D03*
X58550000Y19380200D03*
X60550000Y21380200D03*
X60550000Y19380200D03*
X62550000Y21380200D03*
X62550000Y19380200D03*
X64550000Y21380200D03*
X64550000Y19380200D03*
X66550000Y21380200D03*
X66550000Y19380200D03*
X68550000Y21380200D03*
X68550000Y19380200D03*
X70550000Y21380200D03*
X70550000Y19380200D03*
X72550000Y21380200D03*
X72550000Y19380200D03*
X74550000Y21380200D03*
X74550000Y19380200D03*
X76550000Y21380200D03*
X76550000Y19380200D03*
X78550000Y21380200D03*
X78550000Y19380200D03*
X80550000Y21380200D03*
X80550000Y19380200D03*
X82550000Y21380200D03*
G36*
G01*
X82212500Y20055200D02*
X82887500Y20055200D01*
G75*
G02*
X83225000Y19717700I0J-337500D01*
G01*
X83225000Y19042700D01*
G75*
G02*
X82887500Y18705200I-337500J0D01*
G01*
X82212500Y18705200D01*
G75*
G02*
X81875000Y19042700I0J337500D01*
G01*
X81875000Y19717700D01*
G75*
G02*
X82212500Y20055200I337500J0D01*
G01*
G37*
%TD*%
D13*
%TO.C,J2*%
X64770000Y4140200D03*
X62230000Y4140200D03*
X59690000Y4140200D03*
X57150000Y4140200D03*
X54610000Y4140200D03*
X52070000Y4140200D03*
X49530000Y4140200D03*
X46990000Y4140200D03*
X44450000Y4140200D03*
D14*
X41910000Y4140200D03*
%TD*%
D15*
%TO.C,U3*%
X59690000Y15570200D03*
X82550000Y7950200D03*
X62230000Y15570200D03*
X80010000Y7950200D03*
X64770000Y15570200D03*
X77470000Y7950200D03*
X67310000Y15570200D03*
X74930000Y7950200D03*
X69850000Y15570200D03*
X72390000Y7950200D03*
X72390000Y15570200D03*
X69850000Y7950200D03*
X74930000Y15570200D03*
X67310000Y7950200D03*
X77470000Y15570200D03*
X64770000Y7950200D03*
X80010000Y15570200D03*
X62230000Y7950200D03*
X82550000Y15570200D03*
G36*
G01*
X60090000Y6750200D02*
X59290000Y6750200D01*
G75*
G02*
X58890000Y7150200I0J400000D01*
G01*
X58890000Y8750200D01*
G75*
G02*
X59290000Y9150200I400000J0D01*
G01*
X60090000Y9150200D01*
G75*
G02*
X60490000Y8750200I0J-400000D01*
G01*
X60490000Y7150200D01*
G75*
G02*
X60090000Y6750200I-400000J0D01*
G01*
G37*
%TD*%
D16*
%TO.C,C4*%
X42545000Y14657700D03*
X42545000Y17157700D03*
%TD*%
%TO.C,C3*%
X57150000Y13070200D03*
X57150000Y15570200D03*
%TD*%
%TO.C,C2*%
X92750000Y28270200D03*
X95250000Y28270200D03*
%TD*%
%TO.C,C1*%
X26710000Y28270200D03*
X29210000Y28270200D03*
%TD*%
D17*
%TO.C,U2*%
X95250000Y24460200D03*
X87630000Y9220200D03*
X95250000Y21920200D03*
X87630000Y11760200D03*
X95250000Y19380200D03*
X87630000Y14300200D03*
X95250000Y16840200D03*
X87630000Y16840200D03*
X95250000Y14300200D03*
X87630000Y19380200D03*
X95250000Y11760200D03*
X87630000Y21920200D03*
X95250000Y9220200D03*
G36*
G01*
X86430000Y24060200D02*
X86430000Y24860200D01*
G75*
G02*
X86830000Y25260200I400000J0D01*
G01*
X88430000Y25260200D01*
G75*
G02*
X88830000Y24860200I0J-400000D01*
G01*
X88830000Y24060200D01*
G75*
G02*
X88430000Y23660200I-400000J0D01*
G01*
X86830000Y23660200D01*
G75*
G02*
X86430000Y24060200I0J400000D01*
G01*
G37*
%TD*%
D18*
%TO.C,RN1*%
X44450000Y10490200D03*
X46990000Y10490200D03*
X49530000Y10490200D03*
X52070000Y10490200D03*
G36*
G01*
X55410000Y10890200D02*
X55410000Y10090200D01*
G75*
G02*
X55010000Y9690200I-400000J0D01*
G01*
X54210000Y9690200D01*
G75*
G02*
X53810000Y10090200I0J400000D01*
G01*
X53810000Y10890200D01*
G75*
G02*
X54210000Y11290200I400000J0D01*
G01*
X55010000Y11290200D01*
G75*
G02*
X55410000Y10890200I0J-400000D01*
G01*
G37*
%TD*%
%TO.C,R1*%
X29210000Y39700200D03*
D16*
X29210000Y32080200D03*
%TD*%
D19*
%TO.C,D1*%
X26670000Y44780200D03*
G36*
G01*
X30110000Y45230200D02*
X30110000Y44330200D01*
G75*
G02*
X29660000Y43880200I-450000J0D01*
G01*
X28760000Y43880200D01*
G75*
G02*
X28310000Y44330200I0J450000D01*
G01*
X28310000Y45230200D01*
G75*
G02*
X28760000Y45680200I450000J0D01*
G01*
X29660000Y45680200D01*
G75*
G02*
X30110000Y45230200I0J-450000D01*
G01*
G37*
%TD*%
D17*
%TO.C,U1*%
X29210000Y25730200D03*
X21590000Y7950200D03*
X29210000Y23190200D03*
X21590000Y10490200D03*
X29210000Y20650200D03*
X21590000Y13030200D03*
X29210000Y18110200D03*
X21590000Y15570200D03*
X29210000Y15570200D03*
X21590000Y18110200D03*
X29210000Y13030200D03*
X21590000Y20650200D03*
X29210000Y10490200D03*
X21590000Y23190200D03*
X29210000Y7950200D03*
G36*
G01*
X20390000Y25330200D02*
X20390000Y26130200D01*
G75*
G02*
X20790000Y26530200I400000J0D01*
G01*
X22390000Y26530200D01*
G75*
G02*
X22790000Y26130200I0J-400000D01*
G01*
X22790000Y25330200D01*
G75*
G02*
X22390000Y24930200I-400000J0D01*
G01*
X20790000Y24930200D01*
G75*
G02*
X20390000Y25330200I0J400000D01*
G01*
G37*
%TD*%
D13*
%TO.C,J1*%
X97790000Y1600200D03*
X95250000Y1600200D03*
X92710000Y1600200D03*
X90170000Y1600200D03*
X87630000Y1600200D03*
X85090000Y1600200D03*
X82550000Y1600200D03*
X80010000Y1600200D03*
X77470000Y1600200D03*
X74930000Y1600200D03*
X72390000Y1600200D03*
X69850000Y1600200D03*
X67310000Y1600200D03*
X64770000Y1600200D03*
X62230000Y1600200D03*
X59690000Y1600200D03*
X57150000Y1600200D03*
X54610000Y1600200D03*
X52070000Y1600200D03*
X49530000Y1600200D03*
X46990000Y1600200D03*
X44450000Y1600200D03*
X41910000Y1600200D03*
X39370000Y1600200D03*
X36830000Y1600200D03*
X34290000Y1600200D03*
X31750000Y1600200D03*
X29210000Y1600200D03*
X26670000Y1600200D03*
X24130000Y1600200D03*
X21590000Y1600200D03*
X19050000Y1600200D03*
X16510000Y1600200D03*
X13970000Y1600200D03*
X11430000Y1600200D03*
X8890000Y1600200D03*
X6350000Y1600200D03*
X3810000Y1600200D03*
G36*
G01*
X1695000Y750200D02*
X845000Y750200D01*
G75*
G02*
X420000Y1175200I0J425000D01*
G01*
X420000Y2025200D01*
G75*
G02*
X845000Y2450200I425000J0D01*
G01*
X1695000Y2450200D01*
G75*
G02*
X2120000Y2025200I0J-425000D01*
G01*
X2120000Y1175200D01*
G75*
G02*
X1695000Y750200I-425000J0D01*
G01*
G37*
%TD*%
D20*
%TO.C,*%
X5080000Y33350200D03*
%TD*%
M02*
