%TF.GenerationSoftware,KiCad,Pcbnew,(5.1.10)-1*%
%TF.CreationDate,2021-07-06T00:11:38-07:00*%
%TF.ProjectId,rc-cfcardh,72632d63-6663-4617-9264-682e6b696361,rev?*%
%TF.SameCoordinates,PX9157080PY9071968*%
%TF.FileFunction,Legend,Bot*%
%TF.FilePolarity,Positive*%
%FSLAX46Y46*%
G04 Gerber Fmt 4.6, Leading zero omitted, Abs format (unit mm)*
G04 Created by KiCad (PCBNEW (5.1.10)-1) date 2021-07-06 00:11:38*
%MOMM*%
%LPD*%
G01*
G04 APERTURE LIST*
%ADD10C,0.300000*%
G04 APERTURE END LIST*
D10*
X68237857Y44889486D02*
X68309285Y44818058D01*
X68523571Y44746629D01*
X68666428Y44746629D01*
X68880714Y44818058D01*
X69023571Y44960915D01*
X69095000Y45103772D01*
X69166428Y45389486D01*
X69166428Y45603772D01*
X69095000Y45889486D01*
X69023571Y46032343D01*
X68880714Y46175200D01*
X68666428Y46246629D01*
X68523571Y46246629D01*
X68309285Y46175200D01*
X68237857Y46103772D01*
X67380714Y44746629D02*
X67523571Y44818058D01*
X67595000Y44889486D01*
X67666428Y45032343D01*
X67666428Y45460915D01*
X67595000Y45603772D01*
X67523571Y45675200D01*
X67380714Y45746629D01*
X67166428Y45746629D01*
X67023571Y45675200D01*
X66952142Y45603772D01*
X66880714Y45460915D01*
X66880714Y45032343D01*
X66952142Y44889486D01*
X67023571Y44818058D01*
X67166428Y44746629D01*
X67380714Y44746629D01*
X66237857Y44746629D02*
X66237857Y45746629D01*
X66237857Y45603772D02*
X66166428Y45675200D01*
X66023571Y45746629D01*
X65809285Y45746629D01*
X65666428Y45675200D01*
X65595000Y45532343D01*
X65595000Y44746629D01*
X65595000Y45532343D02*
X65523571Y45675200D01*
X65380714Y45746629D01*
X65166428Y45746629D01*
X65023571Y45675200D01*
X64952142Y45532343D01*
X64952142Y44746629D01*
X64237857Y45746629D02*
X64237857Y44246629D01*
X64237857Y45675200D02*
X64095000Y45746629D01*
X63809285Y45746629D01*
X63666428Y45675200D01*
X63595000Y45603772D01*
X63523571Y45460915D01*
X63523571Y45032343D01*
X63595000Y44889486D01*
X63666428Y44818058D01*
X63809285Y44746629D01*
X64095000Y44746629D01*
X64237857Y44818058D01*
X62237857Y44746629D02*
X62237857Y45532343D01*
X62309285Y45675200D01*
X62452142Y45746629D01*
X62737857Y45746629D01*
X62880714Y45675200D01*
X62237857Y44818058D02*
X62380714Y44746629D01*
X62737857Y44746629D01*
X62880714Y44818058D01*
X62952142Y44960915D01*
X62952142Y45103772D01*
X62880714Y45246629D01*
X62737857Y45318058D01*
X62380714Y45318058D01*
X62237857Y45389486D01*
X60880714Y44818058D02*
X61023571Y44746629D01*
X61309285Y44746629D01*
X61452142Y44818058D01*
X61523571Y44889486D01*
X61595000Y45032343D01*
X61595000Y45460915D01*
X61523571Y45603772D01*
X61452142Y45675200D01*
X61309285Y45746629D01*
X61023571Y45746629D01*
X60880714Y45675200D01*
X60452142Y45746629D02*
X59880714Y45746629D01*
X60237857Y46246629D02*
X60237857Y44960915D01*
X60166428Y44818058D01*
X60023571Y44746629D01*
X59880714Y44746629D01*
X58880714Y45532343D02*
X59380714Y45532343D01*
X59380714Y44746629D02*
X59380714Y46246629D01*
X58666428Y46246629D01*
X57880714Y44746629D02*
X58023571Y44818058D01*
X58095000Y44960915D01*
X58095000Y46246629D01*
X56666428Y44746629D02*
X56666428Y45532343D01*
X56737857Y45675200D01*
X56880714Y45746629D01*
X57166428Y45746629D01*
X57309285Y45675200D01*
X56666428Y44818058D02*
X56809285Y44746629D01*
X57166428Y44746629D01*
X57309285Y44818058D01*
X57380714Y44960915D01*
X57380714Y45103772D01*
X57309285Y45246629D01*
X57166428Y45318058D01*
X56809285Y45318058D01*
X56666428Y45389486D01*
X56023571Y44818058D02*
X55880714Y44746629D01*
X55595000Y44746629D01*
X55452142Y44818058D01*
X55380714Y44960915D01*
X55380714Y45032343D01*
X55452142Y45175200D01*
X55595000Y45246629D01*
X55809285Y45246629D01*
X55952142Y45318058D01*
X56023571Y45460915D01*
X56023571Y45532343D01*
X55952142Y45675200D01*
X55809285Y45746629D01*
X55595000Y45746629D01*
X55452142Y45675200D01*
X54737857Y44746629D02*
X54737857Y46246629D01*
X54095000Y44746629D02*
X54095000Y45532343D01*
X54166428Y45675200D01*
X54309285Y45746629D01*
X54523571Y45746629D01*
X54666428Y45675200D01*
X54737857Y45603772D01*
X68666428Y42625200D02*
X67952142Y42625200D01*
X68809285Y42196629D02*
X68309285Y43696629D01*
X67809285Y42196629D01*
X66666428Y42196629D02*
X66666428Y43696629D01*
X66666428Y42268058D02*
X66809285Y42196629D01*
X67095000Y42196629D01*
X67237857Y42268058D01*
X67309285Y42339486D01*
X67380714Y42482343D01*
X67380714Y42910915D01*
X67309285Y43053772D01*
X67237857Y43125200D01*
X67095000Y43196629D01*
X66809285Y43196629D01*
X66666428Y43125200D01*
X65309285Y42196629D02*
X65309285Y42982343D01*
X65380714Y43125200D01*
X65523571Y43196629D01*
X65809285Y43196629D01*
X65952142Y43125200D01*
X65309285Y42268058D02*
X65452142Y42196629D01*
X65809285Y42196629D01*
X65952142Y42268058D01*
X66023571Y42410915D01*
X66023571Y42553772D01*
X65952142Y42696629D01*
X65809285Y42768058D01*
X65452142Y42768058D01*
X65309285Y42839486D01*
X64595000Y43196629D02*
X64595000Y41696629D01*
X64595000Y43125200D02*
X64452142Y43196629D01*
X64166428Y43196629D01*
X64023571Y43125200D01*
X63952142Y43053772D01*
X63880714Y42910915D01*
X63880714Y42482343D01*
X63952142Y42339486D01*
X64023571Y42268058D01*
X64166428Y42196629D01*
X64452142Y42196629D01*
X64595000Y42268058D01*
X63452142Y43196629D02*
X62880714Y43196629D01*
X63237857Y43696629D02*
X63237857Y42410915D01*
X63166428Y42268058D01*
X63023571Y42196629D01*
X62880714Y42196629D01*
X61809285Y42268058D02*
X61952142Y42196629D01*
X62237857Y42196629D01*
X62380714Y42268058D01*
X62452142Y42410915D01*
X62452142Y42982343D01*
X62380714Y43125200D01*
X62237857Y43196629D01*
X61952142Y43196629D01*
X61809285Y43125200D01*
X61737857Y42982343D01*
X61737857Y42839486D01*
X62452142Y42696629D01*
X61095000Y42196629D02*
X61095000Y43196629D01*
X61095000Y42910915D02*
X61023571Y43053772D01*
X60952142Y43125200D01*
X60809285Y43196629D01*
X60666428Y43196629D01*
X58166428Y42339486D02*
X58237857Y42268058D01*
X58452142Y42196629D01*
X58595000Y42196629D01*
X58809285Y42268058D01*
X58952142Y42410915D01*
X59023571Y42553772D01*
X59095000Y42839486D01*
X59095000Y43053772D01*
X59023571Y43339486D01*
X58952142Y43482343D01*
X58809285Y43625200D01*
X58595000Y43696629D01*
X58452142Y43696629D01*
X58237857Y43625200D01*
X58166428Y43553772D01*
X56880714Y42196629D02*
X56880714Y42982343D01*
X56952142Y43125200D01*
X57095000Y43196629D01*
X57380714Y43196629D01*
X57523571Y43125200D01*
X56880714Y42268058D02*
X57023571Y42196629D01*
X57380714Y42196629D01*
X57523571Y42268058D01*
X57595000Y42410915D01*
X57595000Y42553772D01*
X57523571Y42696629D01*
X57380714Y42768058D01*
X57023571Y42768058D01*
X56880714Y42839486D01*
X56166428Y42196629D02*
X56166428Y43196629D01*
X56166428Y42910915D02*
X56095000Y43053772D01*
X56023571Y43125200D01*
X55880714Y43196629D01*
X55737857Y43196629D01*
X54595000Y42196629D02*
X54595000Y43696629D01*
X54595000Y42268058D02*
X54737857Y42196629D01*
X55023571Y42196629D01*
X55166428Y42268058D01*
X55237857Y42339486D01*
X55309285Y42482343D01*
X55309285Y42910915D01*
X55237857Y43053772D01*
X55166428Y43125200D01*
X55023571Y43196629D01*
X54737857Y43196629D01*
X54595000Y43125200D01*
X68595000Y39646629D02*
X68595000Y41146629D01*
X68023571Y41146629D01*
X67880714Y41075200D01*
X67809285Y41003772D01*
X67737857Y40860915D01*
X67737857Y40646629D01*
X67809285Y40503772D01*
X67880714Y40432343D01*
X68023571Y40360915D01*
X68595000Y40360915D01*
X67095000Y39646629D02*
X67095000Y41146629D01*
X66737857Y41146629D01*
X66523571Y41075200D01*
X66380714Y40932343D01*
X66309285Y40789486D01*
X66237857Y40503772D01*
X66237857Y40289486D01*
X66309285Y40003772D01*
X66380714Y39860915D01*
X66523571Y39718058D01*
X66737857Y39646629D01*
X67095000Y39646629D01*
X64809285Y39646629D02*
X65666428Y39646629D01*
X65237857Y39646629D02*
X65237857Y41146629D01*
X65380714Y40932343D01*
X65523571Y40789486D01*
X65666428Y40718058D01*
X63880714Y41146629D02*
X63737857Y41146629D01*
X63595000Y41075200D01*
X63523571Y41003772D01*
X63452142Y40860915D01*
X63380714Y40575200D01*
X63380714Y40218058D01*
X63452142Y39932343D01*
X63523571Y39789486D01*
X63595000Y39718058D01*
X63737857Y39646629D01*
X63880714Y39646629D01*
X64023571Y39718058D01*
X64095000Y39789486D01*
X64166428Y39932343D01*
X64237857Y40218058D01*
X64237857Y40575200D01*
X64166428Y40860915D01*
X64095000Y41003772D01*
X64023571Y41075200D01*
X63880714Y41146629D01*
X62023571Y41146629D02*
X62737857Y41146629D01*
X62809285Y40432343D01*
X62737857Y40503772D01*
X62595000Y40575200D01*
X62237857Y40575200D01*
X62095000Y40503772D01*
X62023571Y40432343D01*
X61952142Y40289486D01*
X61952142Y39932343D01*
X62023571Y39789486D01*
X62095000Y39718058D01*
X62237857Y39646629D01*
X62595000Y39646629D01*
X62737857Y39718058D01*
X62809285Y39789486D01*
X61309285Y39646629D02*
X61309285Y41146629D01*
X61309285Y40432343D02*
X60452142Y40432343D01*
X60452142Y39646629D02*
X60452142Y41146629D01*
X58737857Y40646629D02*
X58380714Y39646629D01*
X58023571Y40646629D01*
X56666428Y39646629D02*
X57523571Y39646629D01*
X57095000Y39646629D02*
X57095000Y41146629D01*
X57237857Y40932343D01*
X57380714Y40789486D01*
X57523571Y40718058D01*
X56023571Y39789486D02*
X55952142Y39718058D01*
X56023571Y39646629D01*
X56095000Y39718058D01*
X56023571Y39789486D01*
X56023571Y39646629D01*
X55023571Y41146629D02*
X54880714Y41146629D01*
X54737857Y41075200D01*
X54666428Y41003772D01*
X54595000Y40860915D01*
X54523571Y40575200D01*
X54523571Y40218058D01*
X54595000Y39932343D01*
X54666428Y39789486D01*
X54737857Y39718058D01*
X54880714Y39646629D01*
X55023571Y39646629D01*
X55166428Y39718058D01*
X55237857Y39789486D01*
X55309285Y39932343D01*
X55380714Y40218058D01*
X55380714Y40575200D01*
X55309285Y40860915D01*
X55237857Y41003772D01*
X55166428Y41075200D01*
X55023571Y41146629D01*
M02*
