M48
; DRILL file {KiCad (5.1.10)-1} date 07/06/21 00:11:40
; FORMAT={-:-/ absolute / inch / decimal}
; #@! TF.CreationDate,2021-07-06T00:11:40-07:00
; #@! TF.GenerationSoftware,Kicad,Pcbnew,(5.1.10)-1
; #@! TF.FileFunction,Plated,1,2,PTH
FMAT,2
INCH
T1C0.0157
T2C0.0236
T3C0.0315
T4C0.0354
T5C0.0394
%
G90
G05
T1
X1.05Y0.413
X1.45Y0.163
X1.4803Y0.1366
X1.55Y0.138
X1.635Y0.721
X1.675Y0.913
X1.7958Y0.6422
X1.8692Y0.5688
X1.911Y0.644
X2.3Y0.413
X2.475Y0.388
X2.525Y0.238
X2.5965Y0.713
X3.286Y0.802
X3.575Y0.788
X3.6458Y0.6588
X3.675Y0.488
T2
X1.8Y0.488
T3
X0.85Y1.013
X0.85Y0.913
X0.85Y0.813
X0.85Y0.713
X0.85Y0.613
X0.85Y0.513
X0.85Y0.413
X0.85Y0.313
X1.0516Y1.113
X1.15Y1.563
X1.15Y1.263
X1.15Y1.113
X1.15Y1.013
X1.15Y0.913
X1.15Y0.813
X1.15Y0.713
X1.15Y0.613
X1.15Y0.513
X1.15Y0.413
X1.15Y0.313
X1.5965Y0.8417
X1.5965Y0.763
X1.675Y0.6755
X1.675Y0.5771
X1.6752Y0.8417
X1.6752Y0.763
X1.75Y0.413
X1.7539Y0.8417
X1.7539Y0.763
X1.8327Y0.8417
X1.8327Y0.763
X1.85Y0.413
X1.9114Y0.8417
X1.9114Y0.763
X1.95Y0.413
X1.9902Y0.8417
X1.9902Y0.763
X2.05Y0.413
X2.0689Y0.8417
X2.0689Y0.763
X2.1476Y0.8417
X2.1476Y0.763
X2.15Y0.413
X2.2264Y0.8417
X2.2264Y0.763
X2.25Y0.613
X2.25Y0.5146
X2.3051Y0.8417
X2.3051Y0.763
X2.35Y0.613
X2.35Y0.313
X2.3839Y0.8417
X2.3839Y0.763
X2.45Y0.613
X2.45Y0.313
X2.4626Y0.8417
X2.4626Y0.763
X2.5413Y0.8417
X2.5413Y0.763
X2.55Y0.613
X2.55Y0.313
X2.6201Y0.8417
X2.6201Y0.763
X2.65Y0.613
X2.65Y0.313
X2.6988Y0.8417
X2.6988Y0.763
X2.75Y0.613
X2.75Y0.313
X2.7776Y0.8417
X2.7776Y0.763
X2.85Y0.613
X2.85Y0.313
X2.8563Y0.8417
X2.8563Y0.763
X2.935Y0.8417
X2.935Y0.763
X2.95Y0.613
X2.95Y0.313
X3.0138Y0.8417
X3.0138Y0.763
X3.05Y0.613
X3.05Y0.313
X3.0925Y0.8417
X3.0925Y0.763
X3.15Y0.613
X3.15Y0.313
X3.1713Y0.8417
X3.1713Y0.763
X3.25Y0.8417
X3.25Y0.763
X3.25Y0.613
X3.25Y0.313
X3.45Y0.963
X3.45Y0.863
X3.45Y0.763
X3.45Y0.663
X3.45Y0.563
X3.45Y0.463
X3.45Y0.363
X3.6516Y1.113
X3.75Y1.113
X3.75Y0.963
X3.75Y0.863
X3.75Y0.763
X3.75Y0.663
X3.75Y0.563
X3.75Y0.463
X3.75Y0.363
T4
X1.05Y1.763
X1.15Y1.763
T5
X0.05Y0.063
X0.15Y0.063
X0.25Y0.063
X0.35Y0.063
X0.45Y0.063
X0.55Y0.063
X0.65Y0.063
X0.75Y0.063
X0.85Y0.063
X0.95Y0.063
X1.05Y0.063
X1.15Y0.063
X1.25Y0.063
X1.35Y0.063
X1.45Y0.063
X1.55Y0.063
X1.65Y0.163
X1.65Y0.063
X1.75Y0.163
X1.75Y0.063
X1.85Y0.163
X1.85Y0.063
X1.95Y0.163
X1.95Y0.063
X2.05Y0.163
X2.05Y0.063
X2.15Y0.163
X2.15Y0.063
X2.25Y0.163
X2.25Y0.063
X2.35Y0.163
X2.35Y0.063
X2.45Y0.163
X2.45Y0.063
X2.55Y0.163
X2.55Y0.063
X2.65Y0.063
X2.75Y0.063
X2.85Y0.063
X2.95Y0.063
X3.05Y0.063
X3.15Y0.063
X3.25Y0.063
X3.35Y0.063
X3.45Y0.063
X3.55Y0.063
X3.65Y0.063
X3.75Y0.063
X3.85Y0.063
T0
M30
