%TF.GenerationSoftware,KiCad,Pcbnew,(5.1.10)-1*%
%TF.CreationDate,2021-07-06T00:11:38-07:00*%
%TF.ProjectId,rc-cfcardh,72632d63-6663-4617-9264-682e6b696361,rev?*%
%TF.SameCoordinates,PX9157080PY9071968*%
%TF.FileFunction,Copper,L1,Top*%
%TF.FilePolarity,Positive*%
%FSLAX46Y46*%
G04 Gerber Fmt 4.6, Leading zero omitted, Abs format (unit mm)*
G04 Created by KiCad (PCBNEW (5.1.10)-1) date 2021-07-06 00:11:38*
%MOMM*%
%LPD*%
G01*
G04 APERTURE LIST*
%TA.AperFunction,EtchedComponent*%
%ADD10C,0.010000*%
%TD*%
%TA.AperFunction,ComponentPad*%
%ADD11O,1.350000X1.350000*%
%TD*%
%TA.AperFunction,ComponentPad*%
%ADD12O,1.700000X1.700000*%
%TD*%
%TA.AperFunction,ComponentPad*%
%ADD13C,1.700000*%
%TD*%
%TA.AperFunction,ComponentPad*%
%ADD14O,1.600000X2.400000*%
%TD*%
%TA.AperFunction,ComponentPad*%
%ADD15C,1.600000*%
%TD*%
%TA.AperFunction,ComponentPad*%
%ADD16O,2.400000X1.600000*%
%TD*%
%TA.AperFunction,ComponentPad*%
%ADD17O,1.600000X1.600000*%
%TD*%
%TA.AperFunction,ComponentPad*%
%ADD18C,1.800000*%
%TD*%
%TA.AperFunction,ViaPad*%
%ADD19C,0.600000*%
%TD*%
%TA.AperFunction,ViaPad*%
%ADD20C,0.900001*%
%TD*%
%TA.AperFunction,Conductor*%
%ADD21C,0.635000*%
%TD*%
%TA.AperFunction,Conductor*%
%ADD22C,0.200000*%
%TD*%
%TA.AperFunction,Conductor*%
%ADD23C,0.508000*%
%TD*%
%TA.AperFunction,Conductor*%
%ADD24C,0.254000*%
%TD*%
G04 APERTURE END LIST*
D10*
%TO.C,REF\u002A\u002A*%
G36*
X7213600Y15541146D02*
G01*
X7224465Y15427207D01*
X7256082Y15319584D01*
X7306985Y15220585D01*
X7375707Y15132516D01*
X7460781Y15057684D01*
X7557768Y14999816D01*
X7664036Y14960195D01*
X7771050Y14941627D01*
X7876700Y14942766D01*
X7978875Y14962270D01*
X8075466Y14998794D01*
X8164362Y15050995D01*
X8243454Y15117527D01*
X8310631Y15197048D01*
X8363783Y15288213D01*
X8400801Y15389677D01*
X8419573Y15500098D01*
X8421511Y15549994D01*
X8421511Y15637933D01*
X8473440Y15637933D01*
X8509747Y15635089D01*
X8536645Y15623289D01*
X8563751Y15599551D01*
X8602133Y15561169D01*
X8602133Y13369598D01*
X8602124Y13107461D01*
X8602092Y12866959D01*
X8602028Y12647152D01*
X8601924Y12447099D01*
X8601773Y12265856D01*
X8601566Y12102484D01*
X8601294Y11956040D01*
X8600950Y11825583D01*
X8600526Y11710171D01*
X8600013Y11608862D01*
X8599403Y11520716D01*
X8598688Y11444790D01*
X8597860Y11380143D01*
X8596911Y11325833D01*
X8595833Y11280920D01*
X8594617Y11244460D01*
X8593255Y11215513D01*
X8591739Y11193137D01*
X8590062Y11176391D01*
X8588214Y11164332D01*
X8586187Y11156020D01*
X8583975Y11150513D01*
X8582892Y11148663D01*
X8578729Y11141651D01*
X8575195Y11135204D01*
X8571365Y11129300D01*
X8566318Y11123914D01*
X8559129Y11119022D01*
X8548877Y11114602D01*
X8534636Y11110628D01*
X8515486Y11107079D01*
X8490501Y11103930D01*
X8458760Y11101158D01*
X8419338Y11098739D01*
X8371314Y11096649D01*
X8313763Y11094865D01*
X8245763Y11093363D01*
X8166390Y11092120D01*
X8074721Y11091111D01*
X7969834Y11090315D01*
X7850804Y11089706D01*
X7716710Y11089261D01*
X7566627Y11088957D01*
X7399633Y11088770D01*
X7214804Y11088676D01*
X7011217Y11088652D01*
X6787950Y11088675D01*
X6544078Y11088720D01*
X6278679Y11088763D01*
X6240296Y11088768D01*
X5973318Y11088811D01*
X5727998Y11088882D01*
X5503417Y11088987D01*
X5298655Y11089134D01*
X5112794Y11089331D01*
X4944912Y11089584D01*
X4794092Y11089900D01*
X4659413Y11090287D01*
X4539956Y11090753D01*
X4434801Y11091303D01*
X4343029Y11091947D01*
X4263721Y11092689D01*
X4195957Y11093539D01*
X4138818Y11094503D01*
X4091383Y11095589D01*
X4052734Y11096803D01*
X4021951Y11098153D01*
X3998115Y11099645D01*
X3980306Y11101289D01*
X3967605Y11103089D01*
X3959092Y11105055D01*
X3954734Y11106723D01*
X3946272Y11110294D01*
X3938503Y11112930D01*
X3931398Y11115566D01*
X3924927Y11119138D01*
X3919061Y11124579D01*
X3913771Y11132825D01*
X3909026Y11144810D01*
X3904798Y11161469D01*
X3901057Y11183737D01*
X3897773Y11212548D01*
X3894917Y11248837D01*
X3892460Y11293539D01*
X3890371Y11347589D01*
X3888622Y11411921D01*
X3887183Y11487470D01*
X3886024Y11575170D01*
X3885117Y11675957D01*
X3884431Y11790766D01*
X3883937Y11920530D01*
X3883605Y12066185D01*
X3883407Y12228665D01*
X3883313Y12408905D01*
X3883292Y12607840D01*
X3883315Y12826404D01*
X3883354Y13065532D01*
X3883378Y13326160D01*
X3883378Y13368311D01*
X3883364Y13631208D01*
X3883339Y13872468D01*
X3883329Y14093035D01*
X3883358Y14293848D01*
X3883452Y14475851D01*
X3883638Y14639984D01*
X3883941Y14787189D01*
X3884386Y14918408D01*
X3884966Y15028333D01*
X4187803Y15028333D01*
X4227593Y14970489D01*
X4238764Y14954721D01*
X4248834Y14940759D01*
X4257862Y14927416D01*
X4265903Y14913507D01*
X4273014Y14897844D01*
X4279253Y14879242D01*
X4284675Y14856514D01*
X4289338Y14828473D01*
X4293299Y14793933D01*
X4296615Y14751708D01*
X4299341Y14700611D01*
X4301536Y14639456D01*
X4303255Y14567056D01*
X4304556Y14482225D01*
X4305495Y14383778D01*
X4306130Y14270526D01*
X4306516Y14141284D01*
X4306712Y13994866D01*
X4306773Y13830084D01*
X4306757Y13645753D01*
X4306720Y13440687D01*
X4306711Y13318067D01*
X4306735Y13101118D01*
X4306769Y12905558D01*
X4306757Y12730201D01*
X4306642Y12573859D01*
X4306370Y12435343D01*
X4305882Y12313466D01*
X4305124Y12207040D01*
X4304038Y12114878D01*
X4302569Y12035791D01*
X4300660Y11968592D01*
X4298256Y11912093D01*
X4295299Y11865107D01*
X4291734Y11826445D01*
X4287505Y11794920D01*
X4282554Y11769345D01*
X4276827Y11748530D01*
X4270267Y11731289D01*
X4262817Y11716435D01*
X4254421Y11702778D01*
X4245024Y11689131D01*
X4234568Y11674307D01*
X4228477Y11665417D01*
X4189704Y11607800D01*
X4721268Y11607800D01*
X4844517Y11607835D01*
X4947013Y11607985D01*
X5030580Y11608322D01*
X5097044Y11608914D01*
X5148229Y11609833D01*
X5185959Y11611149D01*
X5212060Y11612931D01*
X5228356Y11615249D01*
X5236672Y11618174D01*
X5238832Y11621776D01*
X5236661Y11626125D01*
X5235465Y11627555D01*
X5210315Y11664627D01*
X5184417Y11717428D01*
X5160808Y11779430D01*
X5152539Y11805843D01*
X5147922Y11823784D01*
X5144021Y11844845D01*
X5140752Y11871111D01*
X5138034Y11904668D01*
X5135785Y11947601D01*
X5133923Y12001996D01*
X5132364Y12069938D01*
X5131028Y12153512D01*
X5129831Y12254805D01*
X5128692Y12375900D01*
X5128315Y12420600D01*
X5127298Y12545751D01*
X5126540Y12650118D01*
X5126097Y12735493D01*
X5126030Y12803667D01*
X5126395Y12856435D01*
X5127252Y12895586D01*
X5128659Y12922915D01*
X5130675Y12940214D01*
X5133357Y12949274D01*
X5136764Y12951888D01*
X5140956Y12949849D01*
X5145429Y12945533D01*
X5155784Y12932598D01*
X5177842Y12903524D01*
X5210043Y12860441D01*
X5250826Y12805482D01*
X5298630Y12740777D01*
X5351895Y12668458D01*
X5409060Y12590656D01*
X5468563Y12509502D01*
X5528845Y12427128D01*
X5588345Y12345664D01*
X5645502Y12267243D01*
X5698755Y12193996D01*
X5746543Y12128053D01*
X5787307Y12071546D01*
X5819484Y12026607D01*
X5841515Y11995366D01*
X5846083Y11988734D01*
X5869004Y11951831D01*
X5895812Y11903841D01*
X5921211Y11854303D01*
X5924432Y11847623D01*
X5946110Y11799428D01*
X5958696Y11761866D01*
X5964426Y11726040D01*
X5965544Y11684000D01*
X5964910Y11607800D01*
X7119349Y11607800D01*
X7028185Y11701531D01*
X6981388Y11751425D01*
X6931101Y11807905D01*
X6885056Y11862174D01*
X6864631Y11887527D01*
X6834193Y11927072D01*
X6794138Y11980284D01*
X6745639Y12045533D01*
X6689865Y12121189D01*
X6627989Y12205623D01*
X6561181Y12297206D01*
X6490613Y12394308D01*
X6417455Y12495299D01*
X6342879Y12598550D01*
X6268056Y12702432D01*
X6194157Y12805315D01*
X6122354Y12905569D01*
X6053816Y13001564D01*
X5989716Y13091673D01*
X5931225Y13174264D01*
X5879514Y13247708D01*
X5835753Y13310376D01*
X5801115Y13360639D01*
X5776770Y13396866D01*
X5763889Y13417429D01*
X5762131Y13421532D01*
X5770090Y13432858D01*
X5790885Y13460038D01*
X5823153Y13501371D01*
X5865530Y13555156D01*
X5916653Y13619694D01*
X5975159Y13693282D01*
X6039686Y13774222D01*
X6108869Y13860812D01*
X6181347Y13951352D01*
X6255754Y14044140D01*
X6315483Y14118498D01*
X7326489Y14118498D01*
X7332398Y14105541D01*
X7346728Y14083292D01*
X7347775Y14081809D01*
X7366562Y14051656D01*
X7386209Y14014825D01*
X7390108Y14006689D01*
X7393644Y13998260D01*
X7396770Y13988141D01*
X7399514Y13974940D01*
X7401908Y13957262D01*
X7403981Y13933716D01*
X7405765Y13902907D01*
X7407288Y13863443D01*
X7408581Y13813931D01*
X7409674Y13752977D01*
X7410597Y13679189D01*
X7411381Y13591172D01*
X7412055Y13487535D01*
X7412650Y13366884D01*
X7413195Y13227826D01*
X7413721Y13068968D01*
X7414255Y12890111D01*
X7414794Y12704993D01*
X7415228Y12541055D01*
X7415491Y12396897D01*
X7415516Y12271121D01*
X7415235Y12162329D01*
X7414581Y12069123D01*
X7413486Y11990103D01*
X7411882Y11923872D01*
X7409703Y11869030D01*
X7406881Y11824179D01*
X7403349Y11787922D01*
X7399039Y11758859D01*
X7393883Y11735591D01*
X7387815Y11716721D01*
X7380767Y11700849D01*
X7372671Y11686578D01*
X7363460Y11672509D01*
X7354960Y11660042D01*
X7337824Y11633748D01*
X7327678Y11616163D01*
X7326489Y11612943D01*
X7337396Y11611866D01*
X7368589Y11610865D01*
X7417777Y11609965D01*
X7482667Y11609190D01*
X7560970Y11608563D01*
X7650393Y11608109D01*
X7748644Y11607851D01*
X7817555Y11607800D01*
X7922548Y11608020D01*
X8019390Y11608652D01*
X8105893Y11609651D01*
X8179868Y11610973D01*
X8239126Y11612574D01*
X8281480Y11614409D01*
X8304740Y11616435D01*
X8308622Y11617707D01*
X8300924Y11632609D01*
X8292926Y11640640D01*
X8279754Y11657766D01*
X8262515Y11688017D01*
X8250593Y11712578D01*
X8223955Y11771489D01*
X8220880Y12948355D01*
X8217805Y14125222D01*
X7772147Y14125222D01*
X7674330Y14125058D01*
X7583936Y14124589D01*
X7503370Y14123853D01*
X7435038Y14122884D01*
X7381344Y14121720D01*
X7344695Y14120397D01*
X7327496Y14118951D01*
X7326489Y14118498D01*
X6315483Y14118498D01*
X6330730Y14137478D01*
X6404910Y14229663D01*
X6476931Y14318996D01*
X6545431Y14403776D01*
X6609045Y14482302D01*
X6666412Y14552874D01*
X6716167Y14613791D01*
X6756948Y14663353D01*
X6774112Y14684022D01*
X6860404Y14784684D01*
X6937003Y14867941D01*
X7005817Y14935762D01*
X7068752Y14990111D01*
X7078133Y14997478D01*
X7117644Y15028083D01*
X5985884Y15028333D01*
X5991173Y14980356D01*
X5987870Y14923012D01*
X5966339Y14854737D01*
X5926365Y14774988D01*
X5881057Y14702705D01*
X5864839Y14680060D01*
X5836786Y14642504D01*
X5798570Y14592179D01*
X5751863Y14531227D01*
X5698339Y14461789D01*
X5639669Y14386006D01*
X5577525Y14306020D01*
X5513579Y14223972D01*
X5449505Y14142004D01*
X5386973Y14062257D01*
X5327657Y13986873D01*
X5273229Y13917993D01*
X5225361Y13857758D01*
X5185725Y13808311D01*
X5155994Y13771792D01*
X5137839Y13750342D01*
X5134780Y13747044D01*
X5131921Y13755051D01*
X5129707Y13785345D01*
X5128143Y13837644D01*
X5127233Y13911669D01*
X5126980Y14007137D01*
X5127387Y14123766D01*
X5128296Y14243755D01*
X5129618Y14375867D01*
X5131143Y14487606D01*
X5133119Y14581175D01*
X5135794Y14658781D01*
X5139418Y14722626D01*
X5144239Y14774917D01*
X5150506Y14817856D01*
X5158468Y14853649D01*
X5168373Y14884500D01*
X5180469Y14912614D01*
X5195007Y14940195D01*
X5209689Y14965234D01*
X5247686Y15028333D01*
X4187803Y15028333D01*
X3884966Y15028333D01*
X3884999Y15034583D01*
X3885805Y15136656D01*
X3886830Y15225567D01*
X3888100Y15302259D01*
X3889640Y15367673D01*
X3891476Y15422751D01*
X3893633Y15468435D01*
X3896137Y15505666D01*
X3899013Y15535387D01*
X3902287Y15558538D01*
X3905985Y15576061D01*
X3910131Y15588899D01*
X3914753Y15597992D01*
X3919874Y15604282D01*
X3925522Y15608712D01*
X3931721Y15612222D01*
X3938496Y15615755D01*
X3944492Y15619324D01*
X3949725Y15621900D01*
X3957901Y15624228D01*
X3970114Y15626322D01*
X3987459Y15628193D01*
X4011031Y15629853D01*
X4041923Y15631316D01*
X4081232Y15632592D01*
X4130050Y15633696D01*
X4189473Y15634639D01*
X4260596Y15635433D01*
X4344512Y15636091D01*
X4442317Y15636625D01*
X4555106Y15637047D01*
X4683971Y15637371D01*
X4830009Y15637608D01*
X4994314Y15637770D01*
X5177980Y15637870D01*
X5382103Y15637920D01*
X5593247Y15637933D01*
X7213600Y15637933D01*
X7213600Y15541146D01*
G37*
X7213600Y15541146D02*
X7224465Y15427207D01*
X7256082Y15319584D01*
X7306985Y15220585D01*
X7375707Y15132516D01*
X7460781Y15057684D01*
X7557768Y14999816D01*
X7664036Y14960195D01*
X7771050Y14941627D01*
X7876700Y14942766D01*
X7978875Y14962270D01*
X8075466Y14998794D01*
X8164362Y15050995D01*
X8243454Y15117527D01*
X8310631Y15197048D01*
X8363783Y15288213D01*
X8400801Y15389677D01*
X8419573Y15500098D01*
X8421511Y15549994D01*
X8421511Y15637933D01*
X8473440Y15637933D01*
X8509747Y15635089D01*
X8536645Y15623289D01*
X8563751Y15599551D01*
X8602133Y15561169D01*
X8602133Y13369598D01*
X8602124Y13107461D01*
X8602092Y12866959D01*
X8602028Y12647152D01*
X8601924Y12447099D01*
X8601773Y12265856D01*
X8601566Y12102484D01*
X8601294Y11956040D01*
X8600950Y11825583D01*
X8600526Y11710171D01*
X8600013Y11608862D01*
X8599403Y11520716D01*
X8598688Y11444790D01*
X8597860Y11380143D01*
X8596911Y11325833D01*
X8595833Y11280920D01*
X8594617Y11244460D01*
X8593255Y11215513D01*
X8591739Y11193137D01*
X8590062Y11176391D01*
X8588214Y11164332D01*
X8586187Y11156020D01*
X8583975Y11150513D01*
X8582892Y11148663D01*
X8578729Y11141651D01*
X8575195Y11135204D01*
X8571365Y11129300D01*
X8566318Y11123914D01*
X8559129Y11119022D01*
X8548877Y11114602D01*
X8534636Y11110628D01*
X8515486Y11107079D01*
X8490501Y11103930D01*
X8458760Y11101158D01*
X8419338Y11098739D01*
X8371314Y11096649D01*
X8313763Y11094865D01*
X8245763Y11093363D01*
X8166390Y11092120D01*
X8074721Y11091111D01*
X7969834Y11090315D01*
X7850804Y11089706D01*
X7716710Y11089261D01*
X7566627Y11088957D01*
X7399633Y11088770D01*
X7214804Y11088676D01*
X7011217Y11088652D01*
X6787950Y11088675D01*
X6544078Y11088720D01*
X6278679Y11088763D01*
X6240296Y11088768D01*
X5973318Y11088811D01*
X5727998Y11088882D01*
X5503417Y11088987D01*
X5298655Y11089134D01*
X5112794Y11089331D01*
X4944912Y11089584D01*
X4794092Y11089900D01*
X4659413Y11090287D01*
X4539956Y11090753D01*
X4434801Y11091303D01*
X4343029Y11091947D01*
X4263721Y11092689D01*
X4195957Y11093539D01*
X4138818Y11094503D01*
X4091383Y11095589D01*
X4052734Y11096803D01*
X4021951Y11098153D01*
X3998115Y11099645D01*
X3980306Y11101289D01*
X3967605Y11103089D01*
X3959092Y11105055D01*
X3954734Y11106723D01*
X3946272Y11110294D01*
X3938503Y11112930D01*
X3931398Y11115566D01*
X3924927Y11119138D01*
X3919061Y11124579D01*
X3913771Y11132825D01*
X3909026Y11144810D01*
X3904798Y11161469D01*
X3901057Y11183737D01*
X3897773Y11212548D01*
X3894917Y11248837D01*
X3892460Y11293539D01*
X3890371Y11347589D01*
X3888622Y11411921D01*
X3887183Y11487470D01*
X3886024Y11575170D01*
X3885117Y11675957D01*
X3884431Y11790766D01*
X3883937Y11920530D01*
X3883605Y12066185D01*
X3883407Y12228665D01*
X3883313Y12408905D01*
X3883292Y12607840D01*
X3883315Y12826404D01*
X3883354Y13065532D01*
X3883378Y13326160D01*
X3883378Y13368311D01*
X3883364Y13631208D01*
X3883339Y13872468D01*
X3883329Y14093035D01*
X3883358Y14293848D01*
X3883452Y14475851D01*
X3883638Y14639984D01*
X3883941Y14787189D01*
X3884386Y14918408D01*
X3884966Y15028333D01*
X4187803Y15028333D01*
X4227593Y14970489D01*
X4238764Y14954721D01*
X4248834Y14940759D01*
X4257862Y14927416D01*
X4265903Y14913507D01*
X4273014Y14897844D01*
X4279253Y14879242D01*
X4284675Y14856514D01*
X4289338Y14828473D01*
X4293299Y14793933D01*
X4296615Y14751708D01*
X4299341Y14700611D01*
X4301536Y14639456D01*
X4303255Y14567056D01*
X4304556Y14482225D01*
X4305495Y14383778D01*
X4306130Y14270526D01*
X4306516Y14141284D01*
X4306712Y13994866D01*
X4306773Y13830084D01*
X4306757Y13645753D01*
X4306720Y13440687D01*
X4306711Y13318067D01*
X4306735Y13101118D01*
X4306769Y12905558D01*
X4306757Y12730201D01*
X4306642Y12573859D01*
X4306370Y12435343D01*
X4305882Y12313466D01*
X4305124Y12207040D01*
X4304038Y12114878D01*
X4302569Y12035791D01*
X4300660Y11968592D01*
X4298256Y11912093D01*
X4295299Y11865107D01*
X4291734Y11826445D01*
X4287505Y11794920D01*
X4282554Y11769345D01*
X4276827Y11748530D01*
X4270267Y11731289D01*
X4262817Y11716435D01*
X4254421Y11702778D01*
X4245024Y11689131D01*
X4234568Y11674307D01*
X4228477Y11665417D01*
X4189704Y11607800D01*
X4721268Y11607800D01*
X4844517Y11607835D01*
X4947013Y11607985D01*
X5030580Y11608322D01*
X5097044Y11608914D01*
X5148229Y11609833D01*
X5185959Y11611149D01*
X5212060Y11612931D01*
X5228356Y11615249D01*
X5236672Y11618174D01*
X5238832Y11621776D01*
X5236661Y11626125D01*
X5235465Y11627555D01*
X5210315Y11664627D01*
X5184417Y11717428D01*
X5160808Y11779430D01*
X5152539Y11805843D01*
X5147922Y11823784D01*
X5144021Y11844845D01*
X5140752Y11871111D01*
X5138034Y11904668D01*
X5135785Y11947601D01*
X5133923Y12001996D01*
X5132364Y12069938D01*
X5131028Y12153512D01*
X5129831Y12254805D01*
X5128692Y12375900D01*
X5128315Y12420600D01*
X5127298Y12545751D01*
X5126540Y12650118D01*
X5126097Y12735493D01*
X5126030Y12803667D01*
X5126395Y12856435D01*
X5127252Y12895586D01*
X5128659Y12922915D01*
X5130675Y12940214D01*
X5133357Y12949274D01*
X5136764Y12951888D01*
X5140956Y12949849D01*
X5145429Y12945533D01*
X5155784Y12932598D01*
X5177842Y12903524D01*
X5210043Y12860441D01*
X5250826Y12805482D01*
X5298630Y12740777D01*
X5351895Y12668458D01*
X5409060Y12590656D01*
X5468563Y12509502D01*
X5528845Y12427128D01*
X5588345Y12345664D01*
X5645502Y12267243D01*
X5698755Y12193996D01*
X5746543Y12128053D01*
X5787307Y12071546D01*
X5819484Y12026607D01*
X5841515Y11995366D01*
X5846083Y11988734D01*
X5869004Y11951831D01*
X5895812Y11903841D01*
X5921211Y11854303D01*
X5924432Y11847623D01*
X5946110Y11799428D01*
X5958696Y11761866D01*
X5964426Y11726040D01*
X5965544Y11684000D01*
X5964910Y11607800D01*
X7119349Y11607800D01*
X7028185Y11701531D01*
X6981388Y11751425D01*
X6931101Y11807905D01*
X6885056Y11862174D01*
X6864631Y11887527D01*
X6834193Y11927072D01*
X6794138Y11980284D01*
X6745639Y12045533D01*
X6689865Y12121189D01*
X6627989Y12205623D01*
X6561181Y12297206D01*
X6490613Y12394308D01*
X6417455Y12495299D01*
X6342879Y12598550D01*
X6268056Y12702432D01*
X6194157Y12805315D01*
X6122354Y12905569D01*
X6053816Y13001564D01*
X5989716Y13091673D01*
X5931225Y13174264D01*
X5879514Y13247708D01*
X5835753Y13310376D01*
X5801115Y13360639D01*
X5776770Y13396866D01*
X5763889Y13417429D01*
X5762131Y13421532D01*
X5770090Y13432858D01*
X5790885Y13460038D01*
X5823153Y13501371D01*
X5865530Y13555156D01*
X5916653Y13619694D01*
X5975159Y13693282D01*
X6039686Y13774222D01*
X6108869Y13860812D01*
X6181347Y13951352D01*
X6255754Y14044140D01*
X6315483Y14118498D01*
X7326489Y14118498D01*
X7332398Y14105541D01*
X7346728Y14083292D01*
X7347775Y14081809D01*
X7366562Y14051656D01*
X7386209Y14014825D01*
X7390108Y14006689D01*
X7393644Y13998260D01*
X7396770Y13988141D01*
X7399514Y13974940D01*
X7401908Y13957262D01*
X7403981Y13933716D01*
X7405765Y13902907D01*
X7407288Y13863443D01*
X7408581Y13813931D01*
X7409674Y13752977D01*
X7410597Y13679189D01*
X7411381Y13591172D01*
X7412055Y13487535D01*
X7412650Y13366884D01*
X7413195Y13227826D01*
X7413721Y13068968D01*
X7414255Y12890111D01*
X7414794Y12704993D01*
X7415228Y12541055D01*
X7415491Y12396897D01*
X7415516Y12271121D01*
X7415235Y12162329D01*
X7414581Y12069123D01*
X7413486Y11990103D01*
X7411882Y11923872D01*
X7409703Y11869030D01*
X7406881Y11824179D01*
X7403349Y11787922D01*
X7399039Y11758859D01*
X7393883Y11735591D01*
X7387815Y11716721D01*
X7380767Y11700849D01*
X7372671Y11686578D01*
X7363460Y11672509D01*
X7354960Y11660042D01*
X7337824Y11633748D01*
X7327678Y11616163D01*
X7326489Y11612943D01*
X7337396Y11611866D01*
X7368589Y11610865D01*
X7417777Y11609965D01*
X7482667Y11609190D01*
X7560970Y11608563D01*
X7650393Y11608109D01*
X7748644Y11607851D01*
X7817555Y11607800D01*
X7922548Y11608020D01*
X8019390Y11608652D01*
X8105893Y11609651D01*
X8179868Y11610973D01*
X8239126Y11612574D01*
X8281480Y11614409D01*
X8304740Y11616435D01*
X8308622Y11617707D01*
X8300924Y11632609D01*
X8292926Y11640640D01*
X8279754Y11657766D01*
X8262515Y11688017D01*
X8250593Y11712578D01*
X8223955Y11771489D01*
X8220880Y12948355D01*
X8217805Y14125222D01*
X7772147Y14125222D01*
X7674330Y14125058D01*
X7583936Y14124589D01*
X7503370Y14123853D01*
X7435038Y14122884D01*
X7381344Y14121720D01*
X7344695Y14120397D01*
X7327496Y14118951D01*
X7326489Y14118498D01*
X6315483Y14118498D01*
X6330730Y14137478D01*
X6404910Y14229663D01*
X6476931Y14318996D01*
X6545431Y14403776D01*
X6609045Y14482302D01*
X6666412Y14552874D01*
X6716167Y14613791D01*
X6756948Y14663353D01*
X6774112Y14684022D01*
X6860404Y14784684D01*
X6937003Y14867941D01*
X7005817Y14935762D01*
X7068752Y14990111D01*
X7078133Y14997478D01*
X7117644Y15028083D01*
X5985884Y15028333D01*
X5991173Y14980356D01*
X5987870Y14923012D01*
X5966339Y14854737D01*
X5926365Y14774988D01*
X5881057Y14702705D01*
X5864839Y14680060D01*
X5836786Y14642504D01*
X5798570Y14592179D01*
X5751863Y14531227D01*
X5698339Y14461789D01*
X5639669Y14386006D01*
X5577525Y14306020D01*
X5513579Y14223972D01*
X5449505Y14142004D01*
X5386973Y14062257D01*
X5327657Y13986873D01*
X5273229Y13917993D01*
X5225361Y13857758D01*
X5185725Y13808311D01*
X5155994Y13771792D01*
X5137839Y13750342D01*
X5134780Y13747044D01*
X5131921Y13755051D01*
X5129707Y13785345D01*
X5128143Y13837644D01*
X5127233Y13911669D01*
X5126980Y14007137D01*
X5127387Y14123766D01*
X5128296Y14243755D01*
X5129618Y14375867D01*
X5131143Y14487606D01*
X5133119Y14581175D01*
X5135794Y14658781D01*
X5139418Y14722626D01*
X5144239Y14774917D01*
X5150506Y14817856D01*
X5158468Y14853649D01*
X5168373Y14884500D01*
X5180469Y14912614D01*
X5195007Y14940195D01*
X5209689Y14965234D01*
X5247686Y15028333D01*
X4187803Y15028333D01*
X3884966Y15028333D01*
X3884999Y15034583D01*
X3885805Y15136656D01*
X3886830Y15225567D01*
X3888100Y15302259D01*
X3889640Y15367673D01*
X3891476Y15422751D01*
X3893633Y15468435D01*
X3896137Y15505666D01*
X3899013Y15535387D01*
X3902287Y15558538D01*
X3905985Y15576061D01*
X3910131Y15588899D01*
X3914753Y15597992D01*
X3919874Y15604282D01*
X3925522Y15608712D01*
X3931721Y15612222D01*
X3938496Y15615755D01*
X3944492Y15619324D01*
X3949725Y15621900D01*
X3957901Y15624228D01*
X3970114Y15626322D01*
X3987459Y15628193D01*
X4011031Y15629853D01*
X4041923Y15631316D01*
X4081232Y15632592D01*
X4130050Y15633696D01*
X4189473Y15634639D01*
X4260596Y15635433D01*
X4344512Y15636091D01*
X4442317Y15636625D01*
X4555106Y15637047D01*
X4683971Y15637371D01*
X4830009Y15637608D01*
X4994314Y15637770D01*
X5177980Y15637870D01*
X5382103Y15637920D01*
X5593247Y15637933D01*
X7213600Y15637933D01*
X7213600Y15541146D01*
G36*
X10488429Y15081129D02*
G01*
X10648570Y15059955D01*
X10812510Y15019815D01*
X10982313Y14960311D01*
X11160043Y14881046D01*
X11171310Y14875501D01*
X11229005Y14847475D01*
X11280552Y14823398D01*
X11322191Y14804951D01*
X11350162Y14793814D01*
X11359733Y14791267D01*
X11378950Y14786259D01*
X11383561Y14782053D01*
X11378458Y14771620D01*
X11362418Y14745332D01*
X11337288Y14705943D01*
X11304914Y14656209D01*
X11267143Y14598885D01*
X11225822Y14536724D01*
X11182798Y14472482D01*
X11139917Y14408915D01*
X11099026Y14348775D01*
X11061971Y14294820D01*
X11030600Y14249803D01*
X11006759Y14216479D01*
X10992294Y14197603D01*
X10990309Y14195413D01*
X10980191Y14200062D01*
X10957850Y14217238D01*
X10927280Y14243760D01*
X10911536Y14258236D01*
X10815047Y14333518D01*
X10708336Y14388959D01*
X10592832Y14424059D01*
X10469962Y14438320D01*
X10400561Y14437149D01*
X10279423Y14419988D01*
X10170205Y14384106D01*
X10072582Y14329241D01*
X9986228Y14255130D01*
X9910815Y14161512D01*
X9846018Y14048124D01*
X9808601Y13961533D01*
X9764748Y13825834D01*
X9732428Y13678350D01*
X9711557Y13522886D01*
X9702051Y13363244D01*
X9703827Y13203227D01*
X9716803Y13046639D01*
X9740894Y12897282D01*
X9776018Y12758960D01*
X9822092Y12635476D01*
X9838373Y12601222D01*
X9906620Y12487136D01*
X9987079Y12390643D01*
X10078570Y12312530D01*
X10179911Y12253583D01*
X10289920Y12214588D01*
X10407415Y12196332D01*
X10448883Y12194989D01*
X10570441Y12205910D01*
X10690878Y12238726D01*
X10808666Y12292761D01*
X10922277Y12367335D01*
X11013685Y12445661D01*
X11060215Y12490192D01*
X11241483Y12192929D01*
X11286580Y12118767D01*
X11327819Y12050554D01*
X11363735Y11990741D01*
X11392866Y11941780D01*
X11413750Y11906121D01*
X11424924Y11886216D01*
X11426375Y11883121D01*
X11418146Y11873482D01*
X11392567Y11856201D01*
X11352873Y11832917D01*
X11302297Y11805266D01*
X11244074Y11774885D01*
X11181437Y11743410D01*
X11117621Y11712478D01*
X11055860Y11683727D01*
X10999388Y11658792D01*
X10951438Y11639311D01*
X10927986Y11630882D01*
X10794221Y11593067D01*
X10656327Y11568064D01*
X10508622Y11555060D01*
X10381833Y11552732D01*
X10313878Y11553827D01*
X10248277Y11555925D01*
X10190847Y11558766D01*
X10147403Y11562094D01*
X10133298Y11563778D01*
X9994284Y11592613D01*
X9852757Y11637732D01*
X9715275Y11696450D01*
X9588394Y11766080D01*
X9510889Y11818759D01*
X9383481Y11926961D01*
X9265178Y12053529D01*
X9158172Y12195334D01*
X9064652Y12349249D01*
X8986810Y12512147D01*
X8942956Y12629444D01*
X8892708Y12813072D01*
X8859209Y13007619D01*
X8842449Y13208875D01*
X8842416Y13412632D01*
X8859101Y13614679D01*
X8892493Y13810808D01*
X8942580Y13996809D01*
X8946397Y14008397D01*
X9009281Y14170450D01*
X9086028Y14318368D01*
X9179242Y14456335D01*
X9291527Y14588539D01*
X9335392Y14633801D01*
X9471534Y14757743D01*
X9611491Y14860285D01*
X9757411Y14942544D01*
X9911442Y15005636D01*
X10075732Y15050677D01*
X10171289Y15068167D01*
X10330023Y15083734D01*
X10488429Y15081129D01*
G37*
X10488429Y15081129D02*
X10648570Y15059955D01*
X10812510Y15019815D01*
X10982313Y14960311D01*
X11160043Y14881046D01*
X11171310Y14875501D01*
X11229005Y14847475D01*
X11280552Y14823398D01*
X11322191Y14804951D01*
X11350162Y14793814D01*
X11359733Y14791267D01*
X11378950Y14786259D01*
X11383561Y14782053D01*
X11378458Y14771620D01*
X11362418Y14745332D01*
X11337288Y14705943D01*
X11304914Y14656209D01*
X11267143Y14598885D01*
X11225822Y14536724D01*
X11182798Y14472482D01*
X11139917Y14408915D01*
X11099026Y14348775D01*
X11061971Y14294820D01*
X11030600Y14249803D01*
X11006759Y14216479D01*
X10992294Y14197603D01*
X10990309Y14195413D01*
X10980191Y14200062D01*
X10957850Y14217238D01*
X10927280Y14243760D01*
X10911536Y14258236D01*
X10815047Y14333518D01*
X10708336Y14388959D01*
X10592832Y14424059D01*
X10469962Y14438320D01*
X10400561Y14437149D01*
X10279423Y14419988D01*
X10170205Y14384106D01*
X10072582Y14329241D01*
X9986228Y14255130D01*
X9910815Y14161512D01*
X9846018Y14048124D01*
X9808601Y13961533D01*
X9764748Y13825834D01*
X9732428Y13678350D01*
X9711557Y13522886D01*
X9702051Y13363244D01*
X9703827Y13203227D01*
X9716803Y13046639D01*
X9740894Y12897282D01*
X9776018Y12758960D01*
X9822092Y12635476D01*
X9838373Y12601222D01*
X9906620Y12487136D01*
X9987079Y12390643D01*
X10078570Y12312530D01*
X10179911Y12253583D01*
X10289920Y12214588D01*
X10407415Y12196332D01*
X10448883Y12194989D01*
X10570441Y12205910D01*
X10690878Y12238726D01*
X10808666Y12292761D01*
X10922277Y12367335D01*
X11013685Y12445661D01*
X11060215Y12490192D01*
X11241483Y12192929D01*
X11286580Y12118767D01*
X11327819Y12050554D01*
X11363735Y11990741D01*
X11392866Y11941780D01*
X11413750Y11906121D01*
X11424924Y11886216D01*
X11426375Y11883121D01*
X11418146Y11873482D01*
X11392567Y11856201D01*
X11352873Y11832917D01*
X11302297Y11805266D01*
X11244074Y11774885D01*
X11181437Y11743410D01*
X11117621Y11712478D01*
X11055860Y11683727D01*
X10999388Y11658792D01*
X10951438Y11639311D01*
X10927986Y11630882D01*
X10794221Y11593067D01*
X10656327Y11568064D01*
X10508622Y11555060D01*
X10381833Y11552732D01*
X10313878Y11553827D01*
X10248277Y11555925D01*
X10190847Y11558766D01*
X10147403Y11562094D01*
X10133298Y11563778D01*
X9994284Y11592613D01*
X9852757Y11637732D01*
X9715275Y11696450D01*
X9588394Y11766080D01*
X9510889Y11818759D01*
X9383481Y11926961D01*
X9265178Y12053529D01*
X9158172Y12195334D01*
X9064652Y12349249D01*
X8986810Y12512147D01*
X8942956Y12629444D01*
X8892708Y12813072D01*
X8859209Y13007619D01*
X8842449Y13208875D01*
X8842416Y13412632D01*
X8859101Y13614679D01*
X8892493Y13810808D01*
X8942580Y13996809D01*
X8946397Y14008397D01*
X9009281Y14170450D01*
X9086028Y14318368D01*
X9179242Y14456335D01*
X9291527Y14588539D01*
X9335392Y14633801D01*
X9471534Y14757743D01*
X9611491Y14860285D01*
X9757411Y14942544D01*
X9911442Y15005636D01*
X10075732Y15050677D01*
X10171289Y15068167D01*
X10330023Y15083734D01*
X10488429Y15081129D01*
G36*
X12833574Y14163648D02*
G01*
X12985492Y14143633D01*
X13120756Y14109998D01*
X13240239Y14062475D01*
X13344815Y14000795D01*
X13422424Y13937235D01*
X13491265Y13863101D01*
X13545006Y13783329D01*
X13587910Y13691109D01*
X13603384Y13648039D01*
X13616244Y13609058D01*
X13627446Y13572911D01*
X13637120Y13537766D01*
X13645396Y13501790D01*
X13652403Y13463150D01*
X13658272Y13420015D01*
X13663131Y13370551D01*
X13667110Y13312927D01*
X13670340Y13245309D01*
X13672949Y13165866D01*
X13675067Y13072764D01*
X13676824Y12964173D01*
X13678349Y12838258D01*
X13679772Y12693188D01*
X13681025Y12550422D01*
X13682351Y12394232D01*
X13683556Y12258961D01*
X13684766Y12142954D01*
X13686106Y12044555D01*
X13687700Y11962107D01*
X13689675Y11893954D01*
X13692156Y11838440D01*
X13695269Y11793908D01*
X13699138Y11758702D01*
X13703889Y11731166D01*
X13709648Y11709644D01*
X13716539Y11692478D01*
X13724689Y11678014D01*
X13734223Y11664594D01*
X13745266Y11650562D01*
X13749566Y11645129D01*
X13765386Y11622290D01*
X13772422Y11606737D01*
X13772444Y11606278D01*
X13761567Y11604079D01*
X13730582Y11602053D01*
X13681957Y11600258D01*
X13618163Y11598749D01*
X13541669Y11597584D01*
X13454944Y11596820D01*
X13360457Y11596514D01*
X13349550Y11596511D01*
X12926657Y11596511D01*
X12923395Y11692578D01*
X12920133Y11788644D01*
X12858044Y11737657D01*
X12760714Y11670143D01*
X12650813Y11615451D01*
X12564349Y11585222D01*
X12495278Y11570534D01*
X12411925Y11560541D01*
X12322159Y11555554D01*
X12233845Y11555887D01*
X12154851Y11561849D01*
X12118622Y11567562D01*
X11978603Y11605424D01*
X11852178Y11660268D01*
X11740260Y11731276D01*
X11643762Y11817632D01*
X11563600Y11918521D01*
X11500687Y12033124D01*
X11456312Y12159216D01*
X11443978Y12215799D01*
X11436368Y12277998D01*
X11432739Y12352837D01*
X11432245Y12386733D01*
X11432310Y12389918D01*
X12192248Y12389918D01*
X12201541Y12314867D01*
X12229728Y12251040D01*
X12278197Y12195402D01*
X12283254Y12190989D01*
X12331548Y12156163D01*
X12383257Y12133580D01*
X12443989Y12121660D01*
X12519352Y12118817D01*
X12537459Y12119222D01*
X12591278Y12121875D01*
X12631308Y12127291D01*
X12666324Y12137455D01*
X12705103Y12154350D01*
X12715745Y12159528D01*
X12776396Y12195356D01*
X12823215Y12237988D01*
X12835952Y12253227D01*
X12880622Y12309738D01*
X12880622Y12505614D01*
X12880086Y12584261D01*
X12878396Y12642212D01*
X12875428Y12681325D01*
X12871057Y12703459D01*
X12866972Y12709926D01*
X12851047Y12713089D01*
X12817264Y12715712D01*
X12770340Y12717545D01*
X12714993Y12718343D01*
X12706106Y12718358D01*
X12585330Y12713104D01*
X12482660Y12696937D01*
X12396106Y12669239D01*
X12323681Y12629392D01*
X12268751Y12582442D01*
X12224204Y12524555D01*
X12199480Y12461507D01*
X12192248Y12389918D01*
X11432310Y12389918D01*
X11434178Y12480488D01*
X11442522Y12559388D01*
X11458768Y12630610D01*
X11484405Y12701336D01*
X11508401Y12753707D01*
X11567020Y12849004D01*
X11645117Y12937030D01*
X11740315Y13016183D01*
X11850238Y13084860D01*
X11972510Y13141459D01*
X12104755Y13184379D01*
X12169422Y13199318D01*
X12305604Y13221423D01*
X12454049Y13236006D01*
X12605505Y13242387D01*
X12732064Y13240755D01*
X12893950Y13233976D01*
X12886530Y13292955D01*
X12867238Y13392108D01*
X12836104Y13472828D01*
X12792269Y13535734D01*
X12734871Y13581444D01*
X12663048Y13610578D01*
X12575941Y13623753D01*
X12472686Y13621589D01*
X12434711Y13617588D01*
X12293520Y13592420D01*
X12156707Y13551386D01*
X12062178Y13513385D01*
X12017018Y13494010D01*
X11978585Y13478440D01*
X11952234Y13468795D01*
X11944546Y13466748D01*
X11934802Y13475826D01*
X11918083Y13504795D01*
X11894232Y13553983D01*
X11863093Y13623716D01*
X11824507Y13714321D01*
X11817910Y13730111D01*
X11787853Y13802428D01*
X11760874Y13867775D01*
X11738136Y13923294D01*
X11720806Y13966128D01*
X11710048Y13993419D01*
X11706941Y14002258D01*
X11716940Y14007013D01*
X11743217Y14012290D01*
X11771489Y14015969D01*
X11801646Y14020726D01*
X11849433Y14030172D01*
X11910612Y14043380D01*
X11980946Y14059424D01*
X12056194Y14077380D01*
X12084755Y14084403D01*
X12189816Y14109991D01*
X12277480Y14130053D01*
X12352068Y14145231D01*
X12417903Y14156165D01*
X12479307Y14163496D01*
X12540602Y14167865D01*
X12606110Y14169913D01*
X12664128Y14170311D01*
X12833574Y14163648D01*
G37*
X12833574Y14163648D02*
X12985492Y14143633D01*
X13120756Y14109998D01*
X13240239Y14062475D01*
X13344815Y14000795D01*
X13422424Y13937235D01*
X13491265Y13863101D01*
X13545006Y13783329D01*
X13587910Y13691109D01*
X13603384Y13648039D01*
X13616244Y13609058D01*
X13627446Y13572911D01*
X13637120Y13537766D01*
X13645396Y13501790D01*
X13652403Y13463150D01*
X13658272Y13420015D01*
X13663131Y13370551D01*
X13667110Y13312927D01*
X13670340Y13245309D01*
X13672949Y13165866D01*
X13675067Y13072764D01*
X13676824Y12964173D01*
X13678349Y12838258D01*
X13679772Y12693188D01*
X13681025Y12550422D01*
X13682351Y12394232D01*
X13683556Y12258961D01*
X13684766Y12142954D01*
X13686106Y12044555D01*
X13687700Y11962107D01*
X13689675Y11893954D01*
X13692156Y11838440D01*
X13695269Y11793908D01*
X13699138Y11758702D01*
X13703889Y11731166D01*
X13709648Y11709644D01*
X13716539Y11692478D01*
X13724689Y11678014D01*
X13734223Y11664594D01*
X13745266Y11650562D01*
X13749566Y11645129D01*
X13765386Y11622290D01*
X13772422Y11606737D01*
X13772444Y11606278D01*
X13761567Y11604079D01*
X13730582Y11602053D01*
X13681957Y11600258D01*
X13618163Y11598749D01*
X13541669Y11597584D01*
X13454944Y11596820D01*
X13360457Y11596514D01*
X13349550Y11596511D01*
X12926657Y11596511D01*
X12923395Y11692578D01*
X12920133Y11788644D01*
X12858044Y11737657D01*
X12760714Y11670143D01*
X12650813Y11615451D01*
X12564349Y11585222D01*
X12495278Y11570534D01*
X12411925Y11560541D01*
X12322159Y11555554D01*
X12233845Y11555887D01*
X12154851Y11561849D01*
X12118622Y11567562D01*
X11978603Y11605424D01*
X11852178Y11660268D01*
X11740260Y11731276D01*
X11643762Y11817632D01*
X11563600Y11918521D01*
X11500687Y12033124D01*
X11456312Y12159216D01*
X11443978Y12215799D01*
X11436368Y12277998D01*
X11432739Y12352837D01*
X11432245Y12386733D01*
X11432310Y12389918D01*
X12192248Y12389918D01*
X12201541Y12314867D01*
X12229728Y12251040D01*
X12278197Y12195402D01*
X12283254Y12190989D01*
X12331548Y12156163D01*
X12383257Y12133580D01*
X12443989Y12121660D01*
X12519352Y12118817D01*
X12537459Y12119222D01*
X12591278Y12121875D01*
X12631308Y12127291D01*
X12666324Y12137455D01*
X12705103Y12154350D01*
X12715745Y12159528D01*
X12776396Y12195356D01*
X12823215Y12237988D01*
X12835952Y12253227D01*
X12880622Y12309738D01*
X12880622Y12505614D01*
X12880086Y12584261D01*
X12878396Y12642212D01*
X12875428Y12681325D01*
X12871057Y12703459D01*
X12866972Y12709926D01*
X12851047Y12713089D01*
X12817264Y12715712D01*
X12770340Y12717545D01*
X12714993Y12718343D01*
X12706106Y12718358D01*
X12585330Y12713104D01*
X12482660Y12696937D01*
X12396106Y12669239D01*
X12323681Y12629392D01*
X12268751Y12582442D01*
X12224204Y12524555D01*
X12199480Y12461507D01*
X12192248Y12389918D01*
X11432310Y12389918D01*
X11434178Y12480488D01*
X11442522Y12559388D01*
X11458768Y12630610D01*
X11484405Y12701336D01*
X11508401Y12753707D01*
X11567020Y12849004D01*
X11645117Y12937030D01*
X11740315Y13016183D01*
X11850238Y13084860D01*
X11972510Y13141459D01*
X12104755Y13184379D01*
X12169422Y13199318D01*
X12305604Y13221423D01*
X12454049Y13236006D01*
X12605505Y13242387D01*
X12732064Y13240755D01*
X12893950Y13233976D01*
X12886530Y13292955D01*
X12867238Y13392108D01*
X12836104Y13472828D01*
X12792269Y13535734D01*
X12734871Y13581444D01*
X12663048Y13610578D01*
X12575941Y13623753D01*
X12472686Y13621589D01*
X12434711Y13617588D01*
X12293520Y13592420D01*
X12156707Y13551386D01*
X12062178Y13513385D01*
X12017018Y13494010D01*
X11978585Y13478440D01*
X11952234Y13468795D01*
X11944546Y13466748D01*
X11934802Y13475826D01*
X11918083Y13504795D01*
X11894232Y13553983D01*
X11863093Y13623716D01*
X11824507Y13714321D01*
X11817910Y13730111D01*
X11787853Y13802428D01*
X11760874Y13867775D01*
X11738136Y13923294D01*
X11720806Y13966128D01*
X11710048Y13993419D01*
X11706941Y14002258D01*
X11716940Y14007013D01*
X11743217Y14012290D01*
X11771489Y14015969D01*
X11801646Y14020726D01*
X11849433Y14030172D01*
X11910612Y14043380D01*
X11980946Y14059424D01*
X12056194Y14077380D01*
X12084755Y14084403D01*
X12189816Y14109991D01*
X12277480Y14130053D01*
X12352068Y14145231D01*
X12417903Y14156165D01*
X12479307Y14163496D01*
X12540602Y14167865D01*
X12606110Y14169913D01*
X12664128Y14170311D01*
X12833574Y14163648D01*
G36*
X16346507Y13557955D02*
G01*
X16346526Y13323538D01*
X16346552Y13110597D01*
X16346625Y12918032D01*
X16346782Y12744741D01*
X16347064Y12589624D01*
X16347509Y12451580D01*
X16348156Y12329508D01*
X16349045Y12222306D01*
X16350213Y12128874D01*
X16351701Y12048110D01*
X16353546Y11978914D01*
X16355789Y11920185D01*
X16358469Y11870821D01*
X16361623Y11829722D01*
X16365292Y11795787D01*
X16369513Y11767914D01*
X16374327Y11745002D01*
X16379773Y11725951D01*
X16385888Y11709660D01*
X16392712Y11695027D01*
X16400285Y11680951D01*
X16408645Y11666332D01*
X16413839Y11657226D01*
X16448104Y11596511D01*
X15589955Y11596511D01*
X15589955Y11692467D01*
X15589224Y11735830D01*
X15587272Y11768995D01*
X15584463Y11786776D01*
X15583221Y11788422D01*
X15571799Y11781538D01*
X15549084Y11763695D01*
X15526385Y11744321D01*
X15471800Y11703586D01*
X15402321Y11662583D01*
X15325270Y11625077D01*
X15247965Y11594836D01*
X15217113Y11585188D01*
X15148616Y11570622D01*
X15065764Y11560661D01*
X14976371Y11555617D01*
X14888248Y11555804D01*
X14809207Y11561534D01*
X14771511Y11567342D01*
X14633414Y11605403D01*
X14506113Y11663127D01*
X14390292Y11739989D01*
X14286637Y11835461D01*
X14195833Y11949021D01*
X14129031Y12059819D01*
X14074164Y12176575D01*
X14032163Y12295924D01*
X14002167Y12421917D01*
X13983311Y12558606D01*
X13974732Y12710042D01*
X13974006Y12787489D01*
X13976100Y12844266D01*
X14805217Y12844266D01*
X14805424Y12751198D01*
X14808337Y12663508D01*
X14814000Y12586428D01*
X14822455Y12525191D01*
X14825038Y12512850D01*
X14856840Y12405567D01*
X14898498Y12318542D01*
X14950363Y12251558D01*
X15012781Y12204395D01*
X15086100Y12176835D01*
X15170669Y12168659D01*
X15266835Y12179649D01*
X15330311Y12195371D01*
X15379454Y12213561D01*
X15433583Y12239409D01*
X15474244Y12263111D01*
X15544800Y12309479D01*
X15544800Y13459670D01*
X15477392Y13503238D01*
X15398867Y13544160D01*
X15314681Y13570811D01*
X15229557Y13582735D01*
X15148216Y13579478D01*
X15075380Y13560585D01*
X15043426Y13545016D01*
X14985501Y13502019D01*
X14936544Y13445247D01*
X14895390Y13372625D01*
X14860874Y13282079D01*
X14831833Y13171534D01*
X14830552Y13165667D01*
X14820381Y13103412D01*
X14812739Y13025606D01*
X14807670Y12937480D01*
X14805217Y12844266D01*
X13976100Y12844266D01*
X13981857Y13000305D01*
X14003802Y13196141D01*
X14039786Y13374868D01*
X14089759Y13536355D01*
X14153668Y13680474D01*
X14231462Y13807094D01*
X14323089Y13916085D01*
X14428497Y14007317D01*
X14473662Y14038268D01*
X14574611Y14094415D01*
X14677901Y14134026D01*
X14787989Y14158186D01*
X14909330Y14167981D01*
X15001836Y14166935D01*
X15131490Y14155969D01*
X15244084Y14134154D01*
X15342875Y14100486D01*
X15431121Y14053964D01*
X15479986Y14019752D01*
X15509353Y13997838D01*
X15531043Y13982867D01*
X15539253Y13978467D01*
X15540868Y13989296D01*
X15542159Y14019949D01*
X15543138Y14067674D01*
X15543817Y14129721D01*
X15544210Y14203338D01*
X15544330Y14285773D01*
X15544188Y14374275D01*
X15543797Y14466093D01*
X15543171Y14558476D01*
X15542320Y14648672D01*
X15541260Y14733929D01*
X15540001Y14811497D01*
X15538556Y14878624D01*
X15536938Y14932559D01*
X15535161Y14970550D01*
X15534669Y14977533D01*
X15527092Y15047949D01*
X15515531Y15103098D01*
X15497792Y15150219D01*
X15471682Y15196553D01*
X15465415Y15206133D01*
X15440983Y15242822D01*
X16346311Y15242822D01*
X16346507Y13557955D01*
G37*
X16346507Y13557955D02*
X16346526Y13323538D01*
X16346552Y13110597D01*
X16346625Y12918032D01*
X16346782Y12744741D01*
X16347064Y12589624D01*
X16347509Y12451580D01*
X16348156Y12329508D01*
X16349045Y12222306D01*
X16350213Y12128874D01*
X16351701Y12048110D01*
X16353546Y11978914D01*
X16355789Y11920185D01*
X16358469Y11870821D01*
X16361623Y11829722D01*
X16365292Y11795787D01*
X16369513Y11767914D01*
X16374327Y11745002D01*
X16379773Y11725951D01*
X16385888Y11709660D01*
X16392712Y11695027D01*
X16400285Y11680951D01*
X16408645Y11666332D01*
X16413839Y11657226D01*
X16448104Y11596511D01*
X15589955Y11596511D01*
X15589955Y11692467D01*
X15589224Y11735830D01*
X15587272Y11768995D01*
X15584463Y11786776D01*
X15583221Y11788422D01*
X15571799Y11781538D01*
X15549084Y11763695D01*
X15526385Y11744321D01*
X15471800Y11703586D01*
X15402321Y11662583D01*
X15325270Y11625077D01*
X15247965Y11594836D01*
X15217113Y11585188D01*
X15148616Y11570622D01*
X15065764Y11560661D01*
X14976371Y11555617D01*
X14888248Y11555804D01*
X14809207Y11561534D01*
X14771511Y11567342D01*
X14633414Y11605403D01*
X14506113Y11663127D01*
X14390292Y11739989D01*
X14286637Y11835461D01*
X14195833Y11949021D01*
X14129031Y12059819D01*
X14074164Y12176575D01*
X14032163Y12295924D01*
X14002167Y12421917D01*
X13983311Y12558606D01*
X13974732Y12710042D01*
X13974006Y12787489D01*
X13976100Y12844266D01*
X14805217Y12844266D01*
X14805424Y12751198D01*
X14808337Y12663508D01*
X14814000Y12586428D01*
X14822455Y12525191D01*
X14825038Y12512850D01*
X14856840Y12405567D01*
X14898498Y12318542D01*
X14950363Y12251558D01*
X15012781Y12204395D01*
X15086100Y12176835D01*
X15170669Y12168659D01*
X15266835Y12179649D01*
X15330311Y12195371D01*
X15379454Y12213561D01*
X15433583Y12239409D01*
X15474244Y12263111D01*
X15544800Y12309479D01*
X15544800Y13459670D01*
X15477392Y13503238D01*
X15398867Y13544160D01*
X15314681Y13570811D01*
X15229557Y13582735D01*
X15148216Y13579478D01*
X15075380Y13560585D01*
X15043426Y13545016D01*
X14985501Y13502019D01*
X14936544Y13445247D01*
X14895390Y13372625D01*
X14860874Y13282079D01*
X14831833Y13171534D01*
X14830552Y13165667D01*
X14820381Y13103412D01*
X14812739Y13025606D01*
X14807670Y12937480D01*
X14805217Y12844266D01*
X13976100Y12844266D01*
X13981857Y13000305D01*
X14003802Y13196141D01*
X14039786Y13374868D01*
X14089759Y13536355D01*
X14153668Y13680474D01*
X14231462Y13807094D01*
X14323089Y13916085D01*
X14428497Y14007317D01*
X14473662Y14038268D01*
X14574611Y14094415D01*
X14677901Y14134026D01*
X14787989Y14158186D01*
X14909330Y14167981D01*
X15001836Y14166935D01*
X15131490Y14155969D01*
X15244084Y14134154D01*
X15342875Y14100486D01*
X15431121Y14053964D01*
X15479986Y14019752D01*
X15509353Y13997838D01*
X15531043Y13982867D01*
X15539253Y13978467D01*
X15540868Y13989296D01*
X15542159Y14019949D01*
X15543138Y14067674D01*
X15543817Y14129721D01*
X15544210Y14203338D01*
X15544330Y14285773D01*
X15544188Y14374275D01*
X15543797Y14466093D01*
X15543171Y14558476D01*
X15542320Y14648672D01*
X15541260Y14733929D01*
X15540001Y14811497D01*
X15538556Y14878624D01*
X15536938Y14932559D01*
X15535161Y14970550D01*
X15534669Y14977533D01*
X15527092Y15047949D01*
X15515531Y15103098D01*
X15497792Y15150219D01*
X15471682Y15196553D01*
X15465415Y15206133D01*
X15440983Y15242822D01*
X16346311Y15242822D01*
X16346507Y13557955D01*
G36*
X7886957Y16003629D02*
G01*
X7983232Y15979391D01*
X8069816Y15936559D01*
X8144627Y15876781D01*
X8205582Y15801706D01*
X8250601Y15712980D01*
X8276864Y15616670D01*
X8282714Y15519405D01*
X8267860Y15425546D01*
X8234160Y15337689D01*
X8183472Y15258430D01*
X8117655Y15190364D01*
X8038566Y15136088D01*
X7948066Y15098198D01*
X7896800Y15085774D01*
X7852302Y15078253D01*
X7818001Y15075281D01*
X7785040Y15077106D01*
X7744566Y15083975D01*
X7711469Y15090950D01*
X7618053Y15122459D01*
X7534381Y15173583D01*
X7462335Y15242771D01*
X7403800Y15328472D01*
X7389852Y15355711D01*
X7373414Y15392078D01*
X7363106Y15422618D01*
X7357540Y15454750D01*
X7355331Y15495893D01*
X7355052Y15541978D01*
X7359139Y15626335D01*
X7372554Y15695614D01*
X7397744Y15756239D01*
X7437154Y15814633D01*
X7475702Y15858898D01*
X7547594Y15924716D01*
X7622687Y15970147D01*
X7705438Y15997350D01*
X7783072Y16007624D01*
X7886957Y16003629D01*
G37*
X7886957Y16003629D02*
X7983232Y15979391D01*
X8069816Y15936559D01*
X8144627Y15876781D01*
X8205582Y15801706D01*
X8250601Y15712980D01*
X8276864Y15616670D01*
X8282714Y15519405D01*
X8267860Y15425546D01*
X8234160Y15337689D01*
X8183472Y15258430D01*
X8117655Y15190364D01*
X8038566Y15136088D01*
X7948066Y15098198D01*
X7896800Y15085774D01*
X7852302Y15078253D01*
X7818001Y15075281D01*
X7785040Y15077106D01*
X7744566Y15083975D01*
X7711469Y15090950D01*
X7618053Y15122459D01*
X7534381Y15173583D01*
X7462335Y15242771D01*
X7403800Y15328472D01*
X7389852Y15355711D01*
X7373414Y15392078D01*
X7363106Y15422618D01*
X7357540Y15454750D01*
X7355331Y15495893D01*
X7355052Y15541978D01*
X7359139Y15626335D01*
X7372554Y15695614D01*
X7397744Y15756239D01*
X7437154Y15814633D01*
X7475702Y15858898D01*
X7547594Y15924716D01*
X7622687Y15970147D01*
X7705438Y15997350D01*
X7783072Y16007624D01*
X7886957Y16003629D01*
G36*
X4038629Y10761134D02*
G01*
X4078111Y10760733D01*
X4193800Y10757941D01*
X4290689Y10749650D01*
X4372081Y10734968D01*
X4441277Y10713007D01*
X4501580Y10682878D01*
X4556292Y10643690D01*
X4575833Y10626668D01*
X4608250Y10586837D01*
X4637480Y10532787D01*
X4660009Y10472877D01*
X4672321Y10415461D01*
X4673600Y10394244D01*
X4665583Y10335431D01*
X4644101Y10271187D01*
X4613001Y10210379D01*
X4576134Y10161870D01*
X4570146Y10156018D01*
X4519421Y10114879D01*
X4463875Y10082765D01*
X4400304Y10058835D01*
X4325506Y10042247D01*
X4236278Y10032159D01*
X4129418Y10027731D01*
X4080472Y10027355D01*
X4018238Y10027655D01*
X3974472Y10028908D01*
X3945069Y10031646D01*
X3925921Y10036399D01*
X3912923Y10043699D01*
X3905955Y10049933D01*
X3899374Y10057506D01*
X3894212Y10067276D01*
X3890297Y10081860D01*
X3887457Y10103874D01*
X3885520Y10135936D01*
X3884316Y10180664D01*
X3883672Y10240674D01*
X3883417Y10318583D01*
X3883378Y10394244D01*
X3883130Y10495159D01*
X3883183Y10575773D01*
X3884143Y10614378D01*
X4030133Y10614378D01*
X4030133Y10174111D01*
X4123266Y10174196D01*
X4179307Y10175804D01*
X4238001Y10179944D01*
X4286972Y10185736D01*
X4288462Y10185974D01*
X4367608Y10205110D01*
X4428998Y10234913D01*
X4475695Y10277322D01*
X4505365Y10323239D01*
X4523647Y10374174D01*
X4522229Y10422000D01*
X4501012Y10473267D01*
X4459511Y10526301D01*
X4402002Y10565600D01*
X4327250Y10591869D01*
X4277292Y10601165D01*
X4220584Y10607693D01*
X4160481Y10612418D01*
X4109361Y10614383D01*
X4106333Y10614392D01*
X4030133Y10614378D01*
X3884143Y10614378D01*
X3884740Y10638349D01*
X3889002Y10685145D01*
X3897170Y10718422D01*
X3910444Y10740441D01*
X3930026Y10753461D01*
X3957117Y10759743D01*
X3992918Y10761547D01*
X4038629Y10761134D01*
G37*
X4038629Y10761134D02*
X4078111Y10760733D01*
X4193800Y10757941D01*
X4290689Y10749650D01*
X4372081Y10734968D01*
X4441277Y10713007D01*
X4501580Y10682878D01*
X4556292Y10643690D01*
X4575833Y10626668D01*
X4608250Y10586837D01*
X4637480Y10532787D01*
X4660009Y10472877D01*
X4672321Y10415461D01*
X4673600Y10394244D01*
X4665583Y10335431D01*
X4644101Y10271187D01*
X4613001Y10210379D01*
X4576134Y10161870D01*
X4570146Y10156018D01*
X4519421Y10114879D01*
X4463875Y10082765D01*
X4400304Y10058835D01*
X4325506Y10042247D01*
X4236278Y10032159D01*
X4129418Y10027731D01*
X4080472Y10027355D01*
X4018238Y10027655D01*
X3974472Y10028908D01*
X3945069Y10031646D01*
X3925921Y10036399D01*
X3912923Y10043699D01*
X3905955Y10049933D01*
X3899374Y10057506D01*
X3894212Y10067276D01*
X3890297Y10081860D01*
X3887457Y10103874D01*
X3885520Y10135936D01*
X3884316Y10180664D01*
X3883672Y10240674D01*
X3883417Y10318583D01*
X3883378Y10394244D01*
X3883130Y10495159D01*
X3883183Y10575773D01*
X3884143Y10614378D01*
X4030133Y10614378D01*
X4030133Y10174111D01*
X4123266Y10174196D01*
X4179307Y10175804D01*
X4238001Y10179944D01*
X4286972Y10185736D01*
X4288462Y10185974D01*
X4367608Y10205110D01*
X4428998Y10234913D01*
X4475695Y10277322D01*
X4505365Y10323239D01*
X4523647Y10374174D01*
X4522229Y10422000D01*
X4501012Y10473267D01*
X4459511Y10526301D01*
X4402002Y10565600D01*
X4327250Y10591869D01*
X4277292Y10601165D01*
X4220584Y10607693D01*
X4160481Y10612418D01*
X4109361Y10614383D01*
X4106333Y10614392D01*
X4030133Y10614378D01*
X3884143Y10614378D01*
X3884740Y10638349D01*
X3889002Y10685145D01*
X3897170Y10718422D01*
X3910444Y10740441D01*
X3930026Y10753461D01*
X3957117Y10759743D01*
X3992918Y10761547D01*
X4038629Y10761134D01*
G36*
X5447206Y10761054D02*
G01*
X5516614Y10760682D01*
X5569003Y10759815D01*
X5607153Y10758254D01*
X5633841Y10755797D01*
X5651847Y10752243D01*
X5663951Y10747390D01*
X5672931Y10741039D01*
X5676182Y10738116D01*
X5695957Y10707058D01*
X5699518Y10671372D01*
X5686509Y10639690D01*
X5680494Y10633287D01*
X5670765Y10627079D01*
X5655099Y10622290D01*
X5630592Y10618686D01*
X5594339Y10616036D01*
X5543435Y10614105D01*
X5474974Y10612661D01*
X5412383Y10611782D01*
X5164666Y10608733D01*
X5161281Y10543822D01*
X5157895Y10478911D01*
X5326042Y10478911D01*
X5399041Y10478281D01*
X5452483Y10475647D01*
X5489372Y10469891D01*
X5512712Y10459896D01*
X5525506Y10444544D01*
X5530758Y10422718D01*
X5531555Y10402462D01*
X5529077Y10377608D01*
X5519723Y10359294D01*
X5500617Y10346563D01*
X5468882Y10338459D01*
X5421641Y10334024D01*
X5356017Y10332301D01*
X5320199Y10332155D01*
X5159022Y10332155D01*
X5159022Y10174111D01*
X5407378Y10174111D01*
X5488787Y10173998D01*
X5550658Y10173488D01*
X5596032Y10172330D01*
X5627946Y10170270D01*
X5649441Y10167054D01*
X5663557Y10162428D01*
X5673332Y10156141D01*
X5678311Y10151533D01*
X5695390Y10124640D01*
X5700889Y10100733D01*
X5693037Y10071533D01*
X5678311Y10049933D01*
X5670454Y10043134D01*
X5660312Y10037854D01*
X5645156Y10033902D01*
X5622259Y10031087D01*
X5588891Y10029218D01*
X5542325Y10028102D01*
X5479833Y10027549D01*
X5398686Y10027367D01*
X5356578Y10027355D01*
X5266402Y10027435D01*
X5196076Y10027802D01*
X5142871Y10028648D01*
X5104060Y10030164D01*
X5076913Y10032541D01*
X5058702Y10035971D01*
X5046700Y10040646D01*
X5038178Y10046756D01*
X5034844Y10049933D01*
X5028245Y10057530D01*
X5023073Y10067330D01*
X5019154Y10081961D01*
X5016316Y10104048D01*
X5014385Y10136218D01*
X5013188Y10181097D01*
X5012552Y10241311D01*
X5012303Y10319487D01*
X5012266Y10392277D01*
X5012300Y10485493D01*
X5012535Y10558769D01*
X5013170Y10614742D01*
X5014406Y10656049D01*
X5016444Y10685328D01*
X5019483Y10705216D01*
X5023723Y10718350D01*
X5029365Y10727368D01*
X5036609Y10734907D01*
X5038394Y10736588D01*
X5047055Y10744028D01*
X5057118Y10749791D01*
X5071375Y10754088D01*
X5092617Y10757136D01*
X5123636Y10759149D01*
X5167223Y10760340D01*
X5226169Y10760925D01*
X5303266Y10761117D01*
X5357999Y10761133D01*
X5447206Y10761054D01*
G37*
X5447206Y10761054D02*
X5516614Y10760682D01*
X5569003Y10759815D01*
X5607153Y10758254D01*
X5633841Y10755797D01*
X5651847Y10752243D01*
X5663951Y10747390D01*
X5672931Y10741039D01*
X5676182Y10738116D01*
X5695957Y10707058D01*
X5699518Y10671372D01*
X5686509Y10639690D01*
X5680494Y10633287D01*
X5670765Y10627079D01*
X5655099Y10622290D01*
X5630592Y10618686D01*
X5594339Y10616036D01*
X5543435Y10614105D01*
X5474974Y10612661D01*
X5412383Y10611782D01*
X5164666Y10608733D01*
X5161281Y10543822D01*
X5157895Y10478911D01*
X5326042Y10478911D01*
X5399041Y10478281D01*
X5452483Y10475647D01*
X5489372Y10469891D01*
X5512712Y10459896D01*
X5525506Y10444544D01*
X5530758Y10422718D01*
X5531555Y10402462D01*
X5529077Y10377608D01*
X5519723Y10359294D01*
X5500617Y10346563D01*
X5468882Y10338459D01*
X5421641Y10334024D01*
X5356017Y10332301D01*
X5320199Y10332155D01*
X5159022Y10332155D01*
X5159022Y10174111D01*
X5407378Y10174111D01*
X5488787Y10173998D01*
X5550658Y10173488D01*
X5596032Y10172330D01*
X5627946Y10170270D01*
X5649441Y10167054D01*
X5663557Y10162428D01*
X5673332Y10156141D01*
X5678311Y10151533D01*
X5695390Y10124640D01*
X5700889Y10100733D01*
X5693037Y10071533D01*
X5678311Y10049933D01*
X5670454Y10043134D01*
X5660312Y10037854D01*
X5645156Y10033902D01*
X5622259Y10031087D01*
X5588891Y10029218D01*
X5542325Y10028102D01*
X5479833Y10027549D01*
X5398686Y10027367D01*
X5356578Y10027355D01*
X5266402Y10027435D01*
X5196076Y10027802D01*
X5142871Y10028648D01*
X5104060Y10030164D01*
X5076913Y10032541D01*
X5058702Y10035971D01*
X5046700Y10040646D01*
X5038178Y10046756D01*
X5034844Y10049933D01*
X5028245Y10057530D01*
X5023073Y10067330D01*
X5019154Y10081961D01*
X5016316Y10104048D01*
X5014385Y10136218D01*
X5013188Y10181097D01*
X5012552Y10241311D01*
X5012303Y10319487D01*
X5012266Y10392277D01*
X5012300Y10485493D01*
X5012535Y10558769D01*
X5013170Y10614742D01*
X5014406Y10656049D01*
X5016444Y10685328D01*
X5019483Y10705216D01*
X5023723Y10718350D01*
X5029365Y10727368D01*
X5036609Y10734907D01*
X5038394Y10736588D01*
X5047055Y10744028D01*
X5057118Y10749791D01*
X5071375Y10754088D01*
X5092617Y10757136D01*
X5123636Y10759149D01*
X5167223Y10760340D01*
X5226169Y10760925D01*
X5303266Y10761117D01*
X5357999Y10761133D01*
X5447206Y10761054D01*
G36*
X6468297Y10759849D02*
G01*
X6543112Y10754619D01*
X6612694Y10746450D01*
X6672998Y10735650D01*
X6719980Y10722527D01*
X6749594Y10707387D01*
X6754140Y10702931D01*
X6769946Y10668350D01*
X6765153Y10632849D01*
X6740636Y10602475D01*
X6739466Y10601604D01*
X6725046Y10592246D01*
X6709992Y10587324D01*
X6688995Y10586727D01*
X6656743Y10590339D01*
X6607927Y10598046D01*
X6604000Y10598695D01*
X6531261Y10607631D01*
X6452783Y10612039D01*
X6374073Y10612081D01*
X6300639Y10607921D01*
X6237989Y10599721D01*
X6191630Y10587643D01*
X6188584Y10586429D01*
X6154952Y10567585D01*
X6143136Y10548515D01*
X6152386Y10529761D01*
X6181953Y10511863D01*
X6231089Y10495363D01*
X6299043Y10480804D01*
X6344355Y10473794D01*
X6438544Y10460311D01*
X6513456Y10447986D01*
X6572283Y10435751D01*
X6618215Y10422539D01*
X6654445Y10407283D01*
X6684162Y10388915D01*
X6710558Y10366369D01*
X6731770Y10344229D01*
X6756935Y10313381D01*
X6769319Y10286855D01*
X6773192Y10254174D01*
X6773333Y10242205D01*
X6770424Y10202488D01*
X6758798Y10172941D01*
X6738677Y10146714D01*
X6697784Y10106624D01*
X6652183Y10076051D01*
X6598487Y10053997D01*
X6533308Y10039465D01*
X6453256Y10031459D01*
X6354943Y10028982D01*
X6338711Y10029023D01*
X6273151Y10030382D01*
X6208134Y10033470D01*
X6150748Y10037844D01*
X6108078Y10043060D01*
X6104628Y10043659D01*
X6062204Y10053709D01*
X6026220Y10066404D01*
X6005850Y10078010D01*
X5986893Y10108628D01*
X5985573Y10144282D01*
X6001915Y10176056D01*
X6005571Y10179649D01*
X6020685Y10190324D01*
X6039585Y10194924D01*
X6068838Y10194141D01*
X6104349Y10190073D01*
X6144030Y10186438D01*
X6199655Y10183372D01*
X6264594Y10181147D01*
X6332215Y10180036D01*
X6350000Y10179963D01*
X6417872Y10180236D01*
X6467546Y10181554D01*
X6503390Y10184373D01*
X6529776Y10189150D01*
X6551074Y10196343D01*
X6563874Y10202333D01*
X6592000Y10218967D01*
X6609932Y10234032D01*
X6612553Y10238303D01*
X6607024Y10255937D01*
X6580740Y10273008D01*
X6535522Y10288742D01*
X6473192Y10302362D01*
X6454829Y10305396D01*
X6358910Y10320462D01*
X6282359Y10333054D01*
X6222220Y10344089D01*
X6175540Y10354480D01*
X6139363Y10365144D01*
X6110735Y10376995D01*
X6086702Y10390949D01*
X6064308Y10407919D01*
X6040598Y10428822D01*
X6032620Y10436151D01*
X6004647Y10463501D01*
X5989840Y10485171D01*
X5984048Y10509968D01*
X5983111Y10541217D01*
X5993425Y10602495D01*
X6024248Y10654560D01*
X6075405Y10697242D01*
X6146717Y10730375D01*
X6197600Y10745236D01*
X6252900Y10754834D01*
X6319147Y10760264D01*
X6392294Y10761833D01*
X6468297Y10759849D01*
G37*
X6468297Y10759849D02*
X6543112Y10754619D01*
X6612694Y10746450D01*
X6672998Y10735650D01*
X6719980Y10722527D01*
X6749594Y10707387D01*
X6754140Y10702931D01*
X6769946Y10668350D01*
X6765153Y10632849D01*
X6740636Y10602475D01*
X6739466Y10601604D01*
X6725046Y10592246D01*
X6709992Y10587324D01*
X6688995Y10586727D01*
X6656743Y10590339D01*
X6607927Y10598046D01*
X6604000Y10598695D01*
X6531261Y10607631D01*
X6452783Y10612039D01*
X6374073Y10612081D01*
X6300639Y10607921D01*
X6237989Y10599721D01*
X6191630Y10587643D01*
X6188584Y10586429D01*
X6154952Y10567585D01*
X6143136Y10548515D01*
X6152386Y10529761D01*
X6181953Y10511863D01*
X6231089Y10495363D01*
X6299043Y10480804D01*
X6344355Y10473794D01*
X6438544Y10460311D01*
X6513456Y10447986D01*
X6572283Y10435751D01*
X6618215Y10422539D01*
X6654445Y10407283D01*
X6684162Y10388915D01*
X6710558Y10366369D01*
X6731770Y10344229D01*
X6756935Y10313381D01*
X6769319Y10286855D01*
X6773192Y10254174D01*
X6773333Y10242205D01*
X6770424Y10202488D01*
X6758798Y10172941D01*
X6738677Y10146714D01*
X6697784Y10106624D01*
X6652183Y10076051D01*
X6598487Y10053997D01*
X6533308Y10039465D01*
X6453256Y10031459D01*
X6354943Y10028982D01*
X6338711Y10029023D01*
X6273151Y10030382D01*
X6208134Y10033470D01*
X6150748Y10037844D01*
X6108078Y10043060D01*
X6104628Y10043659D01*
X6062204Y10053709D01*
X6026220Y10066404D01*
X6005850Y10078010D01*
X5986893Y10108628D01*
X5985573Y10144282D01*
X6001915Y10176056D01*
X6005571Y10179649D01*
X6020685Y10190324D01*
X6039585Y10194924D01*
X6068838Y10194141D01*
X6104349Y10190073D01*
X6144030Y10186438D01*
X6199655Y10183372D01*
X6264594Y10181147D01*
X6332215Y10180036D01*
X6350000Y10179963D01*
X6417872Y10180236D01*
X6467546Y10181554D01*
X6503390Y10184373D01*
X6529776Y10189150D01*
X6551074Y10196343D01*
X6563874Y10202333D01*
X6592000Y10218967D01*
X6609932Y10234032D01*
X6612553Y10238303D01*
X6607024Y10255937D01*
X6580740Y10273008D01*
X6535522Y10288742D01*
X6473192Y10302362D01*
X6454829Y10305396D01*
X6358910Y10320462D01*
X6282359Y10333054D01*
X6222220Y10344089D01*
X6175540Y10354480D01*
X6139363Y10365144D01*
X6110735Y10376995D01*
X6086702Y10390949D01*
X6064308Y10407919D01*
X6040598Y10428822D01*
X6032620Y10436151D01*
X6004647Y10463501D01*
X5989840Y10485171D01*
X5984048Y10509968D01*
X5983111Y10541217D01*
X5993425Y10602495D01*
X6024248Y10654560D01*
X6075405Y10697242D01*
X6146717Y10730375D01*
X6197600Y10745236D01*
X6252900Y10754834D01*
X6319147Y10760264D01*
X6392294Y10761833D01*
X6468297Y10759849D01*
G36*
X7236178Y10738555D02*
G01*
X7242758Y10730982D01*
X7247921Y10721213D01*
X7251836Y10706629D01*
X7254676Y10684615D01*
X7256613Y10652552D01*
X7257817Y10607825D01*
X7258461Y10547815D01*
X7258716Y10469906D01*
X7258755Y10394244D01*
X7258686Y10300398D01*
X7258362Y10226511D01*
X7257614Y10169968D01*
X7256268Y10128151D01*
X7254154Y10098443D01*
X7251100Y10078227D01*
X7246934Y10064886D01*
X7241484Y10055802D01*
X7236178Y10049933D01*
X7203174Y10030253D01*
X7168009Y10032019D01*
X7136545Y10053483D01*
X7129316Y10061863D01*
X7123666Y10071586D01*
X7119401Y10085339D01*
X7116327Y10105811D01*
X7114248Y10135688D01*
X7112970Y10177659D01*
X7112299Y10234411D01*
X7112041Y10308633D01*
X7112000Y10392663D01*
X7112000Y10705715D01*
X7139709Y10733424D01*
X7173863Y10756737D01*
X7206994Y10757577D01*
X7236178Y10738555D01*
G37*
X7236178Y10738555D02*
X7242758Y10730982D01*
X7247921Y10721213D01*
X7251836Y10706629D01*
X7254676Y10684615D01*
X7256613Y10652552D01*
X7257817Y10607825D01*
X7258461Y10547815D01*
X7258716Y10469906D01*
X7258755Y10394244D01*
X7258686Y10300398D01*
X7258362Y10226511D01*
X7257614Y10169968D01*
X7256268Y10128151D01*
X7254154Y10098443D01*
X7251100Y10078227D01*
X7246934Y10064886D01*
X7241484Y10055802D01*
X7236178Y10049933D01*
X7203174Y10030253D01*
X7168009Y10032019D01*
X7136545Y10053483D01*
X7129316Y10061863D01*
X7123666Y10071586D01*
X7119401Y10085339D01*
X7116327Y10105811D01*
X7114248Y10135688D01*
X7112970Y10177659D01*
X7112299Y10234411D01*
X7112041Y10308633D01*
X7112000Y10392663D01*
X7112000Y10705715D01*
X7139709Y10733424D01*
X7173863Y10756737D01*
X7206994Y10757577D01*
X7236178Y10738555D01*
G36*
X8209919Y10755601D02*
G01*
X8278435Y10744105D01*
X8331057Y10726233D01*
X8365292Y10702701D01*
X8374621Y10689276D01*
X8384107Y10658052D01*
X8377723Y10629805D01*
X8357570Y10603018D01*
X8326255Y10590487D01*
X8280817Y10591504D01*
X8245674Y10598294D01*
X8167581Y10611229D01*
X8087774Y10612458D01*
X7998445Y10601959D01*
X7973771Y10597510D01*
X7890709Y10574092D01*
X7825727Y10539255D01*
X7779539Y10493596D01*
X7752855Y10437706D01*
X7747337Y10408812D01*
X7750949Y10350188D01*
X7774271Y10298321D01*
X7815176Y10254222D01*
X7871541Y10218901D01*
X7941240Y10193371D01*
X8022148Y10178641D01*
X8112140Y10175722D01*
X8209090Y10185625D01*
X8214564Y10186559D01*
X8253125Y10193741D01*
X8274506Y10200679D01*
X8283773Y10210973D01*
X8285994Y10228224D01*
X8286044Y10237359D01*
X8286044Y10275711D01*
X8217569Y10275711D01*
X8157100Y10279853D01*
X8115835Y10293053D01*
X8091825Y10316470D01*
X8083123Y10351264D01*
X8083017Y10355806D01*
X8088108Y10385546D01*
X8105567Y10406781D01*
X8138061Y10420834D01*
X8188257Y10429027D01*
X8236877Y10432039D01*
X8307544Y10433767D01*
X8358802Y10431130D01*
X8393761Y10421400D01*
X8415530Y10401847D01*
X8427220Y10369744D01*
X8431940Y10322362D01*
X8432800Y10260129D01*
X8431391Y10190665D01*
X8427152Y10143414D01*
X8420064Y10118188D01*
X8418689Y10116212D01*
X8379772Y10084692D01*
X8322714Y10059730D01*
X8251131Y10041860D01*
X8168642Y10031614D01*
X8078861Y10029527D01*
X7985408Y10036132D01*
X7930444Y10044244D01*
X7844234Y10068646D01*
X7764108Y10108538D01*
X7697023Y10160313D01*
X7686827Y10170661D01*
X7653698Y10214165D01*
X7623806Y10268082D01*
X7600643Y10324608D01*
X7587702Y10375941D01*
X7586142Y10395656D01*
X7592782Y10436781D01*
X7610432Y10487948D01*
X7635703Y10541806D01*
X7665211Y10591005D01*
X7691281Y10623866D01*
X7752235Y10672748D01*
X7831031Y10711655D01*
X7924843Y10739706D01*
X8030850Y10756021D01*
X8128000Y10760008D01*
X8209919Y10755601D01*
G37*
X8209919Y10755601D02*
X8278435Y10744105D01*
X8331057Y10726233D01*
X8365292Y10702701D01*
X8374621Y10689276D01*
X8384107Y10658052D01*
X8377723Y10629805D01*
X8357570Y10603018D01*
X8326255Y10590487D01*
X8280817Y10591504D01*
X8245674Y10598294D01*
X8167581Y10611229D01*
X8087774Y10612458D01*
X7998445Y10601959D01*
X7973771Y10597510D01*
X7890709Y10574092D01*
X7825727Y10539255D01*
X7779539Y10493596D01*
X7752855Y10437706D01*
X7747337Y10408812D01*
X7750949Y10350188D01*
X7774271Y10298321D01*
X7815176Y10254222D01*
X7871541Y10218901D01*
X7941240Y10193371D01*
X8022148Y10178641D01*
X8112140Y10175722D01*
X8209090Y10185625D01*
X8214564Y10186559D01*
X8253125Y10193741D01*
X8274506Y10200679D01*
X8283773Y10210973D01*
X8285994Y10228224D01*
X8286044Y10237359D01*
X8286044Y10275711D01*
X8217569Y10275711D01*
X8157100Y10279853D01*
X8115835Y10293053D01*
X8091825Y10316470D01*
X8083123Y10351264D01*
X8083017Y10355806D01*
X8088108Y10385546D01*
X8105567Y10406781D01*
X8138061Y10420834D01*
X8188257Y10429027D01*
X8236877Y10432039D01*
X8307544Y10433767D01*
X8358802Y10431130D01*
X8393761Y10421400D01*
X8415530Y10401847D01*
X8427220Y10369744D01*
X8431940Y10322362D01*
X8432800Y10260129D01*
X8431391Y10190665D01*
X8427152Y10143414D01*
X8420064Y10118188D01*
X8418689Y10116212D01*
X8379772Y10084692D01*
X8322714Y10059730D01*
X8251131Y10041860D01*
X8168642Y10031614D01*
X8078861Y10029527D01*
X7985408Y10036132D01*
X7930444Y10044244D01*
X7844234Y10068646D01*
X7764108Y10108538D01*
X7697023Y10160313D01*
X7686827Y10170661D01*
X7653698Y10214165D01*
X7623806Y10268082D01*
X7600643Y10324608D01*
X7587702Y10375941D01*
X7586142Y10395656D01*
X7592782Y10436781D01*
X7610432Y10487948D01*
X7635703Y10541806D01*
X7665211Y10591005D01*
X7691281Y10623866D01*
X7752235Y10672748D01*
X7831031Y10711655D01*
X7924843Y10739706D01*
X8030850Y10756021D01*
X8128000Y10760008D01*
X8209919Y10755601D01*
G36*
X8859886Y10756752D02*
G01*
X8883452Y10742927D01*
X8914265Y10720319D01*
X8953922Y10687862D01*
X9004020Y10644492D01*
X9066157Y10589142D01*
X9141928Y10520749D01*
X9228666Y10442116D01*
X9409289Y10278322D01*
X9414933Y10498171D01*
X9416971Y10573849D01*
X9418937Y10630206D01*
X9421266Y10670494D01*
X9424394Y10697965D01*
X9428755Y10715871D01*
X9434784Y10727463D01*
X9442916Y10735992D01*
X9447228Y10739577D01*
X9481759Y10758530D01*
X9514617Y10755759D01*
X9540682Y10739567D01*
X9567333Y10718001D01*
X9570648Y10403049D01*
X9571565Y10310421D01*
X9572032Y10237656D01*
X9571887Y10182039D01*
X9570968Y10140858D01*
X9569113Y10111397D01*
X9566161Y10090945D01*
X9561950Y10076787D01*
X9556318Y10066209D01*
X9550073Y10057726D01*
X9536561Y10041993D01*
X9523117Y10031564D01*
X9507876Y10027561D01*
X9488974Y10031106D01*
X9464545Y10043321D01*
X9432727Y10065329D01*
X9391652Y10098251D01*
X9339458Y10143209D01*
X9274278Y10201325D01*
X9200444Y10268101D01*
X8935155Y10508742D01*
X8929511Y10289611D01*
X8927469Y10214072D01*
X8925498Y10157846D01*
X8923161Y10117676D01*
X8920019Y10090304D01*
X8915636Y10072472D01*
X8909576Y10060921D01*
X8901400Y10052393D01*
X8897216Y10048918D01*
X8860235Y10029828D01*
X8825292Y10032707D01*
X8794864Y10057100D01*
X8787903Y10066914D01*
X8782477Y10078374D01*
X8778397Y10094232D01*
X8775471Y10117237D01*
X8773508Y10150138D01*
X8772317Y10195684D01*
X8771708Y10256627D01*
X8771489Y10335714D01*
X8771466Y10394244D01*
X8771540Y10485793D01*
X8771887Y10557513D01*
X8772699Y10612155D01*
X8774167Y10652468D01*
X8776481Y10681202D01*
X8779833Y10701107D01*
X8784412Y10714932D01*
X8790411Y10725428D01*
X8794864Y10731389D01*
X8806150Y10745509D01*
X8816699Y10756171D01*
X8828107Y10762308D01*
X8841970Y10762857D01*
X8859886Y10756752D01*
G37*
X8859886Y10756752D02*
X8883452Y10742927D01*
X8914265Y10720319D01*
X8953922Y10687862D01*
X9004020Y10644492D01*
X9066157Y10589142D01*
X9141928Y10520749D01*
X9228666Y10442116D01*
X9409289Y10278322D01*
X9414933Y10498171D01*
X9416971Y10573849D01*
X9418937Y10630206D01*
X9421266Y10670494D01*
X9424394Y10697965D01*
X9428755Y10715871D01*
X9434784Y10727463D01*
X9442916Y10735992D01*
X9447228Y10739577D01*
X9481759Y10758530D01*
X9514617Y10755759D01*
X9540682Y10739567D01*
X9567333Y10718001D01*
X9570648Y10403049D01*
X9571565Y10310421D01*
X9572032Y10237656D01*
X9571887Y10182039D01*
X9570968Y10140858D01*
X9569113Y10111397D01*
X9566161Y10090945D01*
X9561950Y10076787D01*
X9556318Y10066209D01*
X9550073Y10057726D01*
X9536561Y10041993D01*
X9523117Y10031564D01*
X9507876Y10027561D01*
X9488974Y10031106D01*
X9464545Y10043321D01*
X9432727Y10065329D01*
X9391652Y10098251D01*
X9339458Y10143209D01*
X9274278Y10201325D01*
X9200444Y10268101D01*
X8935155Y10508742D01*
X8929511Y10289611D01*
X8927469Y10214072D01*
X8925498Y10157846D01*
X8923161Y10117676D01*
X8920019Y10090304D01*
X8915636Y10072472D01*
X8909576Y10060921D01*
X8901400Y10052393D01*
X8897216Y10048918D01*
X8860235Y10029828D01*
X8825292Y10032707D01*
X8794864Y10057100D01*
X8787903Y10066914D01*
X8782477Y10078374D01*
X8778397Y10094232D01*
X8775471Y10117237D01*
X8773508Y10150138D01*
X8772317Y10195684D01*
X8771708Y10256627D01*
X8771489Y10335714D01*
X8771466Y10394244D01*
X8771540Y10485793D01*
X8771887Y10557513D01*
X8772699Y10612155D01*
X8774167Y10652468D01*
X8776481Y10681202D01*
X8779833Y10701107D01*
X8784412Y10714932D01*
X8790411Y10725428D01*
X8794864Y10731389D01*
X8806150Y10745509D01*
X8816699Y10756171D01*
X8828107Y10762308D01*
X8841970Y10762857D01*
X8859886Y10756752D01*
G36*
X10390343Y10760940D02*
G01*
X10466701Y10760026D01*
X10525217Y10757889D01*
X10568255Y10754025D01*
X10598183Y10747933D01*
X10617368Y10739110D01*
X10628176Y10727054D01*
X10632973Y10711261D01*
X10634127Y10691230D01*
X10634133Y10688865D01*
X10633131Y10666208D01*
X10628396Y10648697D01*
X10617333Y10635626D01*
X10597348Y10626287D01*
X10565846Y10619973D01*
X10520232Y10615978D01*
X10457913Y10613594D01*
X10376293Y10612114D01*
X10351277Y10611786D01*
X10109200Y10608733D01*
X10105814Y10543822D01*
X10102429Y10478911D01*
X10270576Y10478911D01*
X10336266Y10478669D01*
X10383172Y10477644D01*
X10415083Y10475389D01*
X10435791Y10471458D01*
X10449084Y10465402D01*
X10458755Y10456776D01*
X10458817Y10456707D01*
X10476356Y10423088D01*
X10475722Y10386752D01*
X10457314Y10355777D01*
X10453671Y10352593D01*
X10440741Y10344388D01*
X10423024Y10338679D01*
X10396570Y10335038D01*
X10357432Y10333033D01*
X10301662Y10332236D01*
X10265994Y10332155D01*
X10103555Y10332155D01*
X10103555Y10174111D01*
X10350161Y10174111D01*
X10431580Y10173969D01*
X10493410Y10173386D01*
X10538637Y10172132D01*
X10570248Y10169973D01*
X10591231Y10166677D01*
X10604573Y10162011D01*
X10613261Y10155743D01*
X10615450Y10153467D01*
X10631614Y10121920D01*
X10632797Y10086032D01*
X10619536Y10054915D01*
X10609043Y10044929D01*
X10598129Y10039431D01*
X10581217Y10035178D01*
X10555633Y10032020D01*
X10518701Y10029808D01*
X10467746Y10028394D01*
X10400094Y10027628D01*
X10313069Y10027362D01*
X10293394Y10027355D01*
X10204911Y10027413D01*
X10136227Y10027733D01*
X10084564Y10028533D01*
X10047145Y10030033D01*
X10021190Y10032451D01*
X10003922Y10036006D01*
X9992562Y10040918D01*
X9984332Y10047405D01*
X9979817Y10052062D01*
X9973021Y10060311D01*
X9967712Y10070531D01*
X9963706Y10085400D01*
X9960821Y10107598D01*
X9958874Y10139807D01*
X9957681Y10184704D01*
X9957061Y10244972D01*
X9956829Y10323289D01*
X9956800Y10389206D01*
X9956871Y10481572D01*
X9957208Y10554083D01*
X9957998Y10609463D01*
X9959426Y10650435D01*
X9961679Y10679722D01*
X9964943Y10700047D01*
X9969404Y10714134D01*
X9975248Y10724705D01*
X9980197Y10731389D01*
X10003594Y10761133D01*
X10293774Y10761133D01*
X10390343Y10760940D01*
G37*
X10390343Y10760940D02*
X10466701Y10760026D01*
X10525217Y10757889D01*
X10568255Y10754025D01*
X10598183Y10747933D01*
X10617368Y10739110D01*
X10628176Y10727054D01*
X10632973Y10711261D01*
X10634127Y10691230D01*
X10634133Y10688865D01*
X10633131Y10666208D01*
X10628396Y10648697D01*
X10617333Y10635626D01*
X10597348Y10626287D01*
X10565846Y10619973D01*
X10520232Y10615978D01*
X10457913Y10613594D01*
X10376293Y10612114D01*
X10351277Y10611786D01*
X10109200Y10608733D01*
X10105814Y10543822D01*
X10102429Y10478911D01*
X10270576Y10478911D01*
X10336266Y10478669D01*
X10383172Y10477644D01*
X10415083Y10475389D01*
X10435791Y10471458D01*
X10449084Y10465402D01*
X10458755Y10456776D01*
X10458817Y10456707D01*
X10476356Y10423088D01*
X10475722Y10386752D01*
X10457314Y10355777D01*
X10453671Y10352593D01*
X10440741Y10344388D01*
X10423024Y10338679D01*
X10396570Y10335038D01*
X10357432Y10333033D01*
X10301662Y10332236D01*
X10265994Y10332155D01*
X10103555Y10332155D01*
X10103555Y10174111D01*
X10350161Y10174111D01*
X10431580Y10173969D01*
X10493410Y10173386D01*
X10538637Y10172132D01*
X10570248Y10169973D01*
X10591231Y10166677D01*
X10604573Y10162011D01*
X10613261Y10155743D01*
X10615450Y10153467D01*
X10631614Y10121920D01*
X10632797Y10086032D01*
X10619536Y10054915D01*
X10609043Y10044929D01*
X10598129Y10039431D01*
X10581217Y10035178D01*
X10555633Y10032020D01*
X10518701Y10029808D01*
X10467746Y10028394D01*
X10400094Y10027628D01*
X10313069Y10027362D01*
X10293394Y10027355D01*
X10204911Y10027413D01*
X10136227Y10027733D01*
X10084564Y10028533D01*
X10047145Y10030033D01*
X10021190Y10032451D01*
X10003922Y10036006D01*
X9992562Y10040918D01*
X9984332Y10047405D01*
X9979817Y10052062D01*
X9973021Y10060311D01*
X9967712Y10070531D01*
X9963706Y10085400D01*
X9960821Y10107598D01*
X9958874Y10139807D01*
X9957681Y10184704D01*
X9957061Y10244972D01*
X9956829Y10323289D01*
X9956800Y10389206D01*
X9956871Y10481572D01*
X9957208Y10554083D01*
X9957998Y10609463D01*
X9959426Y10650435D01*
X9961679Y10679722D01*
X9964943Y10700047D01*
X9969404Y10714134D01*
X9975248Y10724705D01*
X9980197Y10731389D01*
X10003594Y10761133D01*
X10293774Y10761133D01*
X10390343Y10760940D01*
G36*
X11178309Y10760925D02*
G01*
X11307288Y10756564D01*
X11416991Y10743339D01*
X11509226Y10720459D01*
X11585802Y10687130D01*
X11648527Y10642562D01*
X11699212Y10585964D01*
X11739663Y10516542D01*
X11740459Y10514849D01*
X11764601Y10452717D01*
X11773203Y10397691D01*
X11766231Y10342313D01*
X11743654Y10279127D01*
X11739372Y10269511D01*
X11710172Y10213234D01*
X11677356Y10169749D01*
X11635002Y10132783D01*
X11577190Y10096065D01*
X11573831Y10094148D01*
X11523504Y10069973D01*
X11466621Y10051918D01*
X11399527Y10039361D01*
X11318565Y10031678D01*
X11220082Y10028247D01*
X11185286Y10027949D01*
X11019594Y10027355D01*
X10996197Y10057100D01*
X10989257Y10066881D01*
X10983842Y10078303D01*
X10979765Y10094105D01*
X10976837Y10117025D01*
X10974867Y10149804D01*
X10974225Y10174111D01*
X11130844Y10174111D01*
X11224726Y10174111D01*
X11279664Y10175717D01*
X11336060Y10179945D01*
X11382345Y10185908D01*
X11385139Y10186410D01*
X11467348Y10208464D01*
X11531114Y10241600D01*
X11578452Y10287353D01*
X11611382Y10347261D01*
X11617108Y10363139D01*
X11622721Y10387867D01*
X11620291Y10412298D01*
X11608467Y10444800D01*
X11601340Y10460766D01*
X11578000Y10503194D01*
X11549880Y10532960D01*
X11518940Y10553689D01*
X11456966Y10580663D01*
X11377651Y10600202D01*
X11285253Y10611454D01*
X11218333Y10613930D01*
X11130844Y10614378D01*
X11130844Y10174111D01*
X10974225Y10174111D01*
X10973668Y10195179D01*
X10973050Y10255889D01*
X10972825Y10334674D01*
X10972800Y10396280D01*
X10972800Y10705715D01*
X11000509Y10733424D01*
X11012806Y10744656D01*
X11026103Y10752347D01*
X11044672Y10757160D01*
X11072786Y10759754D01*
X11114717Y10760790D01*
X11174737Y10760930D01*
X11178309Y10760925D01*
G37*
X11178309Y10760925D02*
X11307288Y10756564D01*
X11416991Y10743339D01*
X11509226Y10720459D01*
X11585802Y10687130D01*
X11648527Y10642562D01*
X11699212Y10585964D01*
X11739663Y10516542D01*
X11740459Y10514849D01*
X11764601Y10452717D01*
X11773203Y10397691D01*
X11766231Y10342313D01*
X11743654Y10279127D01*
X11739372Y10269511D01*
X11710172Y10213234D01*
X11677356Y10169749D01*
X11635002Y10132783D01*
X11577190Y10096065D01*
X11573831Y10094148D01*
X11523504Y10069973D01*
X11466621Y10051918D01*
X11399527Y10039361D01*
X11318565Y10031678D01*
X11220082Y10028247D01*
X11185286Y10027949D01*
X11019594Y10027355D01*
X10996197Y10057100D01*
X10989257Y10066881D01*
X10983842Y10078303D01*
X10979765Y10094105D01*
X10976837Y10117025D01*
X10974867Y10149804D01*
X10974225Y10174111D01*
X11130844Y10174111D01*
X11224726Y10174111D01*
X11279664Y10175717D01*
X11336060Y10179945D01*
X11382345Y10185908D01*
X11385139Y10186410D01*
X11467348Y10208464D01*
X11531114Y10241600D01*
X11578452Y10287353D01*
X11611382Y10347261D01*
X11617108Y10363139D01*
X11622721Y10387867D01*
X11620291Y10412298D01*
X11608467Y10444800D01*
X11601340Y10460766D01*
X11578000Y10503194D01*
X11549880Y10532960D01*
X11518940Y10553689D01*
X11456966Y10580663D01*
X11377651Y10600202D01*
X11285253Y10611454D01*
X11218333Y10613930D01*
X11130844Y10614378D01*
X11130844Y10174111D01*
X10974225Y10174111D01*
X10973668Y10195179D01*
X10973050Y10255889D01*
X10972825Y10334674D01*
X10972800Y10396280D01*
X10972800Y10705715D01*
X11000509Y10733424D01*
X11012806Y10744656D01*
X11026103Y10752347D01*
X11044672Y10757160D01*
X11072786Y10759754D01*
X11114717Y10760790D01*
X11174737Y10760930D01*
X11178309Y10760925D01*
G36*
X13904665Y10759166D02*
G01*
X13924255Y10752165D01*
X13925010Y10751823D01*
X13951613Y10731522D01*
X13966270Y10710639D01*
X13969138Y10700848D01*
X13968996Y10687839D01*
X13964961Y10669305D01*
X13956146Y10642943D01*
X13941669Y10606448D01*
X13920645Y10557513D01*
X13892188Y10493835D01*
X13855415Y10413107D01*
X13835175Y10368984D01*
X13798625Y10290215D01*
X13764315Y10217777D01*
X13733552Y10154320D01*
X13707648Y10102492D01*
X13687910Y10064941D01*
X13675650Y10044316D01*
X13673224Y10041467D01*
X13642183Y10028898D01*
X13607121Y10030581D01*
X13579000Y10045868D01*
X13577854Y10047111D01*
X13566668Y10064046D01*
X13547904Y10097030D01*
X13523875Y10141820D01*
X13496897Y10194168D01*
X13487201Y10213458D01*
X13414014Y10360050D01*
X13334240Y10200807D01*
X13305767Y10145785D01*
X13279350Y10098068D01*
X13257148Y10061307D01*
X13241319Y10039156D01*
X13235954Y10034459D01*
X13194257Y10028098D01*
X13159849Y10041467D01*
X13149728Y10055754D01*
X13132214Y10087508D01*
X13108735Y10133603D01*
X13080720Y10190915D01*
X13049599Y10256320D01*
X13016799Y10326693D01*
X12983750Y10398909D01*
X12951881Y10469845D01*
X12922619Y10536375D01*
X12897395Y10595374D01*
X12877636Y10643719D01*
X12864772Y10678285D01*
X12860231Y10695947D01*
X12860277Y10696587D01*
X12871326Y10718812D01*
X12893410Y10741447D01*
X12894710Y10742432D01*
X12921853Y10757775D01*
X12946958Y10757626D01*
X12956368Y10754734D01*
X12967834Y10748482D01*
X12980010Y10736186D01*
X12994357Y10715292D01*
X13012336Y10683251D01*
X13035407Y10637512D01*
X13065030Y10575523D01*
X13091745Y10518302D01*
X13122480Y10451974D01*
X13150021Y10392326D01*
X13172938Y10342475D01*
X13189798Y10305536D01*
X13199173Y10284627D01*
X13200540Y10281355D01*
X13206689Y10286703D01*
X13220822Y10309091D01*
X13241057Y10345254D01*
X13265515Y10391923D01*
X13275248Y10411178D01*
X13308217Y10476196D01*
X13333643Y10523546D01*
X13353612Y10555981D01*
X13370210Y10576254D01*
X13385524Y10587118D01*
X13401640Y10591325D01*
X13412143Y10591800D01*
X13430670Y10590158D01*
X13446904Y10583369D01*
X13463035Y10568634D01*
X13481251Y10543156D01*
X13503739Y10504139D01*
X13532689Y10448786D01*
X13548662Y10417297D01*
X13574570Y10367113D01*
X13597167Y10325496D01*
X13614458Y10295958D01*
X13624450Y10282011D01*
X13625809Y10281430D01*
X13632261Y10292407D01*
X13646708Y10320910D01*
X13667703Y10363956D01*
X13693797Y10418562D01*
X13723546Y10481746D01*
X13738180Y10513129D01*
X13776250Y10594122D01*
X13806905Y10656444D01*
X13831737Y10702129D01*
X13852337Y10733211D01*
X13870298Y10751722D01*
X13887210Y10759696D01*
X13904665Y10759166D01*
G37*
X13904665Y10759166D02*
X13924255Y10752165D01*
X13925010Y10751823D01*
X13951613Y10731522D01*
X13966270Y10710639D01*
X13969138Y10700848D01*
X13968996Y10687839D01*
X13964961Y10669305D01*
X13956146Y10642943D01*
X13941669Y10606448D01*
X13920645Y10557513D01*
X13892188Y10493835D01*
X13855415Y10413107D01*
X13835175Y10368984D01*
X13798625Y10290215D01*
X13764315Y10217777D01*
X13733552Y10154320D01*
X13707648Y10102492D01*
X13687910Y10064941D01*
X13675650Y10044316D01*
X13673224Y10041467D01*
X13642183Y10028898D01*
X13607121Y10030581D01*
X13579000Y10045868D01*
X13577854Y10047111D01*
X13566668Y10064046D01*
X13547904Y10097030D01*
X13523875Y10141820D01*
X13496897Y10194168D01*
X13487201Y10213458D01*
X13414014Y10360050D01*
X13334240Y10200807D01*
X13305767Y10145785D01*
X13279350Y10098068D01*
X13257148Y10061307D01*
X13241319Y10039156D01*
X13235954Y10034459D01*
X13194257Y10028098D01*
X13159849Y10041467D01*
X13149728Y10055754D01*
X13132214Y10087508D01*
X13108735Y10133603D01*
X13080720Y10190915D01*
X13049599Y10256320D01*
X13016799Y10326693D01*
X12983750Y10398909D01*
X12951881Y10469845D01*
X12922619Y10536375D01*
X12897395Y10595374D01*
X12877636Y10643719D01*
X12864772Y10678285D01*
X12860231Y10695947D01*
X12860277Y10696587D01*
X12871326Y10718812D01*
X12893410Y10741447D01*
X12894710Y10742432D01*
X12921853Y10757775D01*
X12946958Y10757626D01*
X12956368Y10754734D01*
X12967834Y10748482D01*
X12980010Y10736186D01*
X12994357Y10715292D01*
X13012336Y10683251D01*
X13035407Y10637512D01*
X13065030Y10575523D01*
X13091745Y10518302D01*
X13122480Y10451974D01*
X13150021Y10392326D01*
X13172938Y10342475D01*
X13189798Y10305536D01*
X13199173Y10284627D01*
X13200540Y10281355D01*
X13206689Y10286703D01*
X13220822Y10309091D01*
X13241057Y10345254D01*
X13265515Y10391923D01*
X13275248Y10411178D01*
X13308217Y10476196D01*
X13333643Y10523546D01*
X13353612Y10555981D01*
X13370210Y10576254D01*
X13385524Y10587118D01*
X13401640Y10591325D01*
X13412143Y10591800D01*
X13430670Y10590158D01*
X13446904Y10583369D01*
X13463035Y10568634D01*
X13481251Y10543156D01*
X13503739Y10504139D01*
X13532689Y10448786D01*
X13548662Y10417297D01*
X13574570Y10367113D01*
X13597167Y10325496D01*
X13614458Y10295958D01*
X13624450Y10282011D01*
X13625809Y10281430D01*
X13632261Y10292407D01*
X13646708Y10320910D01*
X13667703Y10363956D01*
X13693797Y10418562D01*
X13723546Y10481746D01*
X13738180Y10513129D01*
X13776250Y10594122D01*
X13806905Y10656444D01*
X13831737Y10702129D01*
X13852337Y10733211D01*
X13870298Y10751722D01*
X13887210Y10759696D01*
X13904665Y10759166D01*
G36*
X14348614Y10754323D02*
G01*
X14372327Y10739553D01*
X14398978Y10717973D01*
X14398978Y10396427D01*
X14398893Y10302370D01*
X14398529Y10228268D01*
X14397724Y10171496D01*
X14396313Y10129432D01*
X14394133Y10099452D01*
X14391021Y10078933D01*
X14386814Y10065251D01*
X14381348Y10055784D01*
X14377472Y10051118D01*
X14346034Y10030625D01*
X14310233Y10031461D01*
X14278873Y10048936D01*
X14252222Y10070516D01*
X14252222Y10717973D01*
X14278873Y10739553D01*
X14304594Y10755251D01*
X14325600Y10761133D01*
X14348614Y10754323D01*
G37*
X14348614Y10754323D02*
X14372327Y10739553D01*
X14398978Y10717973D01*
X14398978Y10396427D01*
X14398893Y10302370D01*
X14398529Y10228268D01*
X14397724Y10171496D01*
X14396313Y10129432D01*
X14394133Y10099452D01*
X14391021Y10078933D01*
X14386814Y10065251D01*
X14381348Y10055784D01*
X14377472Y10051118D01*
X14346034Y10030625D01*
X14310233Y10031461D01*
X14278873Y10048936D01*
X14252222Y10070516D01*
X14252222Y10717973D01*
X14278873Y10739553D01*
X14304594Y10755251D01*
X14325600Y10761133D01*
X14348614Y10754323D01*
G36*
X15123065Y10761037D02*
G01*
X15201772Y10760658D01*
X15262863Y10759867D01*
X15308817Y10758530D01*
X15342114Y10756517D01*
X15365236Y10753694D01*
X15380662Y10749931D01*
X15390871Y10745095D01*
X15395813Y10741378D01*
X15421457Y10708842D01*
X15424559Y10675062D01*
X15408711Y10644374D01*
X15398348Y10632111D01*
X15387196Y10623750D01*
X15371035Y10618543D01*
X15345642Y10615743D01*
X15306798Y10614604D01*
X15250280Y10614379D01*
X15239180Y10614378D01*
X15093244Y10614378D01*
X15093244Y10343444D01*
X15093148Y10258046D01*
X15092711Y10192336D01*
X15091712Y10143426D01*
X15089928Y10108427D01*
X15087137Y10084451D01*
X15083117Y10068607D01*
X15077645Y10058009D01*
X15070666Y10049933D01*
X15037734Y10030088D01*
X15003354Y10031652D01*
X14972176Y10054294D01*
X14969886Y10057100D01*
X14962429Y10067708D01*
X14956747Y10080119D01*
X14952601Y10097350D01*
X14949750Y10122416D01*
X14947954Y10158333D01*
X14946972Y10208117D01*
X14946564Y10274783D01*
X14946489Y10350611D01*
X14946489Y10614378D01*
X14807127Y10614378D01*
X14747322Y10614782D01*
X14705918Y10616360D01*
X14678748Y10619653D01*
X14661646Y10625208D01*
X14650443Y10633569D01*
X14649083Y10635022D01*
X14632725Y10668261D01*
X14634172Y10705838D01*
X14652978Y10738555D01*
X14660250Y10744902D01*
X14669627Y10749934D01*
X14683609Y10753804D01*
X14704696Y10756663D01*
X14735389Y10758665D01*
X14778189Y10759961D01*
X14835595Y10760702D01*
X14910110Y10761042D01*
X15004233Y10761132D01*
X15024260Y10761133D01*
X15123065Y10761037D01*
G37*
X15123065Y10761037D02*
X15201772Y10760658D01*
X15262863Y10759867D01*
X15308817Y10758530D01*
X15342114Y10756517D01*
X15365236Y10753694D01*
X15380662Y10749931D01*
X15390871Y10745095D01*
X15395813Y10741378D01*
X15421457Y10708842D01*
X15424559Y10675062D01*
X15408711Y10644374D01*
X15398348Y10632111D01*
X15387196Y10623750D01*
X15371035Y10618543D01*
X15345642Y10615743D01*
X15306798Y10614604D01*
X15250280Y10614379D01*
X15239180Y10614378D01*
X15093244Y10614378D01*
X15093244Y10343444D01*
X15093148Y10258046D01*
X15092711Y10192336D01*
X15091712Y10143426D01*
X15089928Y10108427D01*
X15087137Y10084451D01*
X15083117Y10068607D01*
X15077645Y10058009D01*
X15070666Y10049933D01*
X15037734Y10030088D01*
X15003354Y10031652D01*
X14972176Y10054294D01*
X14969886Y10057100D01*
X14962429Y10067708D01*
X14956747Y10080119D01*
X14952601Y10097350D01*
X14949750Y10122416D01*
X14947954Y10158333D01*
X14946972Y10208117D01*
X14946564Y10274783D01*
X14946489Y10350611D01*
X14946489Y10614378D01*
X14807127Y10614378D01*
X14747322Y10614782D01*
X14705918Y10616360D01*
X14678748Y10619653D01*
X14661646Y10625208D01*
X14650443Y10633569D01*
X14649083Y10635022D01*
X14632725Y10668261D01*
X14634172Y10705838D01*
X14652978Y10738555D01*
X14660250Y10744902D01*
X14669627Y10749934D01*
X14683609Y10753804D01*
X14704696Y10756663D01*
X14735389Y10758665D01*
X14778189Y10759961D01*
X14835595Y10760702D01*
X14910110Y10761042D01*
X15004233Y10761132D01*
X15024260Y10761133D01*
X15123065Y10761037D01*
G36*
X16388823Y10755667D02*
G01*
X16420202Y10733424D01*
X16447911Y10705715D01*
X16447911Y10396280D01*
X16447838Y10304401D01*
X16447495Y10232360D01*
X16446692Y10177420D01*
X16445241Y10136840D01*
X16442952Y10107883D01*
X16439636Y10087809D01*
X16435105Y10073879D01*
X16429169Y10063355D01*
X16424514Y10057100D01*
X16393783Y10032527D01*
X16358496Y10029859D01*
X16326245Y10044929D01*
X16315588Y10053826D01*
X16308464Y10065643D01*
X16304167Y10084674D01*
X16301991Y10115208D01*
X16301228Y10161538D01*
X16301155Y10197329D01*
X16301155Y10332155D01*
X15804444Y10332155D01*
X15804444Y10209500D01*
X15803931Y10153413D01*
X15801876Y10114867D01*
X15797508Y10088839D01*
X15790056Y10070303D01*
X15781047Y10057100D01*
X15750144Y10032596D01*
X15715196Y10029694D01*
X15681738Y10047111D01*
X15672604Y10056241D01*
X15666152Y10068345D01*
X15661897Y10087199D01*
X15659352Y10116580D01*
X15658029Y10160263D01*
X15657443Y10222025D01*
X15657375Y10236200D01*
X15656891Y10352569D01*
X15656641Y10448473D01*
X15656723Y10526023D01*
X15657231Y10587331D01*
X15658262Y10634510D01*
X15659913Y10669670D01*
X15662279Y10694924D01*
X15665457Y10712383D01*
X15669544Y10724159D01*
X15674634Y10732365D01*
X15680266Y10738555D01*
X15712128Y10758356D01*
X15745357Y10755667D01*
X15776735Y10733424D01*
X15789433Y10719074D01*
X15797526Y10703222D01*
X15802042Y10680646D01*
X15804006Y10646122D01*
X15804444Y10594424D01*
X15804444Y10478911D01*
X16301155Y10478911D01*
X16301155Y10597444D01*
X16301662Y10652052D01*
X16303698Y10688925D01*
X16308035Y10712893D01*
X16315447Y10728785D01*
X16323733Y10738555D01*
X16355594Y10758356D01*
X16388823Y10755667D01*
G37*
X16388823Y10755667D02*
X16420202Y10733424D01*
X16447911Y10705715D01*
X16447911Y10396280D01*
X16447838Y10304401D01*
X16447495Y10232360D01*
X16446692Y10177420D01*
X16445241Y10136840D01*
X16442952Y10107883D01*
X16439636Y10087809D01*
X16435105Y10073879D01*
X16429169Y10063355D01*
X16424514Y10057100D01*
X16393783Y10032527D01*
X16358496Y10029859D01*
X16326245Y10044929D01*
X16315588Y10053826D01*
X16308464Y10065643D01*
X16304167Y10084674D01*
X16301991Y10115208D01*
X16301228Y10161538D01*
X16301155Y10197329D01*
X16301155Y10332155D01*
X15804444Y10332155D01*
X15804444Y10209500D01*
X15803931Y10153413D01*
X15801876Y10114867D01*
X15797508Y10088839D01*
X15790056Y10070303D01*
X15781047Y10057100D01*
X15750144Y10032596D01*
X15715196Y10029694D01*
X15681738Y10047111D01*
X15672604Y10056241D01*
X15666152Y10068345D01*
X15661897Y10087199D01*
X15659352Y10116580D01*
X15658029Y10160263D01*
X15657443Y10222025D01*
X15657375Y10236200D01*
X15656891Y10352569D01*
X15656641Y10448473D01*
X15656723Y10526023D01*
X15657231Y10587331D01*
X15658262Y10634510D01*
X15659913Y10669670D01*
X15662279Y10694924D01*
X15665457Y10712383D01*
X15669544Y10724159D01*
X15674634Y10732365D01*
X15680266Y10738555D01*
X15712128Y10758356D01*
X15745357Y10755667D01*
X15776735Y10733424D01*
X15789433Y10719074D01*
X15797526Y10703222D01*
X15802042Y10680646D01*
X15804006Y10646122D01*
X15804444Y10594424D01*
X15804444Y10478911D01*
X16301155Y10478911D01*
X16301155Y10597444D01*
X16301662Y10652052D01*
X16303698Y10688925D01*
X16308035Y10712893D01*
X16315447Y10728785D01*
X16323733Y10738555D01*
X16355594Y10758356D01*
X16388823Y10755667D01*
%TD*%
D11*
%TO.P,J3,44*%
%TO.N,GND*%
X40550000Y21380200D03*
%TO.P,J3,43*%
X40550000Y19380200D03*
%TO.P,J3,42*%
%TO.N,+5V*%
X42550000Y21380200D03*
%TO.P,J3,41*%
X42550000Y19380200D03*
%TO.P,J3,40*%
%TO.N,GND*%
X44550000Y21380200D03*
%TO.P,J3,39*%
%TO.N,/~ACT*%
X44550000Y19380200D03*
%TO.P,J3,38*%
%TO.N,/~CS1*%
X46550000Y21380200D03*
%TO.P,J3,37*%
%TO.N,~CFCS*%
X46550000Y19380200D03*
%TO.P,J3,36*%
%TO.N,A2*%
X48550000Y21380200D03*
%TO.P,J3,35*%
%TO.N,A0*%
X48550000Y19380200D03*
%TO.P,J3,34*%
%TO.N,/~PDIAG*%
X50550000Y21380200D03*
%TO.P,J3,33*%
%TO.N,A1*%
X50550000Y19380200D03*
%TO.P,J3,32*%
%TO.N,Net-(J3-Pad32)*%
X52550000Y21380200D03*
%TO.P,J3,31*%
%TO.N,Net-(J3-Pad31)*%
X52550000Y19380200D03*
%TO.P,J3,30*%
%TO.N,GND*%
X54550000Y21380200D03*
%TO.P,J3,29*%
%TO.N,~DMACK*%
X54550000Y19380200D03*
%TO.P,J3,28*%
%TO.N,GND*%
X56550000Y21380200D03*
%TO.P,J3,27*%
%TO.N,Net-(J3-Pad27)*%
X56550000Y19380200D03*
%TO.P,J3,26*%
%TO.N,GND*%
X58550000Y21380200D03*
%TO.P,J3,25*%
%TO.N,~IORD*%
X58550000Y19380200D03*
%TO.P,J3,24*%
%TO.N,GND*%
X60550000Y21380200D03*
%TO.P,J3,23*%
%TO.N,~IOWR*%
X60550000Y19380200D03*
%TO.P,J3,22*%
%TO.N,GND*%
X62550000Y21380200D03*
%TO.P,J3,21*%
%TO.N,Net-(J3-Pad21)*%
X62550000Y19380200D03*
%TO.P,J3,20*%
%TO.N,Net-(J3-Pad20)*%
X64550000Y21380200D03*
%TO.P,J3,19*%
%TO.N,GND*%
X64550000Y19380200D03*
%TO.P,J3,18*%
%TO.N,Net-(J3-Pad18)*%
X66550000Y21380200D03*
%TO.P,J3,17*%
%TO.N,D0'*%
X66550000Y19380200D03*
%TO.P,J3,16*%
%TO.N,Net-(J3-Pad16)*%
X68550000Y21380200D03*
%TO.P,J3,15*%
%TO.N,D1'*%
X68550000Y19380200D03*
%TO.P,J3,14*%
%TO.N,Net-(J3-Pad14)*%
X70550000Y21380200D03*
%TO.P,J3,13*%
%TO.N,D2'*%
X70550000Y19380200D03*
%TO.P,J3,12*%
%TO.N,Net-(J3-Pad12)*%
X72550000Y21380200D03*
%TO.P,J3,11*%
%TO.N,D3'*%
X72550000Y19380200D03*
%TO.P,J3,10*%
%TO.N,Net-(J3-Pad10)*%
X74550000Y21380200D03*
%TO.P,J3,9*%
%TO.N,D4'*%
X74550000Y19380200D03*
%TO.P,J3,8*%
%TO.N,Net-(J3-Pad8)*%
X76550000Y21380200D03*
%TO.P,J3,7*%
%TO.N,D5'*%
X76550000Y19380200D03*
%TO.P,J3,6*%
%TO.N,Net-(J3-Pad6)*%
X78550000Y21380200D03*
%TO.P,J3,5*%
%TO.N,D6'*%
X78550000Y19380200D03*
%TO.P,J3,4*%
%TO.N,Net-(J3-Pad4)*%
X80550000Y21380200D03*
%TO.P,J3,3*%
%TO.N,D7'*%
X80550000Y19380200D03*
%TO.P,J3,2*%
%TO.N,GND*%
X82550000Y21380200D03*
%TO.P,J3,1*%
%TO.N,~RESET*%
%TA.AperFunction,ComponentPad*%
G36*
G01*
X82212500Y20055200D02*
X82887500Y20055200D01*
G75*
G02*
X83225000Y19717700I0J-337500D01*
G01*
X83225000Y19042700D01*
G75*
G02*
X82887500Y18705200I-337500J0D01*
G01*
X82212500Y18705200D01*
G75*
G02*
X81875000Y19042700I0J337500D01*
G01*
X81875000Y19717700D01*
G75*
G02*
X82212500Y20055200I337500J0D01*
G01*
G37*
%TD.AperFunction*%
%TD*%
D12*
%TO.P,J2,10*%
%TO.N,Net-(J2-Pad10)*%
X64770000Y4140200D03*
%TO.P,J2,9*%
%TO.N,Net-(J2-Pad9)*%
X62230000Y4140200D03*
%TO.P,J2,8*%
%TO.N,Net-(J2-Pad8)*%
X59690000Y4140200D03*
%TO.P,J2,7*%
%TO.N,Net-(J2-Pad7)*%
X57150000Y4140200D03*
%TO.P,J2,6*%
%TO.N,Net-(J2-Pad6)*%
X54610000Y4140200D03*
%TO.P,J2,5*%
%TO.N,Net-(J2-Pad5)*%
X52070000Y4140200D03*
%TO.P,J2,4*%
%TO.N,Net-(J2-Pad4)*%
X49530000Y4140200D03*
%TO.P,J2,3*%
%TO.N,Net-(J2-Pad3)*%
X46990000Y4140200D03*
%TO.P,J2,2*%
%TO.N,+5V*%
X44450000Y4140200D03*
D13*
%TO.P,J2,1*%
%TO.N,GND*%
X41910000Y4140200D03*
%TD*%
D14*
%TO.P,U3,20*%
%TO.N,+5V*%
X59690000Y15570200D03*
%TO.P,U3,10*%
%TO.N,GND*%
X82550000Y7950200D03*
%TO.P,U3,19*%
%TO.N,~IOCS*%
X62230000Y15570200D03*
%TO.P,U3,9*%
%TO.N,D7*%
X80010000Y7950200D03*
%TO.P,U3,18*%
%TO.N,D0'*%
X64770000Y15570200D03*
%TO.P,U3,8*%
%TO.N,D6*%
X77470000Y7950200D03*
%TO.P,U3,17*%
%TO.N,D1'*%
X67310000Y15570200D03*
%TO.P,U3,7*%
%TO.N,D5*%
X74930000Y7950200D03*
%TO.P,U3,16*%
%TO.N,D2'*%
X69850000Y15570200D03*
%TO.P,U3,6*%
%TO.N,D4*%
X72390000Y7950200D03*
%TO.P,U3,15*%
%TO.N,D3'*%
X72390000Y15570200D03*
%TO.P,U3,5*%
%TO.N,D3*%
X69850000Y7950200D03*
%TO.P,U3,14*%
%TO.N,D4'*%
X74930000Y15570200D03*
%TO.P,U3,4*%
%TO.N,D2*%
X67310000Y7950200D03*
%TO.P,U3,13*%
%TO.N,D5'*%
X77470000Y15570200D03*
%TO.P,U3,3*%
%TO.N,D1*%
X64770000Y7950200D03*
%TO.P,U3,12*%
%TO.N,D6'*%
X80010000Y15570200D03*
%TO.P,U3,2*%
%TO.N,D0*%
X62230000Y7950200D03*
%TO.P,U3,11*%
%TO.N,D7'*%
X82550000Y15570200D03*
%TO.P,U3,1*%
%TO.N,~IORD*%
%TA.AperFunction,ComponentPad*%
G36*
G01*
X60090000Y6750200D02*
X59290000Y6750200D01*
G75*
G02*
X58890000Y7150200I0J400000D01*
G01*
X58890000Y8750200D01*
G75*
G02*
X59290000Y9150200I400000J0D01*
G01*
X60090000Y9150200D01*
G75*
G02*
X60490000Y8750200I0J-400000D01*
G01*
X60490000Y7150200D01*
G75*
G02*
X60090000Y6750200I-400000J0D01*
G01*
G37*
%TD.AperFunction*%
%TD*%
D15*
%TO.P,C4,2*%
%TO.N,GND*%
X42545000Y14657700D03*
%TO.P,C4,1*%
%TO.N,+5V*%
X42545000Y17157700D03*
%TD*%
%TO.P,C3,2*%
%TO.N,GND*%
X57150000Y13070200D03*
%TO.P,C3,1*%
%TO.N,+5V*%
X57150000Y15570200D03*
%TD*%
%TO.P,C2,2*%
%TO.N,GND*%
X92750000Y28270200D03*
%TO.P,C2,1*%
%TO.N,+5V*%
X95250000Y28270200D03*
%TD*%
%TO.P,C1,2*%
%TO.N,GND*%
X26710000Y28270200D03*
%TO.P,C1,1*%
%TO.N,+5V*%
X29210000Y28270200D03*
%TD*%
D16*
%TO.P,U2,14*%
%TO.N,+5V*%
X95250000Y24460200D03*
%TO.P,U2,7*%
%TO.N,GND*%
X87630000Y9220200D03*
%TO.P,U2,13*%
%TO.N,~IOCS*%
X95250000Y21920200D03*
%TO.P,U2,6*%
%TO.N,~IORD*%
X87630000Y11760200D03*
%TO.P,U2,12*%
%TO.N,~WR*%
X95250000Y19380200D03*
%TO.P,U2,5*%
%TO.N,~RD*%
X87630000Y14300200D03*
%TO.P,U2,11*%
%TO.N,~IOWR*%
X95250000Y16840200D03*
%TO.P,U2,4*%
%TO.N,~IOCS*%
X87630000Y16840200D03*
%TO.P,U2,10*%
%TO.N,~IOREQ*%
X95250000Y14300200D03*
%TO.P,U2,3*%
%TO.N,Net-(U2-Pad3)*%
X87630000Y19380200D03*
%TO.P,U2,9*%
%TO.N,~CFCS*%
X95250000Y11760200D03*
%TO.P,U2,2*%
%TO.N,GND*%
X87630000Y21920200D03*
%TO.P,U2,8*%
%TO.N,~IOCS*%
X95250000Y9220200D03*
%TO.P,U2,1*%
%TO.N,GND*%
%TA.AperFunction,ComponentPad*%
G36*
G01*
X86430000Y24060200D02*
X86430000Y24860200D01*
G75*
G02*
X86830000Y25260200I400000J0D01*
G01*
X88430000Y25260200D01*
G75*
G02*
X88830000Y24860200I0J-400000D01*
G01*
X88830000Y24060200D01*
G75*
G02*
X88430000Y23660200I-400000J0D01*
G01*
X86830000Y23660200D01*
G75*
G02*
X86430000Y24060200I0J400000D01*
G01*
G37*
%TD.AperFunction*%
%TD*%
D17*
%TO.P,RN1,5*%
%TO.N,Net-(RN1-Pad5)*%
X44450000Y10490200D03*
%TO.P,RN1,4*%
%TO.N,/~CS1*%
X46990000Y10490200D03*
%TO.P,RN1,3*%
%TO.N,/~PDIAG*%
X49530000Y10490200D03*
%TO.P,RN1,2*%
%TO.N,~DMACK*%
X52070000Y10490200D03*
%TO.P,RN1,1*%
%TO.N,+5V*%
%TA.AperFunction,ComponentPad*%
G36*
G01*
X55410000Y10890200D02*
X55410000Y10090200D01*
G75*
G02*
X55010000Y9690200I-400000J0D01*
G01*
X54210000Y9690200D01*
G75*
G02*
X53810000Y10090200I0J400000D01*
G01*
X53810000Y10890200D01*
G75*
G02*
X54210000Y11290200I400000J0D01*
G01*
X55010000Y11290200D01*
G75*
G02*
X55410000Y10890200I0J-400000D01*
G01*
G37*
%TD.AperFunction*%
%TD*%
%TO.P,R1,2*%
%TO.N,/~ACT'*%
X29210000Y39700200D03*
D15*
%TO.P,R1,1*%
%TO.N,/~ACT*%
X29210000Y32080200D03*
%TD*%
D18*
%TO.P,D1,2*%
%TO.N,+5V*%
X26670000Y44780200D03*
%TO.P,D1,1*%
%TO.N,/~ACT'*%
%TA.AperFunction,ComponentPad*%
G36*
G01*
X30110000Y45230200D02*
X30110000Y44330200D01*
G75*
G02*
X29660000Y43880200I-450000J0D01*
G01*
X28760000Y43880200D01*
G75*
G02*
X28310000Y44330200I0J450000D01*
G01*
X28310000Y45230200D01*
G75*
G02*
X28760000Y45680200I450000J0D01*
G01*
X29660000Y45680200D01*
G75*
G02*
X30110000Y45230200I0J-450000D01*
G01*
G37*
%TD.AperFunction*%
%TD*%
D16*
%TO.P,U1,16*%
%TO.N,+5V*%
X29210000Y25730200D03*
%TO.P,U1,8*%
%TO.N,GND*%
X21590000Y7950200D03*
%TO.P,U1,15*%
%TO.N,Net-(U1-Pad15)*%
X29210000Y23190200D03*
%TO.P,U1,7*%
%TO.N,Net-(U1-Pad7)*%
X21590000Y10490200D03*
%TO.P,U1,14*%
%TO.N,Net-(U1-Pad14)*%
X29210000Y20650200D03*
%TO.P,U1,6*%
%TO.N,~M1*%
X21590000Y13030200D03*
%TO.P,U1,13*%
%TO.N,~CFCS*%
X29210000Y18110200D03*
%TO.P,U1,5*%
%TO.N,A7*%
X21590000Y15570200D03*
%TO.P,U1,12*%
%TO.N,Net-(U1-Pad12)*%
X29210000Y15570200D03*
%TO.P,U1,4*%
%TO.N,A6*%
X21590000Y18110200D03*
%TO.P,U1,11*%
%TO.N,Net-(U1-Pad11)*%
X29210000Y13030200D03*
%TO.P,U1,3*%
%TO.N,A5*%
X21590000Y20650200D03*
%TO.P,U1,10*%
%TO.N,Net-(U1-Pad10)*%
X29210000Y10490200D03*
%TO.P,U1,2*%
%TO.N,A4*%
X21590000Y23190200D03*
%TO.P,U1,9*%
%TO.N,Net-(U1-Pad9)*%
X29210000Y7950200D03*
%TO.P,U1,1*%
%TO.N,A3*%
%TA.AperFunction,ComponentPad*%
G36*
G01*
X20390000Y25330200D02*
X20390000Y26130200D01*
G75*
G02*
X20790000Y26530200I400000J0D01*
G01*
X22390000Y26530200D01*
G75*
G02*
X22790000Y26130200I0J-400000D01*
G01*
X22790000Y25330200D01*
G75*
G02*
X22390000Y24930200I-400000J0D01*
G01*
X20790000Y24930200D01*
G75*
G02*
X20390000Y25330200I0J400000D01*
G01*
G37*
%TD.AperFunction*%
%TD*%
D12*
%TO.P,J1,39*%
%TO.N,Net-(J1-Pad39)*%
X97790000Y1600200D03*
%TO.P,J1,38*%
%TO.N,Net-(J1-Pad38)*%
X95250000Y1600200D03*
%TO.P,J1,37*%
%TO.N,Net-(J1-Pad37)*%
X92710000Y1600200D03*
%TO.P,J1,36*%
%TO.N,Net-(J1-Pad36)*%
X90170000Y1600200D03*
%TO.P,J1,35*%
%TO.N,Net-(J1-Pad35)*%
X87630000Y1600200D03*
%TO.P,J1,34*%
%TO.N,D7*%
X85090000Y1600200D03*
%TO.P,J1,33*%
%TO.N,D6*%
X82550000Y1600200D03*
%TO.P,J1,32*%
%TO.N,D5*%
X80010000Y1600200D03*
%TO.P,J1,31*%
%TO.N,D4*%
X77470000Y1600200D03*
%TO.P,J1,30*%
%TO.N,D3*%
X74930000Y1600200D03*
%TO.P,J1,29*%
%TO.N,D2*%
X72390000Y1600200D03*
%TO.P,J1,28*%
%TO.N,D1*%
X69850000Y1600200D03*
%TO.P,J1,27*%
%TO.N,D0*%
X67310000Y1600200D03*
%TO.P,J1,26*%
%TO.N,~IOREQ*%
X64770000Y1600200D03*
%TO.P,J1,25*%
%TO.N,~RD*%
X62230000Y1600200D03*
%TO.P,J1,24*%
%TO.N,~WR*%
X59690000Y1600200D03*
%TO.P,J1,23*%
%TO.N,Net-(J1-Pad23)*%
X57150000Y1600200D03*
%TO.P,J1,22*%
%TO.N,Net-(J1-Pad22)*%
X54610000Y1600200D03*
%TO.P,J1,21*%
%TO.N,Net-(J1-Pad21)*%
X52070000Y1600200D03*
%TO.P,J1,20*%
%TO.N,~RESET*%
X49530000Y1600200D03*
%TO.P,J1,19*%
%TO.N,~M1*%
X46990000Y1600200D03*
%TO.P,J1,18*%
%TO.N,+5V*%
X44450000Y1600200D03*
%TO.P,J1,17*%
%TO.N,GND*%
X41910000Y1600200D03*
%TO.P,J1,16*%
%TO.N,A0*%
X39370000Y1600200D03*
%TO.P,J1,15*%
%TO.N,A1*%
X36830000Y1600200D03*
%TO.P,J1,14*%
%TO.N,A2*%
X34290000Y1600200D03*
%TO.P,J1,13*%
%TO.N,A3*%
X31750000Y1600200D03*
%TO.P,J1,12*%
%TO.N,A4*%
X29210000Y1600200D03*
%TO.P,J1,11*%
%TO.N,A5*%
X26670000Y1600200D03*
%TO.P,J1,10*%
%TO.N,A6*%
X24130000Y1600200D03*
%TO.P,J1,9*%
%TO.N,A7*%
X21590000Y1600200D03*
%TO.P,J1,8*%
%TO.N,Net-(J1-Pad8)*%
X19050000Y1600200D03*
%TO.P,J1,7*%
%TO.N,Net-(J1-Pad7)*%
X16510000Y1600200D03*
%TO.P,J1,6*%
%TO.N,Net-(J1-Pad6)*%
X13970000Y1600200D03*
%TO.P,J1,5*%
%TO.N,Net-(J1-Pad5)*%
X11430000Y1600200D03*
%TO.P,J1,4*%
%TO.N,Net-(J1-Pad4)*%
X8890000Y1600200D03*
%TO.P,J1,3*%
%TO.N,Net-(J1-Pad3)*%
X6350000Y1600200D03*
%TO.P,J1,2*%
%TO.N,Net-(J1-Pad2)*%
X3810000Y1600200D03*
%TO.P,J1,1*%
%TO.N,Net-(J1-Pad1)*%
%TA.AperFunction,ComponentPad*%
G36*
G01*
X1695000Y750200D02*
X845000Y750200D01*
G75*
G02*
X420000Y1175200I0J425000D01*
G01*
X420000Y2025200D01*
G75*
G02*
X845000Y2450200I425000J0D01*
G01*
X1695000Y2450200D01*
G75*
G02*
X2120000Y2025200I0J-425000D01*
G01*
X2120000Y1175200D01*
G75*
G02*
X1695000Y750200I-425000J0D01*
G01*
G37*
%TD.AperFunction*%
%TD*%
D19*
%TO.N,D0*%
X64135000Y6045200D03*
%TO.N,~IOREQ*%
X93345000Y12395200D03*
%TO.N,~WR*%
X92603235Y16733435D03*
%TO.N,~RESET*%
X65950000Y18110200D03*
D20*
%TO.N,+5V*%
X45720000Y12395200D03*
D19*
%TO.N,A0*%
X39370000Y3505200D03*
X48539402Y16357600D03*
%TO.N,A1*%
X37599164Y3470200D03*
%TO.N,A2*%
X36830000Y4140200D03*
%TO.N,~M1*%
X26670000Y10490200D03*
%TO.N,~IORD*%
X62865000Y9855200D03*
X58420000Y10490200D03*
%TO.N,/~ACT*%
X42545000Y23190200D03*
%TO.N,/~CS1*%
X45613235Y16311965D03*
X47477786Y14447454D03*
%TO.N,~CFCS*%
X41528996Y18313400D03*
X83464400Y20370800D03*
%TO.N,~IOCS*%
X90805000Y20015200D03*
%TD*%
D21*
%TO.N,GND*%
X62550000Y21380200D02*
X64550000Y19380200D01*
D22*
%TO.N,D7*%
X80010000Y7315200D02*
X80010000Y7950200D01*
X85090000Y1600200D02*
X85090000Y2235200D01*
X85090000Y2235200D02*
X80010000Y7315200D01*
%TO.N,D6*%
X77470000Y7315200D02*
X77470000Y7950200D01*
X82550000Y1600200D02*
X82550000Y2235200D01*
X82550000Y2235200D02*
X77470000Y7315200D01*
%TO.N,D5*%
X74930000Y7315200D02*
X74930000Y7950200D01*
X80010000Y1600200D02*
X80010000Y2235200D01*
X80010000Y2235200D02*
X74930000Y7315200D01*
%TO.N,D4*%
X72390000Y7315200D02*
X72390000Y7950200D01*
X77470000Y1600200D02*
X77470000Y2235200D01*
X77470000Y2235200D02*
X72390000Y7315200D01*
%TO.N,D3*%
X69850000Y7315200D02*
X69850000Y7950200D01*
X74930000Y1600200D02*
X74930000Y2235200D01*
X74930000Y2235200D02*
X69850000Y7315200D01*
%TO.N,D2*%
X67310000Y7315200D02*
X67310000Y7950200D01*
X72390000Y1600200D02*
X72390000Y2235200D01*
X72390000Y2235200D02*
X67310000Y7315200D01*
%TO.N,D1*%
X64770000Y7315200D02*
X64770000Y7950200D01*
X69850000Y1600200D02*
X69850000Y2235200D01*
X69850000Y2235200D02*
X64770000Y7315200D01*
%TO.N,D0*%
X67310000Y1600200D02*
X67310000Y3505200D01*
X67310000Y3505200D02*
X64770000Y6045200D01*
X64770000Y6045200D02*
X64135000Y6045200D01*
%TO.N,~IOREQ*%
X91440000Y10490200D02*
X93345000Y12395200D01*
X64770000Y10490200D02*
X91440000Y10490200D01*
X63500000Y9220200D02*
X64770000Y10490200D01*
X64770000Y1600200D02*
X63500000Y2870200D01*
X63500000Y2870200D02*
X63500000Y9220200D01*
%TO.N,~RD*%
X60960000Y9220200D02*
X63500000Y11760200D01*
X62230000Y1600200D02*
X60960000Y2870200D01*
X60960000Y2870200D02*
X60960000Y9220200D01*
X63500000Y11760200D02*
X85090000Y11760200D01*
X85090000Y11760200D02*
X87630000Y14300200D01*
%TO.N,~WR*%
X91440000Y15570200D02*
X92603235Y16733435D01*
X83185000Y12395200D02*
X86360000Y15570200D01*
X58420000Y8967198D02*
X61848002Y12395200D01*
X58420000Y2870200D02*
X58420000Y8967198D01*
X61848002Y12395200D02*
X83185000Y12395200D01*
X59690000Y1600200D02*
X58420000Y2870200D01*
X86360000Y15570200D02*
X91440000Y15570200D01*
%TO.N,~RESET*%
X50800000Y2870200D02*
X50800000Y4775200D01*
X49530000Y1600200D02*
X50800000Y2870200D01*
X60960000Y12142198D02*
X60960000Y16840200D01*
X50800000Y4775200D02*
X51435000Y5410200D01*
X51435000Y5410200D02*
X54228002Y5410200D01*
X54228002Y5410200D02*
X60960000Y12142198D01*
X60960000Y16840200D02*
X62230000Y18110200D01*
X62230000Y18110200D02*
X65950000Y18110200D01*
D21*
%TO.N,+5V*%
X29210000Y25730200D02*
X29210000Y28270200D01*
X42550000Y21380200D02*
X42550000Y19380200D01*
X42550000Y17162700D02*
X42545000Y17157700D01*
X42550000Y19380200D02*
X42550000Y17162700D01*
X95250000Y28270200D02*
X95250000Y24460200D01*
X38200000Y25730200D02*
X29210000Y25730200D01*
X42550000Y21380200D02*
X38200000Y25730200D01*
X55562500Y13982700D02*
X57150000Y15570200D01*
X54610000Y10490200D02*
X55562500Y11442700D01*
X55562500Y11442700D02*
X55562500Y13982700D01*
X46337509Y6027709D02*
X50147509Y6027709D01*
X50147509Y6027709D02*
X54610000Y10490200D01*
X44450000Y4140200D02*
X46337509Y6027709D01*
D22*
X26670000Y30810200D02*
X26670000Y44780200D01*
X29210000Y28270200D02*
X26670000Y30810200D01*
D21*
X46337509Y6027709D02*
X46337509Y9237691D01*
X46337509Y9237691D02*
X45720000Y9855200D01*
D23*
X45720000Y9855200D02*
X45720000Y11125200D01*
D21*
X45720000Y11125200D02*
X45720000Y12395200D01*
X42550000Y21380200D02*
X47535000Y26365200D01*
X88900000Y26365200D02*
X90805000Y24460200D01*
X47535000Y26365200D02*
X88900000Y26365200D01*
X90805000Y24460200D02*
X95250000Y24460200D01*
D22*
%TO.N,A0*%
X39370000Y3505200D02*
X39370000Y7188198D01*
X39370000Y7188198D02*
X48539402Y16357600D01*
%TO.N,A1*%
X37599164Y6417271D02*
X49875001Y18693108D01*
X49875001Y18693108D02*
X49875001Y18705201D01*
X49875001Y18705201D02*
X50550000Y19380200D01*
X37599164Y3470200D02*
X37599164Y6417271D01*
%TO.N,A2*%
X47574999Y17425199D02*
X47574999Y20405199D01*
X36830000Y4140200D02*
X36830000Y6680200D01*
X47574999Y20405199D02*
X48550000Y21380200D01*
X36830000Y6680200D02*
X47574999Y17425199D01*
%TO.N,A3*%
X31750000Y1600200D02*
X26035000Y7315200D01*
X26035000Y7315200D02*
X26035000Y21285200D01*
X26035000Y21285200D02*
X21590000Y25730200D01*
%TO.N,A4*%
X29210000Y1600200D02*
X25400000Y5410200D01*
X25400000Y5410200D02*
X25400000Y19380200D01*
X25400000Y19380200D02*
X21590000Y23190200D01*
%TO.N,A5*%
X24765000Y17475200D02*
X21590000Y20650200D01*
X26670000Y1600200D02*
X24765000Y3505200D01*
X24765000Y3505200D02*
X24765000Y17475200D01*
%TO.N,A6*%
X24130000Y1600200D02*
X24130000Y15570200D01*
X24130000Y15570200D02*
X21590000Y18110200D01*
%TO.N,A7*%
X21590000Y1600200D02*
X19685000Y3505200D01*
X19685000Y13665200D02*
X21590000Y15570200D01*
X19685000Y3505200D02*
X19685000Y13665200D01*
%TO.N,~M1*%
X30480000Y9220200D02*
X27940000Y9220200D01*
X36830000Y2870200D02*
X30480000Y9220200D01*
X46990000Y1600200D02*
X45720000Y2870200D01*
X45720000Y2870200D02*
X36830000Y2870200D01*
X27940000Y9220200D02*
X26670000Y10490200D01*
%TO.N,~IOWR*%
X95249990Y16840200D02*
X95250000Y16840200D01*
X88900000Y20650200D02*
X90170000Y19380200D01*
X62230000Y22555200D02*
X84455000Y22555200D01*
X86360000Y20650200D02*
X88900000Y20650200D01*
X61595000Y21920200D02*
X62230000Y22555200D01*
X61595000Y21868202D02*
X61595000Y21920200D01*
X61595000Y20425200D02*
X61595000Y20892198D01*
X84455000Y22555200D02*
X86360000Y20650200D01*
X61595000Y20892198D02*
X61574999Y20912199D01*
X60550000Y19380200D02*
X61595000Y20425200D01*
X61574999Y20912199D02*
X61574999Y21848201D01*
X92710000Y19380200D02*
X95250000Y16840200D01*
X61574999Y21848201D02*
X61595000Y21868202D01*
X90170000Y19380200D02*
X92710000Y19380200D01*
%TO.N,~IORD*%
X87630000Y11760200D02*
X86360000Y11760200D01*
X86360000Y11760200D02*
X85725000Y11125200D01*
X85725000Y11125200D02*
X64135000Y11125200D01*
X64135000Y11125200D02*
X62865000Y9855200D01*
X58550000Y19380200D02*
X58550000Y10620200D01*
X58550000Y10620200D02*
X58420000Y10490200D01*
D24*
%TO.N,/~ACT'*%
X29210000Y44780200D02*
X29210000Y39700200D01*
D22*
%TO.N,/~PDIAG*%
X51525001Y12485201D02*
X49530000Y10490200D01*
X51525001Y20405199D02*
X51525001Y12485201D01*
X50550000Y21380200D02*
X51525001Y20405199D01*
%TO.N,/~ACT*%
X29210000Y32080200D02*
X33655000Y32080200D01*
X33655000Y32080200D02*
X42545000Y23190200D01*
%TO.N,/~CS1*%
X45574999Y16350201D02*
X45613235Y16311965D01*
X46550000Y21380200D02*
X45574999Y20405199D01*
X45574999Y20405199D02*
X45574999Y16350201D01*
X47477786Y10977986D02*
X46990000Y10490200D01*
X47477786Y14447454D02*
X47477786Y10977986D01*
%TO.N,D2'*%
X70550000Y16270200D02*
X69850000Y15570200D01*
X70550000Y19380200D02*
X70550000Y16270200D01*
%TO.N,D1'*%
X68550000Y16810200D02*
X67310000Y15570200D01*
X68550000Y19380200D02*
X68550000Y16810200D01*
%TO.N,D0'*%
X66550000Y17350200D02*
X64770000Y15570200D01*
X66550000Y19380200D02*
X66550000Y17350200D01*
%TO.N,~CFCS*%
X29210000Y18110200D02*
X41325796Y18110200D01*
X41325796Y18110200D02*
X41528996Y18313400D01*
X93345000Y16840200D02*
X93345000Y13665200D01*
X92075000Y18110200D02*
X93345000Y16840200D01*
X85725000Y18110200D02*
X92075000Y18110200D01*
X83464400Y20370800D02*
X85725000Y18110200D01*
X93345000Y13665200D02*
X95250000Y11760200D01*
%TO.N,D7'*%
X80550000Y17570200D02*
X82550000Y15570200D01*
X80550000Y19380200D02*
X80550000Y17570200D01*
%TO.N,D6'*%
X78550000Y17030200D02*
X80010000Y15570200D01*
X78550000Y19380200D02*
X78550000Y17030200D01*
%TO.N,D5'*%
X76550000Y16490200D02*
X77470000Y15570200D01*
X76550000Y19380200D02*
X76550000Y16490200D01*
%TO.N,D4'*%
X74550000Y15950200D02*
X74930000Y15570200D01*
X74550000Y19380200D02*
X74550000Y15950200D01*
%TO.N,D3'*%
X72550000Y15730200D02*
X72390000Y15570200D01*
X72550000Y19380200D02*
X72550000Y15730200D01*
%TO.N,~IOCS*%
X86925698Y16840200D02*
X83115698Y13030200D01*
X87630000Y16840200D02*
X86925698Y16840200D01*
X83115698Y13030200D02*
X64770000Y13030200D01*
X97155000Y20015200D02*
X97155000Y11125200D01*
X95250000Y21920200D02*
X97155000Y20015200D01*
X97155000Y11125200D02*
X95250000Y9220200D01*
X92710000Y21920200D02*
X95250000Y21920200D01*
X90805000Y20015200D02*
X92710000Y21920200D01*
X64770000Y13030200D02*
X62230000Y15570200D01*
%TO.N,~DMACK*%
X54550000Y19380200D02*
X54550000Y12970200D01*
X54550000Y12970200D02*
X52070000Y10490200D01*
%TD*%
M02*
