M48
; DRILL file {KiCad (5.1.6)-1} date 01/19/21 23:52:41
; FORMAT={-:-/ absolute / inch / decimal}
; #@! TF.CreationDate,2021-01-19T23:52:41-08:00
; #@! TF.GenerationSoftware,Kicad,Pcbnew,(5.1.6)-1
; #@! TF.FileFunction,Plated,1,2,PTH
FMAT,2
INCH
T1C0.0157
T2C0.0236
T3C0.0256
T4C0.0315
T5C0.0354
T6C0.0394
T7C0.1000
%
G90
G05
T1
X0.65Y0.463
X1.1Y0.613
X1.225Y0.613
X1.25Y0.3005
X1.25Y0.263
X1.3Y0.113
X1.325Y0.138
X1.35Y0.7755
X1.425Y0.213
X1.5125Y0.113
X1.575Y0.663
X1.7375Y0.613
X1.8Y0.613
X2.025Y0.238
X2.1625Y0.5755
X2.1875Y0.5505
X2.2125Y0.763
X2.2125Y0.5255
X2.3375Y0.413
X2.3625Y0.438
X2.4Y0.763
X2.8125Y0.563
X2.825Y0.188
X2.85Y0.213
X2.8625Y0.663
X3.175Y0.613
X3.2125Y0.213
X3.2625Y0.163
X3.2875Y0.138
X3.3125Y0.113
T2
X1.05Y1.013
X1.7361Y0.7019
X2.725Y0.6005
T3
X0.95Y0.488
X0.95Y0.363
X1.0Y0.488
X1.0Y0.363
X1.05Y0.488
X1.05Y0.363
X1.1Y0.488
X1.1Y0.363
X1.15Y0.488
X1.15Y0.363
X1.2Y0.488
X1.2Y0.363
X1.25Y0.488
X1.25Y0.363
X1.3Y0.488
X1.3Y0.363
X1.35Y0.488
X1.35Y0.363
X1.4Y0.488
X1.4Y0.363
X1.45Y0.488
X1.45Y0.363
X1.5Y0.488
X1.5Y0.363
X1.55Y0.488
X1.55Y0.363
X1.6Y0.488
X1.6Y0.363
X1.65Y0.488
X1.65Y0.363
X1.7Y0.488
X1.7Y0.363
X1.75Y0.488
X1.75Y0.363
X1.8Y0.488
X1.8Y0.363
X1.85Y0.488
X1.85Y0.363
X1.9Y0.488
X1.9Y0.363
X1.95Y0.488
X1.95Y0.363
X2.0Y0.488
X2.0Y0.363
X2.05Y0.488
X2.05Y0.363
X2.1Y0.488
X2.1Y0.363
X2.15Y0.488
X2.15Y0.363
T4
X1.55Y0.263
X1.55Y0.1646
X2.6Y1.213
X2.6Y1.113
X2.6Y1.013
X2.6Y0.913
X2.6Y0.813
X2.6Y0.713
X2.6Y0.613
X2.6Y0.513
X2.6Y0.413
X2.6Y0.313
X2.9Y1.213
X2.9Y1.113
X2.9Y1.013
X2.9Y0.913
X2.9Y0.813
X2.9Y0.713
X2.9Y0.613
X2.9Y0.513
X2.9Y0.413
X2.9Y0.313
X0.3516Y1.113
X0.45Y1.113
X2.5Y0.4114
X2.5Y0.313
X3.4266Y1.113
X3.525Y1.113
X3.225Y0.963
X3.225Y0.863
X3.225Y0.763
X3.225Y0.663
X3.225Y0.563
X3.225Y0.463
X3.225Y0.363
X3.525Y0.963
X3.525Y0.863
X3.525Y0.763
X3.525Y0.663
X3.525Y0.563
X3.525Y0.463
X3.525Y0.363
X0.15Y1.013
X0.15Y0.913
X0.15Y0.813
X0.15Y0.713
X0.15Y0.613
X0.15Y0.513
X0.15Y0.413
X0.15Y0.313
X0.45Y1.013
X0.45Y0.913
X0.45Y0.813
X0.45Y0.713
X0.45Y0.613
X0.45Y0.513
X0.45Y0.413
X0.45Y0.313
X0.45Y1.663
X0.45Y1.563
X0.45Y1.463
X0.45Y1.363
X0.45Y1.263
X3.575Y1.613
X3.575Y1.313
T5
X3.575Y1.813
X3.675Y1.813
T6
X0.05Y0.063
X0.15Y0.063
X0.25Y0.063
X0.35Y0.063
X0.45Y0.063
X0.55Y0.063
X0.65Y0.063
X0.75Y0.063
X0.85Y0.063
X0.95Y0.063
X1.05Y0.063
X1.15Y0.063
X1.25Y0.063
X1.35Y0.063
X1.45Y0.063
X1.55Y0.063
X1.65Y0.063
X1.75Y0.063
X1.85Y0.063
X1.95Y0.063
X2.05Y0.063
X2.15Y0.063
X2.25Y0.063
X2.35Y0.063
X2.45Y0.063
X2.55Y0.063
X2.65Y0.063
X2.75Y0.063
X2.85Y0.063
X2.95Y0.063
X3.05Y0.063
X3.15Y0.063
X3.25Y0.063
X3.35Y0.063
X3.45Y0.063
X3.55Y0.063
X3.65Y0.063
X3.75Y0.063
X3.85Y0.063
X1.65Y0.163
X1.75Y0.163
X1.85Y0.163
X1.95Y0.163
X2.05Y0.163
X2.15Y0.163
X2.25Y0.163
X2.35Y0.163
X2.45Y0.163
X2.55Y0.163
T7
X0.708Y1.5005
X0.708Y0.6705
X2.392Y1.5005
X2.392Y0.6705
T0
M30
