%TF.GenerationSoftware,KiCad,Pcbnew,(5.1.6)-1*%
%TF.CreationDate,2020-12-24T00:42:48-08:00*%
%TF.ProjectId,rc-cfcard,72632d63-6663-4617-9264-2e6b69636164,rev?*%
%TF.SameCoordinates,PX9157080PY9071968*%
%TF.FileFunction,Legend,Bot*%
%TF.FilePolarity,Positive*%
%FSLAX46Y46*%
G04 Gerber Fmt 4.6, Leading zero omitted, Abs format (unit mm)*
G04 Created by KiCad (PCBNEW (5.1.6)-1) date 2020-12-24 00:42:48*
%MOMM*%
%LPD*%
G01*
G04 APERTURE LIST*
%ADD10C,0.300000*%
G04 APERTURE END LIST*
D10*
X30137857Y45524486D02*
X30209285Y45453058D01*
X30423571Y45381629D01*
X30566428Y45381629D01*
X30780714Y45453058D01*
X30923571Y45595915D01*
X30995000Y45738772D01*
X31066428Y46024486D01*
X31066428Y46238772D01*
X30995000Y46524486D01*
X30923571Y46667343D01*
X30780714Y46810200D01*
X30566428Y46881629D01*
X30423571Y46881629D01*
X30209285Y46810200D01*
X30137857Y46738772D01*
X29280714Y45381629D02*
X29423571Y45453058D01*
X29495000Y45524486D01*
X29566428Y45667343D01*
X29566428Y46095915D01*
X29495000Y46238772D01*
X29423571Y46310200D01*
X29280714Y46381629D01*
X29066428Y46381629D01*
X28923571Y46310200D01*
X28852142Y46238772D01*
X28780714Y46095915D01*
X28780714Y45667343D01*
X28852142Y45524486D01*
X28923571Y45453058D01*
X29066428Y45381629D01*
X29280714Y45381629D01*
X28137857Y45381629D02*
X28137857Y46381629D01*
X28137857Y46238772D02*
X28066428Y46310200D01*
X27923571Y46381629D01*
X27709285Y46381629D01*
X27566428Y46310200D01*
X27495000Y46167343D01*
X27495000Y45381629D01*
X27495000Y46167343D02*
X27423571Y46310200D01*
X27280714Y46381629D01*
X27066428Y46381629D01*
X26923571Y46310200D01*
X26852142Y46167343D01*
X26852142Y45381629D01*
X26137857Y46381629D02*
X26137857Y44881629D01*
X26137857Y46310200D02*
X25995000Y46381629D01*
X25709285Y46381629D01*
X25566428Y46310200D01*
X25495000Y46238772D01*
X25423571Y46095915D01*
X25423571Y45667343D01*
X25495000Y45524486D01*
X25566428Y45453058D01*
X25709285Y45381629D01*
X25995000Y45381629D01*
X26137857Y45453058D01*
X24137857Y45381629D02*
X24137857Y46167343D01*
X24209285Y46310200D01*
X24352142Y46381629D01*
X24637857Y46381629D01*
X24780714Y46310200D01*
X24137857Y45453058D02*
X24280714Y45381629D01*
X24637857Y45381629D01*
X24780714Y45453058D01*
X24852142Y45595915D01*
X24852142Y45738772D01*
X24780714Y45881629D01*
X24637857Y45953058D01*
X24280714Y45953058D01*
X24137857Y46024486D01*
X22780714Y45453058D02*
X22923571Y45381629D01*
X23209285Y45381629D01*
X23352142Y45453058D01*
X23423571Y45524486D01*
X23495000Y45667343D01*
X23495000Y46095915D01*
X23423571Y46238772D01*
X23352142Y46310200D01*
X23209285Y46381629D01*
X22923571Y46381629D01*
X22780714Y46310200D01*
X22352142Y46381629D02*
X21780714Y46381629D01*
X22137857Y46881629D02*
X22137857Y45595915D01*
X22066428Y45453058D01*
X21923571Y45381629D01*
X21780714Y45381629D01*
X20780714Y46167343D02*
X21280714Y46167343D01*
X21280714Y45381629D02*
X21280714Y46881629D01*
X20566428Y46881629D01*
X19780714Y45381629D02*
X19923571Y45453058D01*
X19995000Y45595915D01*
X19995000Y46881629D01*
X18566428Y45381629D02*
X18566428Y46167343D01*
X18637857Y46310200D01*
X18780714Y46381629D01*
X19066428Y46381629D01*
X19209285Y46310200D01*
X18566428Y45453058D02*
X18709285Y45381629D01*
X19066428Y45381629D01*
X19209285Y45453058D01*
X19280714Y45595915D01*
X19280714Y45738772D01*
X19209285Y45881629D01*
X19066428Y45953058D01*
X18709285Y45953058D01*
X18566428Y46024486D01*
X17923571Y45453058D02*
X17780714Y45381629D01*
X17495000Y45381629D01*
X17352142Y45453058D01*
X17280714Y45595915D01*
X17280714Y45667343D01*
X17352142Y45810200D01*
X17495000Y45881629D01*
X17709285Y45881629D01*
X17852142Y45953058D01*
X17923571Y46095915D01*
X17923571Y46167343D01*
X17852142Y46310200D01*
X17709285Y46381629D01*
X17495000Y46381629D01*
X17352142Y46310200D01*
X16637857Y45381629D02*
X16637857Y46881629D01*
X15995000Y45381629D02*
X15995000Y46167343D01*
X16066428Y46310200D01*
X16209285Y46381629D01*
X16423571Y46381629D01*
X16566428Y46310200D01*
X16637857Y46238772D01*
X30566428Y43260200D02*
X29852142Y43260200D01*
X30709285Y42831629D02*
X30209285Y44331629D01*
X29709285Y42831629D01*
X28566428Y42831629D02*
X28566428Y44331629D01*
X28566428Y42903058D02*
X28709285Y42831629D01*
X28995000Y42831629D01*
X29137857Y42903058D01*
X29209285Y42974486D01*
X29280714Y43117343D01*
X29280714Y43545915D01*
X29209285Y43688772D01*
X29137857Y43760200D01*
X28995000Y43831629D01*
X28709285Y43831629D01*
X28566428Y43760200D01*
X27209285Y42831629D02*
X27209285Y43617343D01*
X27280714Y43760200D01*
X27423571Y43831629D01*
X27709285Y43831629D01*
X27852142Y43760200D01*
X27209285Y42903058D02*
X27352142Y42831629D01*
X27709285Y42831629D01*
X27852142Y42903058D01*
X27923571Y43045915D01*
X27923571Y43188772D01*
X27852142Y43331629D01*
X27709285Y43403058D01*
X27352142Y43403058D01*
X27209285Y43474486D01*
X26495000Y43831629D02*
X26495000Y42331629D01*
X26495000Y43760200D02*
X26352142Y43831629D01*
X26066428Y43831629D01*
X25923571Y43760200D01*
X25852142Y43688772D01*
X25780714Y43545915D01*
X25780714Y43117343D01*
X25852142Y42974486D01*
X25923571Y42903058D01*
X26066428Y42831629D01*
X26352142Y42831629D01*
X26495000Y42903058D01*
X25352142Y43831629D02*
X24780714Y43831629D01*
X25137857Y44331629D02*
X25137857Y43045915D01*
X25066428Y42903058D01*
X24923571Y42831629D01*
X24780714Y42831629D01*
X23709285Y42903058D02*
X23852142Y42831629D01*
X24137857Y42831629D01*
X24280714Y42903058D01*
X24352142Y43045915D01*
X24352142Y43617343D01*
X24280714Y43760200D01*
X24137857Y43831629D01*
X23852142Y43831629D01*
X23709285Y43760200D01*
X23637857Y43617343D01*
X23637857Y43474486D01*
X24352142Y43331629D01*
X22995000Y42831629D02*
X22995000Y43831629D01*
X22995000Y43545915D02*
X22923571Y43688772D01*
X22852142Y43760200D01*
X22709285Y43831629D01*
X22566428Y43831629D01*
X20066428Y42974486D02*
X20137857Y42903058D01*
X20352142Y42831629D01*
X20495000Y42831629D01*
X20709285Y42903058D01*
X20852142Y43045915D01*
X20923571Y43188772D01*
X20995000Y43474486D01*
X20995000Y43688772D01*
X20923571Y43974486D01*
X20852142Y44117343D01*
X20709285Y44260200D01*
X20495000Y44331629D01*
X20352142Y44331629D01*
X20137857Y44260200D01*
X20066428Y44188772D01*
X18780714Y42831629D02*
X18780714Y43617343D01*
X18852142Y43760200D01*
X18995000Y43831629D01*
X19280714Y43831629D01*
X19423571Y43760200D01*
X18780714Y42903058D02*
X18923571Y42831629D01*
X19280714Y42831629D01*
X19423571Y42903058D01*
X19495000Y43045915D01*
X19495000Y43188772D01*
X19423571Y43331629D01*
X19280714Y43403058D01*
X18923571Y43403058D01*
X18780714Y43474486D01*
X18066428Y42831629D02*
X18066428Y43831629D01*
X18066428Y43545915D02*
X17995000Y43688772D01*
X17923571Y43760200D01*
X17780714Y43831629D01*
X17637857Y43831629D01*
X16495000Y42831629D02*
X16495000Y44331629D01*
X16495000Y42903058D02*
X16637857Y42831629D01*
X16923571Y42831629D01*
X17066428Y42903058D01*
X17137857Y42974486D01*
X17209285Y43117343D01*
X17209285Y43545915D01*
X17137857Y43688772D01*
X17066428Y43760200D01*
X16923571Y43831629D01*
X16637857Y43831629D01*
X16495000Y43760200D01*
X30423571Y40281629D02*
X30423571Y41781629D01*
X29852142Y41781629D01*
X29709285Y41710200D01*
X29637857Y41638772D01*
X29566428Y41495915D01*
X29566428Y41281629D01*
X29637857Y41138772D01*
X29709285Y41067343D01*
X29852142Y40995915D01*
X30423571Y40995915D01*
X28923571Y40281629D02*
X28923571Y41781629D01*
X28566428Y41781629D01*
X28352142Y41710200D01*
X28209285Y41567343D01*
X28137857Y41424486D01*
X28066428Y41138772D01*
X28066428Y40924486D01*
X28137857Y40638772D01*
X28209285Y40495915D01*
X28352142Y40353058D01*
X28566428Y40281629D01*
X28923571Y40281629D01*
X26637857Y40281629D02*
X27495000Y40281629D01*
X27066428Y40281629D02*
X27066428Y41781629D01*
X27209285Y41567343D01*
X27352142Y41424486D01*
X27495000Y41353058D01*
X25709285Y41781629D02*
X25566428Y41781629D01*
X25423571Y41710200D01*
X25352142Y41638772D01*
X25280714Y41495915D01*
X25209285Y41210200D01*
X25209285Y40853058D01*
X25280714Y40567343D01*
X25352142Y40424486D01*
X25423571Y40353058D01*
X25566428Y40281629D01*
X25709285Y40281629D01*
X25852142Y40353058D01*
X25923571Y40424486D01*
X25995000Y40567343D01*
X26066428Y40853058D01*
X26066428Y41210200D01*
X25995000Y41495915D01*
X25923571Y41638772D01*
X25852142Y41710200D01*
X25709285Y41781629D01*
X23852142Y41781629D02*
X24566428Y41781629D01*
X24637857Y41067343D01*
X24566428Y41138772D01*
X24423571Y41210200D01*
X24066428Y41210200D01*
X23923571Y41138772D01*
X23852142Y41067343D01*
X23780714Y40924486D01*
X23780714Y40567343D01*
X23852142Y40424486D01*
X23923571Y40353058D01*
X24066428Y40281629D01*
X24423571Y40281629D01*
X24566428Y40353058D01*
X24637857Y40424486D01*
X23209285Y40353058D02*
X22995000Y40281629D01*
X22637857Y40281629D01*
X22495000Y40353058D01*
X22423571Y40424486D01*
X22352142Y40567343D01*
X22352142Y40710200D01*
X22423571Y40853058D01*
X22495000Y40924486D01*
X22637857Y40995915D01*
X22923571Y41067343D01*
X23066428Y41138772D01*
X23137857Y41210200D01*
X23209285Y41353058D01*
X23209285Y41495915D01*
X23137857Y41638772D01*
X23066428Y41710200D01*
X22923571Y41781629D01*
X22566428Y41781629D01*
X22352142Y41710200D01*
X20709285Y41281629D02*
X20352142Y40281629D01*
X19995000Y41281629D01*
X18637857Y40281629D02*
X19495000Y40281629D01*
X19066428Y40281629D02*
X19066428Y41781629D01*
X19209285Y41567343D01*
X19352142Y41424486D01*
X19495000Y41353058D01*
X17995000Y40424486D02*
X17923571Y40353058D01*
X17995000Y40281629D01*
X18066428Y40353058D01*
X17995000Y40424486D01*
X17995000Y40281629D01*
X16995000Y41781629D02*
X16852142Y41781629D01*
X16709285Y41710200D01*
X16637857Y41638772D01*
X16566428Y41495915D01*
X16495000Y41210200D01*
X16495000Y40853058D01*
X16566428Y40567343D01*
X16637857Y40424486D01*
X16709285Y40353058D01*
X16852142Y40281629D01*
X16995000Y40281629D01*
X17137857Y40353058D01*
X17209285Y40424486D01*
X17280714Y40567343D01*
X17352142Y40853058D01*
X17352142Y41210200D01*
X17280714Y41495915D01*
X17209285Y41638772D01*
X17137857Y41710200D01*
X16995000Y41781629D01*
M02*
