%TF.GenerationSoftware,KiCad,Pcbnew,(5.1.6)-1*%
%TF.CreationDate,2020-12-02T01:01:41-08:00*%
%TF.ProjectId,rc-cfcard,72632d63-6663-4617-9264-2e6b69636164,rev?*%
%TF.SameCoordinates,PX9157080PY9071968*%
%TF.FileFunction,Copper,L2,Bot*%
%TF.FilePolarity,Positive*%
%FSLAX46Y46*%
G04 Gerber Fmt 4.6, Leading zero omitted, Abs format (unit mm)*
G04 Created by KiCad (PCBNEW (5.1.6)-1) date 2020-12-02 01:01:41*
%MOMM*%
%LPD*%
G01*
G04 APERTURE LIST*
%TA.AperFunction,ComponentPad*%
%ADD10C,1.600000*%
%TD*%
%TA.AperFunction,ComponentPad*%
%ADD11O,2.400000X1.600000*%
%TD*%
%TA.AperFunction,ComponentPad*%
%ADD12O,1.600000X1.600000*%
%TD*%
%TA.AperFunction,ComponentPad*%
%ADD13R,1.600000X1.600000*%
%TD*%
%TA.AperFunction,ComponentPad*%
%ADD14C,1.800000*%
%TD*%
%TA.AperFunction,ComponentPad*%
%ADD15O,1.700000X1.700000*%
%TD*%
%TA.AperFunction,ComponentPad*%
%ADD16C,1.700000*%
%TD*%
%TA.AperFunction,ViaPad*%
%ADD17C,0.600000*%
%TD*%
%TA.AperFunction,ViaPad*%
%ADD18C,0.900001*%
%TD*%
%TA.AperFunction,Conductor*%
%ADD19C,0.254000*%
%TD*%
%TA.AperFunction,Conductor*%
%ADD20C,0.635000*%
%TD*%
G04 APERTURE END LIST*
D10*
%TO.P,C4,2*%
%TO.N,GND*%
X39370000Y4180200D03*
%TO.P,C4,1*%
%TO.N,+5V*%
X39370000Y6680200D03*
%TD*%
%TO.P,C3,2*%
%TO.N,GND*%
X63500000Y10450200D03*
%TO.P,C3,1*%
%TO.N,+5V*%
X63500000Y7950200D03*
%TD*%
%TO.P,C2,2*%
%TO.N,GND*%
X87035000Y28270200D03*
%TO.P,C2,1*%
%TO.N,+5V*%
X89535000Y28270200D03*
%TD*%
%TO.P,C1,2*%
%TO.N,GND*%
X8930000Y28270200D03*
%TO.P,C1,1*%
%TO.N,+5V*%
X11430000Y28270200D03*
%TD*%
D11*
%TO.P,U2,14*%
%TO.N,+5V*%
X89535000Y24460200D03*
%TO.P,U2,7*%
%TO.N,GND*%
X81915000Y9220200D03*
%TO.P,U2,13*%
%TO.N,~RD*%
X89535000Y21920200D03*
%TO.P,U2,6*%
%TO.N,~IOCS*%
X81915000Y11760200D03*
%TO.P,U2,12*%
X89535000Y19380200D03*
%TO.P,U2,5*%
%TO.N,~CFCS*%
X81915000Y14300200D03*
%TO.P,U2,11*%
%TO.N,~IORD*%
X89535000Y16840200D03*
%TO.P,U2,4*%
%TO.N,~IOREQ*%
X81915000Y16840200D03*
%TO.P,U2,10*%
%TO.N,~IOCS*%
X89535000Y14300200D03*
%TO.P,U2,3*%
%TO.N,Net-(U2-Pad3)*%
X81915000Y19380200D03*
%TO.P,U2,9*%
%TO.N,~WR*%
X89535000Y11760200D03*
%TO.P,U2,2*%
%TO.N,GND*%
X81915000Y21920200D03*
%TO.P,U2,8*%
%TO.N,~IOWR*%
X89535000Y9220200D03*
%TO.P,U2,1*%
%TO.N,GND*%
%TA.AperFunction,ComponentPad*%
G36*
G01*
X80715000Y24060200D02*
X80715000Y24860200D01*
G75*
G02*
X81115000Y25260200I400000J0D01*
G01*
X82715000Y25260200D01*
G75*
G02*
X83115000Y24860200I0J-400000D01*
G01*
X83115000Y24060200D01*
G75*
G02*
X82715000Y23660200I-400000J0D01*
G01*
X81115000Y23660200D01*
G75*
G02*
X80715000Y24060200I0J400000D01*
G01*
G37*
%TD.AperFunction*%
%TD*%
D12*
%TO.P,RN1,5*%
%TO.N,/~PDIAG*%
X66040000Y37160200D03*
%TO.P,RN1,4*%
%TO.N,/~DMACK*%
X68580000Y37160200D03*
%TO.P,RN1,3*%
%TO.N,/~WE*%
X71120000Y37160200D03*
%TO.P,RN1,2*%
%TO.N,/~CS1*%
X73660000Y37160200D03*
D13*
%TO.P,RN1,1*%
%TO.N,+5V*%
X76200000Y37160200D03*
%TD*%
D12*
%TO.P,R1,2*%
%TO.N,/~ACT*%
X90805000Y33350200D03*
D10*
%TO.P,R1,1*%
%TO.N,/~ACT'*%
X90805000Y40970200D03*
%TD*%
D14*
%TO.P,D1,2*%
%TO.N,+5V*%
X93345000Y46050200D03*
%TO.P,D1,1*%
%TO.N,/~ACT'*%
%TA.AperFunction,ComponentPad*%
G36*
G01*
X89905000Y45600200D02*
X89905000Y46500200D01*
G75*
G02*
X90355000Y46950200I450000J0D01*
G01*
X91255000Y46950200D01*
G75*
G02*
X91705000Y46500200I0J-450000D01*
G01*
X91705000Y45600200D01*
G75*
G02*
X91255000Y45150200I-450000J0D01*
G01*
X90355000Y45150200D01*
G75*
G02*
X89905000Y45600200I0J450000D01*
G01*
G37*
%TD.AperFunction*%
%TD*%
D11*
%TO.P,U3,20*%
%TO.N,+5V*%
X66040000Y7950200D03*
%TO.P,U3,10*%
%TO.N,GND*%
X73660000Y30810200D03*
%TO.P,U3,19*%
%TO.N,~IOCS*%
X66040000Y10490200D03*
%TO.P,U3,9*%
%TO.N,D7*%
X73660000Y28270200D03*
%TO.P,U3,18*%
%TO.N,D0'*%
X66040000Y13030200D03*
%TO.P,U3,8*%
%TO.N,D6*%
X73660000Y25730200D03*
%TO.P,U3,17*%
%TO.N,D1'*%
X66040000Y15570200D03*
%TO.P,U3,7*%
%TO.N,D5*%
X73660000Y23190200D03*
%TO.P,U3,16*%
%TO.N,D2'*%
X66040000Y18110200D03*
%TO.P,U3,6*%
%TO.N,D4*%
X73660000Y20650200D03*
%TO.P,U3,15*%
%TO.N,D3'*%
X66040000Y20650200D03*
%TO.P,U3,5*%
%TO.N,D3*%
X73660000Y18110200D03*
%TO.P,U3,14*%
%TO.N,D4'*%
X66040000Y23190200D03*
%TO.P,U3,4*%
%TO.N,D2*%
X73660000Y15570200D03*
%TO.P,U3,13*%
%TO.N,D5'*%
X66040000Y25730200D03*
%TO.P,U3,3*%
%TO.N,D1*%
X73660000Y13030200D03*
%TO.P,U3,12*%
%TO.N,D6'*%
X66040000Y28270200D03*
%TO.P,U3,2*%
%TO.N,D0*%
X73660000Y10490200D03*
%TO.P,U3,11*%
%TO.N,D7'*%
X66040000Y30810200D03*
%TO.P,U3,1*%
%TO.N,~IORD*%
%TA.AperFunction,ComponentPad*%
G36*
G01*
X74860000Y8350200D02*
X74860000Y7550200D01*
G75*
G02*
X74460000Y7150200I-400000J0D01*
G01*
X72860000Y7150200D01*
G75*
G02*
X72460000Y7550200I0J400000D01*
G01*
X72460000Y8350200D01*
G75*
G02*
X72860000Y8750200I400000J0D01*
G01*
X74460000Y8750200D01*
G75*
G02*
X74860000Y8350200I0J-400000D01*
G01*
G37*
%TD.AperFunction*%
%TD*%
%TO.P,U1,16*%
%TO.N,+5V*%
X11430000Y25730200D03*
%TO.P,U1,8*%
%TO.N,GND*%
X3810000Y7950200D03*
%TO.P,U1,15*%
%TO.N,Net-(U1-Pad15)*%
X11430000Y23190200D03*
%TO.P,U1,7*%
%TO.N,Net-(U1-Pad7)*%
X3810000Y10490200D03*
%TO.P,U1,14*%
%TO.N,Net-(U1-Pad14)*%
X11430000Y20650200D03*
%TO.P,U1,6*%
%TO.N,~M1*%
X3810000Y13030200D03*
%TO.P,U1,13*%
%TO.N,~CFCS*%
X11430000Y18110200D03*
%TO.P,U1,5*%
%TO.N,A7*%
X3810000Y15570200D03*
%TO.P,U1,12*%
%TO.N,Net-(U1-Pad12)*%
X11430000Y15570200D03*
%TO.P,U1,4*%
%TO.N,A6*%
X3810000Y18110200D03*
%TO.P,U1,11*%
%TO.N,Net-(U1-Pad11)*%
X11430000Y13030200D03*
%TO.P,U1,3*%
%TO.N,A5*%
X3810000Y20650200D03*
%TO.P,U1,10*%
%TO.N,Net-(U1-Pad10)*%
X11430000Y10490200D03*
%TO.P,U1,2*%
%TO.N,A4*%
X3810000Y23190200D03*
%TO.P,U1,9*%
%TO.N,Net-(U1-Pad9)*%
X11430000Y7950200D03*
%TO.P,U1,1*%
%TO.N,A3*%
%TA.AperFunction,ComponentPad*%
G36*
G01*
X2610000Y25330200D02*
X2610000Y26130200D01*
G75*
G02*
X3010000Y26530200I400000J0D01*
G01*
X4610000Y26530200D01*
G75*
G02*
X5010000Y26130200I0J-400000D01*
G01*
X5010000Y25330200D01*
G75*
G02*
X4610000Y24930200I-400000J0D01*
G01*
X3010000Y24930200D01*
G75*
G02*
X2610000Y25330200I0J400000D01*
G01*
G37*
%TD.AperFunction*%
%TD*%
D15*
%TO.P,J2,10*%
%TO.N,Net-(J2-Pad10)*%
X64770000Y4140200D03*
%TO.P,J2,9*%
%TO.N,Net-(J2-Pad9)*%
X62230000Y4140200D03*
%TO.P,J2,8*%
%TO.N,Net-(J2-Pad8)*%
X59690000Y4140200D03*
%TO.P,J2,7*%
%TO.N,Net-(J2-Pad7)*%
X57150000Y4140200D03*
%TO.P,J2,6*%
%TO.N,Net-(J2-Pad6)*%
X54610000Y4140200D03*
%TO.P,J2,5*%
%TO.N,Net-(J2-Pad5)*%
X52070000Y4140200D03*
%TO.P,J2,4*%
%TO.N,Net-(J2-Pad4)*%
X49530000Y4140200D03*
%TO.P,J2,3*%
%TO.N,Net-(J2-Pad3)*%
X46990000Y4140200D03*
%TO.P,J2,2*%
%TO.N,+5V*%
X44450000Y4140200D03*
D16*
%TO.P,J2,1*%
%TO.N,GND*%
X41910000Y4140200D03*
%TD*%
D15*
%TO.P,J1,39*%
%TO.N,Net-(J1-Pad39)*%
X97790000Y1600200D03*
%TO.P,J1,38*%
%TO.N,Net-(J1-Pad38)*%
X95250000Y1600200D03*
%TO.P,J1,37*%
%TO.N,Net-(J1-Pad37)*%
X92710000Y1600200D03*
%TO.P,J1,36*%
%TO.N,Net-(J1-Pad36)*%
X90170000Y1600200D03*
%TO.P,J1,35*%
%TO.N,Net-(J1-Pad35)*%
X87630000Y1600200D03*
%TO.P,J1,34*%
%TO.N,D7*%
X85090000Y1600200D03*
%TO.P,J1,33*%
%TO.N,D6*%
X82550000Y1600200D03*
%TO.P,J1,32*%
%TO.N,D5*%
X80010000Y1600200D03*
%TO.P,J1,31*%
%TO.N,D4*%
X77470000Y1600200D03*
%TO.P,J1,30*%
%TO.N,D3*%
X74930000Y1600200D03*
%TO.P,J1,29*%
%TO.N,D2*%
X72390000Y1600200D03*
%TO.P,J1,28*%
%TO.N,D1*%
X69850000Y1600200D03*
%TO.P,J1,27*%
%TO.N,D0*%
X67310000Y1600200D03*
%TO.P,J1,26*%
%TO.N,~IOREQ*%
X64770000Y1600200D03*
%TO.P,J1,25*%
%TO.N,~RD*%
X62230000Y1600200D03*
%TO.P,J1,24*%
%TO.N,~WR*%
X59690000Y1600200D03*
%TO.P,J1,23*%
%TO.N,Net-(J1-Pad23)*%
X57150000Y1600200D03*
%TO.P,J1,22*%
%TO.N,Net-(J1-Pad22)*%
X54610000Y1600200D03*
%TO.P,J1,21*%
%TO.N,Net-(J1-Pad21)*%
X52070000Y1600200D03*
%TO.P,J1,20*%
%TO.N,~RESET*%
X49530000Y1600200D03*
%TO.P,J1,19*%
%TO.N,~M1*%
X46990000Y1600200D03*
%TO.P,J1,18*%
%TO.N,+5V*%
X44450000Y1600200D03*
%TO.P,J1,17*%
%TO.N,GND*%
X41910000Y1600200D03*
%TO.P,J1,16*%
%TO.N,A0*%
X39370000Y1600200D03*
%TO.P,J1,15*%
%TO.N,A1*%
X36830000Y1600200D03*
%TO.P,J1,14*%
%TO.N,A2*%
X34290000Y1600200D03*
%TO.P,J1,13*%
%TO.N,A3*%
X31750000Y1600200D03*
%TO.P,J1,12*%
%TO.N,A4*%
X29210000Y1600200D03*
%TO.P,J1,11*%
%TO.N,A5*%
X26670000Y1600200D03*
%TO.P,J1,10*%
%TO.N,A6*%
X24130000Y1600200D03*
%TO.P,J1,9*%
%TO.N,A7*%
X21590000Y1600200D03*
%TO.P,J1,8*%
%TO.N,Net-(J1-Pad8)*%
X19050000Y1600200D03*
%TO.P,J1,7*%
%TO.N,Net-(J1-Pad7)*%
X16510000Y1600200D03*
%TO.P,J1,6*%
%TO.N,Net-(J1-Pad6)*%
X13970000Y1600200D03*
%TO.P,J1,5*%
%TO.N,Net-(J1-Pad5)*%
X11430000Y1600200D03*
%TO.P,J1,4*%
%TO.N,Net-(J1-Pad4)*%
X8890000Y1600200D03*
%TO.P,J1,3*%
%TO.N,Net-(J1-Pad3)*%
X6350000Y1600200D03*
%TO.P,J1,2*%
%TO.N,Net-(J1-Pad2)*%
X3810000Y1600200D03*
%TO.P,J1,1*%
%TO.N,Net-(J1-Pad1)*%
%TA.AperFunction,ComponentPad*%
G36*
G01*
X1695000Y750200D02*
X845000Y750200D01*
G75*
G02*
X420000Y1175200I0J425000D01*
G01*
X420000Y2025200D01*
G75*
G02*
X845000Y2450200I425000J0D01*
G01*
X1695000Y2450200D01*
G75*
G02*
X2120000Y2025200I0J-425000D01*
G01*
X2120000Y1175200D01*
G75*
G02*
X1695000Y750200I-425000J0D01*
G01*
G37*
%TD.AperFunction*%
%TD*%
D17*
%TO.N,GND*%
X85725000Y9855200D03*
X85725000Y16840200D03*
X85725000Y5410200D03*
X40640000Y7950200D03*
X36830000Y7315200D03*
X20574000Y10109200D03*
X22860000Y14046200D03*
X22860000Y6680200D03*
X15240000Y16078200D03*
X31115000Y4140200D03*
X59055000Y34620200D03*
X36195000Y16205200D03*
X45720000Y16205200D03*
X78740000Y35255200D03*
X93345000Y40970200D03*
X67945000Y21920200D03*
X70485000Y7950200D03*
X55880000Y9537700D03*
X69850000Y39065200D03*
X17780000Y28270200D03*
%TO.N,~IOREQ*%
X86360000Y2870200D03*
%TO.N,~RD*%
X84455000Y3505200D03*
%TO.N,~WR*%
X83820000Y4140200D03*
%TO.N,~RESET*%
X34925000Y7950200D03*
D18*
%TO.N,+5V*%
X17145000Y11125200D03*
D17*
%TO.N,A0*%
X30480000Y7945200D03*
%TO.N,A1*%
X31749992Y7310200D03*
%TO.N,A2*%
X32390000Y5722700D03*
%TO.N,~M1*%
X19050000Y9220200D03*
%TO.N,~IOWR*%
X69850000Y5410200D03*
X44450000Y6045200D03*
%TO.N,~IORD*%
X45085000Y6680200D03*
%TO.N,/~PDIAG*%
X29845000Y15570200D03*
%TO.N,/~ACT*%
X63500000Y37160200D03*
X31750000Y15570200D03*
%TO.N,/~DMACK*%
X33655000Y15570200D03*
%TO.N,/~WE*%
X43180000Y15570200D03*
%TO.N,/~CS1*%
X46355000Y14300200D03*
%TO.N,D2'*%
X26035000Y13030200D03*
%TO.N,D1'*%
X27305000Y13030200D03*
%TO.N,D0'*%
X28575000Y13030200D03*
%TO.N,~CFCS*%
X81915000Y6045200D03*
X46355000Y13030192D03*
%TO.N,D7'*%
X47625000Y13030200D03*
%TO.N,D6'*%
X48895000Y13030200D03*
%TO.N,D5'*%
X50165000Y13030200D03*
%TO.N,D4'*%
X51435000Y13030200D03*
%TO.N,D3'*%
X52705000Y13030196D03*
%TD*%
D19*
%TO.N,D7*%
X85090000Y1600200D02*
X80010000Y6680200D01*
X80010000Y6680200D02*
X80010000Y21920200D01*
X80010000Y21920200D02*
X73660000Y28270200D01*
%TO.N,D6*%
X82550000Y1600200D02*
X79375000Y4775200D01*
X79375000Y4775200D02*
X79375000Y20015200D01*
X79375000Y20015200D02*
X73660000Y25730200D01*
%TO.N,D5*%
X78740000Y18110200D02*
X73660000Y23190200D01*
X80010000Y1600200D02*
X78740000Y2870200D01*
X78740000Y2870200D02*
X78740000Y18110200D01*
%TO.N,D4*%
X78105000Y16205200D02*
X73660000Y20650200D01*
X78105000Y2870200D02*
X78105000Y16205200D01*
X77470000Y1600200D02*
X77470000Y2235200D01*
X77470000Y2235200D02*
X78105000Y2870200D01*
%TO.N,D3*%
X77470000Y14300200D02*
X73660000Y18110200D01*
X74930000Y1600200D02*
X77470000Y4140200D01*
X77470000Y4140200D02*
X77470000Y14300200D01*
%TO.N,D2*%
X76835000Y6045200D02*
X76835000Y12395200D01*
X72390000Y1600200D02*
X76835000Y6045200D01*
X76835000Y12395200D02*
X73660000Y15570200D01*
%TO.N,D1*%
X76200000Y6680200D02*
X76200000Y10490200D01*
X73660000Y4140200D02*
X76200000Y6680200D01*
X69850000Y1600200D02*
X72390000Y4140200D01*
X76200000Y10490200D02*
X73660000Y13030200D01*
X72390000Y4140200D02*
X73660000Y4140200D01*
%TO.N,D0*%
X75565000Y8585200D02*
X73660000Y10490200D01*
X73660000Y5410200D02*
X75565000Y7315200D01*
X75565000Y7315200D02*
X75565000Y8585200D01*
X67310000Y1600200D02*
X71120000Y5410200D01*
X71120000Y5410200D02*
X73660000Y5410200D01*
%TO.N,~IOREQ*%
X88900000Y2870200D02*
X92710000Y6680200D01*
X92710000Y6680200D02*
X92710000Y21285200D01*
X92710000Y21285200D02*
X90805000Y23190200D01*
X90805000Y23190200D02*
X88265000Y23190200D01*
X88265000Y23190200D02*
X81915000Y16840200D01*
X86360000Y2870200D02*
X88900000Y2870200D01*
%TO.N,~RD*%
X88265000Y3505200D02*
X92075000Y7315200D01*
X92075000Y7315200D02*
X92075000Y19380200D01*
X92075000Y19380200D02*
X89535000Y21920200D01*
X84455000Y3505200D02*
X88265000Y3505200D01*
%TO.N,~WR*%
X91440000Y7950200D02*
X91440000Y9855200D01*
X91440000Y9855200D02*
X89535000Y11760200D01*
X87630000Y4140200D02*
X91440000Y7950200D01*
X83820000Y4140200D02*
X87630000Y4140200D01*
%TO.N,~RESET*%
X47625000Y5410200D02*
X37465000Y5410200D01*
X48260000Y4775200D02*
X47625000Y5410200D01*
X49530000Y1600200D02*
X48260000Y2870200D01*
X37465000Y5410200D02*
X34925000Y7950200D01*
X48260000Y2870200D02*
X48260000Y4775200D01*
D20*
%TO.N,+5V*%
X63500000Y7950200D02*
X66040000Y7950200D01*
X63500000Y7950200D02*
X44450000Y7950200D01*
X43180000Y6680200D02*
X39370000Y6680200D01*
X44450000Y7950200D02*
X43180000Y6680200D01*
X89535000Y28270200D02*
X89535000Y24460200D01*
X34925000Y11125200D02*
X17145000Y11125200D01*
X39370000Y6680200D02*
X34925000Y11125200D01*
X80645000Y37160200D02*
X89535000Y28270200D01*
X67310000Y7950200D02*
X69850000Y10490200D01*
X66040000Y7950200D02*
X67310000Y7950200D01*
X69850000Y10490200D02*
X69850000Y30810200D01*
X69850000Y30810200D02*
X76200000Y37160200D01*
X76200000Y37160200D02*
X80645000Y37160200D01*
D19*
X80645000Y37160200D02*
X87630000Y44145200D01*
X87630000Y44145200D02*
X91440000Y44145200D01*
X91440000Y44145200D02*
X93345000Y46050200D01*
%TO.N,A0*%
X38735000Y1600200D02*
X32390000Y7945200D01*
X39370000Y1600200D02*
X38735000Y1600200D01*
X32390000Y7945200D02*
X30480000Y7945200D01*
%TO.N,A1*%
X31755000Y7310200D02*
X31749992Y7310200D01*
X36830000Y1600200D02*
X36830000Y2235200D01*
X36830000Y2235200D02*
X31755000Y7310200D01*
%TO.N,A2*%
X32390000Y3500200D02*
X32390000Y5722700D01*
X34290000Y1600200D02*
X32390000Y3500200D01*
%TO.N,A3*%
X8890000Y20650200D02*
X3810000Y25730200D01*
X12700000Y16840200D02*
X10160000Y16840200D01*
X27940000Y5410200D02*
X21590000Y5410200D01*
X31750000Y1600200D02*
X27940000Y5410200D01*
X8890000Y18110200D02*
X8890000Y20650200D01*
X21590000Y5410200D02*
X15240000Y11760200D01*
X10160000Y16840200D02*
X8890000Y18110200D01*
X15240000Y11760200D02*
X15240000Y14300200D01*
X15240000Y14300200D02*
X12700000Y16840200D01*
%TO.N,A4*%
X8255000Y18745200D02*
X3810000Y23190200D01*
X10160000Y14300200D02*
X8255000Y16205200D01*
X12700000Y14300200D02*
X10160000Y14300200D01*
X8255000Y16205200D02*
X8255000Y18745200D01*
X26035000Y4775200D02*
X19685000Y4775200D01*
X19685000Y4775200D02*
X14605000Y9855200D01*
X29210000Y1600200D02*
X26035000Y4775200D01*
X14605000Y9855200D02*
X14605000Y12395200D01*
X14605000Y12395200D02*
X12700000Y14300200D01*
%TO.N,A5*%
X7620000Y16840200D02*
X3810000Y20650200D01*
X7620000Y14300200D02*
X7620000Y16840200D01*
X10160000Y11760200D02*
X7620000Y14300200D01*
X12700000Y11760200D02*
X10160000Y11760200D01*
X24130000Y4140200D02*
X17780000Y4140200D01*
X17780000Y4140200D02*
X13970000Y7950200D01*
X26670000Y1600200D02*
X24130000Y4140200D01*
X13970000Y7950200D02*
X13970000Y10490200D01*
X13970000Y10490200D02*
X12700000Y11760200D01*
%TO.N,A6*%
X6985000Y14935200D02*
X3810000Y18110200D01*
X6985000Y12395200D02*
X6985000Y14935200D01*
X10160000Y9220200D02*
X6985000Y12395200D01*
X22225000Y3505200D02*
X15875000Y3505200D01*
X24130000Y1600200D02*
X22225000Y3505200D01*
X13335000Y6045200D02*
X13335000Y8585200D01*
X12700000Y9220200D02*
X10160000Y9220200D01*
X15875000Y3505200D02*
X13335000Y6045200D01*
X13335000Y8585200D02*
X12700000Y9220200D01*
%TO.N,A7*%
X6350000Y13030200D02*
X3810000Y15570200D01*
X6350000Y10490200D02*
X6350000Y13030200D01*
X21590000Y1600200D02*
X20320000Y2870200D01*
X13970000Y2870200D02*
X6350000Y10490200D01*
X20320000Y2870200D02*
X13970000Y2870200D01*
%TO.N,~M1*%
X45720000Y2870200D02*
X38735000Y2870200D01*
X46990000Y1600200D02*
X45720000Y2870200D01*
X32385000Y9220200D02*
X19050000Y9220200D01*
X38735000Y2870200D02*
X32385000Y9220200D01*
%TO.N,~IOWR*%
X69850000Y5410200D02*
X48895000Y5410200D01*
X48895000Y5410200D02*
X48260000Y6045200D01*
X48260000Y6045200D02*
X44450000Y6045200D01*
%TO.N,~IORD*%
X71120000Y6680200D02*
X45085000Y6680200D01*
X73660000Y7950200D02*
X72390000Y7950200D01*
X72390000Y7950200D02*
X71120000Y6680200D01*
%TO.N,/~PDIAG*%
X64770000Y38430200D02*
X66040000Y37160200D01*
X29845000Y15570200D02*
X52705000Y38430200D01*
X52705000Y38430200D02*
X64770000Y38430200D01*
%TO.N,/~ACT*%
X63500000Y37160200D02*
X53340000Y37160200D01*
X53340000Y37160200D02*
X31750000Y15570200D01*
%TO.N,/~DMACK*%
X53975000Y35890200D02*
X67310000Y35890200D01*
X33655000Y15570200D02*
X53975000Y35890200D01*
X67310000Y35890200D02*
X68580000Y37160200D01*
%TO.N,/~WE*%
X68580000Y34620200D02*
X64135000Y34620200D01*
X71120000Y37160200D02*
X68580000Y34620200D01*
X62865000Y33350200D02*
X60960000Y33350200D01*
X64135000Y34620200D02*
X62865000Y33350200D01*
X60960000Y33350200D02*
X43180000Y15570200D01*
%TO.N,/~CS1*%
X65405000Y33350200D02*
X69850000Y33350200D01*
X46355000Y14300200D02*
X65405000Y33350200D01*
X69850000Y33350200D02*
X73660000Y37160200D01*
%TO.N,D2'*%
X27305000Y14300200D02*
X26035000Y13030200D01*
X58420000Y14935200D02*
X57150000Y14935200D01*
X66040000Y18110200D02*
X61595000Y18110200D01*
X57150000Y14935200D02*
X54610000Y12395200D01*
X61595000Y18110200D02*
X58420000Y14935200D01*
X54610000Y12395200D02*
X45720000Y12395200D01*
X45720000Y12395200D02*
X43815000Y14300200D01*
X43815000Y14300200D02*
X27305000Y14300200D01*
%TO.N,D1'*%
X62342962Y15570200D02*
X58510961Y11738199D01*
X27940000Y13665200D02*
X27305000Y13030200D01*
X66040000Y15570200D02*
X62342962Y15570200D01*
X58510961Y11738199D02*
X45107001Y11738199D01*
X45107001Y11738199D02*
X43180000Y13665200D01*
X43180000Y13665200D02*
X27940000Y13665200D01*
%TO.N,D0'*%
X42545000Y13030200D02*
X28575000Y13030200D01*
X62865000Y13030200D02*
X60960000Y11125200D01*
X66040000Y13030200D02*
X62865000Y13030200D01*
X60960000Y11125200D02*
X44450000Y11125200D01*
X44450000Y11125200D02*
X42545000Y13030200D01*
%TO.N,~CFCS*%
X83820000Y7950200D02*
X81915000Y6045200D01*
X83820000Y12395200D02*
X83820000Y7950200D01*
X81915000Y14300200D02*
X83820000Y12395200D01*
X14605000Y18110200D02*
X17780000Y14935200D01*
X44450000Y14935200D02*
X46355000Y13030200D01*
X17780000Y14935200D02*
X44450000Y14935200D01*
X14605000Y18110200D02*
X11430000Y18110200D01*
%TO.N,D7'*%
X65405000Y30810200D02*
X47625000Y13030200D01*
X66040000Y30810200D02*
X65405000Y30810200D01*
%TO.N,D6'*%
X64135000Y28270200D02*
X48895000Y13030200D01*
X66040000Y28270200D02*
X64135000Y28270200D01*
%TO.N,D5'*%
X62865000Y25730200D02*
X50165000Y13030200D01*
X66040000Y25730200D02*
X62865000Y25730200D01*
%TO.N,D4'*%
X66040000Y23190200D02*
X61595000Y23190200D01*
X61595000Y23190200D02*
X51435000Y13030200D01*
%TO.N,D3'*%
X66040000Y20650200D02*
X60325004Y20650200D01*
X60325004Y20650200D02*
X52705000Y13030196D01*
%TO.N,~IOCS*%
X89535000Y19380200D02*
X91440000Y17475200D01*
X91440000Y17475200D02*
X91440000Y16205200D01*
X91440000Y16205200D02*
X89535000Y14300200D01*
%TD*%
%TO.N,GND*%
G36*
X42037000Y1727200D02*
G01*
X42057000Y1727200D01*
X42057000Y1473200D01*
X42037000Y1473200D01*
X42037000Y1453200D01*
X41783000Y1453200D01*
X41783000Y1473200D01*
X41763000Y1473200D01*
X41763000Y1727200D01*
X41783000Y1727200D01*
X41783000Y1747200D01*
X42037000Y1747200D01*
X42037000Y1727200D01*
G37*
X42037000Y1727200D02*
X42057000Y1727200D01*
X42057000Y1473200D01*
X42037000Y1473200D01*
X42037000Y1453200D01*
X41783000Y1453200D01*
X41783000Y1473200D01*
X41763000Y1473200D01*
X41763000Y1727200D01*
X41783000Y1727200D01*
X41783000Y1747200D01*
X42037000Y1747200D01*
X42037000Y1727200D01*
G36*
X94730956Y49280497D02*
G01*
X95517463Y49069754D01*
X96255433Y48725633D01*
X96922429Y48258597D01*
X97498197Y47682829D01*
X97965233Y47015833D01*
X98309354Y46277863D01*
X98520098Y45491355D01*
X98594600Y44639789D01*
X98594601Y2604191D01*
X98397160Y2736116D01*
X98163887Y2832741D01*
X97916246Y2882000D01*
X97663754Y2882000D01*
X97416113Y2832741D01*
X97182840Y2736116D01*
X96972900Y2595839D01*
X96794361Y2417300D01*
X96654084Y2207360D01*
X96557459Y1974087D01*
X96520000Y1785768D01*
X96482541Y1974087D01*
X96385916Y2207360D01*
X96245639Y2417300D01*
X96067100Y2595839D01*
X95857160Y2736116D01*
X95623887Y2832741D01*
X95376246Y2882000D01*
X95123754Y2882000D01*
X94876113Y2832741D01*
X94642840Y2736116D01*
X94432900Y2595839D01*
X94254361Y2417300D01*
X94114084Y2207360D01*
X94017459Y1974087D01*
X93980000Y1785768D01*
X93942541Y1974087D01*
X93845916Y2207360D01*
X93705639Y2417300D01*
X93527100Y2595839D01*
X93317160Y2736116D01*
X93083887Y2832741D01*
X92836246Y2882000D01*
X92583754Y2882000D01*
X92336113Y2832741D01*
X92102840Y2736116D01*
X91892900Y2595839D01*
X91714361Y2417300D01*
X91574084Y2207360D01*
X91477459Y1974087D01*
X91440000Y1785768D01*
X91402541Y1974087D01*
X91305916Y2207360D01*
X91165639Y2417300D01*
X90987100Y2595839D01*
X90777160Y2736116D01*
X90543887Y2832741D01*
X90296246Y2882000D01*
X90043754Y2882000D01*
X89796113Y2832741D01*
X89562840Y2736116D01*
X89542764Y2722702D01*
X93085726Y6265663D01*
X93107043Y6283157D01*
X93148410Y6333563D01*
X93176873Y6368245D01*
X93228761Y6465322D01*
X93260714Y6570655D01*
X93271503Y6680200D01*
X93268800Y6707644D01*
X93268800Y21257758D01*
X93271503Y21285200D01*
X93264264Y21358697D01*
X93260714Y21394744D01*
X93228761Y21500078D01*
X93215211Y21525428D01*
X93176873Y21597155D01*
X93124537Y21660926D01*
X93107043Y21682243D01*
X93085725Y21699738D01*
X91219543Y23565919D01*
X91202043Y23587243D01*
X91116954Y23657073D01*
X91019878Y23708961D01*
X90933491Y23735167D01*
X90964160Y23772537D01*
X91078541Y23986530D01*
X91148977Y24218725D01*
X91172760Y24460200D01*
X91148977Y24701675D01*
X91078541Y24933870D01*
X90964160Y25147863D01*
X90810228Y25335428D01*
X90622663Y25489360D01*
X90408670Y25603741D01*
X90284300Y25641468D01*
X90284300Y27289393D01*
X90320227Y27313399D01*
X90491801Y27484973D01*
X90626607Y27686724D01*
X90719462Y27910897D01*
X90766800Y28148878D01*
X90766800Y28391522D01*
X90719462Y28629503D01*
X90626607Y28853676D01*
X90491801Y29055427D01*
X90320227Y29227001D01*
X90118476Y29361807D01*
X89894303Y29454662D01*
X89656322Y29502000D01*
X89413678Y29502000D01*
X89371300Y29493570D01*
X85393348Y33471522D01*
X89573200Y33471522D01*
X89573200Y33228878D01*
X89620538Y32990897D01*
X89713393Y32766724D01*
X89848199Y32564973D01*
X90019773Y32393399D01*
X90221524Y32258593D01*
X90445697Y32165738D01*
X90683678Y32118400D01*
X90926322Y32118400D01*
X91164303Y32165738D01*
X91388476Y32258593D01*
X91590227Y32393399D01*
X91761801Y32564973D01*
X91896607Y32766724D01*
X91989462Y32990897D01*
X92036800Y33228878D01*
X92036800Y33471522D01*
X91989462Y33709503D01*
X91896607Y33933676D01*
X91761801Y34135427D01*
X91590227Y34307001D01*
X91388476Y34441807D01*
X91164303Y34534662D01*
X90926322Y34582000D01*
X90683678Y34582000D01*
X90445697Y34534662D01*
X90221524Y34441807D01*
X90019773Y34307001D01*
X89848199Y34135427D01*
X89713393Y33933676D01*
X89620538Y33709503D01*
X89573200Y33471522D01*
X85393348Y33471522D01*
X81569966Y37294904D01*
X85366584Y41091522D01*
X89573200Y41091522D01*
X89573200Y40848878D01*
X89620538Y40610897D01*
X89713393Y40386724D01*
X89848199Y40184973D01*
X90019773Y40013399D01*
X90221524Y39878593D01*
X90445697Y39785738D01*
X90683678Y39738400D01*
X90926322Y39738400D01*
X91164303Y39785738D01*
X91388476Y39878593D01*
X91590227Y40013399D01*
X91761801Y40184973D01*
X91896607Y40386724D01*
X91989462Y40610897D01*
X92036800Y40848878D01*
X92036800Y41091522D01*
X91989462Y41329503D01*
X91896607Y41553676D01*
X91761801Y41755427D01*
X91590227Y41927001D01*
X91388476Y42061807D01*
X91164303Y42154662D01*
X90926322Y42202000D01*
X90683678Y42202000D01*
X90445697Y42154662D01*
X90221524Y42061807D01*
X90019773Y41927001D01*
X89848199Y41755427D01*
X89713393Y41553676D01*
X89620538Y41329503D01*
X89573200Y41091522D01*
X85366584Y41091522D01*
X87861463Y43586400D01*
X91412558Y43586400D01*
X91440000Y43583697D01*
X91467442Y43586400D01*
X91467444Y43586400D01*
X91549544Y43594486D01*
X91654878Y43626439D01*
X91751954Y43678327D01*
X91837043Y43748157D01*
X91854543Y43769481D01*
X92884484Y44799422D01*
X92956528Y44769580D01*
X93213829Y44718400D01*
X93476171Y44718400D01*
X93733472Y44769580D01*
X93975844Y44869974D01*
X94193973Y45015723D01*
X94379477Y45201227D01*
X94525226Y45419356D01*
X94625620Y45661728D01*
X94676800Y45919029D01*
X94676800Y46181371D01*
X94625620Y46438672D01*
X94525226Y46681044D01*
X94379477Y46899173D01*
X94193973Y47084677D01*
X93975844Y47230426D01*
X93733472Y47330820D01*
X93476171Y47382000D01*
X93213829Y47382000D01*
X92956528Y47330820D01*
X92714156Y47230426D01*
X92496027Y47084677D01*
X92310523Y46899173D01*
X92164774Y46681044D01*
X92129471Y46595816D01*
X92121905Y46672638D01*
X92071607Y46838450D01*
X91989927Y46991262D01*
X91880004Y47125204D01*
X91746062Y47235127D01*
X91593250Y47316807D01*
X91427438Y47367105D01*
X91255000Y47384089D01*
X90355000Y47384089D01*
X90182562Y47367105D01*
X90016750Y47316807D01*
X89863938Y47235127D01*
X89729996Y47125204D01*
X89620073Y46991262D01*
X89538393Y46838450D01*
X89488095Y46672638D01*
X89471111Y46500200D01*
X89471111Y45600200D01*
X89488095Y45427762D01*
X89538393Y45261950D01*
X89620073Y45109138D01*
X89729996Y44975196D01*
X89863938Y44865273D01*
X90016750Y44783593D01*
X90182562Y44733295D01*
X90355000Y44716311D01*
X91220849Y44716311D01*
X91208538Y44704000D01*
X87657444Y44704000D01*
X87630000Y44706703D01*
X87520455Y44695914D01*
X87415122Y44663961D01*
X87318045Y44612073D01*
X87267995Y44570998D01*
X87232957Y44542243D01*
X87215462Y44520925D01*
X80604038Y37909500D01*
X77433889Y37909500D01*
X77433889Y37960200D01*
X77425552Y38044848D01*
X77400861Y38126242D01*
X77360766Y38201256D01*
X77306806Y38267006D01*
X77241056Y38320966D01*
X77166042Y38361061D01*
X77084648Y38385752D01*
X77000000Y38394089D01*
X75400000Y38394089D01*
X75315352Y38385752D01*
X75233958Y38361061D01*
X75158944Y38320966D01*
X75093194Y38267006D01*
X75039234Y38201256D01*
X74999139Y38126242D01*
X74974448Y38044848D01*
X74966111Y37960200D01*
X74966111Y36985981D01*
X74860213Y36880083D01*
X74891800Y37038878D01*
X74891800Y37281522D01*
X74844462Y37519503D01*
X74751607Y37743676D01*
X74616801Y37945427D01*
X74445227Y38117001D01*
X74243476Y38251807D01*
X74019303Y38344662D01*
X73781322Y38392000D01*
X73538678Y38392000D01*
X73300697Y38344662D01*
X73076524Y38251807D01*
X72874773Y38117001D01*
X72703199Y37945427D01*
X72568393Y37743676D01*
X72475538Y37519503D01*
X72428200Y37281522D01*
X72428200Y37038878D01*
X72475538Y36800897D01*
X72485759Y36776222D01*
X69618538Y33909000D01*
X65432441Y33909000D01*
X65404999Y33911703D01*
X65377557Y33909000D01*
X65377556Y33909000D01*
X65295456Y33900914D01*
X65190122Y33868961D01*
X65093046Y33817073D01*
X65007957Y33747243D01*
X64990457Y33725919D01*
X46296538Y15032000D01*
X46282924Y15032000D01*
X46141542Y15003877D01*
X46008363Y14948713D01*
X45888505Y14868626D01*
X45786574Y14766695D01*
X45706487Y14646837D01*
X45654393Y14521070D01*
X44864543Y15310919D01*
X44847043Y15332243D01*
X44761954Y15402073D01*
X44664878Y15453961D01*
X44559544Y15485914D01*
X44477444Y15494000D01*
X44477442Y15494000D01*
X44450000Y15496703D01*
X44422558Y15494000D01*
X43910980Y15494000D01*
X43911800Y15498124D01*
X43911800Y15511738D01*
X61191463Y32791400D01*
X62837558Y32791400D01*
X62865000Y32788697D01*
X62892442Y32791400D01*
X62892444Y32791400D01*
X62974544Y32799486D01*
X63079878Y32831439D01*
X63176954Y32883327D01*
X63262043Y32953157D01*
X63279543Y32974481D01*
X64366462Y34061400D01*
X68552558Y34061400D01*
X68580000Y34058697D01*
X68607442Y34061400D01*
X68607444Y34061400D01*
X68689544Y34069486D01*
X68794878Y34101439D01*
X68891954Y34153327D01*
X68977043Y34223157D01*
X68994543Y34244481D01*
X70736021Y35985959D01*
X70760697Y35975738D01*
X70998678Y35928400D01*
X71241322Y35928400D01*
X71479303Y35975738D01*
X71703476Y36068593D01*
X71905227Y36203399D01*
X72076801Y36374973D01*
X72211607Y36576724D01*
X72304462Y36800897D01*
X72351800Y37038878D01*
X72351800Y37281522D01*
X72304462Y37519503D01*
X72211607Y37743676D01*
X72076801Y37945427D01*
X71905227Y38117001D01*
X71703476Y38251807D01*
X71479303Y38344662D01*
X71241322Y38392000D01*
X70998678Y38392000D01*
X70760697Y38344662D01*
X70536524Y38251807D01*
X70334773Y38117001D01*
X70163199Y37945427D01*
X70028393Y37743676D01*
X69935538Y37519503D01*
X69888200Y37281522D01*
X69888200Y37038878D01*
X69935538Y36800897D01*
X69945759Y36776221D01*
X68348538Y35179000D01*
X64162441Y35179000D01*
X64134999Y35181703D01*
X64107557Y35179000D01*
X64107556Y35179000D01*
X64025456Y35170914D01*
X63920122Y35138961D01*
X63823046Y35087073D01*
X63737957Y35017243D01*
X63720457Y34995919D01*
X62633538Y33909000D01*
X61756757Y33909000D01*
X61844794Y33945466D01*
X61991677Y34043610D01*
X62116590Y34168523D01*
X62214734Y34315406D01*
X62282336Y34478613D01*
X62316800Y34651873D01*
X62316800Y34828527D01*
X62282336Y35001787D01*
X62214734Y35164994D01*
X62116590Y35311877D01*
X62097067Y35331400D01*
X67282558Y35331400D01*
X67310000Y35328697D01*
X67337442Y35331400D01*
X67337444Y35331400D01*
X67419544Y35339486D01*
X67524878Y35371439D01*
X67621954Y35423327D01*
X67707043Y35493157D01*
X67724543Y35514481D01*
X68196021Y35985959D01*
X68220697Y35975738D01*
X68458678Y35928400D01*
X68701322Y35928400D01*
X68939303Y35975738D01*
X69163476Y36068593D01*
X69365227Y36203399D01*
X69536801Y36374973D01*
X69671607Y36576724D01*
X69764462Y36800897D01*
X69811800Y37038878D01*
X69811800Y37281522D01*
X69764462Y37519503D01*
X69671607Y37743676D01*
X69536801Y37945427D01*
X69365227Y38117001D01*
X69163476Y38251807D01*
X68939303Y38344662D01*
X68701322Y38392000D01*
X68458678Y38392000D01*
X68220697Y38344662D01*
X67996524Y38251807D01*
X67794773Y38117001D01*
X67623199Y37945427D01*
X67488393Y37743676D01*
X67395538Y37519503D01*
X67348200Y37281522D01*
X67348200Y37038878D01*
X67395538Y36800897D01*
X67405759Y36776221D01*
X67078538Y36449000D01*
X67046264Y36449000D01*
X67131607Y36576724D01*
X67224462Y36800897D01*
X67271800Y37038878D01*
X67271800Y37281522D01*
X67224462Y37519503D01*
X67131607Y37743676D01*
X66996801Y37945427D01*
X66825227Y38117001D01*
X66623476Y38251807D01*
X66399303Y38344662D01*
X66161322Y38392000D01*
X65918678Y38392000D01*
X65680697Y38344662D01*
X65656021Y38334441D01*
X65184543Y38805919D01*
X65167043Y38827243D01*
X65081954Y38897073D01*
X64984878Y38948961D01*
X64879544Y38980914D01*
X64797444Y38989000D01*
X64797442Y38989000D01*
X64770000Y38991703D01*
X64742558Y38989000D01*
X52732441Y38989000D01*
X52704999Y38991703D01*
X52677557Y38989000D01*
X52677556Y38989000D01*
X52595456Y38980914D01*
X52490122Y38948961D01*
X52393046Y38897073D01*
X52307957Y38827243D01*
X52290462Y38805925D01*
X29786538Y16302000D01*
X29772924Y16302000D01*
X29631542Y16273877D01*
X29498363Y16218713D01*
X29378505Y16138626D01*
X29276574Y16036695D01*
X29196487Y15916837D01*
X29141323Y15783658D01*
X29113200Y15642276D01*
X29113200Y15498124D01*
X29114020Y15494000D01*
X20141121Y15494000D01*
X20221364Y15614093D01*
X20321004Y15854645D01*
X20371800Y16110014D01*
X20371800Y16370386D01*
X20321004Y16625755D01*
X20221364Y16866307D01*
X20076709Y17082799D01*
X19892599Y17266909D01*
X19676107Y17411564D01*
X19435555Y17511204D01*
X19180186Y17562000D01*
X18919814Y17562000D01*
X18664445Y17511204D01*
X18423893Y17411564D01*
X18207401Y17266909D01*
X18023291Y17082799D01*
X17878636Y16866307D01*
X17778996Y16625755D01*
X17728200Y16370386D01*
X17728200Y16110014D01*
X17778996Y15854645D01*
X17869632Y15635831D01*
X15019543Y18485919D01*
X15002043Y18507243D01*
X14916954Y18577073D01*
X14819878Y18628961D01*
X14714544Y18660914D01*
X14632444Y18669000D01*
X14632442Y18669000D01*
X14605000Y18671703D01*
X14577558Y18669000D01*
X12928038Y18669000D01*
X12859160Y18797863D01*
X12705228Y18985428D01*
X12517663Y19139360D01*
X12303670Y19253741D01*
X12071475Y19324177D01*
X11890513Y19342000D01*
X10969487Y19342000D01*
X10788525Y19324177D01*
X10556330Y19253741D01*
X10342337Y19139360D01*
X10154772Y18985428D01*
X10000840Y18797863D01*
X9886459Y18583870D01*
X9816023Y18351675D01*
X9792240Y18110200D01*
X9804474Y17985988D01*
X9448800Y18341662D01*
X9448800Y20622758D01*
X9451503Y20650200D01*
X9792240Y20650200D01*
X9816023Y20408725D01*
X9886459Y20176530D01*
X10000840Y19962537D01*
X10154772Y19774972D01*
X10342337Y19621040D01*
X10556330Y19506659D01*
X10788525Y19436223D01*
X10969487Y19418400D01*
X11890513Y19418400D01*
X12071475Y19436223D01*
X12303670Y19506659D01*
X12517663Y19621040D01*
X12705228Y19774972D01*
X12859160Y19962537D01*
X12973541Y20176530D01*
X13043977Y20408725D01*
X13067760Y20650200D01*
X13043977Y20891675D01*
X12973541Y21123870D01*
X12859160Y21337863D01*
X12705228Y21525428D01*
X12517663Y21679360D01*
X12303670Y21793741D01*
X12071475Y21864177D01*
X11890513Y21882000D01*
X10969487Y21882000D01*
X10788525Y21864177D01*
X10556330Y21793741D01*
X10342337Y21679360D01*
X10154772Y21525428D01*
X10000840Y21337863D01*
X9886459Y21123870D01*
X9816023Y20891675D01*
X9792240Y20650200D01*
X9451503Y20650200D01*
X9448800Y20677644D01*
X9440714Y20759744D01*
X9408761Y20865078D01*
X9356873Y20962154D01*
X9287043Y21047243D01*
X9265725Y21064738D01*
X7140263Y23190200D01*
X9792240Y23190200D01*
X9816023Y22948725D01*
X9886459Y22716530D01*
X10000840Y22502537D01*
X10154772Y22314972D01*
X10342337Y22161040D01*
X10556330Y22046659D01*
X10788525Y21976223D01*
X10969487Y21958400D01*
X11890513Y21958400D01*
X12071475Y21976223D01*
X12303670Y22046659D01*
X12517663Y22161040D01*
X12705228Y22314972D01*
X12859160Y22502537D01*
X12973541Y22716530D01*
X13043977Y22948725D01*
X13067760Y23190200D01*
X13043977Y23431675D01*
X12973541Y23663870D01*
X12859160Y23877863D01*
X12705228Y24065428D01*
X12517663Y24219360D01*
X12303670Y24333741D01*
X12071475Y24404177D01*
X11890513Y24422000D01*
X10969487Y24422000D01*
X10788525Y24404177D01*
X10556330Y24333741D01*
X10342337Y24219360D01*
X10154772Y24065428D01*
X10000840Y23877863D01*
X9886459Y23663870D01*
X9816023Y23431675D01*
X9792240Y23190200D01*
X7140263Y23190200D01*
X5359153Y24971309D01*
X5380413Y25011084D01*
X5427866Y25167516D01*
X5443889Y25330200D01*
X5443889Y25730200D01*
X9792240Y25730200D01*
X9816023Y25488725D01*
X9886459Y25256530D01*
X10000840Y25042537D01*
X10154772Y24854972D01*
X10342337Y24701040D01*
X10556330Y24586659D01*
X10788525Y24516223D01*
X10969487Y24498400D01*
X11890513Y24498400D01*
X12071475Y24516223D01*
X12303670Y24586659D01*
X12517663Y24701040D01*
X12705228Y24854972D01*
X12859160Y25042537D01*
X12973541Y25256530D01*
X13043977Y25488725D01*
X13067760Y25730200D01*
X13043977Y25971675D01*
X12973541Y26203870D01*
X12859160Y26417863D01*
X12705228Y26605428D01*
X12517663Y26759360D01*
X12303670Y26873741D01*
X12071475Y26944177D01*
X11890513Y26962000D01*
X10969487Y26962000D01*
X10788525Y26944177D01*
X10556330Y26873741D01*
X10342337Y26759360D01*
X10154772Y26605428D01*
X10000840Y26417863D01*
X9886459Y26203870D01*
X9816023Y25971675D01*
X9792240Y25730200D01*
X5443889Y25730200D01*
X5443889Y26130200D01*
X5427866Y26292884D01*
X5380413Y26449316D01*
X5303353Y26593484D01*
X5199649Y26719849D01*
X5073284Y26823553D01*
X4929116Y26900613D01*
X4772684Y26948066D01*
X4610000Y26964089D01*
X3010000Y26964089D01*
X2847316Y26948066D01*
X2690884Y26900613D01*
X2546716Y26823553D01*
X2420351Y26719849D01*
X2316647Y26593484D01*
X2239587Y26449316D01*
X2192134Y26292884D01*
X2176111Y26130200D01*
X2176111Y25330200D01*
X2192134Y25167516D01*
X2239587Y25011084D01*
X2316647Y24866916D01*
X2420351Y24740551D01*
X2546716Y24636847D01*
X2690884Y24559787D01*
X2847316Y24512334D01*
X3010000Y24496311D01*
X4253627Y24496311D01*
X4334212Y24415726D01*
X4270513Y24422000D01*
X3349487Y24422000D01*
X3168525Y24404177D01*
X2936330Y24333741D01*
X2722337Y24219360D01*
X2534772Y24065428D01*
X2380840Y23877863D01*
X2266459Y23663870D01*
X2196023Y23431675D01*
X2172240Y23190200D01*
X2196023Y22948725D01*
X2266459Y22716530D01*
X2380840Y22502537D01*
X2534772Y22314972D01*
X2722337Y22161040D01*
X2936330Y22046659D01*
X3168525Y21976223D01*
X3349487Y21958400D01*
X4251538Y21958400D01*
X4334212Y21875726D01*
X4270513Y21882000D01*
X3349487Y21882000D01*
X3168525Y21864177D01*
X2936330Y21793741D01*
X2722337Y21679360D01*
X2534772Y21525428D01*
X2380840Y21337863D01*
X2266459Y21123870D01*
X2196023Y20891675D01*
X2172240Y20650200D01*
X2196023Y20408725D01*
X2266459Y20176530D01*
X2380840Y19962537D01*
X2534772Y19774972D01*
X2722337Y19621040D01*
X2936330Y19506659D01*
X3168525Y19436223D01*
X3349487Y19418400D01*
X4251538Y19418400D01*
X4334211Y19335726D01*
X4270513Y19342000D01*
X3349487Y19342000D01*
X3168525Y19324177D01*
X2936330Y19253741D01*
X2722337Y19139360D01*
X2534772Y18985428D01*
X2380840Y18797863D01*
X2266459Y18583870D01*
X2196023Y18351675D01*
X2172240Y18110200D01*
X2196023Y17868725D01*
X2266459Y17636530D01*
X2380840Y17422537D01*
X2534772Y17234972D01*
X2722337Y17081040D01*
X2936330Y16966659D01*
X3168525Y16896223D01*
X3349487Y16878400D01*
X4251538Y16878400D01*
X4334211Y16795726D01*
X4270513Y16802000D01*
X3349487Y16802000D01*
X3168525Y16784177D01*
X2936330Y16713741D01*
X2722337Y16599360D01*
X2534772Y16445428D01*
X2380840Y16257863D01*
X2266459Y16043870D01*
X2196023Y15811675D01*
X2172240Y15570200D01*
X2196023Y15328725D01*
X2266459Y15096530D01*
X2380840Y14882537D01*
X2534772Y14694972D01*
X2722337Y14541040D01*
X2936330Y14426659D01*
X3168525Y14356223D01*
X3349487Y14338400D01*
X4251538Y14338400D01*
X4334212Y14255726D01*
X4270513Y14262000D01*
X3349487Y14262000D01*
X3168525Y14244177D01*
X2936330Y14173741D01*
X2722337Y14059360D01*
X2534772Y13905428D01*
X2380840Y13717863D01*
X2266459Y13503870D01*
X2196023Y13271675D01*
X2172240Y13030200D01*
X2196023Y12788725D01*
X2266459Y12556530D01*
X2380840Y12342537D01*
X2534772Y12154972D01*
X2722337Y12001040D01*
X2936330Y11886659D01*
X3168525Y11816223D01*
X3349487Y11798400D01*
X4270513Y11798400D01*
X4451475Y11816223D01*
X4683670Y11886659D01*
X4897663Y12001040D01*
X5085228Y12154972D01*
X5239160Y12342537D01*
X5353541Y12556530D01*
X5423977Y12788725D01*
X5447760Y13030200D01*
X5435526Y13154412D01*
X5791201Y12798737D01*
X5791200Y10517644D01*
X5788497Y10490200D01*
X5791200Y10462758D01*
X5791200Y10462757D01*
X5799286Y10380657D01*
X5831239Y10275323D01*
X5883127Y10178246D01*
X5952957Y10093157D01*
X5974281Y10075657D01*
X13333456Y2716482D01*
X13152900Y2595839D01*
X12974361Y2417300D01*
X12834084Y2207360D01*
X12737459Y1974087D01*
X12700000Y1785768D01*
X12662541Y1974087D01*
X12565916Y2207360D01*
X12425639Y2417300D01*
X12247100Y2595839D01*
X12037160Y2736116D01*
X11803887Y2832741D01*
X11556246Y2882000D01*
X11303754Y2882000D01*
X11056113Y2832741D01*
X10822840Y2736116D01*
X10612900Y2595839D01*
X10434361Y2417300D01*
X10294084Y2207360D01*
X10197459Y1974087D01*
X10160000Y1785768D01*
X10122541Y1974087D01*
X10025916Y2207360D01*
X9885639Y2417300D01*
X9707100Y2595839D01*
X9497160Y2736116D01*
X9263887Y2832741D01*
X9016246Y2882000D01*
X8763754Y2882000D01*
X8516113Y2832741D01*
X8282840Y2736116D01*
X8072900Y2595839D01*
X7894361Y2417300D01*
X7754084Y2207360D01*
X7657459Y1974087D01*
X7620000Y1785768D01*
X7582541Y1974087D01*
X7485916Y2207360D01*
X7345639Y2417300D01*
X7167100Y2595839D01*
X6957160Y2736116D01*
X6723887Y2832741D01*
X6476246Y2882000D01*
X6223754Y2882000D01*
X5976113Y2832741D01*
X5742840Y2736116D01*
X5532900Y2595839D01*
X5354361Y2417300D01*
X5214084Y2207360D01*
X5117459Y1974087D01*
X5080000Y1785768D01*
X5042541Y1974087D01*
X4945916Y2207360D01*
X4805639Y2417300D01*
X4627100Y2595839D01*
X4417160Y2736116D01*
X4183887Y2832741D01*
X3936246Y2882000D01*
X3683754Y2882000D01*
X3436113Y2832741D01*
X3202840Y2736116D01*
X2992900Y2595839D01*
X2814361Y2417300D01*
X2674084Y2207360D01*
X2577459Y1974087D01*
X2553889Y1855593D01*
X2553889Y2025200D01*
X2537386Y2192761D01*
X2488510Y2353883D01*
X2409140Y2502373D01*
X2302326Y2632526D01*
X2172173Y2739340D01*
X2023683Y2818710D01*
X1862561Y2867586D01*
X1695000Y2884089D01*
X845000Y2884089D01*
X677439Y2867586D01*
X516317Y2818710D01*
X506800Y2813623D01*
X506800Y7633094D01*
X2219716Y7633094D01*
X2223364Y7596143D01*
X2315238Y7371445D01*
X2449183Y7168988D01*
X2620052Y6996553D01*
X2821278Y6860766D01*
X3045128Y6766845D01*
X3283000Y6718400D01*
X3683000Y6718400D01*
X3683000Y7823200D01*
X3937000Y7823200D01*
X3937000Y6718400D01*
X4337000Y6718400D01*
X4574872Y6766845D01*
X4798722Y6860766D01*
X4999948Y6996553D01*
X5170817Y7168988D01*
X5304762Y7371445D01*
X5396636Y7596143D01*
X5400284Y7633094D01*
X5326651Y7823200D01*
X3937000Y7823200D01*
X3683000Y7823200D01*
X2293349Y7823200D01*
X2219716Y7633094D01*
X506800Y7633094D01*
X506800Y8267306D01*
X2219716Y8267306D01*
X2293349Y8077200D01*
X3683000Y8077200D01*
X3683000Y9182000D01*
X3937000Y9182000D01*
X3937000Y8077200D01*
X5326651Y8077200D01*
X5400284Y8267306D01*
X5396636Y8304257D01*
X5304762Y8528955D01*
X5170817Y8731412D01*
X4999948Y8903847D01*
X4798722Y9039634D01*
X4574872Y9133555D01*
X4337000Y9182000D01*
X3937000Y9182000D01*
X3683000Y9182000D01*
X3283000Y9182000D01*
X3045128Y9133555D01*
X2821278Y9039634D01*
X2620052Y8903847D01*
X2449183Y8731412D01*
X2315238Y8528955D01*
X2223364Y8304257D01*
X2219716Y8267306D01*
X506800Y8267306D01*
X506800Y10490200D01*
X2172240Y10490200D01*
X2196023Y10248725D01*
X2266459Y10016530D01*
X2380840Y9802537D01*
X2534772Y9614972D01*
X2722337Y9461040D01*
X2936330Y9346659D01*
X3168525Y9276223D01*
X3349487Y9258400D01*
X4270513Y9258400D01*
X4451475Y9276223D01*
X4683670Y9346659D01*
X4897663Y9461040D01*
X5085228Y9614972D01*
X5239160Y9802537D01*
X5353541Y10016530D01*
X5423977Y10248725D01*
X5447760Y10490200D01*
X5423977Y10731675D01*
X5353541Y10963870D01*
X5239160Y11177863D01*
X5085228Y11365428D01*
X4897663Y11519360D01*
X4683670Y11633741D01*
X4451475Y11704177D01*
X4270513Y11722000D01*
X3349487Y11722000D01*
X3168525Y11704177D01*
X2936330Y11633741D01*
X2722337Y11519360D01*
X2534772Y11365428D01*
X2380840Y11177863D01*
X2266459Y10963870D01*
X2196023Y10731675D01*
X2172240Y10490200D01*
X506800Y10490200D01*
X506800Y27386565D01*
X8225970Y27386565D01*
X8309049Y27199468D01*
X8529869Y27098900D01*
X8766067Y27043344D01*
X9008565Y27034936D01*
X9248043Y27073998D01*
X9475300Y27159030D01*
X9550951Y27199468D01*
X9634030Y27386565D01*
X8930000Y28090595D01*
X8225970Y27386565D01*
X506800Y27386565D01*
X506800Y28191635D01*
X7694736Y28191635D01*
X7733798Y27952157D01*
X7818830Y27724900D01*
X7859268Y27649249D01*
X8046365Y27566170D01*
X8750395Y28270200D01*
X9109605Y28270200D01*
X9813635Y27566170D01*
X10000732Y27649249D01*
X10101300Y27870069D01*
X10156856Y28106267D01*
X10165264Y28348765D01*
X10158290Y28391522D01*
X10198200Y28391522D01*
X10198200Y28148878D01*
X10245538Y27910897D01*
X10338393Y27686724D01*
X10473199Y27484973D01*
X10644773Y27313399D01*
X10846524Y27178593D01*
X11070697Y27085738D01*
X11308678Y27038400D01*
X11551322Y27038400D01*
X11789303Y27085738D01*
X12013476Y27178593D01*
X12215227Y27313399D01*
X12386801Y27484973D01*
X12521607Y27686724D01*
X12614462Y27910897D01*
X12661800Y28148878D01*
X12661800Y28391522D01*
X12614462Y28629503D01*
X12521607Y28853676D01*
X12386801Y29055427D01*
X12215227Y29227001D01*
X12013476Y29361807D01*
X11789303Y29454662D01*
X11551322Y29502000D01*
X11308678Y29502000D01*
X11070697Y29454662D01*
X10846524Y29361807D01*
X10644773Y29227001D01*
X10473199Y29055427D01*
X10338393Y28853676D01*
X10245538Y28629503D01*
X10198200Y28391522D01*
X10158290Y28391522D01*
X10126202Y28588243D01*
X10041170Y28815500D01*
X10000732Y28891151D01*
X9813635Y28974230D01*
X9109605Y28270200D01*
X8750395Y28270200D01*
X8046365Y28974230D01*
X7859268Y28891151D01*
X7758700Y28670331D01*
X7703144Y28434133D01*
X7694736Y28191635D01*
X506800Y28191635D01*
X506800Y29153835D01*
X8225970Y29153835D01*
X8930000Y28449805D01*
X9634030Y29153835D01*
X9550951Y29340932D01*
X9330131Y29441500D01*
X9093933Y29497056D01*
X8851435Y29505464D01*
X8611957Y29466402D01*
X8384700Y29381370D01*
X8309049Y29340932D01*
X8225970Y29153835D01*
X506800Y29153835D01*
X506800Y33550315D01*
X3048200Y33550315D01*
X3048200Y33150085D01*
X3126281Y32757546D01*
X3279442Y32387782D01*
X3501798Y32055003D01*
X3784803Y31771998D01*
X4117582Y31549642D01*
X4487346Y31396481D01*
X4879885Y31318400D01*
X5280115Y31318400D01*
X5672654Y31396481D01*
X6042418Y31549642D01*
X6375197Y31771998D01*
X6658202Y32055003D01*
X6880558Y32387782D01*
X7033719Y32757546D01*
X7111800Y33150085D01*
X7111800Y33550315D01*
X7033719Y33942854D01*
X6880558Y34312618D01*
X6658202Y34645397D01*
X6475072Y34828527D01*
X14523200Y34828527D01*
X14523200Y34651873D01*
X14557664Y34478613D01*
X14625266Y34315406D01*
X14723410Y34168523D01*
X14848323Y34043610D01*
X14995206Y33945466D01*
X15158413Y33877864D01*
X15331673Y33843400D01*
X15508327Y33843400D01*
X15681587Y33877864D01*
X15844794Y33945466D01*
X15991677Y34043610D01*
X16116590Y34168523D01*
X16214734Y34315406D01*
X16282336Y34478613D01*
X16316800Y34651873D01*
X16316800Y34828527D01*
X16282336Y35001787D01*
X16214734Y35164994D01*
X16116590Y35311877D01*
X15991677Y35436790D01*
X15844794Y35534934D01*
X15681587Y35602536D01*
X15508327Y35637000D01*
X15331673Y35637000D01*
X15158413Y35602536D01*
X14995206Y35534934D01*
X14848323Y35436790D01*
X14723410Y35311877D01*
X14625266Y35164994D01*
X14557664Y35001787D01*
X14523200Y34828527D01*
X6475072Y34828527D01*
X6375197Y34928402D01*
X6042418Y35150758D01*
X5672654Y35303919D01*
X5280115Y35382000D01*
X4879885Y35382000D01*
X4487346Y35303919D01*
X4117582Y35150758D01*
X3784803Y34928402D01*
X3501798Y34645397D01*
X3279442Y34312618D01*
X3126281Y33942854D01*
X3048200Y33550315D01*
X506800Y33550315D01*
X506800Y34638878D01*
X15221323Y49353400D01*
X93897678Y49353400D01*
X94730956Y49280497D01*
G37*
X94730956Y49280497D02*
X95517463Y49069754D01*
X96255433Y48725633D01*
X96922429Y48258597D01*
X97498197Y47682829D01*
X97965233Y47015833D01*
X98309354Y46277863D01*
X98520098Y45491355D01*
X98594600Y44639789D01*
X98594601Y2604191D01*
X98397160Y2736116D01*
X98163887Y2832741D01*
X97916246Y2882000D01*
X97663754Y2882000D01*
X97416113Y2832741D01*
X97182840Y2736116D01*
X96972900Y2595839D01*
X96794361Y2417300D01*
X96654084Y2207360D01*
X96557459Y1974087D01*
X96520000Y1785768D01*
X96482541Y1974087D01*
X96385916Y2207360D01*
X96245639Y2417300D01*
X96067100Y2595839D01*
X95857160Y2736116D01*
X95623887Y2832741D01*
X95376246Y2882000D01*
X95123754Y2882000D01*
X94876113Y2832741D01*
X94642840Y2736116D01*
X94432900Y2595839D01*
X94254361Y2417300D01*
X94114084Y2207360D01*
X94017459Y1974087D01*
X93980000Y1785768D01*
X93942541Y1974087D01*
X93845916Y2207360D01*
X93705639Y2417300D01*
X93527100Y2595839D01*
X93317160Y2736116D01*
X93083887Y2832741D01*
X92836246Y2882000D01*
X92583754Y2882000D01*
X92336113Y2832741D01*
X92102840Y2736116D01*
X91892900Y2595839D01*
X91714361Y2417300D01*
X91574084Y2207360D01*
X91477459Y1974087D01*
X91440000Y1785768D01*
X91402541Y1974087D01*
X91305916Y2207360D01*
X91165639Y2417300D01*
X90987100Y2595839D01*
X90777160Y2736116D01*
X90543887Y2832741D01*
X90296246Y2882000D01*
X90043754Y2882000D01*
X89796113Y2832741D01*
X89562840Y2736116D01*
X89542764Y2722702D01*
X93085726Y6265663D01*
X93107043Y6283157D01*
X93148410Y6333563D01*
X93176873Y6368245D01*
X93228761Y6465322D01*
X93260714Y6570655D01*
X93271503Y6680200D01*
X93268800Y6707644D01*
X93268800Y21257758D01*
X93271503Y21285200D01*
X93264264Y21358697D01*
X93260714Y21394744D01*
X93228761Y21500078D01*
X93215211Y21525428D01*
X93176873Y21597155D01*
X93124537Y21660926D01*
X93107043Y21682243D01*
X93085725Y21699738D01*
X91219543Y23565919D01*
X91202043Y23587243D01*
X91116954Y23657073D01*
X91019878Y23708961D01*
X90933491Y23735167D01*
X90964160Y23772537D01*
X91078541Y23986530D01*
X91148977Y24218725D01*
X91172760Y24460200D01*
X91148977Y24701675D01*
X91078541Y24933870D01*
X90964160Y25147863D01*
X90810228Y25335428D01*
X90622663Y25489360D01*
X90408670Y25603741D01*
X90284300Y25641468D01*
X90284300Y27289393D01*
X90320227Y27313399D01*
X90491801Y27484973D01*
X90626607Y27686724D01*
X90719462Y27910897D01*
X90766800Y28148878D01*
X90766800Y28391522D01*
X90719462Y28629503D01*
X90626607Y28853676D01*
X90491801Y29055427D01*
X90320227Y29227001D01*
X90118476Y29361807D01*
X89894303Y29454662D01*
X89656322Y29502000D01*
X89413678Y29502000D01*
X89371300Y29493570D01*
X85393348Y33471522D01*
X89573200Y33471522D01*
X89573200Y33228878D01*
X89620538Y32990897D01*
X89713393Y32766724D01*
X89848199Y32564973D01*
X90019773Y32393399D01*
X90221524Y32258593D01*
X90445697Y32165738D01*
X90683678Y32118400D01*
X90926322Y32118400D01*
X91164303Y32165738D01*
X91388476Y32258593D01*
X91590227Y32393399D01*
X91761801Y32564973D01*
X91896607Y32766724D01*
X91989462Y32990897D01*
X92036800Y33228878D01*
X92036800Y33471522D01*
X91989462Y33709503D01*
X91896607Y33933676D01*
X91761801Y34135427D01*
X91590227Y34307001D01*
X91388476Y34441807D01*
X91164303Y34534662D01*
X90926322Y34582000D01*
X90683678Y34582000D01*
X90445697Y34534662D01*
X90221524Y34441807D01*
X90019773Y34307001D01*
X89848199Y34135427D01*
X89713393Y33933676D01*
X89620538Y33709503D01*
X89573200Y33471522D01*
X85393348Y33471522D01*
X81569966Y37294904D01*
X85366584Y41091522D01*
X89573200Y41091522D01*
X89573200Y40848878D01*
X89620538Y40610897D01*
X89713393Y40386724D01*
X89848199Y40184973D01*
X90019773Y40013399D01*
X90221524Y39878593D01*
X90445697Y39785738D01*
X90683678Y39738400D01*
X90926322Y39738400D01*
X91164303Y39785738D01*
X91388476Y39878593D01*
X91590227Y40013399D01*
X91761801Y40184973D01*
X91896607Y40386724D01*
X91989462Y40610897D01*
X92036800Y40848878D01*
X92036800Y41091522D01*
X91989462Y41329503D01*
X91896607Y41553676D01*
X91761801Y41755427D01*
X91590227Y41927001D01*
X91388476Y42061807D01*
X91164303Y42154662D01*
X90926322Y42202000D01*
X90683678Y42202000D01*
X90445697Y42154662D01*
X90221524Y42061807D01*
X90019773Y41927001D01*
X89848199Y41755427D01*
X89713393Y41553676D01*
X89620538Y41329503D01*
X89573200Y41091522D01*
X85366584Y41091522D01*
X87861463Y43586400D01*
X91412558Y43586400D01*
X91440000Y43583697D01*
X91467442Y43586400D01*
X91467444Y43586400D01*
X91549544Y43594486D01*
X91654878Y43626439D01*
X91751954Y43678327D01*
X91837043Y43748157D01*
X91854543Y43769481D01*
X92884484Y44799422D01*
X92956528Y44769580D01*
X93213829Y44718400D01*
X93476171Y44718400D01*
X93733472Y44769580D01*
X93975844Y44869974D01*
X94193973Y45015723D01*
X94379477Y45201227D01*
X94525226Y45419356D01*
X94625620Y45661728D01*
X94676800Y45919029D01*
X94676800Y46181371D01*
X94625620Y46438672D01*
X94525226Y46681044D01*
X94379477Y46899173D01*
X94193973Y47084677D01*
X93975844Y47230426D01*
X93733472Y47330820D01*
X93476171Y47382000D01*
X93213829Y47382000D01*
X92956528Y47330820D01*
X92714156Y47230426D01*
X92496027Y47084677D01*
X92310523Y46899173D01*
X92164774Y46681044D01*
X92129471Y46595816D01*
X92121905Y46672638D01*
X92071607Y46838450D01*
X91989927Y46991262D01*
X91880004Y47125204D01*
X91746062Y47235127D01*
X91593250Y47316807D01*
X91427438Y47367105D01*
X91255000Y47384089D01*
X90355000Y47384089D01*
X90182562Y47367105D01*
X90016750Y47316807D01*
X89863938Y47235127D01*
X89729996Y47125204D01*
X89620073Y46991262D01*
X89538393Y46838450D01*
X89488095Y46672638D01*
X89471111Y46500200D01*
X89471111Y45600200D01*
X89488095Y45427762D01*
X89538393Y45261950D01*
X89620073Y45109138D01*
X89729996Y44975196D01*
X89863938Y44865273D01*
X90016750Y44783593D01*
X90182562Y44733295D01*
X90355000Y44716311D01*
X91220849Y44716311D01*
X91208538Y44704000D01*
X87657444Y44704000D01*
X87630000Y44706703D01*
X87520455Y44695914D01*
X87415122Y44663961D01*
X87318045Y44612073D01*
X87267995Y44570998D01*
X87232957Y44542243D01*
X87215462Y44520925D01*
X80604038Y37909500D01*
X77433889Y37909500D01*
X77433889Y37960200D01*
X77425552Y38044848D01*
X77400861Y38126242D01*
X77360766Y38201256D01*
X77306806Y38267006D01*
X77241056Y38320966D01*
X77166042Y38361061D01*
X77084648Y38385752D01*
X77000000Y38394089D01*
X75400000Y38394089D01*
X75315352Y38385752D01*
X75233958Y38361061D01*
X75158944Y38320966D01*
X75093194Y38267006D01*
X75039234Y38201256D01*
X74999139Y38126242D01*
X74974448Y38044848D01*
X74966111Y37960200D01*
X74966111Y36985981D01*
X74860213Y36880083D01*
X74891800Y37038878D01*
X74891800Y37281522D01*
X74844462Y37519503D01*
X74751607Y37743676D01*
X74616801Y37945427D01*
X74445227Y38117001D01*
X74243476Y38251807D01*
X74019303Y38344662D01*
X73781322Y38392000D01*
X73538678Y38392000D01*
X73300697Y38344662D01*
X73076524Y38251807D01*
X72874773Y38117001D01*
X72703199Y37945427D01*
X72568393Y37743676D01*
X72475538Y37519503D01*
X72428200Y37281522D01*
X72428200Y37038878D01*
X72475538Y36800897D01*
X72485759Y36776222D01*
X69618538Y33909000D01*
X65432441Y33909000D01*
X65404999Y33911703D01*
X65377557Y33909000D01*
X65377556Y33909000D01*
X65295456Y33900914D01*
X65190122Y33868961D01*
X65093046Y33817073D01*
X65007957Y33747243D01*
X64990457Y33725919D01*
X46296538Y15032000D01*
X46282924Y15032000D01*
X46141542Y15003877D01*
X46008363Y14948713D01*
X45888505Y14868626D01*
X45786574Y14766695D01*
X45706487Y14646837D01*
X45654393Y14521070D01*
X44864543Y15310919D01*
X44847043Y15332243D01*
X44761954Y15402073D01*
X44664878Y15453961D01*
X44559544Y15485914D01*
X44477444Y15494000D01*
X44477442Y15494000D01*
X44450000Y15496703D01*
X44422558Y15494000D01*
X43910980Y15494000D01*
X43911800Y15498124D01*
X43911800Y15511738D01*
X61191463Y32791400D01*
X62837558Y32791400D01*
X62865000Y32788697D01*
X62892442Y32791400D01*
X62892444Y32791400D01*
X62974544Y32799486D01*
X63079878Y32831439D01*
X63176954Y32883327D01*
X63262043Y32953157D01*
X63279543Y32974481D01*
X64366462Y34061400D01*
X68552558Y34061400D01*
X68580000Y34058697D01*
X68607442Y34061400D01*
X68607444Y34061400D01*
X68689544Y34069486D01*
X68794878Y34101439D01*
X68891954Y34153327D01*
X68977043Y34223157D01*
X68994543Y34244481D01*
X70736021Y35985959D01*
X70760697Y35975738D01*
X70998678Y35928400D01*
X71241322Y35928400D01*
X71479303Y35975738D01*
X71703476Y36068593D01*
X71905227Y36203399D01*
X72076801Y36374973D01*
X72211607Y36576724D01*
X72304462Y36800897D01*
X72351800Y37038878D01*
X72351800Y37281522D01*
X72304462Y37519503D01*
X72211607Y37743676D01*
X72076801Y37945427D01*
X71905227Y38117001D01*
X71703476Y38251807D01*
X71479303Y38344662D01*
X71241322Y38392000D01*
X70998678Y38392000D01*
X70760697Y38344662D01*
X70536524Y38251807D01*
X70334773Y38117001D01*
X70163199Y37945427D01*
X70028393Y37743676D01*
X69935538Y37519503D01*
X69888200Y37281522D01*
X69888200Y37038878D01*
X69935538Y36800897D01*
X69945759Y36776221D01*
X68348538Y35179000D01*
X64162441Y35179000D01*
X64134999Y35181703D01*
X64107557Y35179000D01*
X64107556Y35179000D01*
X64025456Y35170914D01*
X63920122Y35138961D01*
X63823046Y35087073D01*
X63737957Y35017243D01*
X63720457Y34995919D01*
X62633538Y33909000D01*
X61756757Y33909000D01*
X61844794Y33945466D01*
X61991677Y34043610D01*
X62116590Y34168523D01*
X62214734Y34315406D01*
X62282336Y34478613D01*
X62316800Y34651873D01*
X62316800Y34828527D01*
X62282336Y35001787D01*
X62214734Y35164994D01*
X62116590Y35311877D01*
X62097067Y35331400D01*
X67282558Y35331400D01*
X67310000Y35328697D01*
X67337442Y35331400D01*
X67337444Y35331400D01*
X67419544Y35339486D01*
X67524878Y35371439D01*
X67621954Y35423327D01*
X67707043Y35493157D01*
X67724543Y35514481D01*
X68196021Y35985959D01*
X68220697Y35975738D01*
X68458678Y35928400D01*
X68701322Y35928400D01*
X68939303Y35975738D01*
X69163476Y36068593D01*
X69365227Y36203399D01*
X69536801Y36374973D01*
X69671607Y36576724D01*
X69764462Y36800897D01*
X69811800Y37038878D01*
X69811800Y37281522D01*
X69764462Y37519503D01*
X69671607Y37743676D01*
X69536801Y37945427D01*
X69365227Y38117001D01*
X69163476Y38251807D01*
X68939303Y38344662D01*
X68701322Y38392000D01*
X68458678Y38392000D01*
X68220697Y38344662D01*
X67996524Y38251807D01*
X67794773Y38117001D01*
X67623199Y37945427D01*
X67488393Y37743676D01*
X67395538Y37519503D01*
X67348200Y37281522D01*
X67348200Y37038878D01*
X67395538Y36800897D01*
X67405759Y36776221D01*
X67078538Y36449000D01*
X67046264Y36449000D01*
X67131607Y36576724D01*
X67224462Y36800897D01*
X67271800Y37038878D01*
X67271800Y37281522D01*
X67224462Y37519503D01*
X67131607Y37743676D01*
X66996801Y37945427D01*
X66825227Y38117001D01*
X66623476Y38251807D01*
X66399303Y38344662D01*
X66161322Y38392000D01*
X65918678Y38392000D01*
X65680697Y38344662D01*
X65656021Y38334441D01*
X65184543Y38805919D01*
X65167043Y38827243D01*
X65081954Y38897073D01*
X64984878Y38948961D01*
X64879544Y38980914D01*
X64797444Y38989000D01*
X64797442Y38989000D01*
X64770000Y38991703D01*
X64742558Y38989000D01*
X52732441Y38989000D01*
X52704999Y38991703D01*
X52677557Y38989000D01*
X52677556Y38989000D01*
X52595456Y38980914D01*
X52490122Y38948961D01*
X52393046Y38897073D01*
X52307957Y38827243D01*
X52290462Y38805925D01*
X29786538Y16302000D01*
X29772924Y16302000D01*
X29631542Y16273877D01*
X29498363Y16218713D01*
X29378505Y16138626D01*
X29276574Y16036695D01*
X29196487Y15916837D01*
X29141323Y15783658D01*
X29113200Y15642276D01*
X29113200Y15498124D01*
X29114020Y15494000D01*
X20141121Y15494000D01*
X20221364Y15614093D01*
X20321004Y15854645D01*
X20371800Y16110014D01*
X20371800Y16370386D01*
X20321004Y16625755D01*
X20221364Y16866307D01*
X20076709Y17082799D01*
X19892599Y17266909D01*
X19676107Y17411564D01*
X19435555Y17511204D01*
X19180186Y17562000D01*
X18919814Y17562000D01*
X18664445Y17511204D01*
X18423893Y17411564D01*
X18207401Y17266909D01*
X18023291Y17082799D01*
X17878636Y16866307D01*
X17778996Y16625755D01*
X17728200Y16370386D01*
X17728200Y16110014D01*
X17778996Y15854645D01*
X17869632Y15635831D01*
X15019543Y18485919D01*
X15002043Y18507243D01*
X14916954Y18577073D01*
X14819878Y18628961D01*
X14714544Y18660914D01*
X14632444Y18669000D01*
X14632442Y18669000D01*
X14605000Y18671703D01*
X14577558Y18669000D01*
X12928038Y18669000D01*
X12859160Y18797863D01*
X12705228Y18985428D01*
X12517663Y19139360D01*
X12303670Y19253741D01*
X12071475Y19324177D01*
X11890513Y19342000D01*
X10969487Y19342000D01*
X10788525Y19324177D01*
X10556330Y19253741D01*
X10342337Y19139360D01*
X10154772Y18985428D01*
X10000840Y18797863D01*
X9886459Y18583870D01*
X9816023Y18351675D01*
X9792240Y18110200D01*
X9804474Y17985988D01*
X9448800Y18341662D01*
X9448800Y20622758D01*
X9451503Y20650200D01*
X9792240Y20650200D01*
X9816023Y20408725D01*
X9886459Y20176530D01*
X10000840Y19962537D01*
X10154772Y19774972D01*
X10342337Y19621040D01*
X10556330Y19506659D01*
X10788525Y19436223D01*
X10969487Y19418400D01*
X11890513Y19418400D01*
X12071475Y19436223D01*
X12303670Y19506659D01*
X12517663Y19621040D01*
X12705228Y19774972D01*
X12859160Y19962537D01*
X12973541Y20176530D01*
X13043977Y20408725D01*
X13067760Y20650200D01*
X13043977Y20891675D01*
X12973541Y21123870D01*
X12859160Y21337863D01*
X12705228Y21525428D01*
X12517663Y21679360D01*
X12303670Y21793741D01*
X12071475Y21864177D01*
X11890513Y21882000D01*
X10969487Y21882000D01*
X10788525Y21864177D01*
X10556330Y21793741D01*
X10342337Y21679360D01*
X10154772Y21525428D01*
X10000840Y21337863D01*
X9886459Y21123870D01*
X9816023Y20891675D01*
X9792240Y20650200D01*
X9451503Y20650200D01*
X9448800Y20677644D01*
X9440714Y20759744D01*
X9408761Y20865078D01*
X9356873Y20962154D01*
X9287043Y21047243D01*
X9265725Y21064738D01*
X7140263Y23190200D01*
X9792240Y23190200D01*
X9816023Y22948725D01*
X9886459Y22716530D01*
X10000840Y22502537D01*
X10154772Y22314972D01*
X10342337Y22161040D01*
X10556330Y22046659D01*
X10788525Y21976223D01*
X10969487Y21958400D01*
X11890513Y21958400D01*
X12071475Y21976223D01*
X12303670Y22046659D01*
X12517663Y22161040D01*
X12705228Y22314972D01*
X12859160Y22502537D01*
X12973541Y22716530D01*
X13043977Y22948725D01*
X13067760Y23190200D01*
X13043977Y23431675D01*
X12973541Y23663870D01*
X12859160Y23877863D01*
X12705228Y24065428D01*
X12517663Y24219360D01*
X12303670Y24333741D01*
X12071475Y24404177D01*
X11890513Y24422000D01*
X10969487Y24422000D01*
X10788525Y24404177D01*
X10556330Y24333741D01*
X10342337Y24219360D01*
X10154772Y24065428D01*
X10000840Y23877863D01*
X9886459Y23663870D01*
X9816023Y23431675D01*
X9792240Y23190200D01*
X7140263Y23190200D01*
X5359153Y24971309D01*
X5380413Y25011084D01*
X5427866Y25167516D01*
X5443889Y25330200D01*
X5443889Y25730200D01*
X9792240Y25730200D01*
X9816023Y25488725D01*
X9886459Y25256530D01*
X10000840Y25042537D01*
X10154772Y24854972D01*
X10342337Y24701040D01*
X10556330Y24586659D01*
X10788525Y24516223D01*
X10969487Y24498400D01*
X11890513Y24498400D01*
X12071475Y24516223D01*
X12303670Y24586659D01*
X12517663Y24701040D01*
X12705228Y24854972D01*
X12859160Y25042537D01*
X12973541Y25256530D01*
X13043977Y25488725D01*
X13067760Y25730200D01*
X13043977Y25971675D01*
X12973541Y26203870D01*
X12859160Y26417863D01*
X12705228Y26605428D01*
X12517663Y26759360D01*
X12303670Y26873741D01*
X12071475Y26944177D01*
X11890513Y26962000D01*
X10969487Y26962000D01*
X10788525Y26944177D01*
X10556330Y26873741D01*
X10342337Y26759360D01*
X10154772Y26605428D01*
X10000840Y26417863D01*
X9886459Y26203870D01*
X9816023Y25971675D01*
X9792240Y25730200D01*
X5443889Y25730200D01*
X5443889Y26130200D01*
X5427866Y26292884D01*
X5380413Y26449316D01*
X5303353Y26593484D01*
X5199649Y26719849D01*
X5073284Y26823553D01*
X4929116Y26900613D01*
X4772684Y26948066D01*
X4610000Y26964089D01*
X3010000Y26964089D01*
X2847316Y26948066D01*
X2690884Y26900613D01*
X2546716Y26823553D01*
X2420351Y26719849D01*
X2316647Y26593484D01*
X2239587Y26449316D01*
X2192134Y26292884D01*
X2176111Y26130200D01*
X2176111Y25330200D01*
X2192134Y25167516D01*
X2239587Y25011084D01*
X2316647Y24866916D01*
X2420351Y24740551D01*
X2546716Y24636847D01*
X2690884Y24559787D01*
X2847316Y24512334D01*
X3010000Y24496311D01*
X4253627Y24496311D01*
X4334212Y24415726D01*
X4270513Y24422000D01*
X3349487Y24422000D01*
X3168525Y24404177D01*
X2936330Y24333741D01*
X2722337Y24219360D01*
X2534772Y24065428D01*
X2380840Y23877863D01*
X2266459Y23663870D01*
X2196023Y23431675D01*
X2172240Y23190200D01*
X2196023Y22948725D01*
X2266459Y22716530D01*
X2380840Y22502537D01*
X2534772Y22314972D01*
X2722337Y22161040D01*
X2936330Y22046659D01*
X3168525Y21976223D01*
X3349487Y21958400D01*
X4251538Y21958400D01*
X4334212Y21875726D01*
X4270513Y21882000D01*
X3349487Y21882000D01*
X3168525Y21864177D01*
X2936330Y21793741D01*
X2722337Y21679360D01*
X2534772Y21525428D01*
X2380840Y21337863D01*
X2266459Y21123870D01*
X2196023Y20891675D01*
X2172240Y20650200D01*
X2196023Y20408725D01*
X2266459Y20176530D01*
X2380840Y19962537D01*
X2534772Y19774972D01*
X2722337Y19621040D01*
X2936330Y19506659D01*
X3168525Y19436223D01*
X3349487Y19418400D01*
X4251538Y19418400D01*
X4334211Y19335726D01*
X4270513Y19342000D01*
X3349487Y19342000D01*
X3168525Y19324177D01*
X2936330Y19253741D01*
X2722337Y19139360D01*
X2534772Y18985428D01*
X2380840Y18797863D01*
X2266459Y18583870D01*
X2196023Y18351675D01*
X2172240Y18110200D01*
X2196023Y17868725D01*
X2266459Y17636530D01*
X2380840Y17422537D01*
X2534772Y17234972D01*
X2722337Y17081040D01*
X2936330Y16966659D01*
X3168525Y16896223D01*
X3349487Y16878400D01*
X4251538Y16878400D01*
X4334211Y16795726D01*
X4270513Y16802000D01*
X3349487Y16802000D01*
X3168525Y16784177D01*
X2936330Y16713741D01*
X2722337Y16599360D01*
X2534772Y16445428D01*
X2380840Y16257863D01*
X2266459Y16043870D01*
X2196023Y15811675D01*
X2172240Y15570200D01*
X2196023Y15328725D01*
X2266459Y15096530D01*
X2380840Y14882537D01*
X2534772Y14694972D01*
X2722337Y14541040D01*
X2936330Y14426659D01*
X3168525Y14356223D01*
X3349487Y14338400D01*
X4251538Y14338400D01*
X4334212Y14255726D01*
X4270513Y14262000D01*
X3349487Y14262000D01*
X3168525Y14244177D01*
X2936330Y14173741D01*
X2722337Y14059360D01*
X2534772Y13905428D01*
X2380840Y13717863D01*
X2266459Y13503870D01*
X2196023Y13271675D01*
X2172240Y13030200D01*
X2196023Y12788725D01*
X2266459Y12556530D01*
X2380840Y12342537D01*
X2534772Y12154972D01*
X2722337Y12001040D01*
X2936330Y11886659D01*
X3168525Y11816223D01*
X3349487Y11798400D01*
X4270513Y11798400D01*
X4451475Y11816223D01*
X4683670Y11886659D01*
X4897663Y12001040D01*
X5085228Y12154972D01*
X5239160Y12342537D01*
X5353541Y12556530D01*
X5423977Y12788725D01*
X5447760Y13030200D01*
X5435526Y13154412D01*
X5791201Y12798737D01*
X5791200Y10517644D01*
X5788497Y10490200D01*
X5791200Y10462758D01*
X5791200Y10462757D01*
X5799286Y10380657D01*
X5831239Y10275323D01*
X5883127Y10178246D01*
X5952957Y10093157D01*
X5974281Y10075657D01*
X13333456Y2716482D01*
X13152900Y2595839D01*
X12974361Y2417300D01*
X12834084Y2207360D01*
X12737459Y1974087D01*
X12700000Y1785768D01*
X12662541Y1974087D01*
X12565916Y2207360D01*
X12425639Y2417300D01*
X12247100Y2595839D01*
X12037160Y2736116D01*
X11803887Y2832741D01*
X11556246Y2882000D01*
X11303754Y2882000D01*
X11056113Y2832741D01*
X10822840Y2736116D01*
X10612900Y2595839D01*
X10434361Y2417300D01*
X10294084Y2207360D01*
X10197459Y1974087D01*
X10160000Y1785768D01*
X10122541Y1974087D01*
X10025916Y2207360D01*
X9885639Y2417300D01*
X9707100Y2595839D01*
X9497160Y2736116D01*
X9263887Y2832741D01*
X9016246Y2882000D01*
X8763754Y2882000D01*
X8516113Y2832741D01*
X8282840Y2736116D01*
X8072900Y2595839D01*
X7894361Y2417300D01*
X7754084Y2207360D01*
X7657459Y1974087D01*
X7620000Y1785768D01*
X7582541Y1974087D01*
X7485916Y2207360D01*
X7345639Y2417300D01*
X7167100Y2595839D01*
X6957160Y2736116D01*
X6723887Y2832741D01*
X6476246Y2882000D01*
X6223754Y2882000D01*
X5976113Y2832741D01*
X5742840Y2736116D01*
X5532900Y2595839D01*
X5354361Y2417300D01*
X5214084Y2207360D01*
X5117459Y1974087D01*
X5080000Y1785768D01*
X5042541Y1974087D01*
X4945916Y2207360D01*
X4805639Y2417300D01*
X4627100Y2595839D01*
X4417160Y2736116D01*
X4183887Y2832741D01*
X3936246Y2882000D01*
X3683754Y2882000D01*
X3436113Y2832741D01*
X3202840Y2736116D01*
X2992900Y2595839D01*
X2814361Y2417300D01*
X2674084Y2207360D01*
X2577459Y1974087D01*
X2553889Y1855593D01*
X2553889Y2025200D01*
X2537386Y2192761D01*
X2488510Y2353883D01*
X2409140Y2502373D01*
X2302326Y2632526D01*
X2172173Y2739340D01*
X2023683Y2818710D01*
X1862561Y2867586D01*
X1695000Y2884089D01*
X845000Y2884089D01*
X677439Y2867586D01*
X516317Y2818710D01*
X506800Y2813623D01*
X506800Y7633094D01*
X2219716Y7633094D01*
X2223364Y7596143D01*
X2315238Y7371445D01*
X2449183Y7168988D01*
X2620052Y6996553D01*
X2821278Y6860766D01*
X3045128Y6766845D01*
X3283000Y6718400D01*
X3683000Y6718400D01*
X3683000Y7823200D01*
X3937000Y7823200D01*
X3937000Y6718400D01*
X4337000Y6718400D01*
X4574872Y6766845D01*
X4798722Y6860766D01*
X4999948Y6996553D01*
X5170817Y7168988D01*
X5304762Y7371445D01*
X5396636Y7596143D01*
X5400284Y7633094D01*
X5326651Y7823200D01*
X3937000Y7823200D01*
X3683000Y7823200D01*
X2293349Y7823200D01*
X2219716Y7633094D01*
X506800Y7633094D01*
X506800Y8267306D01*
X2219716Y8267306D01*
X2293349Y8077200D01*
X3683000Y8077200D01*
X3683000Y9182000D01*
X3937000Y9182000D01*
X3937000Y8077200D01*
X5326651Y8077200D01*
X5400284Y8267306D01*
X5396636Y8304257D01*
X5304762Y8528955D01*
X5170817Y8731412D01*
X4999948Y8903847D01*
X4798722Y9039634D01*
X4574872Y9133555D01*
X4337000Y9182000D01*
X3937000Y9182000D01*
X3683000Y9182000D01*
X3283000Y9182000D01*
X3045128Y9133555D01*
X2821278Y9039634D01*
X2620052Y8903847D01*
X2449183Y8731412D01*
X2315238Y8528955D01*
X2223364Y8304257D01*
X2219716Y8267306D01*
X506800Y8267306D01*
X506800Y10490200D01*
X2172240Y10490200D01*
X2196023Y10248725D01*
X2266459Y10016530D01*
X2380840Y9802537D01*
X2534772Y9614972D01*
X2722337Y9461040D01*
X2936330Y9346659D01*
X3168525Y9276223D01*
X3349487Y9258400D01*
X4270513Y9258400D01*
X4451475Y9276223D01*
X4683670Y9346659D01*
X4897663Y9461040D01*
X5085228Y9614972D01*
X5239160Y9802537D01*
X5353541Y10016530D01*
X5423977Y10248725D01*
X5447760Y10490200D01*
X5423977Y10731675D01*
X5353541Y10963870D01*
X5239160Y11177863D01*
X5085228Y11365428D01*
X4897663Y11519360D01*
X4683670Y11633741D01*
X4451475Y11704177D01*
X4270513Y11722000D01*
X3349487Y11722000D01*
X3168525Y11704177D01*
X2936330Y11633741D01*
X2722337Y11519360D01*
X2534772Y11365428D01*
X2380840Y11177863D01*
X2266459Y10963870D01*
X2196023Y10731675D01*
X2172240Y10490200D01*
X506800Y10490200D01*
X506800Y27386565D01*
X8225970Y27386565D01*
X8309049Y27199468D01*
X8529869Y27098900D01*
X8766067Y27043344D01*
X9008565Y27034936D01*
X9248043Y27073998D01*
X9475300Y27159030D01*
X9550951Y27199468D01*
X9634030Y27386565D01*
X8930000Y28090595D01*
X8225970Y27386565D01*
X506800Y27386565D01*
X506800Y28191635D01*
X7694736Y28191635D01*
X7733798Y27952157D01*
X7818830Y27724900D01*
X7859268Y27649249D01*
X8046365Y27566170D01*
X8750395Y28270200D01*
X9109605Y28270200D01*
X9813635Y27566170D01*
X10000732Y27649249D01*
X10101300Y27870069D01*
X10156856Y28106267D01*
X10165264Y28348765D01*
X10158290Y28391522D01*
X10198200Y28391522D01*
X10198200Y28148878D01*
X10245538Y27910897D01*
X10338393Y27686724D01*
X10473199Y27484973D01*
X10644773Y27313399D01*
X10846524Y27178593D01*
X11070697Y27085738D01*
X11308678Y27038400D01*
X11551322Y27038400D01*
X11789303Y27085738D01*
X12013476Y27178593D01*
X12215227Y27313399D01*
X12386801Y27484973D01*
X12521607Y27686724D01*
X12614462Y27910897D01*
X12661800Y28148878D01*
X12661800Y28391522D01*
X12614462Y28629503D01*
X12521607Y28853676D01*
X12386801Y29055427D01*
X12215227Y29227001D01*
X12013476Y29361807D01*
X11789303Y29454662D01*
X11551322Y29502000D01*
X11308678Y29502000D01*
X11070697Y29454662D01*
X10846524Y29361807D01*
X10644773Y29227001D01*
X10473199Y29055427D01*
X10338393Y28853676D01*
X10245538Y28629503D01*
X10198200Y28391522D01*
X10158290Y28391522D01*
X10126202Y28588243D01*
X10041170Y28815500D01*
X10000732Y28891151D01*
X9813635Y28974230D01*
X9109605Y28270200D01*
X8750395Y28270200D01*
X8046365Y28974230D01*
X7859268Y28891151D01*
X7758700Y28670331D01*
X7703144Y28434133D01*
X7694736Y28191635D01*
X506800Y28191635D01*
X506800Y29153835D01*
X8225970Y29153835D01*
X8930000Y28449805D01*
X9634030Y29153835D01*
X9550951Y29340932D01*
X9330131Y29441500D01*
X9093933Y29497056D01*
X8851435Y29505464D01*
X8611957Y29466402D01*
X8384700Y29381370D01*
X8309049Y29340932D01*
X8225970Y29153835D01*
X506800Y29153835D01*
X506800Y33550315D01*
X3048200Y33550315D01*
X3048200Y33150085D01*
X3126281Y32757546D01*
X3279442Y32387782D01*
X3501798Y32055003D01*
X3784803Y31771998D01*
X4117582Y31549642D01*
X4487346Y31396481D01*
X4879885Y31318400D01*
X5280115Y31318400D01*
X5672654Y31396481D01*
X6042418Y31549642D01*
X6375197Y31771998D01*
X6658202Y32055003D01*
X6880558Y32387782D01*
X7033719Y32757546D01*
X7111800Y33150085D01*
X7111800Y33550315D01*
X7033719Y33942854D01*
X6880558Y34312618D01*
X6658202Y34645397D01*
X6475072Y34828527D01*
X14523200Y34828527D01*
X14523200Y34651873D01*
X14557664Y34478613D01*
X14625266Y34315406D01*
X14723410Y34168523D01*
X14848323Y34043610D01*
X14995206Y33945466D01*
X15158413Y33877864D01*
X15331673Y33843400D01*
X15508327Y33843400D01*
X15681587Y33877864D01*
X15844794Y33945466D01*
X15991677Y34043610D01*
X16116590Y34168523D01*
X16214734Y34315406D01*
X16282336Y34478613D01*
X16316800Y34651873D01*
X16316800Y34828527D01*
X16282336Y35001787D01*
X16214734Y35164994D01*
X16116590Y35311877D01*
X15991677Y35436790D01*
X15844794Y35534934D01*
X15681587Y35602536D01*
X15508327Y35637000D01*
X15331673Y35637000D01*
X15158413Y35602536D01*
X14995206Y35534934D01*
X14848323Y35436790D01*
X14723410Y35311877D01*
X14625266Y35164994D01*
X14557664Y35001787D01*
X14523200Y34828527D01*
X6475072Y34828527D01*
X6375197Y34928402D01*
X6042418Y35150758D01*
X5672654Y35303919D01*
X5280115Y35382000D01*
X4879885Y35382000D01*
X4487346Y35303919D01*
X4117582Y35150758D01*
X3784803Y34928402D01*
X3501798Y34645397D01*
X3279442Y34312618D01*
X3126281Y33942854D01*
X3048200Y33550315D01*
X506800Y33550315D01*
X506800Y34638878D01*
X15221323Y49353400D01*
X93897678Y49353400D01*
X94730956Y49280497D01*
G36*
X30266542Y8648877D02*
G01*
X30133363Y8593713D01*
X30013505Y8513626D01*
X29911574Y8411695D01*
X29831487Y8291837D01*
X29776323Y8158658D01*
X29748200Y8017276D01*
X29748200Y7873124D01*
X29776323Y7731742D01*
X29831487Y7598563D01*
X29911574Y7478705D01*
X30013505Y7376774D01*
X30133363Y7296687D01*
X30266542Y7241523D01*
X30407924Y7213400D01*
X30552076Y7213400D01*
X30693458Y7241523D01*
X30826637Y7296687D01*
X30946495Y7376774D01*
X30956121Y7386400D01*
X31019012Y7386400D01*
X31018192Y7382276D01*
X31018192Y7238124D01*
X31046315Y7096742D01*
X31101479Y6963563D01*
X31181566Y6843705D01*
X31283497Y6741774D01*
X31403355Y6661687D01*
X31536534Y6606523D01*
X31677916Y6578400D01*
X31696538Y6578400D01*
X31959656Y6315282D01*
X31923505Y6291126D01*
X31821574Y6189195D01*
X31741487Y6069337D01*
X31686323Y5936158D01*
X31658200Y5794776D01*
X31658200Y5650624D01*
X31686323Y5509242D01*
X31741487Y5376063D01*
X31821574Y5256205D01*
X31831201Y5246578D01*
X31831200Y3527642D01*
X31828497Y3500200D01*
X31831200Y3472758D01*
X31831200Y3472757D01*
X31839286Y3390657D01*
X31871239Y3285323D01*
X31923127Y3188246D01*
X31992957Y3103157D01*
X32014281Y3085657D01*
X32377235Y2722702D01*
X32357160Y2736116D01*
X32123887Y2832741D01*
X31876246Y2882000D01*
X31623754Y2882000D01*
X31376113Y2832741D01*
X31327753Y2812710D01*
X28354543Y5785919D01*
X28337043Y5807243D01*
X28251954Y5877073D01*
X28154878Y5928961D01*
X28049544Y5960914D01*
X27967444Y5969000D01*
X27967442Y5969000D01*
X27940000Y5971703D01*
X27912558Y5969000D01*
X21821463Y5969000D01*
X19270870Y8519593D01*
X19396637Y8571687D01*
X19516495Y8651774D01*
X19526121Y8661400D01*
X30329499Y8661400D01*
X30266542Y8648877D01*
G37*
X30266542Y8648877D02*
X30133363Y8593713D01*
X30013505Y8513626D01*
X29911574Y8411695D01*
X29831487Y8291837D01*
X29776323Y8158658D01*
X29748200Y8017276D01*
X29748200Y7873124D01*
X29776323Y7731742D01*
X29831487Y7598563D01*
X29911574Y7478705D01*
X30013505Y7376774D01*
X30133363Y7296687D01*
X30266542Y7241523D01*
X30407924Y7213400D01*
X30552076Y7213400D01*
X30693458Y7241523D01*
X30826637Y7296687D01*
X30946495Y7376774D01*
X30956121Y7386400D01*
X31019012Y7386400D01*
X31018192Y7382276D01*
X31018192Y7238124D01*
X31046315Y7096742D01*
X31101479Y6963563D01*
X31181566Y6843705D01*
X31283497Y6741774D01*
X31403355Y6661687D01*
X31536534Y6606523D01*
X31677916Y6578400D01*
X31696538Y6578400D01*
X31959656Y6315282D01*
X31923505Y6291126D01*
X31821574Y6189195D01*
X31741487Y6069337D01*
X31686323Y5936158D01*
X31658200Y5794776D01*
X31658200Y5650624D01*
X31686323Y5509242D01*
X31741487Y5376063D01*
X31821574Y5256205D01*
X31831201Y5246578D01*
X31831200Y3527642D01*
X31828497Y3500200D01*
X31831200Y3472758D01*
X31831200Y3472757D01*
X31839286Y3390657D01*
X31871239Y3285323D01*
X31923127Y3188246D01*
X31992957Y3103157D01*
X32014281Y3085657D01*
X32377235Y2722702D01*
X32357160Y2736116D01*
X32123887Y2832741D01*
X31876246Y2882000D01*
X31623754Y2882000D01*
X31376113Y2832741D01*
X31327753Y2812710D01*
X28354543Y5785919D01*
X28337043Y5807243D01*
X28251954Y5877073D01*
X28154878Y5928961D01*
X28049544Y5960914D01*
X27967444Y5969000D01*
X27967442Y5969000D01*
X27940000Y5971703D01*
X27912558Y5969000D01*
X21821463Y5969000D01*
X19270870Y8519593D01*
X19396637Y8571687D01*
X19516495Y8651774D01*
X19526121Y8661400D01*
X30329499Y8661400D01*
X30266542Y8648877D01*
G36*
X42103748Y4154342D02*
G01*
X42089605Y4140200D01*
X42103748Y4126057D01*
X41924143Y3946452D01*
X41910000Y3960595D01*
X41895858Y3946452D01*
X41716253Y4126057D01*
X41730395Y4140200D01*
X41716253Y4154342D01*
X41895858Y4333947D01*
X41910000Y4319805D01*
X41924143Y4333947D01*
X42103748Y4154342D01*
G37*
X42103748Y4154342D02*
X42089605Y4140200D01*
X42103748Y4126057D01*
X41924143Y3946452D01*
X41910000Y3960595D01*
X41895858Y3946452D01*
X41716253Y4126057D01*
X41730395Y4140200D01*
X41716253Y4154342D01*
X41895858Y4333947D01*
X41910000Y4319805D01*
X41924143Y4333947D01*
X42103748Y4154342D01*
G36*
X39563748Y4194342D02*
G01*
X39549605Y4180200D01*
X39563748Y4166057D01*
X39384143Y3986452D01*
X39370000Y4000595D01*
X39355858Y3986452D01*
X39176253Y4166057D01*
X39190395Y4180200D01*
X39176253Y4194342D01*
X39355858Y4373947D01*
X39370000Y4359805D01*
X39384143Y4373947D01*
X39563748Y4194342D01*
G37*
X39563748Y4194342D02*
X39549605Y4180200D01*
X39563748Y4166057D01*
X39384143Y3986452D01*
X39370000Y4000595D01*
X39355858Y3986452D01*
X39176253Y4166057D01*
X39190395Y4180200D01*
X39176253Y4194342D01*
X39355858Y4373947D01*
X39370000Y4359805D01*
X39384143Y4373947D01*
X39563748Y4194342D01*
G36*
X87897240Y21920200D02*
G01*
X87921023Y21678725D01*
X87991459Y21446530D01*
X88105840Y21232537D01*
X88259772Y21044972D01*
X88447337Y20891040D01*
X88661330Y20776659D01*
X88893525Y20706223D01*
X89074487Y20688400D01*
X89976538Y20688400D01*
X90059212Y20605726D01*
X89995513Y20612000D01*
X89074487Y20612000D01*
X88893525Y20594177D01*
X88661330Y20523741D01*
X88447337Y20409360D01*
X88259772Y20255428D01*
X88105840Y20067863D01*
X87991459Y19853870D01*
X87921023Y19621675D01*
X87897240Y19380200D01*
X87921023Y19138725D01*
X87991459Y18906530D01*
X88105840Y18692537D01*
X88259772Y18504972D01*
X88447337Y18351040D01*
X88661330Y18236659D01*
X88893525Y18166223D01*
X89074487Y18148400D01*
X89976538Y18148400D01*
X90059211Y18065726D01*
X89995513Y18072000D01*
X89074487Y18072000D01*
X88893525Y18054177D01*
X88661330Y17983741D01*
X88447337Y17869360D01*
X88259772Y17715428D01*
X88105840Y17527863D01*
X87991459Y17313870D01*
X87921023Y17081675D01*
X87897240Y16840200D01*
X87921023Y16598725D01*
X87991459Y16366530D01*
X88105840Y16152537D01*
X88259772Y15964972D01*
X88447337Y15811040D01*
X88661330Y15696659D01*
X88893525Y15626223D01*
X89074487Y15608400D01*
X89995513Y15608400D01*
X90059211Y15614674D01*
X89976538Y15532000D01*
X89074487Y15532000D01*
X88893525Y15514177D01*
X88661330Y15443741D01*
X88447337Y15329360D01*
X88259772Y15175428D01*
X88105840Y14987863D01*
X87991459Y14773870D01*
X87921023Y14541675D01*
X87897240Y14300200D01*
X87921023Y14058725D01*
X87991459Y13826530D01*
X88105840Y13612537D01*
X88259772Y13424972D01*
X88447337Y13271040D01*
X88661330Y13156659D01*
X88893525Y13086223D01*
X89074487Y13068400D01*
X89995513Y13068400D01*
X90176475Y13086223D01*
X90408670Y13156659D01*
X90622663Y13271040D01*
X90810228Y13424972D01*
X90964160Y13612537D01*
X91078541Y13826530D01*
X91148977Y14058725D01*
X91172760Y14300200D01*
X91148977Y14541675D01*
X91078541Y14773870D01*
X90981146Y14956084D01*
X91516201Y15491138D01*
X91516200Y10569263D01*
X90981146Y11104316D01*
X91078541Y11286530D01*
X91148977Y11518725D01*
X91172760Y11760200D01*
X91148977Y12001675D01*
X91078541Y12233870D01*
X90964160Y12447863D01*
X90810228Y12635428D01*
X90622663Y12789360D01*
X90408670Y12903741D01*
X90176475Y12974177D01*
X89995513Y12992000D01*
X89074487Y12992000D01*
X88893525Y12974177D01*
X88661330Y12903741D01*
X88447337Y12789360D01*
X88259772Y12635428D01*
X88105840Y12447863D01*
X87991459Y12233870D01*
X87921023Y12001675D01*
X87897240Y11760200D01*
X87921023Y11518725D01*
X87991459Y11286530D01*
X88105840Y11072537D01*
X88259772Y10884972D01*
X88447337Y10731040D01*
X88661330Y10616659D01*
X88893525Y10546223D01*
X89074487Y10528400D01*
X89976538Y10528400D01*
X90059211Y10445726D01*
X89995513Y10452000D01*
X89074487Y10452000D01*
X88893525Y10434177D01*
X88661330Y10363741D01*
X88447337Y10249360D01*
X88259772Y10095428D01*
X88105840Y9907863D01*
X87991459Y9693870D01*
X87921023Y9461675D01*
X87897240Y9220200D01*
X87921023Y8978725D01*
X87991459Y8746530D01*
X88105840Y8532537D01*
X88259772Y8344972D01*
X88447337Y8191040D01*
X88661330Y8076659D01*
X88893525Y8006223D01*
X89074487Y7988400D01*
X89995513Y7988400D01*
X90176475Y8006223D01*
X90408670Y8076659D01*
X90622663Y8191040D01*
X90810228Y8344972D01*
X90881200Y8431451D01*
X90881200Y8181663D01*
X87398538Y4699000D01*
X84296121Y4699000D01*
X84286495Y4708626D01*
X84166637Y4788713D01*
X84033458Y4843877D01*
X83892076Y4872000D01*
X83747924Y4872000D01*
X83606542Y4843877D01*
X83473363Y4788713D01*
X83353505Y4708626D01*
X83251574Y4606695D01*
X83171487Y4486837D01*
X83119393Y4361070D01*
X82135869Y5344593D01*
X82261637Y5396687D01*
X82381495Y5476774D01*
X82483426Y5578705D01*
X82563513Y5698563D01*
X82618677Y5831742D01*
X82646800Y5973124D01*
X82646800Y5986738D01*
X84195725Y7535662D01*
X84217043Y7553157D01*
X84252320Y7596143D01*
X84286873Y7638245D01*
X84338761Y7735322D01*
X84339192Y7736742D01*
X84370714Y7840656D01*
X84378800Y7922756D01*
X84378800Y7922758D01*
X84381503Y7950200D01*
X84378800Y7977642D01*
X84378800Y12367758D01*
X84381503Y12395200D01*
X84376316Y12447863D01*
X84370714Y12504744D01*
X84338761Y12610078D01*
X84315031Y12654474D01*
X84286873Y12707155D01*
X84234537Y12770926D01*
X84217043Y12792243D01*
X84195725Y12809738D01*
X83361146Y13644316D01*
X83458541Y13826530D01*
X83528977Y14058725D01*
X83552760Y14300200D01*
X83528977Y14541675D01*
X83458541Y14773870D01*
X83344160Y14987863D01*
X83190228Y15175428D01*
X83002663Y15329360D01*
X82788670Y15443741D01*
X82556475Y15514177D01*
X82375513Y15532000D01*
X81454487Y15532000D01*
X81273525Y15514177D01*
X81041330Y15443741D01*
X80827337Y15329360D01*
X80639772Y15175428D01*
X80568800Y15088949D01*
X80568800Y16051451D01*
X80639772Y15964972D01*
X80827337Y15811040D01*
X81041330Y15696659D01*
X81273525Y15626223D01*
X81454487Y15608400D01*
X82375513Y15608400D01*
X82556475Y15626223D01*
X82788670Y15696659D01*
X83002663Y15811040D01*
X83190228Y15964972D01*
X83344160Y16152537D01*
X83458541Y16366530D01*
X83528977Y16598725D01*
X83552760Y16840200D01*
X83528977Y17081675D01*
X83458541Y17313870D01*
X83361146Y17496084D01*
X87909474Y22044411D01*
X87897240Y21920200D01*
G37*
X87897240Y21920200D02*
X87921023Y21678725D01*
X87991459Y21446530D01*
X88105840Y21232537D01*
X88259772Y21044972D01*
X88447337Y20891040D01*
X88661330Y20776659D01*
X88893525Y20706223D01*
X89074487Y20688400D01*
X89976538Y20688400D01*
X90059212Y20605726D01*
X89995513Y20612000D01*
X89074487Y20612000D01*
X88893525Y20594177D01*
X88661330Y20523741D01*
X88447337Y20409360D01*
X88259772Y20255428D01*
X88105840Y20067863D01*
X87991459Y19853870D01*
X87921023Y19621675D01*
X87897240Y19380200D01*
X87921023Y19138725D01*
X87991459Y18906530D01*
X88105840Y18692537D01*
X88259772Y18504972D01*
X88447337Y18351040D01*
X88661330Y18236659D01*
X88893525Y18166223D01*
X89074487Y18148400D01*
X89976538Y18148400D01*
X90059211Y18065726D01*
X89995513Y18072000D01*
X89074487Y18072000D01*
X88893525Y18054177D01*
X88661330Y17983741D01*
X88447337Y17869360D01*
X88259772Y17715428D01*
X88105840Y17527863D01*
X87991459Y17313870D01*
X87921023Y17081675D01*
X87897240Y16840200D01*
X87921023Y16598725D01*
X87991459Y16366530D01*
X88105840Y16152537D01*
X88259772Y15964972D01*
X88447337Y15811040D01*
X88661330Y15696659D01*
X88893525Y15626223D01*
X89074487Y15608400D01*
X89995513Y15608400D01*
X90059211Y15614674D01*
X89976538Y15532000D01*
X89074487Y15532000D01*
X88893525Y15514177D01*
X88661330Y15443741D01*
X88447337Y15329360D01*
X88259772Y15175428D01*
X88105840Y14987863D01*
X87991459Y14773870D01*
X87921023Y14541675D01*
X87897240Y14300200D01*
X87921023Y14058725D01*
X87991459Y13826530D01*
X88105840Y13612537D01*
X88259772Y13424972D01*
X88447337Y13271040D01*
X88661330Y13156659D01*
X88893525Y13086223D01*
X89074487Y13068400D01*
X89995513Y13068400D01*
X90176475Y13086223D01*
X90408670Y13156659D01*
X90622663Y13271040D01*
X90810228Y13424972D01*
X90964160Y13612537D01*
X91078541Y13826530D01*
X91148977Y14058725D01*
X91172760Y14300200D01*
X91148977Y14541675D01*
X91078541Y14773870D01*
X90981146Y14956084D01*
X91516201Y15491138D01*
X91516200Y10569263D01*
X90981146Y11104316D01*
X91078541Y11286530D01*
X91148977Y11518725D01*
X91172760Y11760200D01*
X91148977Y12001675D01*
X91078541Y12233870D01*
X90964160Y12447863D01*
X90810228Y12635428D01*
X90622663Y12789360D01*
X90408670Y12903741D01*
X90176475Y12974177D01*
X89995513Y12992000D01*
X89074487Y12992000D01*
X88893525Y12974177D01*
X88661330Y12903741D01*
X88447337Y12789360D01*
X88259772Y12635428D01*
X88105840Y12447863D01*
X87991459Y12233870D01*
X87921023Y12001675D01*
X87897240Y11760200D01*
X87921023Y11518725D01*
X87991459Y11286530D01*
X88105840Y11072537D01*
X88259772Y10884972D01*
X88447337Y10731040D01*
X88661330Y10616659D01*
X88893525Y10546223D01*
X89074487Y10528400D01*
X89976538Y10528400D01*
X90059211Y10445726D01*
X89995513Y10452000D01*
X89074487Y10452000D01*
X88893525Y10434177D01*
X88661330Y10363741D01*
X88447337Y10249360D01*
X88259772Y10095428D01*
X88105840Y9907863D01*
X87991459Y9693870D01*
X87921023Y9461675D01*
X87897240Y9220200D01*
X87921023Y8978725D01*
X87991459Y8746530D01*
X88105840Y8532537D01*
X88259772Y8344972D01*
X88447337Y8191040D01*
X88661330Y8076659D01*
X88893525Y8006223D01*
X89074487Y7988400D01*
X89995513Y7988400D01*
X90176475Y8006223D01*
X90408670Y8076659D01*
X90622663Y8191040D01*
X90810228Y8344972D01*
X90881200Y8431451D01*
X90881200Y8181663D01*
X87398538Y4699000D01*
X84296121Y4699000D01*
X84286495Y4708626D01*
X84166637Y4788713D01*
X84033458Y4843877D01*
X83892076Y4872000D01*
X83747924Y4872000D01*
X83606542Y4843877D01*
X83473363Y4788713D01*
X83353505Y4708626D01*
X83251574Y4606695D01*
X83171487Y4486837D01*
X83119393Y4361070D01*
X82135869Y5344593D01*
X82261637Y5396687D01*
X82381495Y5476774D01*
X82483426Y5578705D01*
X82563513Y5698563D01*
X82618677Y5831742D01*
X82646800Y5973124D01*
X82646800Y5986738D01*
X84195725Y7535662D01*
X84217043Y7553157D01*
X84252320Y7596143D01*
X84286873Y7638245D01*
X84338761Y7735322D01*
X84339192Y7736742D01*
X84370714Y7840656D01*
X84378800Y7922756D01*
X84378800Y7922758D01*
X84381503Y7950200D01*
X84378800Y7977642D01*
X84378800Y12367758D01*
X84381503Y12395200D01*
X84376316Y12447863D01*
X84370714Y12504744D01*
X84338761Y12610078D01*
X84315031Y12654474D01*
X84286873Y12707155D01*
X84234537Y12770926D01*
X84217043Y12792243D01*
X84195725Y12809738D01*
X83361146Y13644316D01*
X83458541Y13826530D01*
X83528977Y14058725D01*
X83552760Y14300200D01*
X83528977Y14541675D01*
X83458541Y14773870D01*
X83344160Y14987863D01*
X83190228Y15175428D01*
X83002663Y15329360D01*
X82788670Y15443741D01*
X82556475Y15514177D01*
X82375513Y15532000D01*
X81454487Y15532000D01*
X81273525Y15514177D01*
X81041330Y15443741D01*
X80827337Y15329360D01*
X80639772Y15175428D01*
X80568800Y15088949D01*
X80568800Y16051451D01*
X80639772Y15964972D01*
X80827337Y15811040D01*
X81041330Y15696659D01*
X81273525Y15626223D01*
X81454487Y15608400D01*
X82375513Y15608400D01*
X82556475Y15626223D01*
X82788670Y15696659D01*
X83002663Y15811040D01*
X83190228Y15964972D01*
X83344160Y16152537D01*
X83458541Y16366530D01*
X83528977Y16598725D01*
X83552760Y16840200D01*
X83528977Y17081675D01*
X83458541Y17313870D01*
X83361146Y17496084D01*
X87909474Y22044411D01*
X87897240Y21920200D01*
G36*
X38146630Y6843900D02*
G01*
X38138200Y6801522D01*
X38138200Y6558878D01*
X38185538Y6320897D01*
X38278393Y6096724D01*
X38363736Y5969000D01*
X37696462Y5969000D01*
X35656800Y8008662D01*
X35656800Y8022276D01*
X35628677Y8163658D01*
X35573513Y8296837D01*
X35493426Y8416695D01*
X35391495Y8518626D01*
X35271637Y8598713D01*
X35138458Y8653877D01*
X34997076Y8682000D01*
X34852924Y8682000D01*
X34711542Y8653877D01*
X34578363Y8598713D01*
X34458505Y8518626D01*
X34356574Y8416695D01*
X34276487Y8296837D01*
X34224393Y8171069D01*
X32799543Y9595919D01*
X32782043Y9617243D01*
X32696954Y9687073D01*
X32599878Y9738961D01*
X32494544Y9770914D01*
X32412444Y9779000D01*
X32412442Y9779000D01*
X32385000Y9781703D01*
X32357558Y9779000D01*
X19526121Y9779000D01*
X19516495Y9788626D01*
X19396637Y9868713D01*
X19263458Y9923877D01*
X19122076Y9952000D01*
X18977924Y9952000D01*
X18836542Y9923877D01*
X18703363Y9868713D01*
X18583505Y9788626D01*
X18481574Y9686695D01*
X18401487Y9566837D01*
X18349393Y9441070D01*
X17480675Y10309787D01*
X17562689Y10343759D01*
X17610792Y10375900D01*
X34614631Y10375900D01*
X38146630Y6843900D01*
G37*
X38146630Y6843900D02*
X38138200Y6801522D01*
X38138200Y6558878D01*
X38185538Y6320897D01*
X38278393Y6096724D01*
X38363736Y5969000D01*
X37696462Y5969000D01*
X35656800Y8008662D01*
X35656800Y8022276D01*
X35628677Y8163658D01*
X35573513Y8296837D01*
X35493426Y8416695D01*
X35391495Y8518626D01*
X35271637Y8598713D01*
X35138458Y8653877D01*
X34997076Y8682000D01*
X34852924Y8682000D01*
X34711542Y8653877D01*
X34578363Y8598713D01*
X34458505Y8518626D01*
X34356574Y8416695D01*
X34276487Y8296837D01*
X34224393Y8171069D01*
X32799543Y9595919D01*
X32782043Y9617243D01*
X32696954Y9687073D01*
X32599878Y9738961D01*
X32494544Y9770914D01*
X32412444Y9779000D01*
X32412442Y9779000D01*
X32385000Y9781703D01*
X32357558Y9779000D01*
X19526121Y9779000D01*
X19516495Y9788626D01*
X19396637Y9868713D01*
X19263458Y9923877D01*
X19122076Y9952000D01*
X18977924Y9952000D01*
X18836542Y9923877D01*
X18703363Y9868713D01*
X18583505Y9788626D01*
X18481574Y9686695D01*
X18401487Y9566837D01*
X18349393Y9441070D01*
X17480675Y10309787D01*
X17562689Y10343759D01*
X17610792Y10375900D01*
X34614631Y10375900D01*
X38146630Y6843900D01*
G36*
X83261201Y10016162D02*
G01*
X83104948Y10173847D01*
X82903722Y10309634D01*
X82679872Y10403555D01*
X82442000Y10452000D01*
X82042000Y10452000D01*
X82042000Y9347200D01*
X82062000Y9347200D01*
X82062000Y9093200D01*
X82042000Y9093200D01*
X82042000Y7988400D01*
X82442000Y7988400D01*
X82679872Y8036845D01*
X82903722Y8130766D01*
X83104948Y8266553D01*
X83261201Y8424238D01*
X83261201Y8181664D01*
X81856538Y6777000D01*
X81842924Y6777000D01*
X81701542Y6748877D01*
X81568363Y6693713D01*
X81448505Y6613626D01*
X81346574Y6511695D01*
X81266487Y6391837D01*
X81214393Y6266069D01*
X80568800Y6911662D01*
X80568800Y8424237D01*
X80725052Y8266553D01*
X80926278Y8130766D01*
X81150128Y8036845D01*
X81388000Y7988400D01*
X81788000Y7988400D01*
X81788000Y9093200D01*
X81768000Y9093200D01*
X81768000Y9347200D01*
X81788000Y9347200D01*
X81788000Y10452000D01*
X81388000Y10452000D01*
X81150128Y10403555D01*
X80926278Y10309634D01*
X80725052Y10173847D01*
X80568800Y10016163D01*
X80568800Y10971451D01*
X80639772Y10884972D01*
X80827337Y10731040D01*
X81041330Y10616659D01*
X81273525Y10546223D01*
X81454487Y10528400D01*
X82375513Y10528400D01*
X82556475Y10546223D01*
X82788670Y10616659D01*
X83002663Y10731040D01*
X83190228Y10884972D01*
X83261200Y10971451D01*
X83261201Y10016162D01*
G37*
X83261201Y10016162D02*
X83104948Y10173847D01*
X82903722Y10309634D01*
X82679872Y10403555D01*
X82442000Y10452000D01*
X82042000Y10452000D01*
X82042000Y9347200D01*
X82062000Y9347200D01*
X82062000Y9093200D01*
X82042000Y9093200D01*
X82042000Y7988400D01*
X82442000Y7988400D01*
X82679872Y8036845D01*
X82903722Y8130766D01*
X83104948Y8266553D01*
X83261201Y8424238D01*
X83261201Y8181664D01*
X81856538Y6777000D01*
X81842924Y6777000D01*
X81701542Y6748877D01*
X81568363Y6693713D01*
X81448505Y6613626D01*
X81346574Y6511695D01*
X81266487Y6391837D01*
X81214393Y6266069D01*
X80568800Y6911662D01*
X80568800Y8424237D01*
X80725052Y8266553D01*
X80926278Y8130766D01*
X81150128Y8036845D01*
X81388000Y7988400D01*
X81788000Y7988400D01*
X81788000Y9093200D01*
X81768000Y9093200D01*
X81768000Y9347200D01*
X81788000Y9347200D01*
X81788000Y10452000D01*
X81388000Y10452000D01*
X81150128Y10403555D01*
X80926278Y10309634D01*
X80725052Y10173847D01*
X80568800Y10016163D01*
X80568800Y10971451D01*
X80639772Y10884972D01*
X80827337Y10731040D01*
X81041330Y10616659D01*
X81273525Y10546223D01*
X81454487Y10528400D01*
X82375513Y10528400D01*
X82556475Y10546223D01*
X82788670Y10616659D01*
X83002663Y10731040D01*
X83190228Y10884972D01*
X83261200Y10971451D01*
X83261201Y10016162D01*
G36*
X87263709Y29481820D02*
G01*
X87198933Y29497056D01*
X86956435Y29505464D01*
X86716957Y29466402D01*
X86489700Y29381370D01*
X86414049Y29340932D01*
X86330970Y29153835D01*
X87035000Y28449805D01*
X87049143Y28463947D01*
X87228748Y28284342D01*
X87214605Y28270200D01*
X87918635Y27566170D01*
X88105732Y27649249D01*
X88206300Y27870069D01*
X88261856Y28106267D01*
X88270264Y28348765D01*
X88245609Y28499921D01*
X88311630Y28433900D01*
X88303200Y28391522D01*
X88303200Y28148878D01*
X88350538Y27910897D01*
X88443393Y27686724D01*
X88578199Y27484973D01*
X88749773Y27313399D01*
X88785700Y27289393D01*
X88785701Y25641469D01*
X88661330Y25603741D01*
X88447337Y25489360D01*
X88259772Y25335428D01*
X88105840Y25147863D01*
X87991459Y24933870D01*
X87921023Y24701675D01*
X87897240Y24460200D01*
X87921023Y24218725D01*
X87991459Y23986530D01*
X88105840Y23772537D01*
X88136509Y23735167D01*
X88050122Y23708961D01*
X87953046Y23657073D01*
X87867957Y23587243D01*
X87850462Y23565925D01*
X83540526Y19255989D01*
X83552760Y19380200D01*
X83528977Y19621675D01*
X83458541Y19853870D01*
X83344160Y20067863D01*
X83190228Y20255428D01*
X83002663Y20409360D01*
X82788670Y20523741D01*
X82556475Y20594177D01*
X82375513Y20612000D01*
X81454487Y20612000D01*
X81273525Y20594177D01*
X81041330Y20523741D01*
X80827337Y20409360D01*
X80639772Y20255428D01*
X80568800Y20168949D01*
X80568800Y21124237D01*
X80725052Y20966553D01*
X80926278Y20830766D01*
X81150128Y20736845D01*
X81388000Y20688400D01*
X81788000Y20688400D01*
X81788000Y21793200D01*
X82042000Y21793200D01*
X82042000Y20688400D01*
X82442000Y20688400D01*
X82679872Y20736845D01*
X82903722Y20830766D01*
X83104948Y20966553D01*
X83275817Y21138988D01*
X83409762Y21341445D01*
X83501636Y21566143D01*
X83505284Y21603094D01*
X83431651Y21793200D01*
X82042000Y21793200D01*
X81788000Y21793200D01*
X81768000Y21793200D01*
X81768000Y22047200D01*
X81788000Y22047200D01*
X81788000Y23152000D01*
X82042000Y23152000D01*
X82042000Y22047200D01*
X83431651Y22047200D01*
X83505284Y22237306D01*
X83501636Y22274257D01*
X83409762Y22498955D01*
X83275817Y22701412D01*
X83104948Y22873847D01*
X82903722Y23009634D01*
X82679872Y23103555D01*
X82442000Y23152000D01*
X82042000Y23152000D01*
X81788000Y23152000D01*
X81388000Y23152000D01*
X81150128Y23103555D01*
X80926278Y23009634D01*
X80725052Y22873847D01*
X80554183Y22701412D01*
X80420238Y22498955D01*
X80362564Y22357899D01*
X79060263Y23660200D01*
X80281111Y23660200D01*
X80289448Y23575552D01*
X80314139Y23494158D01*
X80354234Y23419144D01*
X80408194Y23353394D01*
X80473944Y23299434D01*
X80548958Y23259339D01*
X80630352Y23234648D01*
X80715000Y23226311D01*
X81680050Y23228400D01*
X81788000Y23336350D01*
X81788000Y24333200D01*
X82042000Y24333200D01*
X82042000Y23336350D01*
X82149950Y23228400D01*
X83115000Y23226311D01*
X83199648Y23234648D01*
X83281042Y23259339D01*
X83356056Y23299434D01*
X83421806Y23353394D01*
X83475766Y23419144D01*
X83515861Y23494158D01*
X83540552Y23575552D01*
X83548889Y23660200D01*
X83546800Y24225250D01*
X83438850Y24333200D01*
X82042000Y24333200D01*
X81788000Y24333200D01*
X80391150Y24333200D01*
X80283200Y24225250D01*
X80281111Y23660200D01*
X79060263Y23660200D01*
X77460263Y25260200D01*
X80281111Y25260200D01*
X80283200Y24695150D01*
X80391150Y24587200D01*
X81788000Y24587200D01*
X81788000Y25584050D01*
X82042000Y25584050D01*
X82042000Y24587200D01*
X83438850Y24587200D01*
X83546800Y24695150D01*
X83548889Y25260200D01*
X83540552Y25344848D01*
X83515861Y25426242D01*
X83475766Y25501256D01*
X83421806Y25567006D01*
X83356056Y25620966D01*
X83281042Y25661061D01*
X83199648Y25685752D01*
X83115000Y25694089D01*
X82149950Y25692000D01*
X82042000Y25584050D01*
X81788000Y25584050D01*
X81680050Y25692000D01*
X80715000Y25694089D01*
X80630352Y25685752D01*
X80548958Y25661061D01*
X80473944Y25620966D01*
X80408194Y25567006D01*
X80354234Y25501256D01*
X80314139Y25426242D01*
X80289448Y25344848D01*
X80281111Y25260200D01*
X77460263Y25260200D01*
X75333898Y27386565D01*
X86330970Y27386565D01*
X86414049Y27199468D01*
X86634869Y27098900D01*
X86871067Y27043344D01*
X87113565Y27034936D01*
X87353043Y27073998D01*
X87580300Y27159030D01*
X87655951Y27199468D01*
X87739030Y27386565D01*
X87035000Y28090595D01*
X86330970Y27386565D01*
X75333898Y27386565D01*
X75106146Y27614316D01*
X75203541Y27796530D01*
X75273977Y28028725D01*
X75290022Y28191635D01*
X85799736Y28191635D01*
X85838798Y27952157D01*
X85923830Y27724900D01*
X85964268Y27649249D01*
X86151365Y27566170D01*
X86855395Y28270200D01*
X86151365Y28974230D01*
X85964268Y28891151D01*
X85863700Y28670331D01*
X85808144Y28434133D01*
X85799736Y28191635D01*
X75290022Y28191635D01*
X75297760Y28270200D01*
X75273977Y28511675D01*
X75203541Y28743870D01*
X75089160Y28957863D01*
X74935228Y29145428D01*
X74747663Y29299360D01*
X74533670Y29413741D01*
X74301475Y29484177D01*
X74120513Y29502000D01*
X73199487Y29502000D01*
X73018525Y29484177D01*
X72786330Y29413741D01*
X72572337Y29299360D01*
X72384772Y29145428D01*
X72230840Y28957863D01*
X72116459Y28743870D01*
X72046023Y28511675D01*
X72022240Y28270200D01*
X72046023Y28028725D01*
X72116459Y27796530D01*
X72230840Y27582537D01*
X72384772Y27394972D01*
X72572337Y27241040D01*
X72786330Y27126659D01*
X73018525Y27056223D01*
X73199487Y27038400D01*
X74101538Y27038400D01*
X74184212Y26955726D01*
X74120513Y26962000D01*
X73199487Y26962000D01*
X73018525Y26944177D01*
X72786330Y26873741D01*
X72572337Y26759360D01*
X72384772Y26605428D01*
X72230840Y26417863D01*
X72116459Y26203870D01*
X72046023Y25971675D01*
X72022240Y25730200D01*
X72046023Y25488725D01*
X72116459Y25256530D01*
X72230840Y25042537D01*
X72384772Y24854972D01*
X72572337Y24701040D01*
X72786330Y24586659D01*
X73018525Y24516223D01*
X73199487Y24498400D01*
X74101538Y24498400D01*
X74184212Y24415726D01*
X74120513Y24422000D01*
X73199487Y24422000D01*
X73018525Y24404177D01*
X72786330Y24333741D01*
X72572337Y24219360D01*
X72384772Y24065428D01*
X72230840Y23877863D01*
X72116459Y23663870D01*
X72046023Y23431675D01*
X72022240Y23190200D01*
X72046023Y22948725D01*
X72116459Y22716530D01*
X72230840Y22502537D01*
X72384772Y22314972D01*
X72572337Y22161040D01*
X72786330Y22046659D01*
X73018525Y21976223D01*
X73199487Y21958400D01*
X74101538Y21958400D01*
X74184212Y21875726D01*
X74120513Y21882000D01*
X73199487Y21882000D01*
X73018525Y21864177D01*
X72786330Y21793741D01*
X72572337Y21679360D01*
X72384772Y21525428D01*
X72230840Y21337863D01*
X72116459Y21123870D01*
X72046023Y20891675D01*
X72022240Y20650200D01*
X72046023Y20408725D01*
X72116459Y20176530D01*
X72230840Y19962537D01*
X72384772Y19774972D01*
X72572337Y19621040D01*
X72786330Y19506659D01*
X73018525Y19436223D01*
X73199487Y19418400D01*
X74101538Y19418400D01*
X74184212Y19335726D01*
X74120513Y19342000D01*
X73199487Y19342000D01*
X73018525Y19324177D01*
X72786330Y19253741D01*
X72572337Y19139360D01*
X72384772Y18985428D01*
X72230840Y18797863D01*
X72116459Y18583870D01*
X72046023Y18351675D01*
X72022240Y18110200D01*
X72046023Y17868725D01*
X72116459Y17636530D01*
X72230840Y17422537D01*
X72384772Y17234972D01*
X72572337Y17081040D01*
X72786330Y16966659D01*
X73018525Y16896223D01*
X73199487Y16878400D01*
X74101538Y16878400D01*
X74184211Y16795726D01*
X74120513Y16802000D01*
X73199487Y16802000D01*
X73018525Y16784177D01*
X72786330Y16713741D01*
X72572337Y16599360D01*
X72384772Y16445428D01*
X72230840Y16257863D01*
X72116459Y16043870D01*
X72046023Y15811675D01*
X72022240Y15570200D01*
X72046023Y15328725D01*
X72116459Y15096530D01*
X72230840Y14882537D01*
X72384772Y14694972D01*
X72572337Y14541040D01*
X72786330Y14426659D01*
X73018525Y14356223D01*
X73199487Y14338400D01*
X74101538Y14338400D01*
X74184211Y14255726D01*
X74120513Y14262000D01*
X73199487Y14262000D01*
X73018525Y14244177D01*
X72786330Y14173741D01*
X72572337Y14059360D01*
X72384772Y13905428D01*
X72230840Y13717863D01*
X72116459Y13503870D01*
X72046023Y13271675D01*
X72022240Y13030200D01*
X72046023Y12788725D01*
X72116459Y12556530D01*
X72230840Y12342537D01*
X72384772Y12154972D01*
X72572337Y12001040D01*
X72786330Y11886659D01*
X73018525Y11816223D01*
X73199487Y11798400D01*
X74101538Y11798400D01*
X74184212Y11715726D01*
X74120513Y11722000D01*
X73199487Y11722000D01*
X73018525Y11704177D01*
X72786330Y11633741D01*
X72572337Y11519360D01*
X72384772Y11365428D01*
X72230840Y11177863D01*
X72116459Y10963870D01*
X72046023Y10731675D01*
X72022240Y10490200D01*
X72046023Y10248725D01*
X72116459Y10016530D01*
X72230840Y9802537D01*
X72384772Y9614972D01*
X72572337Y9461040D01*
X72786330Y9346659D01*
X73018525Y9276223D01*
X73199487Y9258400D01*
X74101538Y9258400D01*
X74175849Y9184089D01*
X72860000Y9184089D01*
X72697316Y9168066D01*
X72540884Y9120613D01*
X72396716Y9043553D01*
X72270351Y8939849D01*
X72166647Y8813484D01*
X72089587Y8669316D01*
X72042134Y8512884D01*
X72028710Y8376584D01*
X71992957Y8347243D01*
X71975457Y8325919D01*
X70888538Y7239000D01*
X67546745Y7239000D01*
X67598132Y7254588D01*
X67728303Y7324166D01*
X67842398Y7417802D01*
X67865863Y7446394D01*
X70353813Y9934343D01*
X70382398Y9957802D01*
X70476034Y10071897D01*
X70545612Y10202068D01*
X70588458Y10343312D01*
X70599300Y10453394D01*
X70599300Y10453403D01*
X70602924Y10490199D01*
X70599300Y10526995D01*
X70599300Y30493094D01*
X72069716Y30493094D01*
X72073364Y30456143D01*
X72165238Y30231445D01*
X72299183Y30028988D01*
X72470052Y29856553D01*
X72671278Y29720766D01*
X72895128Y29626845D01*
X73133000Y29578400D01*
X73533000Y29578400D01*
X73533000Y30683200D01*
X73787000Y30683200D01*
X73787000Y29578400D01*
X74187000Y29578400D01*
X74424872Y29626845D01*
X74648722Y29720766D01*
X74849948Y29856553D01*
X75020817Y30028988D01*
X75154762Y30231445D01*
X75246636Y30456143D01*
X75250284Y30493094D01*
X75176651Y30683200D01*
X73787000Y30683200D01*
X73533000Y30683200D01*
X72143349Y30683200D01*
X72069716Y30493094D01*
X70599300Y30493094D01*
X70599300Y30499831D01*
X71226775Y31127306D01*
X72069716Y31127306D01*
X72143349Y30937200D01*
X73533000Y30937200D01*
X73533000Y32042000D01*
X73787000Y32042000D01*
X73787000Y30937200D01*
X75176651Y30937200D01*
X75250284Y31127306D01*
X75246636Y31164257D01*
X75154762Y31388955D01*
X75020817Y31591412D01*
X74849948Y31763847D01*
X74648722Y31899634D01*
X74424872Y31993555D01*
X74187000Y32042000D01*
X73787000Y32042000D01*
X73533000Y32042000D01*
X73133000Y32042000D01*
X72895128Y31993555D01*
X72671278Y31899634D01*
X72470052Y31763847D01*
X72299183Y31591412D01*
X72165238Y31388955D01*
X72073364Y31164257D01*
X72069716Y31127306D01*
X71226775Y31127306D01*
X76025781Y35926311D01*
X77000000Y35926311D01*
X77084648Y35934648D01*
X77166042Y35959339D01*
X77241056Y35999434D01*
X77306806Y36053394D01*
X77360766Y36119144D01*
X77400861Y36194158D01*
X77425552Y36275552D01*
X77433889Y36360200D01*
X77433889Y36410900D01*
X80334631Y36410900D01*
X87263709Y29481820D01*
G37*
X87263709Y29481820D02*
X87198933Y29497056D01*
X86956435Y29505464D01*
X86716957Y29466402D01*
X86489700Y29381370D01*
X86414049Y29340932D01*
X86330970Y29153835D01*
X87035000Y28449805D01*
X87049143Y28463947D01*
X87228748Y28284342D01*
X87214605Y28270200D01*
X87918635Y27566170D01*
X88105732Y27649249D01*
X88206300Y27870069D01*
X88261856Y28106267D01*
X88270264Y28348765D01*
X88245609Y28499921D01*
X88311630Y28433900D01*
X88303200Y28391522D01*
X88303200Y28148878D01*
X88350538Y27910897D01*
X88443393Y27686724D01*
X88578199Y27484973D01*
X88749773Y27313399D01*
X88785700Y27289393D01*
X88785701Y25641469D01*
X88661330Y25603741D01*
X88447337Y25489360D01*
X88259772Y25335428D01*
X88105840Y25147863D01*
X87991459Y24933870D01*
X87921023Y24701675D01*
X87897240Y24460200D01*
X87921023Y24218725D01*
X87991459Y23986530D01*
X88105840Y23772537D01*
X88136509Y23735167D01*
X88050122Y23708961D01*
X87953046Y23657073D01*
X87867957Y23587243D01*
X87850462Y23565925D01*
X83540526Y19255989D01*
X83552760Y19380200D01*
X83528977Y19621675D01*
X83458541Y19853870D01*
X83344160Y20067863D01*
X83190228Y20255428D01*
X83002663Y20409360D01*
X82788670Y20523741D01*
X82556475Y20594177D01*
X82375513Y20612000D01*
X81454487Y20612000D01*
X81273525Y20594177D01*
X81041330Y20523741D01*
X80827337Y20409360D01*
X80639772Y20255428D01*
X80568800Y20168949D01*
X80568800Y21124237D01*
X80725052Y20966553D01*
X80926278Y20830766D01*
X81150128Y20736845D01*
X81388000Y20688400D01*
X81788000Y20688400D01*
X81788000Y21793200D01*
X82042000Y21793200D01*
X82042000Y20688400D01*
X82442000Y20688400D01*
X82679872Y20736845D01*
X82903722Y20830766D01*
X83104948Y20966553D01*
X83275817Y21138988D01*
X83409762Y21341445D01*
X83501636Y21566143D01*
X83505284Y21603094D01*
X83431651Y21793200D01*
X82042000Y21793200D01*
X81788000Y21793200D01*
X81768000Y21793200D01*
X81768000Y22047200D01*
X81788000Y22047200D01*
X81788000Y23152000D01*
X82042000Y23152000D01*
X82042000Y22047200D01*
X83431651Y22047200D01*
X83505284Y22237306D01*
X83501636Y22274257D01*
X83409762Y22498955D01*
X83275817Y22701412D01*
X83104948Y22873847D01*
X82903722Y23009634D01*
X82679872Y23103555D01*
X82442000Y23152000D01*
X82042000Y23152000D01*
X81788000Y23152000D01*
X81388000Y23152000D01*
X81150128Y23103555D01*
X80926278Y23009634D01*
X80725052Y22873847D01*
X80554183Y22701412D01*
X80420238Y22498955D01*
X80362564Y22357899D01*
X79060263Y23660200D01*
X80281111Y23660200D01*
X80289448Y23575552D01*
X80314139Y23494158D01*
X80354234Y23419144D01*
X80408194Y23353394D01*
X80473944Y23299434D01*
X80548958Y23259339D01*
X80630352Y23234648D01*
X80715000Y23226311D01*
X81680050Y23228400D01*
X81788000Y23336350D01*
X81788000Y24333200D01*
X82042000Y24333200D01*
X82042000Y23336350D01*
X82149950Y23228400D01*
X83115000Y23226311D01*
X83199648Y23234648D01*
X83281042Y23259339D01*
X83356056Y23299434D01*
X83421806Y23353394D01*
X83475766Y23419144D01*
X83515861Y23494158D01*
X83540552Y23575552D01*
X83548889Y23660200D01*
X83546800Y24225250D01*
X83438850Y24333200D01*
X82042000Y24333200D01*
X81788000Y24333200D01*
X80391150Y24333200D01*
X80283200Y24225250D01*
X80281111Y23660200D01*
X79060263Y23660200D01*
X77460263Y25260200D01*
X80281111Y25260200D01*
X80283200Y24695150D01*
X80391150Y24587200D01*
X81788000Y24587200D01*
X81788000Y25584050D01*
X82042000Y25584050D01*
X82042000Y24587200D01*
X83438850Y24587200D01*
X83546800Y24695150D01*
X83548889Y25260200D01*
X83540552Y25344848D01*
X83515861Y25426242D01*
X83475766Y25501256D01*
X83421806Y25567006D01*
X83356056Y25620966D01*
X83281042Y25661061D01*
X83199648Y25685752D01*
X83115000Y25694089D01*
X82149950Y25692000D01*
X82042000Y25584050D01*
X81788000Y25584050D01*
X81680050Y25692000D01*
X80715000Y25694089D01*
X80630352Y25685752D01*
X80548958Y25661061D01*
X80473944Y25620966D01*
X80408194Y25567006D01*
X80354234Y25501256D01*
X80314139Y25426242D01*
X80289448Y25344848D01*
X80281111Y25260200D01*
X77460263Y25260200D01*
X75333898Y27386565D01*
X86330970Y27386565D01*
X86414049Y27199468D01*
X86634869Y27098900D01*
X86871067Y27043344D01*
X87113565Y27034936D01*
X87353043Y27073998D01*
X87580300Y27159030D01*
X87655951Y27199468D01*
X87739030Y27386565D01*
X87035000Y28090595D01*
X86330970Y27386565D01*
X75333898Y27386565D01*
X75106146Y27614316D01*
X75203541Y27796530D01*
X75273977Y28028725D01*
X75290022Y28191635D01*
X85799736Y28191635D01*
X85838798Y27952157D01*
X85923830Y27724900D01*
X85964268Y27649249D01*
X86151365Y27566170D01*
X86855395Y28270200D01*
X86151365Y28974230D01*
X85964268Y28891151D01*
X85863700Y28670331D01*
X85808144Y28434133D01*
X85799736Y28191635D01*
X75290022Y28191635D01*
X75297760Y28270200D01*
X75273977Y28511675D01*
X75203541Y28743870D01*
X75089160Y28957863D01*
X74935228Y29145428D01*
X74747663Y29299360D01*
X74533670Y29413741D01*
X74301475Y29484177D01*
X74120513Y29502000D01*
X73199487Y29502000D01*
X73018525Y29484177D01*
X72786330Y29413741D01*
X72572337Y29299360D01*
X72384772Y29145428D01*
X72230840Y28957863D01*
X72116459Y28743870D01*
X72046023Y28511675D01*
X72022240Y28270200D01*
X72046023Y28028725D01*
X72116459Y27796530D01*
X72230840Y27582537D01*
X72384772Y27394972D01*
X72572337Y27241040D01*
X72786330Y27126659D01*
X73018525Y27056223D01*
X73199487Y27038400D01*
X74101538Y27038400D01*
X74184212Y26955726D01*
X74120513Y26962000D01*
X73199487Y26962000D01*
X73018525Y26944177D01*
X72786330Y26873741D01*
X72572337Y26759360D01*
X72384772Y26605428D01*
X72230840Y26417863D01*
X72116459Y26203870D01*
X72046023Y25971675D01*
X72022240Y25730200D01*
X72046023Y25488725D01*
X72116459Y25256530D01*
X72230840Y25042537D01*
X72384772Y24854972D01*
X72572337Y24701040D01*
X72786330Y24586659D01*
X73018525Y24516223D01*
X73199487Y24498400D01*
X74101538Y24498400D01*
X74184212Y24415726D01*
X74120513Y24422000D01*
X73199487Y24422000D01*
X73018525Y24404177D01*
X72786330Y24333741D01*
X72572337Y24219360D01*
X72384772Y24065428D01*
X72230840Y23877863D01*
X72116459Y23663870D01*
X72046023Y23431675D01*
X72022240Y23190200D01*
X72046023Y22948725D01*
X72116459Y22716530D01*
X72230840Y22502537D01*
X72384772Y22314972D01*
X72572337Y22161040D01*
X72786330Y22046659D01*
X73018525Y21976223D01*
X73199487Y21958400D01*
X74101538Y21958400D01*
X74184212Y21875726D01*
X74120513Y21882000D01*
X73199487Y21882000D01*
X73018525Y21864177D01*
X72786330Y21793741D01*
X72572337Y21679360D01*
X72384772Y21525428D01*
X72230840Y21337863D01*
X72116459Y21123870D01*
X72046023Y20891675D01*
X72022240Y20650200D01*
X72046023Y20408725D01*
X72116459Y20176530D01*
X72230840Y19962537D01*
X72384772Y19774972D01*
X72572337Y19621040D01*
X72786330Y19506659D01*
X73018525Y19436223D01*
X73199487Y19418400D01*
X74101538Y19418400D01*
X74184212Y19335726D01*
X74120513Y19342000D01*
X73199487Y19342000D01*
X73018525Y19324177D01*
X72786330Y19253741D01*
X72572337Y19139360D01*
X72384772Y18985428D01*
X72230840Y18797863D01*
X72116459Y18583870D01*
X72046023Y18351675D01*
X72022240Y18110200D01*
X72046023Y17868725D01*
X72116459Y17636530D01*
X72230840Y17422537D01*
X72384772Y17234972D01*
X72572337Y17081040D01*
X72786330Y16966659D01*
X73018525Y16896223D01*
X73199487Y16878400D01*
X74101538Y16878400D01*
X74184211Y16795726D01*
X74120513Y16802000D01*
X73199487Y16802000D01*
X73018525Y16784177D01*
X72786330Y16713741D01*
X72572337Y16599360D01*
X72384772Y16445428D01*
X72230840Y16257863D01*
X72116459Y16043870D01*
X72046023Y15811675D01*
X72022240Y15570200D01*
X72046023Y15328725D01*
X72116459Y15096530D01*
X72230840Y14882537D01*
X72384772Y14694972D01*
X72572337Y14541040D01*
X72786330Y14426659D01*
X73018525Y14356223D01*
X73199487Y14338400D01*
X74101538Y14338400D01*
X74184211Y14255726D01*
X74120513Y14262000D01*
X73199487Y14262000D01*
X73018525Y14244177D01*
X72786330Y14173741D01*
X72572337Y14059360D01*
X72384772Y13905428D01*
X72230840Y13717863D01*
X72116459Y13503870D01*
X72046023Y13271675D01*
X72022240Y13030200D01*
X72046023Y12788725D01*
X72116459Y12556530D01*
X72230840Y12342537D01*
X72384772Y12154972D01*
X72572337Y12001040D01*
X72786330Y11886659D01*
X73018525Y11816223D01*
X73199487Y11798400D01*
X74101538Y11798400D01*
X74184212Y11715726D01*
X74120513Y11722000D01*
X73199487Y11722000D01*
X73018525Y11704177D01*
X72786330Y11633741D01*
X72572337Y11519360D01*
X72384772Y11365428D01*
X72230840Y11177863D01*
X72116459Y10963870D01*
X72046023Y10731675D01*
X72022240Y10490200D01*
X72046023Y10248725D01*
X72116459Y10016530D01*
X72230840Y9802537D01*
X72384772Y9614972D01*
X72572337Y9461040D01*
X72786330Y9346659D01*
X73018525Y9276223D01*
X73199487Y9258400D01*
X74101538Y9258400D01*
X74175849Y9184089D01*
X72860000Y9184089D01*
X72697316Y9168066D01*
X72540884Y9120613D01*
X72396716Y9043553D01*
X72270351Y8939849D01*
X72166647Y8813484D01*
X72089587Y8669316D01*
X72042134Y8512884D01*
X72028710Y8376584D01*
X71992957Y8347243D01*
X71975457Y8325919D01*
X70888538Y7239000D01*
X67546745Y7239000D01*
X67598132Y7254588D01*
X67728303Y7324166D01*
X67842398Y7417802D01*
X67865863Y7446394D01*
X70353813Y9934343D01*
X70382398Y9957802D01*
X70476034Y10071897D01*
X70545612Y10202068D01*
X70588458Y10343312D01*
X70599300Y10453394D01*
X70599300Y10453403D01*
X70602924Y10490199D01*
X70599300Y10526995D01*
X70599300Y30493094D01*
X72069716Y30493094D01*
X72073364Y30456143D01*
X72165238Y30231445D01*
X72299183Y30028988D01*
X72470052Y29856553D01*
X72671278Y29720766D01*
X72895128Y29626845D01*
X73133000Y29578400D01*
X73533000Y29578400D01*
X73533000Y30683200D01*
X73787000Y30683200D01*
X73787000Y29578400D01*
X74187000Y29578400D01*
X74424872Y29626845D01*
X74648722Y29720766D01*
X74849948Y29856553D01*
X75020817Y30028988D01*
X75154762Y30231445D01*
X75246636Y30456143D01*
X75250284Y30493094D01*
X75176651Y30683200D01*
X73787000Y30683200D01*
X73533000Y30683200D01*
X72143349Y30683200D01*
X72069716Y30493094D01*
X70599300Y30493094D01*
X70599300Y30499831D01*
X71226775Y31127306D01*
X72069716Y31127306D01*
X72143349Y30937200D01*
X73533000Y30937200D01*
X73533000Y32042000D01*
X73787000Y32042000D01*
X73787000Y30937200D01*
X75176651Y30937200D01*
X75250284Y31127306D01*
X75246636Y31164257D01*
X75154762Y31388955D01*
X75020817Y31591412D01*
X74849948Y31763847D01*
X74648722Y31899634D01*
X74424872Y31993555D01*
X74187000Y32042000D01*
X73787000Y32042000D01*
X73533000Y32042000D01*
X73133000Y32042000D01*
X72895128Y31993555D01*
X72671278Y31899634D01*
X72470052Y31763847D01*
X72299183Y31591412D01*
X72165238Y31388955D01*
X72073364Y31164257D01*
X72069716Y31127306D01*
X71226775Y31127306D01*
X76025781Y35926311D01*
X77000000Y35926311D01*
X77084648Y35934648D01*
X77166042Y35959339D01*
X77241056Y35999434D01*
X77306806Y36053394D01*
X77360766Y36119144D01*
X77400861Y36194158D01*
X77425552Y36275552D01*
X77433889Y36360200D01*
X77433889Y36410900D01*
X80334631Y36410900D01*
X87263709Y29481820D01*
G36*
X73300697Y35975738D02*
G01*
X73538678Y35928400D01*
X73781322Y35928400D01*
X73940117Y35959987D01*
X69346189Y31366058D01*
X69317603Y31342598D01*
X69294143Y31314012D01*
X69294140Y31314009D01*
X69223966Y31228503D01*
X69154388Y31098331D01*
X69111543Y30957087D01*
X69097076Y30810200D01*
X69100701Y30773395D01*
X69100700Y10800570D01*
X67211053Y8910923D01*
X67127663Y8979360D01*
X66913670Y9093741D01*
X66681475Y9164177D01*
X66500513Y9182000D01*
X65579487Y9182000D01*
X65398525Y9164177D01*
X65166330Y9093741D01*
X64952337Y8979360D01*
X64764772Y8825428D01*
X64661425Y8699500D01*
X64480807Y8699500D01*
X64456801Y8735427D01*
X64285227Y8907001D01*
X64083476Y9041807D01*
X63859303Y9134662D01*
X63621322Y9182000D01*
X63378678Y9182000D01*
X63140697Y9134662D01*
X62916524Y9041807D01*
X62714773Y8907001D01*
X62543199Y8735427D01*
X62519193Y8699500D01*
X44486795Y8699500D01*
X44449999Y8703124D01*
X44413203Y8699500D01*
X44413194Y8699500D01*
X44303112Y8688658D01*
X44161868Y8645812D01*
X44101274Y8613424D01*
X44031696Y8576234D01*
X43946190Y8506060D01*
X43917602Y8482598D01*
X43894141Y8454011D01*
X42869631Y7429500D01*
X40350807Y7429500D01*
X40326801Y7465427D01*
X40155227Y7637001D01*
X39953476Y7771807D01*
X39729303Y7864662D01*
X39491322Y7912000D01*
X39248678Y7912000D01*
X39206300Y7903570D01*
X37543305Y9566565D01*
X62795970Y9566565D01*
X62879049Y9379468D01*
X63099869Y9278900D01*
X63336067Y9223344D01*
X63578565Y9214936D01*
X63818043Y9253998D01*
X64045300Y9339030D01*
X64120951Y9379468D01*
X64204030Y9566565D01*
X63500000Y10270595D01*
X62795970Y9566565D01*
X37543305Y9566565D01*
X36738235Y10371635D01*
X62264736Y10371635D01*
X62303798Y10132157D01*
X62388830Y9904900D01*
X62429268Y9829249D01*
X62616365Y9746170D01*
X63320395Y10450200D01*
X63679605Y10450200D01*
X64383635Y9746170D01*
X64570732Y9829249D01*
X64582615Y9855342D01*
X64610840Y9802537D01*
X64764772Y9614972D01*
X64952337Y9461040D01*
X65166330Y9346659D01*
X65398525Y9276223D01*
X65579487Y9258400D01*
X66500513Y9258400D01*
X66681475Y9276223D01*
X66913670Y9346659D01*
X67127663Y9461040D01*
X67315228Y9614972D01*
X67469160Y9802537D01*
X67583541Y10016530D01*
X67653977Y10248725D01*
X67677760Y10490200D01*
X67653977Y10731675D01*
X67583541Y10963870D01*
X67469160Y11177863D01*
X67315228Y11365428D01*
X67127663Y11519360D01*
X66913670Y11633741D01*
X66681475Y11704177D01*
X66500513Y11722000D01*
X65579487Y11722000D01*
X65398525Y11704177D01*
X65166330Y11633741D01*
X64952337Y11519360D01*
X64764772Y11365428D01*
X64610840Y11177863D01*
X64557049Y11077227D01*
X64383635Y11154230D01*
X63679605Y10450200D01*
X63320395Y10450200D01*
X62616365Y11154230D01*
X62429268Y11071151D01*
X62328700Y10850331D01*
X62273144Y10614133D01*
X62264736Y10371635D01*
X36738235Y10371635D01*
X35480863Y11629006D01*
X35457398Y11657598D01*
X35343303Y11751234D01*
X35213132Y11820812D01*
X35071888Y11863658D01*
X34961806Y11874500D01*
X34961795Y11874500D01*
X34925000Y11878124D01*
X34888205Y11874500D01*
X19898249Y11874500D01*
X20074276Y11992117D01*
X20298083Y12215924D01*
X20473928Y12479095D01*
X20595052Y12771514D01*
X20656800Y13081944D01*
X20656800Y13398456D01*
X20595052Y13708886D01*
X20473928Y14001305D01*
X20298083Y14264476D01*
X20186159Y14376400D01*
X26590938Y14376400D01*
X25976538Y13762000D01*
X25962924Y13762000D01*
X25821542Y13733877D01*
X25688363Y13678713D01*
X25568505Y13598626D01*
X25466574Y13496695D01*
X25386487Y13376837D01*
X25331323Y13243658D01*
X25303200Y13102276D01*
X25303200Y12958124D01*
X25331323Y12816742D01*
X25386487Y12683563D01*
X25466574Y12563705D01*
X25568505Y12461774D01*
X25688363Y12381687D01*
X25821542Y12326523D01*
X25962924Y12298400D01*
X26107076Y12298400D01*
X26248458Y12326523D01*
X26381637Y12381687D01*
X26501495Y12461774D01*
X26603426Y12563705D01*
X26670000Y12663339D01*
X26736574Y12563705D01*
X26838505Y12461774D01*
X26958363Y12381687D01*
X27091542Y12326523D01*
X27232924Y12298400D01*
X27377076Y12298400D01*
X27518458Y12326523D01*
X27651637Y12381687D01*
X27771495Y12461774D01*
X27873426Y12563705D01*
X27940000Y12663339D01*
X28006574Y12563705D01*
X28108505Y12461774D01*
X28228363Y12381687D01*
X28361542Y12326523D01*
X28502924Y12298400D01*
X28647076Y12298400D01*
X28788458Y12326523D01*
X28921637Y12381687D01*
X29041495Y12461774D01*
X29051121Y12471400D01*
X42313538Y12471400D01*
X44035462Y10749475D01*
X44052957Y10728157D01*
X44078863Y10706897D01*
X44138045Y10658327D01*
X44220727Y10614133D01*
X44235122Y10606439D01*
X44340456Y10574486D01*
X44422556Y10566400D01*
X44422558Y10566400D01*
X44450000Y10563697D01*
X44477442Y10566400D01*
X60932558Y10566400D01*
X60960000Y10563697D01*
X60987442Y10566400D01*
X60987444Y10566400D01*
X61069544Y10574486D01*
X61174878Y10606439D01*
X61271954Y10658327D01*
X61357043Y10728157D01*
X61374543Y10749481D01*
X61958897Y11333835D01*
X62795970Y11333835D01*
X63500000Y10629805D01*
X64204030Y11333835D01*
X64120951Y11520932D01*
X63900131Y11621500D01*
X63663933Y11677056D01*
X63421435Y11685464D01*
X63181957Y11646402D01*
X62954700Y11561370D01*
X62879049Y11520932D01*
X62795970Y11333835D01*
X61958897Y11333835D01*
X63096463Y12471400D01*
X64541962Y12471400D01*
X64610840Y12342537D01*
X64764772Y12154972D01*
X64952337Y12001040D01*
X65166330Y11886659D01*
X65398525Y11816223D01*
X65579487Y11798400D01*
X66500513Y11798400D01*
X66681475Y11816223D01*
X66913670Y11886659D01*
X67127663Y12001040D01*
X67315228Y12154972D01*
X67469160Y12342537D01*
X67583541Y12556530D01*
X67653977Y12788725D01*
X67677760Y13030200D01*
X67653977Y13271675D01*
X67583541Y13503870D01*
X67469160Y13717863D01*
X67315228Y13905428D01*
X67127663Y14059360D01*
X66913670Y14173741D01*
X66681475Y14244177D01*
X66500513Y14262000D01*
X65579487Y14262000D01*
X65398525Y14244177D01*
X65166330Y14173741D01*
X64952337Y14059360D01*
X64764772Y13905428D01*
X64610840Y13717863D01*
X64541962Y13589000D01*
X62892442Y13589000D01*
X62865000Y13591703D01*
X62837558Y13589000D01*
X62837556Y13589000D01*
X62755456Y13580914D01*
X62672189Y13555655D01*
X62650122Y13548961D01*
X62553045Y13497073D01*
X62502995Y13455998D01*
X62467957Y13427243D01*
X62450463Y13405926D01*
X60728538Y11684000D01*
X59247024Y11684000D01*
X62574425Y15011400D01*
X64541962Y15011400D01*
X64610840Y14882537D01*
X64764772Y14694972D01*
X64952337Y14541040D01*
X65166330Y14426659D01*
X65398525Y14356223D01*
X65579487Y14338400D01*
X66500513Y14338400D01*
X66681475Y14356223D01*
X66913670Y14426659D01*
X67127663Y14541040D01*
X67315228Y14694972D01*
X67469160Y14882537D01*
X67583541Y15096530D01*
X67653977Y15328725D01*
X67677760Y15570200D01*
X67653977Y15811675D01*
X67583541Y16043870D01*
X67469160Y16257863D01*
X67315228Y16445428D01*
X67127663Y16599360D01*
X66913670Y16713741D01*
X66681475Y16784177D01*
X66500513Y16802000D01*
X65579487Y16802000D01*
X65398525Y16784177D01*
X65166330Y16713741D01*
X64952337Y16599360D01*
X64764772Y16445428D01*
X64610840Y16257863D01*
X64541962Y16129000D01*
X62370406Y16129000D01*
X62342962Y16131703D01*
X62233417Y16120914D01*
X62128084Y16088961D01*
X62031007Y16037073D01*
X61980957Y15995998D01*
X61945919Y15967243D01*
X61928424Y15945925D01*
X59394171Y13411672D01*
X59335052Y13708886D01*
X59213928Y14001305D01*
X59038083Y14264476D01*
X58814276Y14488283D01*
X58782303Y14509647D01*
X58817043Y14538157D01*
X58834543Y14559481D01*
X61826463Y17551400D01*
X64541962Y17551400D01*
X64610840Y17422537D01*
X64764772Y17234972D01*
X64952337Y17081040D01*
X65166330Y16966659D01*
X65398525Y16896223D01*
X65579487Y16878400D01*
X66500513Y16878400D01*
X66681475Y16896223D01*
X66913670Y16966659D01*
X67127663Y17081040D01*
X67315228Y17234972D01*
X67469160Y17422537D01*
X67583541Y17636530D01*
X67653977Y17868725D01*
X67677760Y18110200D01*
X67653977Y18351675D01*
X67583541Y18583870D01*
X67469160Y18797863D01*
X67315228Y18985428D01*
X67127663Y19139360D01*
X66913670Y19253741D01*
X66681475Y19324177D01*
X66500513Y19342000D01*
X65579487Y19342000D01*
X65398525Y19324177D01*
X65166330Y19253741D01*
X64952337Y19139360D01*
X64764772Y18985428D01*
X64610840Y18797863D01*
X64541962Y18669000D01*
X61622441Y18669000D01*
X61594999Y18671703D01*
X61567557Y18669000D01*
X61567556Y18669000D01*
X61485456Y18660914D01*
X61380122Y18628961D01*
X61283046Y18577073D01*
X61197957Y18507243D01*
X61180463Y18485926D01*
X59104023Y16409485D01*
X59061004Y16625755D01*
X58961364Y16866307D01*
X58816709Y17082799D01*
X58632599Y17266909D01*
X58416107Y17411564D01*
X58175555Y17511204D01*
X58009334Y17544267D01*
X60556467Y20091400D01*
X64541962Y20091400D01*
X64610840Y19962537D01*
X64764772Y19774972D01*
X64952337Y19621040D01*
X65166330Y19506659D01*
X65398525Y19436223D01*
X65579487Y19418400D01*
X66500513Y19418400D01*
X66681475Y19436223D01*
X66913670Y19506659D01*
X67127663Y19621040D01*
X67315228Y19774972D01*
X67469160Y19962537D01*
X67583541Y20176530D01*
X67653977Y20408725D01*
X67677760Y20650200D01*
X67653977Y20891675D01*
X67583541Y21123870D01*
X67469160Y21337863D01*
X67315228Y21525428D01*
X67127663Y21679360D01*
X66913670Y21793741D01*
X66681475Y21864177D01*
X66500513Y21882000D01*
X65579487Y21882000D01*
X65398525Y21864177D01*
X65166330Y21793741D01*
X64952337Y21679360D01*
X64764772Y21525428D01*
X64610840Y21337863D01*
X64541962Y21209000D01*
X60404063Y21209000D01*
X61826463Y22631400D01*
X64541962Y22631400D01*
X64610840Y22502537D01*
X64764772Y22314972D01*
X64952337Y22161040D01*
X65166330Y22046659D01*
X65398525Y21976223D01*
X65579487Y21958400D01*
X66500513Y21958400D01*
X66681475Y21976223D01*
X66913670Y22046659D01*
X67127663Y22161040D01*
X67315228Y22314972D01*
X67469160Y22502537D01*
X67583541Y22716530D01*
X67653977Y22948725D01*
X67677760Y23190200D01*
X67653977Y23431675D01*
X67583541Y23663870D01*
X67469160Y23877863D01*
X67315228Y24065428D01*
X67127663Y24219360D01*
X66913670Y24333741D01*
X66681475Y24404177D01*
X66500513Y24422000D01*
X65579487Y24422000D01*
X65398525Y24404177D01*
X65166330Y24333741D01*
X64952337Y24219360D01*
X64764772Y24065428D01*
X64610840Y23877863D01*
X64541962Y23749000D01*
X61674062Y23749000D01*
X63096462Y25171400D01*
X64541962Y25171400D01*
X64610840Y25042537D01*
X64764772Y24854972D01*
X64952337Y24701040D01*
X65166330Y24586659D01*
X65398525Y24516223D01*
X65579487Y24498400D01*
X66500513Y24498400D01*
X66681475Y24516223D01*
X66913670Y24586659D01*
X67127663Y24701040D01*
X67315228Y24854972D01*
X67469160Y25042537D01*
X67583541Y25256530D01*
X67653977Y25488725D01*
X67677760Y25730200D01*
X67653977Y25971675D01*
X67583541Y26203870D01*
X67469160Y26417863D01*
X67315228Y26605428D01*
X67127663Y26759360D01*
X66913670Y26873741D01*
X66681475Y26944177D01*
X66500513Y26962000D01*
X65579487Y26962000D01*
X65398525Y26944177D01*
X65166330Y26873741D01*
X64952337Y26759360D01*
X64764772Y26605428D01*
X64610840Y26417863D01*
X64541962Y26289000D01*
X62944063Y26289000D01*
X64366463Y27711400D01*
X64541962Y27711400D01*
X64610840Y27582537D01*
X64764772Y27394972D01*
X64952337Y27241040D01*
X65166330Y27126659D01*
X65398525Y27056223D01*
X65579487Y27038400D01*
X66500513Y27038400D01*
X66681475Y27056223D01*
X66913670Y27126659D01*
X67127663Y27241040D01*
X67315228Y27394972D01*
X67469160Y27582537D01*
X67583541Y27796530D01*
X67653977Y28028725D01*
X67677760Y28270200D01*
X67653977Y28511675D01*
X67583541Y28743870D01*
X67469160Y28957863D01*
X67315228Y29145428D01*
X67127663Y29299360D01*
X66913670Y29413741D01*
X66681475Y29484177D01*
X66500513Y29502000D01*
X65579487Y29502000D01*
X65398525Y29484177D01*
X65166330Y29413741D01*
X64952337Y29299360D01*
X64764772Y29145428D01*
X64610840Y28957863D01*
X64541962Y28829000D01*
X64214063Y28829000D01*
X65091643Y29706580D01*
X65166330Y29666659D01*
X65398525Y29596223D01*
X65579487Y29578400D01*
X66500513Y29578400D01*
X66681475Y29596223D01*
X66913670Y29666659D01*
X67127663Y29781040D01*
X67315228Y29934972D01*
X67469160Y30122537D01*
X67583541Y30336530D01*
X67653977Y30568725D01*
X67677760Y30810200D01*
X67653977Y31051675D01*
X67583541Y31283870D01*
X67469160Y31497863D01*
X67315228Y31685428D01*
X67127663Y31839360D01*
X66913670Y31953741D01*
X66681475Y32024177D01*
X66500513Y32042000D01*
X65579487Y32042000D01*
X65398525Y32024177D01*
X65166330Y31953741D01*
X64952337Y31839360D01*
X64764772Y31685428D01*
X64610840Y31497863D01*
X64496459Y31283870D01*
X64426023Y31051675D01*
X64402240Y30810200D01*
X64421292Y30616755D01*
X47566538Y13762000D01*
X47552924Y13762000D01*
X47411542Y13733877D01*
X47278363Y13678713D01*
X47158505Y13598626D01*
X47056574Y13496695D01*
X46989997Y13397057D01*
X46923426Y13496687D01*
X46821495Y13598618D01*
X46721855Y13665196D01*
X46821495Y13731774D01*
X46923426Y13833705D01*
X47003513Y13953563D01*
X47058677Y14086742D01*
X47086800Y14228124D01*
X47086800Y14241738D01*
X65636462Y32791400D01*
X69822558Y32791400D01*
X69850000Y32788697D01*
X69877442Y32791400D01*
X69877444Y32791400D01*
X69959544Y32799486D01*
X70064878Y32831439D01*
X70161954Y32883327D01*
X70247043Y32953157D01*
X70264543Y32974481D01*
X73276022Y35985959D01*
X73300697Y35975738D01*
G37*
X73300697Y35975738D02*
X73538678Y35928400D01*
X73781322Y35928400D01*
X73940117Y35959987D01*
X69346189Y31366058D01*
X69317603Y31342598D01*
X69294143Y31314012D01*
X69294140Y31314009D01*
X69223966Y31228503D01*
X69154388Y31098331D01*
X69111543Y30957087D01*
X69097076Y30810200D01*
X69100701Y30773395D01*
X69100700Y10800570D01*
X67211053Y8910923D01*
X67127663Y8979360D01*
X66913670Y9093741D01*
X66681475Y9164177D01*
X66500513Y9182000D01*
X65579487Y9182000D01*
X65398525Y9164177D01*
X65166330Y9093741D01*
X64952337Y8979360D01*
X64764772Y8825428D01*
X64661425Y8699500D01*
X64480807Y8699500D01*
X64456801Y8735427D01*
X64285227Y8907001D01*
X64083476Y9041807D01*
X63859303Y9134662D01*
X63621322Y9182000D01*
X63378678Y9182000D01*
X63140697Y9134662D01*
X62916524Y9041807D01*
X62714773Y8907001D01*
X62543199Y8735427D01*
X62519193Y8699500D01*
X44486795Y8699500D01*
X44449999Y8703124D01*
X44413203Y8699500D01*
X44413194Y8699500D01*
X44303112Y8688658D01*
X44161868Y8645812D01*
X44101274Y8613424D01*
X44031696Y8576234D01*
X43946190Y8506060D01*
X43917602Y8482598D01*
X43894141Y8454011D01*
X42869631Y7429500D01*
X40350807Y7429500D01*
X40326801Y7465427D01*
X40155227Y7637001D01*
X39953476Y7771807D01*
X39729303Y7864662D01*
X39491322Y7912000D01*
X39248678Y7912000D01*
X39206300Y7903570D01*
X37543305Y9566565D01*
X62795970Y9566565D01*
X62879049Y9379468D01*
X63099869Y9278900D01*
X63336067Y9223344D01*
X63578565Y9214936D01*
X63818043Y9253998D01*
X64045300Y9339030D01*
X64120951Y9379468D01*
X64204030Y9566565D01*
X63500000Y10270595D01*
X62795970Y9566565D01*
X37543305Y9566565D01*
X36738235Y10371635D01*
X62264736Y10371635D01*
X62303798Y10132157D01*
X62388830Y9904900D01*
X62429268Y9829249D01*
X62616365Y9746170D01*
X63320395Y10450200D01*
X63679605Y10450200D01*
X64383635Y9746170D01*
X64570732Y9829249D01*
X64582615Y9855342D01*
X64610840Y9802537D01*
X64764772Y9614972D01*
X64952337Y9461040D01*
X65166330Y9346659D01*
X65398525Y9276223D01*
X65579487Y9258400D01*
X66500513Y9258400D01*
X66681475Y9276223D01*
X66913670Y9346659D01*
X67127663Y9461040D01*
X67315228Y9614972D01*
X67469160Y9802537D01*
X67583541Y10016530D01*
X67653977Y10248725D01*
X67677760Y10490200D01*
X67653977Y10731675D01*
X67583541Y10963870D01*
X67469160Y11177863D01*
X67315228Y11365428D01*
X67127663Y11519360D01*
X66913670Y11633741D01*
X66681475Y11704177D01*
X66500513Y11722000D01*
X65579487Y11722000D01*
X65398525Y11704177D01*
X65166330Y11633741D01*
X64952337Y11519360D01*
X64764772Y11365428D01*
X64610840Y11177863D01*
X64557049Y11077227D01*
X64383635Y11154230D01*
X63679605Y10450200D01*
X63320395Y10450200D01*
X62616365Y11154230D01*
X62429268Y11071151D01*
X62328700Y10850331D01*
X62273144Y10614133D01*
X62264736Y10371635D01*
X36738235Y10371635D01*
X35480863Y11629006D01*
X35457398Y11657598D01*
X35343303Y11751234D01*
X35213132Y11820812D01*
X35071888Y11863658D01*
X34961806Y11874500D01*
X34961795Y11874500D01*
X34925000Y11878124D01*
X34888205Y11874500D01*
X19898249Y11874500D01*
X20074276Y11992117D01*
X20298083Y12215924D01*
X20473928Y12479095D01*
X20595052Y12771514D01*
X20656800Y13081944D01*
X20656800Y13398456D01*
X20595052Y13708886D01*
X20473928Y14001305D01*
X20298083Y14264476D01*
X20186159Y14376400D01*
X26590938Y14376400D01*
X25976538Y13762000D01*
X25962924Y13762000D01*
X25821542Y13733877D01*
X25688363Y13678713D01*
X25568505Y13598626D01*
X25466574Y13496695D01*
X25386487Y13376837D01*
X25331323Y13243658D01*
X25303200Y13102276D01*
X25303200Y12958124D01*
X25331323Y12816742D01*
X25386487Y12683563D01*
X25466574Y12563705D01*
X25568505Y12461774D01*
X25688363Y12381687D01*
X25821542Y12326523D01*
X25962924Y12298400D01*
X26107076Y12298400D01*
X26248458Y12326523D01*
X26381637Y12381687D01*
X26501495Y12461774D01*
X26603426Y12563705D01*
X26670000Y12663339D01*
X26736574Y12563705D01*
X26838505Y12461774D01*
X26958363Y12381687D01*
X27091542Y12326523D01*
X27232924Y12298400D01*
X27377076Y12298400D01*
X27518458Y12326523D01*
X27651637Y12381687D01*
X27771495Y12461774D01*
X27873426Y12563705D01*
X27940000Y12663339D01*
X28006574Y12563705D01*
X28108505Y12461774D01*
X28228363Y12381687D01*
X28361542Y12326523D01*
X28502924Y12298400D01*
X28647076Y12298400D01*
X28788458Y12326523D01*
X28921637Y12381687D01*
X29041495Y12461774D01*
X29051121Y12471400D01*
X42313538Y12471400D01*
X44035462Y10749475D01*
X44052957Y10728157D01*
X44078863Y10706897D01*
X44138045Y10658327D01*
X44220727Y10614133D01*
X44235122Y10606439D01*
X44340456Y10574486D01*
X44422556Y10566400D01*
X44422558Y10566400D01*
X44450000Y10563697D01*
X44477442Y10566400D01*
X60932558Y10566400D01*
X60960000Y10563697D01*
X60987442Y10566400D01*
X60987444Y10566400D01*
X61069544Y10574486D01*
X61174878Y10606439D01*
X61271954Y10658327D01*
X61357043Y10728157D01*
X61374543Y10749481D01*
X61958897Y11333835D01*
X62795970Y11333835D01*
X63500000Y10629805D01*
X64204030Y11333835D01*
X64120951Y11520932D01*
X63900131Y11621500D01*
X63663933Y11677056D01*
X63421435Y11685464D01*
X63181957Y11646402D01*
X62954700Y11561370D01*
X62879049Y11520932D01*
X62795970Y11333835D01*
X61958897Y11333835D01*
X63096463Y12471400D01*
X64541962Y12471400D01*
X64610840Y12342537D01*
X64764772Y12154972D01*
X64952337Y12001040D01*
X65166330Y11886659D01*
X65398525Y11816223D01*
X65579487Y11798400D01*
X66500513Y11798400D01*
X66681475Y11816223D01*
X66913670Y11886659D01*
X67127663Y12001040D01*
X67315228Y12154972D01*
X67469160Y12342537D01*
X67583541Y12556530D01*
X67653977Y12788725D01*
X67677760Y13030200D01*
X67653977Y13271675D01*
X67583541Y13503870D01*
X67469160Y13717863D01*
X67315228Y13905428D01*
X67127663Y14059360D01*
X66913670Y14173741D01*
X66681475Y14244177D01*
X66500513Y14262000D01*
X65579487Y14262000D01*
X65398525Y14244177D01*
X65166330Y14173741D01*
X64952337Y14059360D01*
X64764772Y13905428D01*
X64610840Y13717863D01*
X64541962Y13589000D01*
X62892442Y13589000D01*
X62865000Y13591703D01*
X62837558Y13589000D01*
X62837556Y13589000D01*
X62755456Y13580914D01*
X62672189Y13555655D01*
X62650122Y13548961D01*
X62553045Y13497073D01*
X62502995Y13455998D01*
X62467957Y13427243D01*
X62450463Y13405926D01*
X60728538Y11684000D01*
X59247024Y11684000D01*
X62574425Y15011400D01*
X64541962Y15011400D01*
X64610840Y14882537D01*
X64764772Y14694972D01*
X64952337Y14541040D01*
X65166330Y14426659D01*
X65398525Y14356223D01*
X65579487Y14338400D01*
X66500513Y14338400D01*
X66681475Y14356223D01*
X66913670Y14426659D01*
X67127663Y14541040D01*
X67315228Y14694972D01*
X67469160Y14882537D01*
X67583541Y15096530D01*
X67653977Y15328725D01*
X67677760Y15570200D01*
X67653977Y15811675D01*
X67583541Y16043870D01*
X67469160Y16257863D01*
X67315228Y16445428D01*
X67127663Y16599360D01*
X66913670Y16713741D01*
X66681475Y16784177D01*
X66500513Y16802000D01*
X65579487Y16802000D01*
X65398525Y16784177D01*
X65166330Y16713741D01*
X64952337Y16599360D01*
X64764772Y16445428D01*
X64610840Y16257863D01*
X64541962Y16129000D01*
X62370406Y16129000D01*
X62342962Y16131703D01*
X62233417Y16120914D01*
X62128084Y16088961D01*
X62031007Y16037073D01*
X61980957Y15995998D01*
X61945919Y15967243D01*
X61928424Y15945925D01*
X59394171Y13411672D01*
X59335052Y13708886D01*
X59213928Y14001305D01*
X59038083Y14264476D01*
X58814276Y14488283D01*
X58782303Y14509647D01*
X58817043Y14538157D01*
X58834543Y14559481D01*
X61826463Y17551400D01*
X64541962Y17551400D01*
X64610840Y17422537D01*
X64764772Y17234972D01*
X64952337Y17081040D01*
X65166330Y16966659D01*
X65398525Y16896223D01*
X65579487Y16878400D01*
X66500513Y16878400D01*
X66681475Y16896223D01*
X66913670Y16966659D01*
X67127663Y17081040D01*
X67315228Y17234972D01*
X67469160Y17422537D01*
X67583541Y17636530D01*
X67653977Y17868725D01*
X67677760Y18110200D01*
X67653977Y18351675D01*
X67583541Y18583870D01*
X67469160Y18797863D01*
X67315228Y18985428D01*
X67127663Y19139360D01*
X66913670Y19253741D01*
X66681475Y19324177D01*
X66500513Y19342000D01*
X65579487Y19342000D01*
X65398525Y19324177D01*
X65166330Y19253741D01*
X64952337Y19139360D01*
X64764772Y18985428D01*
X64610840Y18797863D01*
X64541962Y18669000D01*
X61622441Y18669000D01*
X61594999Y18671703D01*
X61567557Y18669000D01*
X61567556Y18669000D01*
X61485456Y18660914D01*
X61380122Y18628961D01*
X61283046Y18577073D01*
X61197957Y18507243D01*
X61180463Y18485926D01*
X59104023Y16409485D01*
X59061004Y16625755D01*
X58961364Y16866307D01*
X58816709Y17082799D01*
X58632599Y17266909D01*
X58416107Y17411564D01*
X58175555Y17511204D01*
X58009334Y17544267D01*
X60556467Y20091400D01*
X64541962Y20091400D01*
X64610840Y19962537D01*
X64764772Y19774972D01*
X64952337Y19621040D01*
X65166330Y19506659D01*
X65398525Y19436223D01*
X65579487Y19418400D01*
X66500513Y19418400D01*
X66681475Y19436223D01*
X66913670Y19506659D01*
X67127663Y19621040D01*
X67315228Y19774972D01*
X67469160Y19962537D01*
X67583541Y20176530D01*
X67653977Y20408725D01*
X67677760Y20650200D01*
X67653977Y20891675D01*
X67583541Y21123870D01*
X67469160Y21337863D01*
X67315228Y21525428D01*
X67127663Y21679360D01*
X66913670Y21793741D01*
X66681475Y21864177D01*
X66500513Y21882000D01*
X65579487Y21882000D01*
X65398525Y21864177D01*
X65166330Y21793741D01*
X64952337Y21679360D01*
X64764772Y21525428D01*
X64610840Y21337863D01*
X64541962Y21209000D01*
X60404063Y21209000D01*
X61826463Y22631400D01*
X64541962Y22631400D01*
X64610840Y22502537D01*
X64764772Y22314972D01*
X64952337Y22161040D01*
X65166330Y22046659D01*
X65398525Y21976223D01*
X65579487Y21958400D01*
X66500513Y21958400D01*
X66681475Y21976223D01*
X66913670Y22046659D01*
X67127663Y22161040D01*
X67315228Y22314972D01*
X67469160Y22502537D01*
X67583541Y22716530D01*
X67653977Y22948725D01*
X67677760Y23190200D01*
X67653977Y23431675D01*
X67583541Y23663870D01*
X67469160Y23877863D01*
X67315228Y24065428D01*
X67127663Y24219360D01*
X66913670Y24333741D01*
X66681475Y24404177D01*
X66500513Y24422000D01*
X65579487Y24422000D01*
X65398525Y24404177D01*
X65166330Y24333741D01*
X64952337Y24219360D01*
X64764772Y24065428D01*
X64610840Y23877863D01*
X64541962Y23749000D01*
X61674062Y23749000D01*
X63096462Y25171400D01*
X64541962Y25171400D01*
X64610840Y25042537D01*
X64764772Y24854972D01*
X64952337Y24701040D01*
X65166330Y24586659D01*
X65398525Y24516223D01*
X65579487Y24498400D01*
X66500513Y24498400D01*
X66681475Y24516223D01*
X66913670Y24586659D01*
X67127663Y24701040D01*
X67315228Y24854972D01*
X67469160Y25042537D01*
X67583541Y25256530D01*
X67653977Y25488725D01*
X67677760Y25730200D01*
X67653977Y25971675D01*
X67583541Y26203870D01*
X67469160Y26417863D01*
X67315228Y26605428D01*
X67127663Y26759360D01*
X66913670Y26873741D01*
X66681475Y26944177D01*
X66500513Y26962000D01*
X65579487Y26962000D01*
X65398525Y26944177D01*
X65166330Y26873741D01*
X64952337Y26759360D01*
X64764772Y26605428D01*
X64610840Y26417863D01*
X64541962Y26289000D01*
X62944063Y26289000D01*
X64366463Y27711400D01*
X64541962Y27711400D01*
X64610840Y27582537D01*
X64764772Y27394972D01*
X64952337Y27241040D01*
X65166330Y27126659D01*
X65398525Y27056223D01*
X65579487Y27038400D01*
X66500513Y27038400D01*
X66681475Y27056223D01*
X66913670Y27126659D01*
X67127663Y27241040D01*
X67315228Y27394972D01*
X67469160Y27582537D01*
X67583541Y27796530D01*
X67653977Y28028725D01*
X67677760Y28270200D01*
X67653977Y28511675D01*
X67583541Y28743870D01*
X67469160Y28957863D01*
X67315228Y29145428D01*
X67127663Y29299360D01*
X66913670Y29413741D01*
X66681475Y29484177D01*
X66500513Y29502000D01*
X65579487Y29502000D01*
X65398525Y29484177D01*
X65166330Y29413741D01*
X64952337Y29299360D01*
X64764772Y29145428D01*
X64610840Y28957863D01*
X64541962Y28829000D01*
X64214063Y28829000D01*
X65091643Y29706580D01*
X65166330Y29666659D01*
X65398525Y29596223D01*
X65579487Y29578400D01*
X66500513Y29578400D01*
X66681475Y29596223D01*
X66913670Y29666659D01*
X67127663Y29781040D01*
X67315228Y29934972D01*
X67469160Y30122537D01*
X67583541Y30336530D01*
X67653977Y30568725D01*
X67677760Y30810200D01*
X67653977Y31051675D01*
X67583541Y31283870D01*
X67469160Y31497863D01*
X67315228Y31685428D01*
X67127663Y31839360D01*
X66913670Y31953741D01*
X66681475Y32024177D01*
X66500513Y32042000D01*
X65579487Y32042000D01*
X65398525Y32024177D01*
X65166330Y31953741D01*
X64952337Y31839360D01*
X64764772Y31685428D01*
X64610840Y31497863D01*
X64496459Y31283870D01*
X64426023Y31051675D01*
X64402240Y30810200D01*
X64421292Y30616755D01*
X47566538Y13762000D01*
X47552924Y13762000D01*
X47411542Y13733877D01*
X47278363Y13678713D01*
X47158505Y13598626D01*
X47056574Y13496695D01*
X46989997Y13397057D01*
X46923426Y13496687D01*
X46821495Y13598618D01*
X46721855Y13665196D01*
X46821495Y13731774D01*
X46923426Y13833705D01*
X47003513Y13953563D01*
X47058677Y14086742D01*
X47086800Y14228124D01*
X47086800Y14241738D01*
X65636462Y32791400D01*
X69822558Y32791400D01*
X69850000Y32788697D01*
X69877442Y32791400D01*
X69877444Y32791400D01*
X69959544Y32799486D01*
X70064878Y32831439D01*
X70161954Y32883327D01*
X70247043Y32953157D01*
X70264543Y32974481D01*
X73276022Y35985959D01*
X73300697Y35975738D01*
G36*
X17365462Y14559475D02*
G01*
X17382957Y14538157D01*
X17468046Y14468327D01*
X17565122Y14416439D01*
X17670456Y14384486D01*
X17752556Y14376400D01*
X17752557Y14376400D01*
X17779999Y14373697D01*
X17807441Y14376400D01*
X17913841Y14376400D01*
X17801917Y14264476D01*
X17626072Y14001305D01*
X17504948Y13708886D01*
X17443200Y13398456D01*
X17443200Y13081944D01*
X17504948Y12771514D01*
X17626072Y12479095D01*
X17801917Y12215924D01*
X18025724Y11992117D01*
X18201751Y11874500D01*
X17610792Y11874500D01*
X17562689Y11906641D01*
X17402212Y11973113D01*
X17231850Y12007000D01*
X17058150Y12007000D01*
X16887788Y11973113D01*
X16727311Y11906641D01*
X16582885Y11810139D01*
X16460061Y11687315D01*
X16363559Y11542889D01*
X16329587Y11460875D01*
X15798800Y11991662D01*
X15798800Y14272759D01*
X15801503Y14300201D01*
X15798800Y14327644D01*
X15790714Y14409744D01*
X15758761Y14515078D01*
X15706873Y14612154D01*
X15637043Y14697243D01*
X15615719Y14714743D01*
X13114543Y17215919D01*
X13097043Y17237243D01*
X13011954Y17307073D01*
X12914878Y17358961D01*
X12828491Y17385167D01*
X12859160Y17422537D01*
X12928038Y17551400D01*
X14373538Y17551400D01*
X17365462Y14559475D01*
G37*
X17365462Y14559475D02*
X17382957Y14538157D01*
X17468046Y14468327D01*
X17565122Y14416439D01*
X17670456Y14384486D01*
X17752556Y14376400D01*
X17752557Y14376400D01*
X17779999Y14373697D01*
X17807441Y14376400D01*
X17913841Y14376400D01*
X17801917Y14264476D01*
X17626072Y14001305D01*
X17504948Y13708886D01*
X17443200Y13398456D01*
X17443200Y13081944D01*
X17504948Y12771514D01*
X17626072Y12479095D01*
X17801917Y12215924D01*
X18025724Y11992117D01*
X18201751Y11874500D01*
X17610792Y11874500D01*
X17562689Y11906641D01*
X17402212Y11973113D01*
X17231850Y12007000D01*
X17058150Y12007000D01*
X16887788Y11973113D01*
X16727311Y11906641D01*
X16582885Y11810139D01*
X16460061Y11687315D01*
X16363559Y11542889D01*
X16329587Y11460875D01*
X15798800Y11991662D01*
X15798800Y14272759D01*
X15801503Y14300201D01*
X15798800Y14327644D01*
X15790714Y14409744D01*
X15758761Y14515078D01*
X15706873Y14612154D01*
X15637043Y14697243D01*
X15615719Y14714743D01*
X13114543Y17215919D01*
X13097043Y17237243D01*
X13011954Y17307073D01*
X12914878Y17358961D01*
X12828491Y17385167D01*
X12859160Y17422537D01*
X12928038Y17551400D01*
X14373538Y17551400D01*
X17365462Y14559475D01*
G36*
X60723410Y35311877D02*
G01*
X60625266Y35164994D01*
X60557664Y35001787D01*
X60523200Y34828527D01*
X60523200Y34651873D01*
X60557664Y34478613D01*
X60625266Y34315406D01*
X60723410Y34168523D01*
X60848323Y34043610D01*
X60995206Y33945466D01*
X61083243Y33909000D01*
X60987441Y33909000D01*
X60959999Y33911703D01*
X60932557Y33909000D01*
X60932556Y33909000D01*
X60850456Y33900914D01*
X60745122Y33868961D01*
X60648046Y33817073D01*
X60562957Y33747243D01*
X60545462Y33725925D01*
X43121538Y16302000D01*
X43107924Y16302000D01*
X42966542Y16273877D01*
X42833363Y16218713D01*
X42713505Y16138626D01*
X42611574Y16036695D01*
X42531487Y15916837D01*
X42476323Y15783658D01*
X42448200Y15642276D01*
X42448200Y15498124D01*
X42449020Y15494000D01*
X34385980Y15494000D01*
X34386800Y15498124D01*
X34386800Y15511738D01*
X54206463Y35331400D01*
X60742933Y35331400D01*
X60723410Y35311877D01*
G37*
X60723410Y35311877D02*
X60625266Y35164994D01*
X60557664Y35001787D01*
X60523200Y34828527D01*
X60523200Y34651873D01*
X60557664Y34478613D01*
X60625266Y34315406D01*
X60723410Y34168523D01*
X60848323Y34043610D01*
X60995206Y33945466D01*
X61083243Y33909000D01*
X60987441Y33909000D01*
X60959999Y33911703D01*
X60932557Y33909000D01*
X60932556Y33909000D01*
X60850456Y33900914D01*
X60745122Y33868961D01*
X60648046Y33817073D01*
X60562957Y33747243D01*
X60545462Y33725925D01*
X43121538Y16302000D01*
X43107924Y16302000D01*
X42966542Y16273877D01*
X42833363Y16218713D01*
X42713505Y16138626D01*
X42611574Y16036695D01*
X42531487Y15916837D01*
X42476323Y15783658D01*
X42448200Y15642276D01*
X42448200Y15498124D01*
X42449020Y15494000D01*
X34385980Y15494000D01*
X34386800Y15498124D01*
X34386800Y15511738D01*
X54206463Y35331400D01*
X60742933Y35331400D01*
X60723410Y35311877D01*
%TD*%
M02*
