%TF.GenerationSoftware,KiCad,Pcbnew,(5.1.6)-1*%
%TF.CreationDate,2021-01-19T23:52:39-08:00*%
%TF.ProjectId,rc-cfcard,72632d63-6663-4617-9264-2e6b69636164,rev?*%
%TF.SameCoordinates,PX9157080PY9071968*%
%TF.FileFunction,Legend,Top*%
%TF.FilePolarity,Positive*%
%FSLAX46Y46*%
G04 Gerber Fmt 4.6, Leading zero omitted, Abs format (unit mm)*
G04 Created by KiCad (PCBNEW (5.1.6)-1) date 2021-01-19 23:52:39*
%MOMM*%
%LPD*%
G01*
G04 APERTURE LIST*
%ADD10C,0.150000*%
%ADD11C,0.300000*%
%ADD12C,0.200000*%
%ADD13C,0.120000*%
%ADD14C,0.100000*%
G04 APERTURE END LIST*
D10*
X94615000Y47637700D02*
X94615000Y47002700D01*
X94297500Y47320200D02*
X94932500Y47320200D01*
X45568809Y17853177D02*
X45568809Y16946034D01*
X45508333Y16764605D01*
X45387380Y16643653D01*
X45205952Y16583177D01*
X45085000Y16583177D01*
X46778333Y16583177D02*
X46173571Y16583177D01*
X46173571Y17853177D01*
X47927380Y16704129D02*
X47866904Y16643653D01*
X47685476Y16583177D01*
X47564523Y16583177D01*
X47383095Y16643653D01*
X47262142Y16764605D01*
X47201666Y16885558D01*
X47141190Y17127462D01*
X47141190Y17308891D01*
X47201666Y17550796D01*
X47262142Y17671748D01*
X47383095Y17792700D01*
X47564523Y17853177D01*
X47685476Y17853177D01*
X47866904Y17792700D01*
X47927380Y17732224D01*
X48834523Y17853177D02*
X48834523Y16946034D01*
X48774047Y16764605D01*
X48653095Y16643653D01*
X48471666Y16583177D01*
X48350714Y16583177D01*
X50044047Y16583177D02*
X49439285Y16583177D01*
X49439285Y17853177D01*
X51193095Y16704129D02*
X51132619Y16643653D01*
X50951190Y16583177D01*
X50830238Y16583177D01*
X50648809Y16643653D01*
X50527857Y16764605D01*
X50467380Y16885558D01*
X50406904Y17127462D01*
X50406904Y17308891D01*
X50467380Y17550796D01*
X50527857Y17671748D01*
X50648809Y17792700D01*
X50830238Y17853177D01*
X50951190Y17853177D01*
X51132619Y17792700D01*
X51193095Y17732224D01*
X52100238Y17853177D02*
X52100238Y16946034D01*
X52039761Y16764605D01*
X51918809Y16643653D01*
X51737380Y16583177D01*
X51616428Y16583177D01*
X53309761Y16583177D02*
X52705000Y16583177D01*
X52705000Y17853177D01*
X54458809Y16704129D02*
X54398333Y16643653D01*
X54216904Y16583177D01*
X54095952Y16583177D01*
X53914523Y16643653D01*
X53793571Y16764605D01*
X53733095Y16885558D01*
X53672619Y17127462D01*
X53672619Y17308891D01*
X53733095Y17550796D01*
X53793571Y17671748D01*
X53914523Y17792700D01*
X54095952Y17853177D01*
X54216904Y17853177D01*
X54398333Y17792700D01*
X54458809Y17732224D01*
X55365952Y17853177D02*
X55365952Y16946034D01*
X55305476Y16764605D01*
X55184523Y16643653D01*
X55003095Y16583177D01*
X54882142Y16583177D01*
X56575476Y16583177D02*
X55970714Y16583177D01*
X55970714Y17853177D01*
X57724523Y16704129D02*
X57664047Y16643653D01*
X57482619Y16583177D01*
X57361666Y16583177D01*
X57180238Y16643653D01*
X57059285Y16764605D01*
X56998809Y16885558D01*
X56938333Y17127462D01*
X56938333Y17308891D01*
X56998809Y17550796D01*
X57059285Y17671748D01*
X57180238Y17792700D01*
X57361666Y17853177D01*
X57482619Y17853177D01*
X57664047Y17792700D01*
X57724523Y17732224D01*
X91122619Y42708534D02*
X91598809Y42708534D01*
X91027380Y42422820D02*
X91360714Y43422820D01*
X91694047Y42422820D01*
X92455952Y42470439D02*
X92360714Y42422820D01*
X92170238Y42422820D01*
X92075000Y42470439D01*
X92027380Y42518058D01*
X91979761Y42613296D01*
X91979761Y42899010D01*
X92027380Y42994248D01*
X92075000Y43041867D01*
X92170238Y43089486D01*
X92360714Y43089486D01*
X92455952Y43041867D01*
X92741666Y43089486D02*
X93122619Y43089486D01*
X92884523Y43422820D02*
X92884523Y42565677D01*
X92932142Y42470439D01*
X93027380Y42422820D01*
X93122619Y42422820D01*
D11*
X67017142Y46159486D02*
X66945714Y46088058D01*
X66731428Y46016629D01*
X66588571Y46016629D01*
X66374285Y46088058D01*
X66231428Y46230915D01*
X66160000Y46373772D01*
X66088571Y46659486D01*
X66088571Y46873772D01*
X66160000Y47159486D01*
X66231428Y47302343D01*
X66374285Y47445200D01*
X66588571Y47516629D01*
X66731428Y47516629D01*
X66945714Y47445200D01*
X67017142Y47373772D01*
X67874285Y46016629D02*
X67731428Y46088058D01*
X67660000Y46159486D01*
X67588571Y46302343D01*
X67588571Y46730915D01*
X67660000Y46873772D01*
X67731428Y46945200D01*
X67874285Y47016629D01*
X68088571Y47016629D01*
X68231428Y46945200D01*
X68302857Y46873772D01*
X68374285Y46730915D01*
X68374285Y46302343D01*
X68302857Y46159486D01*
X68231428Y46088058D01*
X68088571Y46016629D01*
X67874285Y46016629D01*
X69017142Y46016629D02*
X69017142Y47016629D01*
X69017142Y46873772D02*
X69088571Y46945200D01*
X69231428Y47016629D01*
X69445714Y47016629D01*
X69588571Y46945200D01*
X69660000Y46802343D01*
X69660000Y46016629D01*
X69660000Y46802343D02*
X69731428Y46945200D01*
X69874285Y47016629D01*
X70088571Y47016629D01*
X70231428Y46945200D01*
X70302857Y46802343D01*
X70302857Y46016629D01*
X71017142Y47016629D02*
X71017142Y45516629D01*
X71017142Y46945200D02*
X71160000Y47016629D01*
X71445714Y47016629D01*
X71588571Y46945200D01*
X71660000Y46873772D01*
X71731428Y46730915D01*
X71731428Y46302343D01*
X71660000Y46159486D01*
X71588571Y46088058D01*
X71445714Y46016629D01*
X71160000Y46016629D01*
X71017142Y46088058D01*
X73017142Y46016629D02*
X73017142Y46802343D01*
X72945714Y46945200D01*
X72802857Y47016629D01*
X72517142Y47016629D01*
X72374285Y46945200D01*
X73017142Y46088058D02*
X72874285Y46016629D01*
X72517142Y46016629D01*
X72374285Y46088058D01*
X72302857Y46230915D01*
X72302857Y46373772D01*
X72374285Y46516629D01*
X72517142Y46588058D01*
X72874285Y46588058D01*
X73017142Y46659486D01*
X74374285Y46088058D02*
X74231428Y46016629D01*
X73945714Y46016629D01*
X73802857Y46088058D01*
X73731428Y46159486D01*
X73660000Y46302343D01*
X73660000Y46730915D01*
X73731428Y46873772D01*
X73802857Y46945200D01*
X73945714Y47016629D01*
X74231428Y47016629D01*
X74374285Y46945200D01*
X74802857Y47016629D02*
X75374285Y47016629D01*
X75017142Y47516629D02*
X75017142Y46230915D01*
X75088571Y46088058D01*
X75231428Y46016629D01*
X75374285Y46016629D01*
X76374285Y46802343D02*
X75874285Y46802343D01*
X75874285Y46016629D02*
X75874285Y47516629D01*
X76588571Y47516629D01*
X77374285Y46016629D02*
X77231428Y46088058D01*
X77160000Y46230915D01*
X77160000Y47516629D01*
X78588571Y46016629D02*
X78588571Y46802343D01*
X78517142Y46945200D01*
X78374285Y47016629D01*
X78088571Y47016629D01*
X77945714Y46945200D01*
X78588571Y46088058D02*
X78445714Y46016629D01*
X78088571Y46016629D01*
X77945714Y46088058D01*
X77874285Y46230915D01*
X77874285Y46373772D01*
X77945714Y46516629D01*
X78088571Y46588058D01*
X78445714Y46588058D01*
X78588571Y46659486D01*
X79231428Y46088058D02*
X79374285Y46016629D01*
X79660000Y46016629D01*
X79802857Y46088058D01*
X79874285Y46230915D01*
X79874285Y46302343D01*
X79802857Y46445200D01*
X79660000Y46516629D01*
X79445714Y46516629D01*
X79302857Y46588058D01*
X79231428Y46730915D01*
X79231428Y46802343D01*
X79302857Y46945200D01*
X79445714Y47016629D01*
X79660000Y47016629D01*
X79802857Y46945200D01*
X80517142Y46016629D02*
X80517142Y47516629D01*
X81160000Y46016629D02*
X81160000Y46802343D01*
X81088571Y46945200D01*
X80945714Y47016629D01*
X80731428Y47016629D01*
X80588571Y46945200D01*
X80517142Y46873772D01*
X66588571Y43895200D02*
X67302857Y43895200D01*
X66445714Y43466629D02*
X66945714Y44966629D01*
X67445714Y43466629D01*
X68588571Y43466629D02*
X68588571Y44966629D01*
X68588571Y43538058D02*
X68445714Y43466629D01*
X68160000Y43466629D01*
X68017142Y43538058D01*
X67945714Y43609486D01*
X67874285Y43752343D01*
X67874285Y44180915D01*
X67945714Y44323772D01*
X68017142Y44395200D01*
X68160000Y44466629D01*
X68445714Y44466629D01*
X68588571Y44395200D01*
X69945714Y43466629D02*
X69945714Y44252343D01*
X69874285Y44395200D01*
X69731428Y44466629D01*
X69445714Y44466629D01*
X69302857Y44395200D01*
X69945714Y43538058D02*
X69802857Y43466629D01*
X69445714Y43466629D01*
X69302857Y43538058D01*
X69231428Y43680915D01*
X69231428Y43823772D01*
X69302857Y43966629D01*
X69445714Y44038058D01*
X69802857Y44038058D01*
X69945714Y44109486D01*
X70660000Y44466629D02*
X70660000Y42966629D01*
X70660000Y44395200D02*
X70802857Y44466629D01*
X71088571Y44466629D01*
X71231428Y44395200D01*
X71302857Y44323772D01*
X71374285Y44180915D01*
X71374285Y43752343D01*
X71302857Y43609486D01*
X71231428Y43538058D01*
X71088571Y43466629D01*
X70802857Y43466629D01*
X70660000Y43538058D01*
X71802857Y44466629D02*
X72374285Y44466629D01*
X72017142Y44966629D02*
X72017142Y43680915D01*
X72088571Y43538058D01*
X72231428Y43466629D01*
X72374285Y43466629D01*
X73445714Y43538058D02*
X73302857Y43466629D01*
X73017142Y43466629D01*
X72874285Y43538058D01*
X72802857Y43680915D01*
X72802857Y44252343D01*
X72874285Y44395200D01*
X73017142Y44466629D01*
X73302857Y44466629D01*
X73445714Y44395200D01*
X73517142Y44252343D01*
X73517142Y44109486D01*
X72802857Y43966629D01*
X74160000Y43466629D02*
X74160000Y44466629D01*
X74160000Y44180915D02*
X74231428Y44323772D01*
X74302857Y44395200D01*
X74445714Y44466629D01*
X74588571Y44466629D01*
X77088571Y43609486D02*
X77017142Y43538058D01*
X76802857Y43466629D01*
X76660000Y43466629D01*
X76445714Y43538058D01*
X76302857Y43680915D01*
X76231428Y43823772D01*
X76160000Y44109486D01*
X76160000Y44323772D01*
X76231428Y44609486D01*
X76302857Y44752343D01*
X76445714Y44895200D01*
X76660000Y44966629D01*
X76802857Y44966629D01*
X77017142Y44895200D01*
X77088571Y44823772D01*
X78374285Y43466629D02*
X78374285Y44252343D01*
X78302857Y44395200D01*
X78160000Y44466629D01*
X77874285Y44466629D01*
X77731428Y44395200D01*
X78374285Y43538058D02*
X78231428Y43466629D01*
X77874285Y43466629D01*
X77731428Y43538058D01*
X77660000Y43680915D01*
X77660000Y43823772D01*
X77731428Y43966629D01*
X77874285Y44038058D01*
X78231428Y44038058D01*
X78374285Y44109486D01*
X79088571Y43466629D02*
X79088571Y44466629D01*
X79088571Y44180915D02*
X79160000Y44323772D01*
X79231428Y44395200D01*
X79374285Y44466629D01*
X79517142Y44466629D01*
X80660000Y43466629D02*
X80660000Y44966629D01*
X80660000Y43538058D02*
X80517142Y43466629D01*
X80231428Y43466629D01*
X80088571Y43538058D01*
X80017142Y43609486D01*
X79945714Y43752343D01*
X79945714Y44180915D01*
X80017142Y44323772D01*
X80088571Y44395200D01*
X80231428Y44466629D01*
X80517142Y44466629D01*
X80660000Y44395200D01*
X67445714Y40916629D02*
X67445714Y42416629D01*
X68017142Y42416629D01*
X68160000Y42345200D01*
X68231428Y42273772D01*
X68302857Y42130915D01*
X68302857Y41916629D01*
X68231428Y41773772D01*
X68160000Y41702343D01*
X68017142Y41630915D01*
X67445714Y41630915D01*
X68945714Y40916629D02*
X68945714Y42416629D01*
X69302857Y42416629D01*
X69517142Y42345200D01*
X69660000Y42202343D01*
X69731428Y42059486D01*
X69802857Y41773772D01*
X69802857Y41559486D01*
X69731428Y41273772D01*
X69660000Y41130915D01*
X69517142Y40988058D01*
X69302857Y40916629D01*
X68945714Y40916629D01*
X71231428Y40916629D02*
X70374285Y40916629D01*
X70802857Y40916629D02*
X70802857Y42416629D01*
X70660000Y42202343D01*
X70517142Y42059486D01*
X70374285Y41988058D01*
X72160000Y42416629D02*
X72302857Y42416629D01*
X72445714Y42345200D01*
X72517142Y42273772D01*
X72588571Y42130915D01*
X72660000Y41845200D01*
X72660000Y41488058D01*
X72588571Y41202343D01*
X72517142Y41059486D01*
X72445714Y40988058D01*
X72302857Y40916629D01*
X72160000Y40916629D01*
X72017142Y40988058D01*
X71945714Y41059486D01*
X71874285Y41202343D01*
X71802857Y41488058D01*
X71802857Y41845200D01*
X71874285Y42130915D01*
X71945714Y42273772D01*
X72017142Y42345200D01*
X72160000Y42416629D01*
X74017142Y42416629D02*
X73302857Y42416629D01*
X73231428Y41702343D01*
X73302857Y41773772D01*
X73445714Y41845200D01*
X73802857Y41845200D01*
X73945714Y41773772D01*
X74017142Y41702343D01*
X74088571Y41559486D01*
X74088571Y41202343D01*
X74017142Y41059486D01*
X73945714Y40988058D01*
X73802857Y40916629D01*
X73445714Y40916629D01*
X73302857Y40988058D01*
X73231428Y41059486D01*
X75731428Y41916629D02*
X76088571Y40916629D01*
X76445714Y41916629D01*
X77802857Y40916629D02*
X76945714Y40916629D01*
X77374285Y40916629D02*
X77374285Y42416629D01*
X77231428Y42202343D01*
X77088571Y42059486D01*
X76945714Y41988058D01*
X78445714Y41059486D02*
X78517142Y40988058D01*
X78445714Y40916629D01*
X78374285Y40988058D01*
X78445714Y41059486D01*
X78445714Y40916629D01*
X79445714Y42416629D02*
X79588571Y42416629D01*
X79731428Y42345200D01*
X79802857Y42273772D01*
X79874285Y42130915D01*
X79945714Y41845200D01*
X79945714Y41488058D01*
X79874285Y41202343D01*
X79802857Y41059486D01*
X79731428Y40988058D01*
X79588571Y40916629D01*
X79445714Y40916629D01*
X79302857Y40988058D01*
X79231428Y41059486D01*
X79160000Y41202343D01*
X79088571Y41488058D01*
X79088571Y41845200D01*
X79160000Y42130915D01*
X79231428Y42273772D01*
X79302857Y42345200D01*
X79445714Y42416629D01*
X1613333Y-4991942D02*
X1613333Y-4277657D01*
X2039047Y-5134800D02*
X549047Y-4634800D01*
X2039047Y-4134800D01*
X2039047Y-2849085D02*
X2039047Y-3706228D01*
X2039047Y-3277657D02*
X549047Y-3277657D01*
X761904Y-3420514D01*
X903809Y-3563371D01*
X974761Y-3706228D01*
X549047Y-1491942D02*
X549047Y-2206228D01*
X1258571Y-2277657D01*
X1187619Y-2206228D01*
X1116666Y-2063371D01*
X1116666Y-1706228D01*
X1187619Y-1563371D01*
X1258571Y-1491942D01*
X1400476Y-1420514D01*
X1755238Y-1420514D01*
X1897142Y-1491942D01*
X1968095Y-1563371D01*
X2039047Y-1706228D01*
X2039047Y-2063371D01*
X1968095Y-2206228D01*
X1897142Y-2277657D01*
X4148333Y-4991942D02*
X4148333Y-4277657D01*
X4574047Y-5134800D02*
X3084047Y-4634800D01*
X4574047Y-4134800D01*
X4574047Y-2849085D02*
X4574047Y-3706228D01*
X4574047Y-3277657D02*
X3084047Y-3277657D01*
X3296904Y-3420514D01*
X3438809Y-3563371D01*
X3509761Y-3706228D01*
X3580714Y-1563371D02*
X4574047Y-1563371D01*
X3013095Y-1920514D02*
X4077380Y-2277657D01*
X4077380Y-1349085D01*
X6683333Y-4991942D02*
X6683333Y-4277657D01*
X7109047Y-5134800D02*
X5619047Y-4634800D01*
X7109047Y-4134800D01*
X7109047Y-2849085D02*
X7109047Y-3706228D01*
X7109047Y-3277657D02*
X5619047Y-3277657D01*
X5831904Y-3420514D01*
X5973809Y-3563371D01*
X6044761Y-3706228D01*
X5619047Y-2349085D02*
X5619047Y-1420514D01*
X6186666Y-1920514D01*
X6186666Y-1706228D01*
X6257619Y-1563371D01*
X6328571Y-1491942D01*
X6470476Y-1420514D01*
X6825238Y-1420514D01*
X6967142Y-1491942D01*
X7038095Y-1563371D01*
X7109047Y-1706228D01*
X7109047Y-2134800D01*
X7038095Y-2277657D01*
X6967142Y-2349085D01*
X9218333Y-4991942D02*
X9218333Y-4277657D01*
X9644047Y-5134800D02*
X8154047Y-4634800D01*
X9644047Y-4134800D01*
X9644047Y-2849085D02*
X9644047Y-3706228D01*
X9644047Y-3277657D02*
X8154047Y-3277657D01*
X8366904Y-3420514D01*
X8508809Y-3563371D01*
X8579761Y-3706228D01*
X8295952Y-2277657D02*
X8225000Y-2206228D01*
X8154047Y-2063371D01*
X8154047Y-1706228D01*
X8225000Y-1563371D01*
X8295952Y-1491942D01*
X8437857Y-1420514D01*
X8579761Y-1420514D01*
X8792619Y-1491942D01*
X9644047Y-2349085D01*
X9644047Y-1420514D01*
X11753333Y-4991942D02*
X11753333Y-4277657D01*
X12179047Y-5134800D02*
X10689047Y-4634800D01*
X12179047Y-4134800D01*
X12179047Y-2849085D02*
X12179047Y-3706228D01*
X12179047Y-3277657D02*
X10689047Y-3277657D01*
X10901904Y-3420514D01*
X11043809Y-3563371D01*
X11114761Y-3706228D01*
X12179047Y-1420514D02*
X12179047Y-2277657D01*
X12179047Y-1849085D02*
X10689047Y-1849085D01*
X10901904Y-1991942D01*
X11043809Y-2134800D01*
X11114761Y-2277657D01*
X14288333Y-4991942D02*
X14288333Y-4277657D01*
X14714047Y-5134800D02*
X13224047Y-4634800D01*
X14714047Y-4134800D01*
X14714047Y-2849085D02*
X14714047Y-3706228D01*
X14714047Y-3277657D02*
X13224047Y-3277657D01*
X13436904Y-3420514D01*
X13578809Y-3563371D01*
X13649761Y-3706228D01*
X13224047Y-1920514D02*
X13224047Y-1777657D01*
X13295000Y-1634800D01*
X13365952Y-1563371D01*
X13507857Y-1491942D01*
X13791666Y-1420514D01*
X14146428Y-1420514D01*
X14430238Y-1491942D01*
X14572142Y-1563371D01*
X14643095Y-1634800D01*
X14714047Y-1777657D01*
X14714047Y-1920514D01*
X14643095Y-2063371D01*
X14572142Y-2134800D01*
X14430238Y-2206228D01*
X14146428Y-2277657D01*
X13791666Y-2277657D01*
X13507857Y-2206228D01*
X13365952Y-2134800D01*
X13295000Y-2063371D01*
X13224047Y-1920514D01*
X16823333Y-3563371D02*
X16823333Y-2849085D01*
X17249047Y-3706228D02*
X15759047Y-3206228D01*
X17249047Y-2706228D01*
X17249047Y-2134800D02*
X17249047Y-1849085D01*
X17178095Y-1706228D01*
X17107142Y-1634800D01*
X16894285Y-1491942D01*
X16610476Y-1420514D01*
X16042857Y-1420514D01*
X15900952Y-1491942D01*
X15830000Y-1563371D01*
X15759047Y-1706228D01*
X15759047Y-1991942D01*
X15830000Y-2134800D01*
X15900952Y-2206228D01*
X16042857Y-2277657D01*
X16397619Y-2277657D01*
X16539523Y-2206228D01*
X16610476Y-2134800D01*
X16681428Y-1991942D01*
X16681428Y-1706228D01*
X16610476Y-1563371D01*
X16539523Y-1491942D01*
X16397619Y-1420514D01*
X19358333Y-3563371D02*
X19358333Y-2849085D01*
X19784047Y-3706228D02*
X18294047Y-3206228D01*
X19784047Y-2706228D01*
X18932619Y-1991942D02*
X18861666Y-2134800D01*
X18790714Y-2206228D01*
X18648809Y-2277657D01*
X18577857Y-2277657D01*
X18435952Y-2206228D01*
X18365000Y-2134800D01*
X18294047Y-1991942D01*
X18294047Y-1706228D01*
X18365000Y-1563371D01*
X18435952Y-1491942D01*
X18577857Y-1420514D01*
X18648809Y-1420514D01*
X18790714Y-1491942D01*
X18861666Y-1563371D01*
X18932619Y-1706228D01*
X18932619Y-1991942D01*
X19003571Y-2134800D01*
X19074523Y-2206228D01*
X19216428Y-2277657D01*
X19500238Y-2277657D01*
X19642142Y-2206228D01*
X19713095Y-2134800D01*
X19784047Y-1991942D01*
X19784047Y-1706228D01*
X19713095Y-1563371D01*
X19642142Y-1491942D01*
X19500238Y-1420514D01*
X19216428Y-1420514D01*
X19074523Y-1491942D01*
X19003571Y-1563371D01*
X18932619Y-1706228D01*
X21893333Y-3563371D02*
X21893333Y-2849085D01*
X22319047Y-3706228D02*
X20829047Y-3206228D01*
X22319047Y-2706228D01*
X20829047Y-2349085D02*
X20829047Y-1349085D01*
X22319047Y-1991942D01*
X24428333Y-3563371D02*
X24428333Y-2849085D01*
X24854047Y-3706228D02*
X23364047Y-3206228D01*
X24854047Y-2706228D01*
X23364047Y-1563371D02*
X23364047Y-1849085D01*
X23435000Y-1991942D01*
X23505952Y-2063371D01*
X23718809Y-2206228D01*
X24002619Y-2277657D01*
X24570238Y-2277657D01*
X24712142Y-2206228D01*
X24783095Y-2134800D01*
X24854047Y-1991942D01*
X24854047Y-1706228D01*
X24783095Y-1563371D01*
X24712142Y-1491942D01*
X24570238Y-1420514D01*
X24215476Y-1420514D01*
X24073571Y-1491942D01*
X24002619Y-1563371D01*
X23931666Y-1706228D01*
X23931666Y-1991942D01*
X24002619Y-2134800D01*
X24073571Y-2206228D01*
X24215476Y-2277657D01*
X26963333Y-3563371D02*
X26963333Y-2849085D01*
X27389047Y-3706228D02*
X25899047Y-3206228D01*
X27389047Y-2706228D01*
X25899047Y-1491942D02*
X25899047Y-2206228D01*
X26608571Y-2277657D01*
X26537619Y-2206228D01*
X26466666Y-2063371D01*
X26466666Y-1706228D01*
X26537619Y-1563371D01*
X26608571Y-1491942D01*
X26750476Y-1420514D01*
X27105238Y-1420514D01*
X27247142Y-1491942D01*
X27318095Y-1563371D01*
X27389047Y-1706228D01*
X27389047Y-2063371D01*
X27318095Y-2206228D01*
X27247142Y-2277657D01*
X29498333Y-3563371D02*
X29498333Y-2849085D01*
X29924047Y-3706228D02*
X28434047Y-3206228D01*
X29924047Y-2706228D01*
X28930714Y-1563371D02*
X29924047Y-1563371D01*
X28363095Y-1920514D02*
X29427380Y-2277657D01*
X29427380Y-1349085D01*
X32033333Y-3563371D02*
X32033333Y-2849085D01*
X32459047Y-3706228D02*
X30969047Y-3206228D01*
X32459047Y-2706228D01*
X30969047Y-2349085D02*
X30969047Y-1420514D01*
X31536666Y-1920514D01*
X31536666Y-1706228D01*
X31607619Y-1563371D01*
X31678571Y-1491942D01*
X31820476Y-1420514D01*
X32175238Y-1420514D01*
X32317142Y-1491942D01*
X32388095Y-1563371D01*
X32459047Y-1706228D01*
X32459047Y-2134800D01*
X32388095Y-2277657D01*
X32317142Y-2349085D01*
X34568333Y-3563371D02*
X34568333Y-2849085D01*
X34994047Y-3706228D02*
X33504047Y-3206228D01*
X34994047Y-2706228D01*
X33645952Y-2277657D02*
X33575000Y-2206228D01*
X33504047Y-2063371D01*
X33504047Y-1706228D01*
X33575000Y-1563371D01*
X33645952Y-1491942D01*
X33787857Y-1420514D01*
X33929761Y-1420514D01*
X34142619Y-1491942D01*
X34994047Y-2349085D01*
X34994047Y-1420514D01*
X37103333Y-3563371D02*
X37103333Y-2849085D01*
X37529047Y-3706228D02*
X36039047Y-3206228D01*
X37529047Y-2706228D01*
X37529047Y-1420514D02*
X37529047Y-2277657D01*
X37529047Y-1849085D02*
X36039047Y-1849085D01*
X36251904Y-1991942D01*
X36393809Y-2134800D01*
X36464761Y-2277657D01*
X39638333Y-3563371D02*
X39638333Y-2849085D01*
X40064047Y-3706228D02*
X38574047Y-3206228D01*
X40064047Y-2706228D01*
X38574047Y-1920514D02*
X38574047Y-1777657D01*
X38645000Y-1634800D01*
X38715952Y-1563371D01*
X38857857Y-1491942D01*
X39141666Y-1420514D01*
X39496428Y-1420514D01*
X39780238Y-1491942D01*
X39922142Y-1563371D01*
X39993095Y-1634800D01*
X40064047Y-1777657D01*
X40064047Y-1920514D01*
X39993095Y-2063371D01*
X39922142Y-2134800D01*
X39780238Y-2206228D01*
X39496428Y-2277657D01*
X39141666Y-2277657D01*
X38857857Y-2206228D01*
X38715952Y-2134800D01*
X38645000Y-2063371D01*
X38574047Y-1920514D01*
X41180000Y-4206228D02*
X41109047Y-4349085D01*
X41109047Y-4563371D01*
X41180000Y-4777657D01*
X41321904Y-4920514D01*
X41463809Y-4991942D01*
X41747619Y-5063371D01*
X41960476Y-5063371D01*
X42244285Y-4991942D01*
X42386190Y-4920514D01*
X42528095Y-4777657D01*
X42599047Y-4563371D01*
X42599047Y-4420514D01*
X42528095Y-4206228D01*
X42457142Y-4134800D01*
X41960476Y-4134800D01*
X41960476Y-4420514D01*
X41605714Y-3491942D02*
X42599047Y-3491942D01*
X41747619Y-3491942D02*
X41676666Y-3420514D01*
X41605714Y-3277657D01*
X41605714Y-3063371D01*
X41676666Y-2920514D01*
X41818571Y-2849085D01*
X42599047Y-2849085D01*
X42599047Y-1491942D02*
X41109047Y-1491942D01*
X42528095Y-1491942D02*
X42599047Y-1634800D01*
X42599047Y-1920514D01*
X42528095Y-2063371D01*
X42457142Y-2134800D01*
X42315238Y-2206228D01*
X41889523Y-2206228D01*
X41747619Y-2134800D01*
X41676666Y-2063371D01*
X41605714Y-1920514D01*
X41605714Y-1634800D01*
X41676666Y-1491942D01*
X43644047Y-2634800D02*
X43644047Y-3349085D01*
X44353571Y-3420514D01*
X44282619Y-3349085D01*
X44211666Y-3206228D01*
X44211666Y-2849085D01*
X44282619Y-2706228D01*
X44353571Y-2634800D01*
X44495476Y-2563371D01*
X44850238Y-2563371D01*
X44992142Y-2634800D01*
X45063095Y-2706228D01*
X45134047Y-2849085D01*
X45134047Y-3206228D01*
X45063095Y-3349085D01*
X44992142Y-3420514D01*
X44140714Y-2063371D02*
X45134047Y-1706228D01*
X44140714Y-1349085D01*
X47669047Y-3920514D02*
X46179047Y-3920514D01*
X47243333Y-3420514D01*
X46179047Y-2920514D01*
X47669047Y-2920514D01*
X47669047Y-1420514D02*
X47669047Y-2277657D01*
X47669047Y-1849085D02*
X46179047Y-1849085D01*
X46391904Y-1991942D01*
X46533809Y-2134800D01*
X46604761Y-2277657D01*
X50204047Y-6063371D02*
X49494523Y-6563371D01*
X50204047Y-6920514D02*
X48714047Y-6920514D01*
X48714047Y-6349085D01*
X48785000Y-6206228D01*
X48855952Y-6134800D01*
X48997857Y-6063371D01*
X49210714Y-6063371D01*
X49352619Y-6134800D01*
X49423571Y-6206228D01*
X49494523Y-6349085D01*
X49494523Y-6920514D01*
X50133095Y-4849085D02*
X50204047Y-4991942D01*
X50204047Y-5277657D01*
X50133095Y-5420514D01*
X49991190Y-5491942D01*
X49423571Y-5491942D01*
X49281666Y-5420514D01*
X49210714Y-5277657D01*
X49210714Y-4991942D01*
X49281666Y-4849085D01*
X49423571Y-4777657D01*
X49565476Y-4777657D01*
X49707380Y-5491942D01*
X50133095Y-4206228D02*
X50204047Y-4063371D01*
X50204047Y-3777657D01*
X50133095Y-3634800D01*
X49991190Y-3563371D01*
X49920238Y-3563371D01*
X49778333Y-3634800D01*
X49707380Y-3777657D01*
X49707380Y-3991942D01*
X49636428Y-4134800D01*
X49494523Y-4206228D01*
X49423571Y-4206228D01*
X49281666Y-4134800D01*
X49210714Y-3991942D01*
X49210714Y-3777657D01*
X49281666Y-3634800D01*
X50133095Y-2349085D02*
X50204047Y-2491942D01*
X50204047Y-2777657D01*
X50133095Y-2920514D01*
X49991190Y-2991942D01*
X49423571Y-2991942D01*
X49281666Y-2920514D01*
X49210714Y-2777657D01*
X49210714Y-2491942D01*
X49281666Y-2349085D01*
X49423571Y-2277657D01*
X49565476Y-2277657D01*
X49707380Y-2991942D01*
X49210714Y-1849085D02*
X49210714Y-1277657D01*
X48714047Y-1634800D02*
X49991190Y-1634800D01*
X50133095Y-1563371D01*
X50204047Y-1420514D01*
X50204047Y-1277657D01*
X52597142Y-6063371D02*
X52668095Y-6134800D01*
X52739047Y-6349085D01*
X52739047Y-6491942D01*
X52668095Y-6706228D01*
X52526190Y-6849085D01*
X52384285Y-6920514D01*
X52100476Y-6991942D01*
X51887619Y-6991942D01*
X51603809Y-6920514D01*
X51461904Y-6849085D01*
X51320000Y-6706228D01*
X51249047Y-6491942D01*
X51249047Y-6349085D01*
X51320000Y-6134800D01*
X51390952Y-6063371D01*
X52739047Y-5206228D02*
X52668095Y-5349085D01*
X52526190Y-5420514D01*
X51249047Y-5420514D01*
X52739047Y-4420514D02*
X52668095Y-4563371D01*
X52597142Y-4634800D01*
X52455238Y-4706228D01*
X52029523Y-4706228D01*
X51887619Y-4634800D01*
X51816666Y-4563371D01*
X51745714Y-4420514D01*
X51745714Y-4206228D01*
X51816666Y-4063371D01*
X51887619Y-3991942D01*
X52029523Y-3920514D01*
X52455238Y-3920514D01*
X52597142Y-3991942D01*
X52668095Y-4063371D01*
X52739047Y-4206228D01*
X52739047Y-4420514D01*
X52668095Y-2634800D02*
X52739047Y-2777657D01*
X52739047Y-3063371D01*
X52668095Y-3206228D01*
X52597142Y-3277657D01*
X52455238Y-3349085D01*
X52029523Y-3349085D01*
X51887619Y-3277657D01*
X51816666Y-3206228D01*
X51745714Y-3063371D01*
X51745714Y-2777657D01*
X51816666Y-2634800D01*
X52739047Y-1991942D02*
X51249047Y-1991942D01*
X52171428Y-1849085D02*
X52739047Y-1420514D01*
X51745714Y-1420514D02*
X52313333Y-1991942D01*
X55274047Y-4206228D02*
X53784047Y-4206228D01*
X55274047Y-3491942D02*
X53784047Y-3491942D01*
X55274047Y-2634800D01*
X53784047Y-2634800D01*
X53784047Y-2134800D02*
X53784047Y-1277657D01*
X55274047Y-1706228D02*
X53784047Y-1706228D01*
X57809047Y-6063371D02*
X56319047Y-6063371D01*
X57383333Y-5563371D01*
X56319047Y-5063371D01*
X57809047Y-5063371D01*
X57809047Y-4349085D02*
X56815714Y-4349085D01*
X57099523Y-4349085D02*
X56957619Y-4277657D01*
X56886666Y-4206228D01*
X56815714Y-4063371D01*
X56815714Y-3920514D01*
X57738095Y-2849085D02*
X57809047Y-2991942D01*
X57809047Y-3277657D01*
X57738095Y-3420514D01*
X57596190Y-3491942D01*
X57028571Y-3491942D01*
X56886666Y-3420514D01*
X56815714Y-3277657D01*
X56815714Y-2991942D01*
X56886666Y-2849085D01*
X57028571Y-2777657D01*
X57170476Y-2777657D01*
X57312380Y-3491942D01*
X56815714Y-1491942D02*
X58305714Y-1491942D01*
X57738095Y-1491942D02*
X57809047Y-1634800D01*
X57809047Y-1920514D01*
X57738095Y-2063371D01*
X57667142Y-2134800D01*
X57525238Y-2206228D01*
X57099523Y-2206228D01*
X56957619Y-2134800D01*
X56886666Y-2063371D01*
X56815714Y-1920514D01*
X56815714Y-1634800D01*
X56886666Y-1491942D01*
X58854047Y-3563371D02*
X60344047Y-3206228D01*
X59279761Y-2920514D01*
X60344047Y-2634800D01*
X58854047Y-2277657D01*
X60344047Y-1706228D02*
X59350714Y-1706228D01*
X59634523Y-1706228D02*
X59492619Y-1634800D01*
X59421666Y-1563371D01*
X59350714Y-1420514D01*
X59350714Y-1277657D01*
X62879047Y-2777657D02*
X62169523Y-3277657D01*
X62879047Y-3634800D02*
X61389047Y-3634800D01*
X61389047Y-3063371D01*
X61460000Y-2920514D01*
X61530952Y-2849085D01*
X61672857Y-2777657D01*
X61885714Y-2777657D01*
X62027619Y-2849085D01*
X62098571Y-2920514D01*
X62169523Y-3063371D01*
X62169523Y-3634800D01*
X62879047Y-1920514D02*
X62808095Y-2063371D01*
X62737142Y-2134800D01*
X62595238Y-2206228D01*
X62169523Y-2206228D01*
X62027619Y-2134800D01*
X61956666Y-2063371D01*
X61885714Y-1920514D01*
X61885714Y-1706228D01*
X61956666Y-1563371D01*
X62027619Y-1491942D01*
X62169523Y-1420514D01*
X62595238Y-1420514D01*
X62737142Y-1491942D01*
X62808095Y-1563371D01*
X62879047Y-1706228D01*
X62879047Y-1920514D01*
X65414047Y-6134800D02*
X63924047Y-6134800D01*
X63924047Y-5134800D02*
X63924047Y-4849085D01*
X63995000Y-4706228D01*
X64136904Y-4563371D01*
X64420714Y-4491942D01*
X64917380Y-4491942D01*
X65201190Y-4563371D01*
X65343095Y-4706228D01*
X65414047Y-4849085D01*
X65414047Y-5134800D01*
X65343095Y-5277657D01*
X65201190Y-5420514D01*
X64917380Y-5491942D01*
X64420714Y-5491942D01*
X64136904Y-5420514D01*
X63995000Y-5277657D01*
X63924047Y-5134800D01*
X65414047Y-2991942D02*
X64704523Y-3491942D01*
X65414047Y-3849085D02*
X63924047Y-3849085D01*
X63924047Y-3277657D01*
X63995000Y-3134800D01*
X64065952Y-3063371D01*
X64207857Y-2991942D01*
X64420714Y-2991942D01*
X64562619Y-3063371D01*
X64633571Y-3134800D01*
X64704523Y-3277657D01*
X64704523Y-3849085D01*
X65555952Y-1349085D02*
X65485000Y-1491942D01*
X65343095Y-1634800D01*
X65130238Y-1849085D01*
X65059285Y-1991942D01*
X65059285Y-2134800D01*
X65414047Y-2063371D02*
X65343095Y-2206228D01*
X65201190Y-2349085D01*
X64917380Y-2420514D01*
X64420714Y-2420514D01*
X64136904Y-2349085D01*
X63995000Y-2206228D01*
X63924047Y-2063371D01*
X63924047Y-1777657D01*
X63995000Y-1634800D01*
X64136904Y-1491942D01*
X64420714Y-1420514D01*
X64917380Y-1420514D01*
X65201190Y-1491942D01*
X65343095Y-1634800D01*
X65414047Y-1777657D01*
X65414047Y-2063371D01*
X67949047Y-3706228D02*
X66459047Y-3706228D01*
X66459047Y-3349085D01*
X66530000Y-3134800D01*
X66671904Y-2991942D01*
X66813809Y-2920514D01*
X67097619Y-2849085D01*
X67310476Y-2849085D01*
X67594285Y-2920514D01*
X67736190Y-2991942D01*
X67878095Y-3134800D01*
X67949047Y-3349085D01*
X67949047Y-3706228D01*
X66459047Y-1920514D02*
X66459047Y-1777657D01*
X66530000Y-1634800D01*
X66600952Y-1563371D01*
X66742857Y-1491942D01*
X67026666Y-1420514D01*
X67381428Y-1420514D01*
X67665238Y-1491942D01*
X67807142Y-1563371D01*
X67878095Y-1634800D01*
X67949047Y-1777657D01*
X67949047Y-1920514D01*
X67878095Y-2063371D01*
X67807142Y-2134800D01*
X67665238Y-2206228D01*
X67381428Y-2277657D01*
X67026666Y-2277657D01*
X66742857Y-2206228D01*
X66600952Y-2134800D01*
X66530000Y-2063371D01*
X66459047Y-1920514D01*
X70484047Y-3706228D02*
X68994047Y-3706228D01*
X68994047Y-3349085D01*
X69065000Y-3134800D01*
X69206904Y-2991942D01*
X69348809Y-2920514D01*
X69632619Y-2849085D01*
X69845476Y-2849085D01*
X70129285Y-2920514D01*
X70271190Y-2991942D01*
X70413095Y-3134800D01*
X70484047Y-3349085D01*
X70484047Y-3706228D01*
X70484047Y-1420514D02*
X70484047Y-2277657D01*
X70484047Y-1849085D02*
X68994047Y-1849085D01*
X69206904Y-1991942D01*
X69348809Y-2134800D01*
X69419761Y-2277657D01*
X73019047Y-3706228D02*
X71529047Y-3706228D01*
X71529047Y-3349085D01*
X71600000Y-3134800D01*
X71741904Y-2991942D01*
X71883809Y-2920514D01*
X72167619Y-2849085D01*
X72380476Y-2849085D01*
X72664285Y-2920514D01*
X72806190Y-2991942D01*
X72948095Y-3134800D01*
X73019047Y-3349085D01*
X73019047Y-3706228D01*
X71670952Y-2277657D02*
X71600000Y-2206228D01*
X71529047Y-2063371D01*
X71529047Y-1706228D01*
X71600000Y-1563371D01*
X71670952Y-1491942D01*
X71812857Y-1420514D01*
X71954761Y-1420514D01*
X72167619Y-1491942D01*
X73019047Y-2349085D01*
X73019047Y-1420514D01*
X75554047Y-3706228D02*
X74064047Y-3706228D01*
X74064047Y-3349085D01*
X74135000Y-3134800D01*
X74276904Y-2991942D01*
X74418809Y-2920514D01*
X74702619Y-2849085D01*
X74915476Y-2849085D01*
X75199285Y-2920514D01*
X75341190Y-2991942D01*
X75483095Y-3134800D01*
X75554047Y-3349085D01*
X75554047Y-3706228D01*
X74064047Y-2349085D02*
X74064047Y-1420514D01*
X74631666Y-1920514D01*
X74631666Y-1706228D01*
X74702619Y-1563371D01*
X74773571Y-1491942D01*
X74915476Y-1420514D01*
X75270238Y-1420514D01*
X75412142Y-1491942D01*
X75483095Y-1563371D01*
X75554047Y-1706228D01*
X75554047Y-2134800D01*
X75483095Y-2277657D01*
X75412142Y-2349085D01*
X78089047Y-3706228D02*
X76599047Y-3706228D01*
X76599047Y-3349085D01*
X76670000Y-3134800D01*
X76811904Y-2991942D01*
X76953809Y-2920514D01*
X77237619Y-2849085D01*
X77450476Y-2849085D01*
X77734285Y-2920514D01*
X77876190Y-2991942D01*
X78018095Y-3134800D01*
X78089047Y-3349085D01*
X78089047Y-3706228D01*
X77095714Y-1563371D02*
X78089047Y-1563371D01*
X76528095Y-1920514D02*
X77592380Y-2277657D01*
X77592380Y-1349085D01*
X80624047Y-3706228D02*
X79134047Y-3706228D01*
X79134047Y-3349085D01*
X79205000Y-3134800D01*
X79346904Y-2991942D01*
X79488809Y-2920514D01*
X79772619Y-2849085D01*
X79985476Y-2849085D01*
X80269285Y-2920514D01*
X80411190Y-2991942D01*
X80553095Y-3134800D01*
X80624047Y-3349085D01*
X80624047Y-3706228D01*
X79134047Y-1491942D02*
X79134047Y-2206228D01*
X79843571Y-2277657D01*
X79772619Y-2206228D01*
X79701666Y-2063371D01*
X79701666Y-1706228D01*
X79772619Y-1563371D01*
X79843571Y-1491942D01*
X79985476Y-1420514D01*
X80340238Y-1420514D01*
X80482142Y-1491942D01*
X80553095Y-1563371D01*
X80624047Y-1706228D01*
X80624047Y-2063371D01*
X80553095Y-2206228D01*
X80482142Y-2277657D01*
X83159047Y-3706228D02*
X81669047Y-3706228D01*
X81669047Y-3349085D01*
X81740000Y-3134800D01*
X81881904Y-2991942D01*
X82023809Y-2920514D01*
X82307619Y-2849085D01*
X82520476Y-2849085D01*
X82804285Y-2920514D01*
X82946190Y-2991942D01*
X83088095Y-3134800D01*
X83159047Y-3349085D01*
X83159047Y-3706228D01*
X81669047Y-1563371D02*
X81669047Y-1849085D01*
X81740000Y-1991942D01*
X81810952Y-2063371D01*
X82023809Y-2206228D01*
X82307619Y-2277657D01*
X82875238Y-2277657D01*
X83017142Y-2206228D01*
X83088095Y-2134800D01*
X83159047Y-1991942D01*
X83159047Y-1706228D01*
X83088095Y-1563371D01*
X83017142Y-1491942D01*
X82875238Y-1420514D01*
X82520476Y-1420514D01*
X82378571Y-1491942D01*
X82307619Y-1563371D01*
X82236666Y-1706228D01*
X82236666Y-1991942D01*
X82307619Y-2134800D01*
X82378571Y-2206228D01*
X82520476Y-2277657D01*
X85694047Y-3706228D02*
X84204047Y-3706228D01*
X84204047Y-3349085D01*
X84275000Y-3134800D01*
X84416904Y-2991942D01*
X84558809Y-2920514D01*
X84842619Y-2849085D01*
X85055476Y-2849085D01*
X85339285Y-2920514D01*
X85481190Y-2991942D01*
X85623095Y-3134800D01*
X85694047Y-3349085D01*
X85694047Y-3706228D01*
X84204047Y-2349085D02*
X84204047Y-1349085D01*
X85694047Y-1991942D01*
X86739047Y-3349085D02*
X86739047Y-2491942D01*
X88229047Y-2920514D02*
X86739047Y-2920514D01*
X88229047Y-2134800D02*
X87235714Y-1349085D01*
X87235714Y-2134800D02*
X88229047Y-1349085D01*
X90764047Y-2634800D02*
X90054523Y-3134800D01*
X90764047Y-3491942D02*
X89274047Y-3491942D01*
X89274047Y-2920514D01*
X89345000Y-2777657D01*
X89415952Y-2706228D01*
X89557857Y-2634800D01*
X89770714Y-2634800D01*
X89912619Y-2706228D01*
X89983571Y-2777657D01*
X90054523Y-2920514D01*
X90054523Y-3491942D01*
X90764047Y-2134800D02*
X89770714Y-1349085D01*
X89770714Y-2134800D02*
X90764047Y-1349085D01*
X91809047Y-6706228D02*
X93015238Y-6706228D01*
X93157142Y-6634800D01*
X93228095Y-6563371D01*
X93299047Y-6420514D01*
X93299047Y-6134800D01*
X93228095Y-5991942D01*
X93157142Y-5920514D01*
X93015238Y-5849085D01*
X91809047Y-5849085D01*
X93228095Y-5206228D02*
X93299047Y-4991942D01*
X93299047Y-4634800D01*
X93228095Y-4491942D01*
X93157142Y-4420514D01*
X93015238Y-4349085D01*
X92873333Y-4349085D01*
X92731428Y-4420514D01*
X92660476Y-4491942D01*
X92589523Y-4634800D01*
X92518571Y-4920514D01*
X92447619Y-5063371D01*
X92376666Y-5134800D01*
X92234761Y-5206228D01*
X92092857Y-5206228D01*
X91950952Y-5134800D01*
X91880000Y-5063371D01*
X91809047Y-4920514D01*
X91809047Y-4563371D01*
X91880000Y-4349085D01*
X93299047Y-2849085D02*
X92589523Y-3349085D01*
X93299047Y-3706228D02*
X91809047Y-3706228D01*
X91809047Y-3134800D01*
X91880000Y-2991942D01*
X91950952Y-2920514D01*
X92092857Y-2849085D01*
X92305714Y-2849085D01*
X92447619Y-2920514D01*
X92518571Y-2991942D01*
X92589523Y-3134800D01*
X92589523Y-3706228D01*
X93299047Y-1420514D02*
X93299047Y-2277657D01*
X93299047Y-1849085D02*
X91809047Y-1849085D01*
X92021904Y-1991942D01*
X92163809Y-2134800D01*
X92234761Y-2277657D01*
X94344047Y-6706228D02*
X95550238Y-6706228D01*
X95692142Y-6634800D01*
X95763095Y-6563371D01*
X95834047Y-6420514D01*
X95834047Y-6134800D01*
X95763095Y-5991942D01*
X95692142Y-5920514D01*
X95550238Y-5849085D01*
X94344047Y-5849085D01*
X95763095Y-5206228D02*
X95834047Y-4991942D01*
X95834047Y-4634800D01*
X95763095Y-4491942D01*
X95692142Y-4420514D01*
X95550238Y-4349085D01*
X95408333Y-4349085D01*
X95266428Y-4420514D01*
X95195476Y-4491942D01*
X95124523Y-4634800D01*
X95053571Y-4920514D01*
X94982619Y-5063371D01*
X94911666Y-5134800D01*
X94769761Y-5206228D01*
X94627857Y-5206228D01*
X94485952Y-5134800D01*
X94415000Y-5063371D01*
X94344047Y-4920514D01*
X94344047Y-4563371D01*
X94415000Y-4349085D01*
X95834047Y-2849085D02*
X95124523Y-3349085D01*
X95834047Y-3706228D02*
X94344047Y-3706228D01*
X94344047Y-3134800D01*
X94415000Y-2991942D01*
X94485952Y-2920514D01*
X94627857Y-2849085D01*
X94840714Y-2849085D01*
X94982619Y-2920514D01*
X95053571Y-2991942D01*
X95124523Y-3134800D01*
X95124523Y-3706228D01*
X94485952Y-2277657D02*
X94415000Y-2206228D01*
X94344047Y-2063371D01*
X94344047Y-1706228D01*
X94415000Y-1563371D01*
X94485952Y-1491942D01*
X94627857Y-1420514D01*
X94769761Y-1420514D01*
X94982619Y-1491942D01*
X95834047Y-2349085D01*
X95834047Y-1420514D01*
X96879047Y-6706228D02*
X98085238Y-6706228D01*
X98227142Y-6634800D01*
X98298095Y-6563371D01*
X98369047Y-6420514D01*
X98369047Y-6134800D01*
X98298095Y-5991942D01*
X98227142Y-5920514D01*
X98085238Y-5849085D01*
X96879047Y-5849085D01*
X98298095Y-5206228D02*
X98369047Y-4991942D01*
X98369047Y-4634800D01*
X98298095Y-4491942D01*
X98227142Y-4420514D01*
X98085238Y-4349085D01*
X97943333Y-4349085D01*
X97801428Y-4420514D01*
X97730476Y-4491942D01*
X97659523Y-4634800D01*
X97588571Y-4920514D01*
X97517619Y-5063371D01*
X97446666Y-5134800D01*
X97304761Y-5206228D01*
X97162857Y-5206228D01*
X97020952Y-5134800D01*
X96950000Y-5063371D01*
X96879047Y-4920514D01*
X96879047Y-4563371D01*
X96950000Y-4349085D01*
X98369047Y-2849085D02*
X97659523Y-3349085D01*
X98369047Y-3706228D02*
X96879047Y-3706228D01*
X96879047Y-3134800D01*
X96950000Y-2991942D01*
X97020952Y-2920514D01*
X97162857Y-2849085D01*
X97375714Y-2849085D01*
X97517619Y-2920514D01*
X97588571Y-2991942D01*
X97659523Y-3134800D01*
X97659523Y-3706228D01*
X96879047Y-2349085D02*
X96879047Y-1420514D01*
X97446666Y-1920514D01*
X97446666Y-1706228D01*
X97517619Y-1563371D01*
X97588571Y-1491942D01*
X97730476Y-1420514D01*
X98085238Y-1420514D01*
X98227142Y-1491942D01*
X98298095Y-1563371D01*
X98369047Y-1706228D01*
X98369047Y-2134800D01*
X98298095Y-2277657D01*
X98227142Y-2349085D01*
D12*
X2743200Y4947920D02*
X2743200Y233680D01*
X1173480Y4947920D02*
X2743200Y4947920D01*
X-7620Y3766820D02*
X1173480Y4947920D01*
X-7620Y233680D02*
X-7620Y3766820D01*
D11*
X2207651Y4251272D02*
X2207651Y3394129D01*
X2207651Y3822700D02*
X707651Y3822700D01*
X921937Y3679843D01*
X1064794Y3536986D01*
X1136222Y3394129D01*
D13*
%TO.C,U2*%
X86725000Y25790200D02*
G75*
G02*
X84725000Y25790200I-1000000J0D01*
G01*
X84725000Y25790200D02*
X83475000Y25790200D01*
X83475000Y25790200D02*
X83475000Y7890200D01*
X83475000Y7890200D02*
X87975000Y7890200D01*
X87975000Y7890200D02*
X87975000Y25790200D01*
X87975000Y25790200D02*
X86725000Y25790200D01*
D14*
%TO.C,J3*%
X15748000Y14808200D02*
X62992000Y14808200D01*
X15748000Y40398700D02*
X62992000Y40398700D01*
X62992000Y40398700D02*
X62992000Y14808200D01*
X15748000Y14808200D02*
X15748000Y40398700D01*
D13*
%TO.C,J1*%
X-60000Y270200D02*
X-60000Y1600200D01*
X1270000Y270200D02*
X-60000Y270200D01*
X2540000Y270200D02*
X2540000Y2930200D01*
X2540000Y2930200D02*
X99120000Y2930200D01*
X2540000Y270200D02*
X99120000Y270200D01*
X99120000Y270200D02*
X99120000Y2930200D01*
%TO.C,C4*%
X38575000Y3410200D02*
X37950000Y3410200D01*
X40790000Y3410200D02*
X40165000Y3410200D01*
X38575000Y7450200D02*
X37950000Y7450200D01*
X40790000Y7450200D02*
X40165000Y7450200D01*
X37950000Y7450200D02*
X37950000Y3410200D01*
X40790000Y7450200D02*
X40790000Y3410200D01*
%TO.C,C3*%
X64420000Y8571200D02*
X64420000Y9829200D01*
X62580000Y8571200D02*
X62580000Y9829200D01*
%TO.C,C2*%
X88914000Y29190200D02*
X87656000Y29190200D01*
X88914000Y27350200D02*
X87656000Y27350200D01*
%TO.C,C1*%
X10809000Y29190200D02*
X9551000Y29190200D01*
X10809000Y27350200D02*
X9551000Y27350200D01*
%TO.C,RN1*%
X12830000Y40970200D02*
X10030000Y40970200D01*
X12830000Y30640200D02*
X12830000Y43680200D01*
X10030000Y30640200D02*
X12830000Y30640200D01*
X10030000Y43680200D02*
X10030000Y30640200D01*
X12830000Y43680200D02*
X10030000Y43680200D01*
%TO.C,R1*%
X89435000Y33890200D02*
X89765000Y33890200D01*
X89435000Y40430200D02*
X89435000Y33890200D01*
X89765000Y40430200D02*
X89435000Y40430200D01*
X92175000Y33890200D02*
X91845000Y33890200D01*
X92175000Y40430200D02*
X92175000Y33890200D01*
X91845000Y40430200D02*
X92175000Y40430200D01*
%TO.C,D1*%
X90515000Y44970200D02*
X90515000Y44814200D01*
X90515000Y47286200D02*
X90515000Y47130200D01*
X93116130Y44970363D02*
G75*
G02*
X91034039Y44970200I-1041130J1079837D01*
G01*
X93116130Y47130037D02*
G75*
G03*
X91034039Y47130200I-1041130J-1079837D01*
G01*
X93747335Y44971592D02*
G75*
G02*
X90515000Y44814684I-1672335J1078608D01*
G01*
X93747335Y47128808D02*
G75*
G03*
X90515000Y47285716I-1672335J-1078608D01*
G01*
%TO.C,U3*%
X70850000Y6620200D02*
X72100000Y6620200D01*
X72100000Y6620200D02*
X72100000Y32140200D01*
X72100000Y32140200D02*
X67600000Y32140200D01*
X67600000Y32140200D02*
X67600000Y6620200D01*
X67600000Y6620200D02*
X68850000Y6620200D01*
X68850000Y6620200D02*
G75*
G02*
X70850000Y6620200I1000000J0D01*
G01*
%TO.C,U1*%
X6620000Y27060200D02*
X5370000Y27060200D01*
X5370000Y27060200D02*
X5370000Y6620200D01*
X5370000Y6620200D02*
X9870000Y6620200D01*
X9870000Y6620200D02*
X9870000Y27060200D01*
X9870000Y27060200D02*
X8620000Y27060200D01*
X8620000Y27060200D02*
G75*
G02*
X6620000Y27060200I-1000000J0D01*
G01*
%TO.C,J2*%
X40580000Y2810200D02*
X40580000Y4140200D01*
X41910000Y2810200D02*
X40580000Y2810200D01*
X43180000Y2810200D02*
X43180000Y5470200D01*
X43180000Y5470200D02*
X66100000Y5470200D01*
X43180000Y2810200D02*
X66100000Y2810200D01*
X66100000Y2810200D02*
X66100000Y5470200D01*
%TD*%
D14*
%TO.C,*%
X6630000Y33350200D02*
G75*
G03*
X6630000Y33350200I-1550000J0D01*
G01*
%TD*%
%TO.C,U2*%
D10*
X84963095Y27337820D02*
X84963095Y26528296D01*
X85010714Y26433058D01*
X85058333Y26385439D01*
X85153571Y26337820D01*
X85344047Y26337820D01*
X85439285Y26385439D01*
X85486904Y26433058D01*
X85534523Y26528296D01*
X85534523Y27337820D01*
X85963095Y27242581D02*
X86010714Y27290200D01*
X86105952Y27337820D01*
X86344047Y27337820D01*
X86439285Y27290200D01*
X86486904Y27242581D01*
X86534523Y27147343D01*
X86534523Y27052105D01*
X86486904Y26909248D01*
X85915476Y26337820D01*
X86534523Y26337820D01*
%TO.C,C4*%
X37187142Y5263534D02*
X37234761Y5215915D01*
X37282380Y5073058D01*
X37282380Y4977820D01*
X37234761Y4834962D01*
X37139523Y4739724D01*
X37044285Y4692105D01*
X36853809Y4644486D01*
X36710952Y4644486D01*
X36520476Y4692105D01*
X36425238Y4739724D01*
X36330000Y4834962D01*
X36282380Y4977820D01*
X36282380Y5073058D01*
X36330000Y5215915D01*
X36377619Y5263534D01*
X36615714Y6120677D02*
X37282380Y6120677D01*
X36234761Y5882581D02*
X36949047Y5644486D01*
X36949047Y6263534D01*
%TO.C,C3*%
X61807142Y9033534D02*
X61854761Y8985915D01*
X61902380Y8843058D01*
X61902380Y8747820D01*
X61854761Y8604962D01*
X61759523Y8509724D01*
X61664285Y8462105D01*
X61473809Y8414486D01*
X61330952Y8414486D01*
X61140476Y8462105D01*
X61045238Y8509724D01*
X60950000Y8604962D01*
X60902380Y8747820D01*
X60902380Y8843058D01*
X60950000Y8985915D01*
X60997619Y9033534D01*
X60902380Y9366867D02*
X60902380Y9985915D01*
X61283333Y9652581D01*
X61283333Y9795439D01*
X61330952Y9890677D01*
X61378571Y9938296D01*
X61473809Y9985915D01*
X61711904Y9985915D01*
X61807142Y9938296D01*
X61854761Y9890677D01*
X61902380Y9795439D01*
X61902380Y9509724D01*
X61854761Y9414486D01*
X61807142Y9366867D01*
%TO.C,C2*%
X88098333Y29818058D02*
X88050714Y29770439D01*
X87907857Y29722820D01*
X87812619Y29722820D01*
X87669761Y29770439D01*
X87574523Y29865677D01*
X87526904Y29960915D01*
X87479285Y30151391D01*
X87479285Y30294248D01*
X87526904Y30484724D01*
X87574523Y30579962D01*
X87669761Y30675200D01*
X87812619Y30722820D01*
X87907857Y30722820D01*
X88050714Y30675200D01*
X88098333Y30627581D01*
X88479285Y30627581D02*
X88526904Y30675200D01*
X88622142Y30722820D01*
X88860238Y30722820D01*
X88955476Y30675200D01*
X89003095Y30627581D01*
X89050714Y30532343D01*
X89050714Y30437105D01*
X89003095Y30294248D01*
X88431666Y29722820D01*
X89050714Y29722820D01*
%TO.C,C1*%
X8723333Y29818058D02*
X8675714Y29770439D01*
X8532857Y29722820D01*
X8437619Y29722820D01*
X8294761Y29770439D01*
X8199523Y29865677D01*
X8151904Y29960915D01*
X8104285Y30151391D01*
X8104285Y30294248D01*
X8151904Y30484724D01*
X8199523Y30579962D01*
X8294761Y30675200D01*
X8437619Y30722820D01*
X8532857Y30722820D01*
X8675714Y30675200D01*
X8723333Y30627581D01*
X9675714Y29722820D02*
X9104285Y29722820D01*
X9390000Y29722820D02*
X9390000Y30722820D01*
X9294761Y30579962D01*
X9199523Y30484724D01*
X9104285Y30437105D01*
%TO.C,RN1*%
X9342380Y36469724D02*
X8866190Y36136391D01*
X9342380Y35898296D02*
X8342380Y35898296D01*
X8342380Y36279248D01*
X8390000Y36374486D01*
X8437619Y36422105D01*
X8532857Y36469724D01*
X8675714Y36469724D01*
X8770952Y36422105D01*
X8818571Y36374486D01*
X8866190Y36279248D01*
X8866190Y35898296D01*
X9342380Y36898296D02*
X8342380Y36898296D01*
X9342380Y37469724D01*
X8342380Y37469724D01*
X9342380Y38469724D02*
X9342380Y37898296D01*
X9342380Y38184010D02*
X8342380Y38184010D01*
X8485238Y38088772D01*
X8580476Y37993534D01*
X8628095Y37898296D01*
%TO.C,R1*%
X88717380Y36993534D02*
X88241190Y36660200D01*
X88717380Y36422105D02*
X87717380Y36422105D01*
X87717380Y36803058D01*
X87765000Y36898296D01*
X87812619Y36945915D01*
X87907857Y36993534D01*
X88050714Y36993534D01*
X88145952Y36945915D01*
X88193571Y36898296D01*
X88241190Y36803058D01*
X88241190Y36422105D01*
X88717380Y37945915D02*
X88717380Y37374486D01*
X88717380Y37660200D02*
X87717380Y37660200D01*
X87860238Y37564962D01*
X87955476Y37469724D01*
X88003095Y37374486D01*
%TO.C,D1*%
X88717380Y45312105D02*
X87717380Y45312105D01*
X87717380Y45550200D01*
X87765000Y45693058D01*
X87860238Y45788296D01*
X87955476Y45835915D01*
X88145952Y45883534D01*
X88288809Y45883534D01*
X88479285Y45835915D01*
X88574523Y45788296D01*
X88669761Y45693058D01*
X88717380Y45550200D01*
X88717380Y45312105D01*
X88717380Y46835915D02*
X88717380Y46264486D01*
X88717380Y46550200D02*
X87717380Y46550200D01*
X87860238Y46454962D01*
X87955476Y46359724D01*
X88003095Y46264486D01*
%TO.C,U3*%
X69088095Y5957820D02*
X69088095Y5148296D01*
X69135714Y5053058D01*
X69183333Y5005439D01*
X69278571Y4957820D01*
X69469047Y4957820D01*
X69564285Y5005439D01*
X69611904Y5053058D01*
X69659523Y5148296D01*
X69659523Y5957820D01*
X70040476Y5957820D02*
X70659523Y5957820D01*
X70326190Y5576867D01*
X70469047Y5576867D01*
X70564285Y5529248D01*
X70611904Y5481629D01*
X70659523Y5386391D01*
X70659523Y5148296D01*
X70611904Y5053058D01*
X70564285Y5005439D01*
X70469047Y4957820D01*
X70183333Y4957820D01*
X70088095Y5005439D01*
X70040476Y5053058D01*
X69302380Y16118296D02*
X69302380Y16784962D01*
X70302380Y16356391D01*
X69635714Y17594486D02*
X70302380Y17594486D01*
X69254761Y17356391D02*
X69969047Y17118296D01*
X69969047Y17737343D01*
X70302380Y18118296D02*
X69302380Y18118296D01*
X69778571Y18118296D02*
X69778571Y18689724D01*
X70302380Y18689724D02*
X69302380Y18689724D01*
X70207142Y19737343D02*
X70254761Y19689724D01*
X70302380Y19546867D01*
X70302380Y19451629D01*
X70254761Y19308772D01*
X70159523Y19213534D01*
X70064285Y19165915D01*
X69873809Y19118296D01*
X69730952Y19118296D01*
X69540476Y19165915D01*
X69445238Y19213534D01*
X69350000Y19308772D01*
X69302380Y19451629D01*
X69302380Y19546867D01*
X69350000Y19689724D01*
X69397619Y19737343D01*
X69397619Y20118296D02*
X69350000Y20165915D01*
X69302380Y20261153D01*
X69302380Y20499248D01*
X69350000Y20594486D01*
X69397619Y20642105D01*
X69492857Y20689724D01*
X69588095Y20689724D01*
X69730952Y20642105D01*
X70302380Y20070677D01*
X70302380Y20689724D01*
X69635714Y21546867D02*
X70302380Y21546867D01*
X69254761Y21308772D02*
X69969047Y21070677D01*
X69969047Y21689724D01*
X69302380Y22546867D02*
X69302380Y22070677D01*
X69778571Y22023058D01*
X69730952Y22070677D01*
X69683333Y22165915D01*
X69683333Y22404010D01*
X69730952Y22499248D01*
X69778571Y22546867D01*
X69873809Y22594486D01*
X70111904Y22594486D01*
X70207142Y22546867D01*
X70254761Y22499248D01*
X70302380Y22404010D01*
X70302380Y22165915D01*
X70254761Y22070677D01*
X70207142Y22023058D01*
%TO.C,U1*%
X6858095Y5957820D02*
X6858095Y5148296D01*
X6905714Y5053058D01*
X6953333Y5005439D01*
X7048571Y4957820D01*
X7239047Y4957820D01*
X7334285Y5005439D01*
X7381904Y5053058D01*
X7429523Y5148296D01*
X7429523Y5957820D01*
X8429523Y4957820D02*
X7858095Y4957820D01*
X8143809Y4957820D02*
X8143809Y5957820D01*
X8048571Y5814962D01*
X7953333Y5719724D01*
X7858095Y5672105D01*
X7072380Y12768772D02*
X7072380Y13435439D01*
X8072380Y13006867D01*
X7405714Y14244962D02*
X8072380Y14244962D01*
X7024761Y14006867D02*
X7739047Y13768772D01*
X7739047Y14387820D01*
X7786666Y14721153D02*
X7786666Y15197343D01*
X8072380Y14625915D02*
X7072380Y14959248D01*
X8072380Y15292581D01*
X8072380Y15625915D02*
X7072380Y15625915D01*
X7548571Y15625915D02*
X7548571Y16197343D01*
X8072380Y16197343D02*
X7072380Y16197343D01*
X7977142Y17244962D02*
X8024761Y17197343D01*
X8072380Y17054486D01*
X8072380Y16959248D01*
X8024761Y16816391D01*
X7929523Y16721153D01*
X7834285Y16673534D01*
X7643809Y16625915D01*
X7500952Y16625915D01*
X7310476Y16673534D01*
X7215238Y16721153D01*
X7120000Y16816391D01*
X7072380Y16959248D01*
X7072380Y17054486D01*
X7120000Y17197343D01*
X7167619Y17244962D01*
X7072380Y17530677D02*
X7072380Y18102105D01*
X8072380Y17816391D02*
X7072380Y17816391D01*
X8072380Y18959248D02*
X8072380Y18387820D01*
X8072380Y18673534D02*
X7072380Y18673534D01*
X7215238Y18578296D01*
X7310476Y18483058D01*
X7358095Y18387820D01*
X7072380Y19292581D02*
X7072380Y19911629D01*
X7453333Y19578296D01*
X7453333Y19721153D01*
X7500952Y19816391D01*
X7548571Y19864010D01*
X7643809Y19911629D01*
X7881904Y19911629D01*
X7977142Y19864010D01*
X8024761Y19816391D01*
X8072380Y19721153D01*
X8072380Y19435439D01*
X8024761Y19340200D01*
X7977142Y19292581D01*
X7500952Y20483058D02*
X7453333Y20387820D01*
X7405714Y20340200D01*
X7310476Y20292581D01*
X7262857Y20292581D01*
X7167619Y20340200D01*
X7120000Y20387820D01*
X7072380Y20483058D01*
X7072380Y20673534D01*
X7120000Y20768772D01*
X7167619Y20816391D01*
X7262857Y20864010D01*
X7310476Y20864010D01*
X7405714Y20816391D01*
X7453333Y20768772D01*
X7500952Y20673534D01*
X7500952Y20483058D01*
X7548571Y20387820D01*
X7596190Y20340200D01*
X7691428Y20292581D01*
X7881904Y20292581D01*
X7977142Y20340200D01*
X8024761Y20387820D01*
X8072380Y20483058D01*
X8072380Y20673534D01*
X8024761Y20768772D01*
X7977142Y20816391D01*
X7881904Y20864010D01*
X7691428Y20864010D01*
X7596190Y20816391D01*
X7548571Y20768772D01*
X7500952Y20673534D01*
%TD*%
M02*
