M48
; DRILL file {KiCad (5.1.6)-1} date 12/24/20 00:42:50
; FORMAT={-:-/ absolute / inch / decimal}
; #@! TF.CreationDate,2020-12-24T00:42:50-08:00
; #@! TF.GenerationSoftware,Kicad,Pcbnew,(5.1.6)-1
; #@! TF.FileFunction,Plated,1,2,PTH
FMAT,2
INCH
T1C0.0157
T2C0.0236
T3C0.0315
T4C0.0354
T5C0.0394
%
G90
G05
T1
X0.6Y0.813
X0.6Y0.633
X0.6625Y0.363
X0.7Y0.398
X0.7Y0.3005
X0.9Y0.553
X1.025Y0.513
X1.025Y0.238
X1.075Y0.513
X1.125Y0.513
X1.175Y0.3128
X1.2375Y0.138
X1.25Y0.2878
X1.25Y0.613
X1.2752Y0.2253
X1.375Y0.313
X1.45Y0.6505
X1.515Y0.2155
X1.725Y0.238
X1.75Y0.263
X1.825Y0.513
X1.8738Y0.313
X1.875Y0.513
X1.925Y0.513
X1.975Y0.513
X2.025Y0.513
X2.075Y0.513
X2.2Y0.3755
X2.3375Y1.113
X2.6125Y1.313
X2.675Y0.863
X2.75Y0.213
X2.775Y0.313
X2.8375Y1.388
X3.1Y1.388
X3.225Y0.238
X3.3Y1.688
X3.3Y0.163
X3.325Y0.138
X3.375Y0.663
X3.375Y0.388
X3.375Y0.213
X3.4Y0.113
X3.675Y1.613
T2
X0.6375Y0.438
X1.65Y0.263
T3
X3.4266Y1.113
X3.525Y1.113
X0.15Y1.013
X0.15Y0.913
X0.15Y0.813
X0.15Y0.713
X0.15Y0.613
X0.15Y0.513
X0.15Y0.413
X0.15Y0.313
X0.45Y1.013
X0.45Y0.913
X0.45Y0.813
X0.45Y0.713
X0.45Y0.613
X0.45Y0.513
X0.45Y0.413
X0.45Y0.313
X2.6Y1.213
X2.6Y1.113
X2.6Y1.013
X2.6Y0.913
X2.6Y0.813
X2.6Y0.713
X2.6Y0.613
X2.6Y0.513
X2.6Y0.413
X2.6Y0.313
X2.9Y1.213
X2.9Y1.113
X2.9Y1.013
X2.9Y0.913
X2.9Y0.813
X2.9Y0.713
X2.9Y0.613
X2.9Y0.513
X2.9Y0.413
X2.9Y0.313
X3.225Y0.963
X3.225Y0.863
X3.225Y0.763
X3.225Y0.663
X3.225Y0.563
X3.225Y0.463
X3.225Y0.363
X3.525Y0.963
X3.525Y0.863
X3.525Y0.763
X3.525Y0.663
X3.525Y0.563
X3.525Y0.463
X3.525Y0.363
X2.5Y0.4114
X2.5Y0.313
X0.3516Y1.113
X0.45Y1.113
X3.575Y1.613
X3.575Y1.313
T4
X3.575Y1.813
X3.675Y1.813
T5
X0.05Y0.063
X0.15Y0.063
X0.25Y0.063
X0.35Y0.063
X0.45Y0.063
X0.55Y0.063
X0.65Y0.063
X0.75Y0.063
X0.85Y0.063
X0.95Y0.063
X1.05Y0.063
X1.15Y0.063
X1.25Y0.063
X1.35Y0.063
X1.45Y0.063
X1.55Y0.063
X1.65Y0.063
X1.75Y0.063
X1.85Y0.063
X1.95Y0.063
X2.05Y0.063
X2.15Y0.063
X2.25Y0.063
X2.35Y0.063
X2.45Y0.063
X2.55Y0.063
X2.65Y0.063
X2.75Y0.063
X2.85Y0.063
X2.95Y0.063
X3.05Y0.063
X3.15Y0.063
X3.25Y0.063
X3.35Y0.063
X3.45Y0.063
X3.55Y0.063
X3.65Y0.063
X3.75Y0.063
X3.85Y0.063
X1.65Y0.163
X1.75Y0.163
X1.85Y0.163
X1.95Y0.163
X2.05Y0.163
X2.15Y0.163
X2.25Y0.163
X2.35Y0.163
X2.45Y0.163
X2.55Y0.163
T0
M30
