%TF.GenerationSoftware,KiCad,Pcbnew,(5.1.6)-1*%
%TF.CreationDate,2021-01-19T23:52:39-08:00*%
%TF.ProjectId,rc-cfcard,72632d63-6663-4617-9264-2e6b69636164,rev?*%
%TF.SameCoordinates,PX9157080PY9071968*%
%TF.FileFunction,Copper,L1,Top*%
%TF.FilePolarity,Positive*%
%FSLAX46Y46*%
G04 Gerber Fmt 4.6, Leading zero omitted, Abs format (unit mm)*
G04 Created by KiCad (PCBNEW (5.1.6)-1) date 2021-01-19 23:52:39*
%MOMM*%
%LPD*%
G01*
G04 APERTURE LIST*
%TA.AperFunction,ComponentPad*%
%ADD10O,2.400000X1.600000*%
%TD*%
%TA.AperFunction,ComponentPad*%
%ADD11C,1.000000*%
%TD*%
%TA.AperFunction,ComponentPad*%
%ADD12C,3.556000*%
%TD*%
%TA.AperFunction,ComponentPad*%
%ADD13O,1.700000X1.700000*%
%TD*%
%TA.AperFunction,ComponentPad*%
%ADD14C,1.600000*%
%TD*%
%TA.AperFunction,ComponentPad*%
%ADD15O,1.600000X1.600000*%
%TD*%
%TA.AperFunction,ComponentPad*%
%ADD16C,1.800000*%
%TD*%
%TA.AperFunction,ComponentPad*%
%ADD17C,1.700000*%
%TD*%
%TA.AperFunction,ViaPad*%
%ADD18C,0.600000*%
%TD*%
%TA.AperFunction,ViaPad*%
%ADD19C,0.900001*%
%TD*%
%TA.AperFunction,Conductor*%
%ADD20C,0.635000*%
%TD*%
%TA.AperFunction,Conductor*%
%ADD21C,0.200000*%
%TD*%
G04 APERTURE END LIST*
D10*
%TO.P,U2,14*%
%TO.N,+5V*%
X89535000Y24460200D03*
%TO.P,U2,7*%
%TO.N,GND*%
X81915000Y9220200D03*
%TO.P,U2,13*%
%TO.N,~RD*%
X89535000Y21920200D03*
%TO.P,U2,6*%
%TO.N,~IOCS*%
X81915000Y11760200D03*
%TO.P,U2,12*%
X89535000Y19380200D03*
%TO.P,U2,5*%
%TO.N,~CFCS*%
X81915000Y14300200D03*
%TO.P,U2,11*%
%TO.N,~IORD*%
X89535000Y16840200D03*
%TO.P,U2,4*%
%TO.N,~IOREQ*%
X81915000Y16840200D03*
%TO.P,U2,10*%
%TO.N,~IOCS*%
X89535000Y14300200D03*
%TO.P,U2,3*%
%TO.N,Net-(U2-Pad3)*%
X81915000Y19380200D03*
%TO.P,U2,9*%
%TO.N,~WR*%
X89535000Y11760200D03*
%TO.P,U2,2*%
%TO.N,GND*%
X81915000Y21920200D03*
%TO.P,U2,8*%
%TO.N,~IOWR*%
X89535000Y9220200D03*
%TO.P,U2,1*%
%TO.N,GND*%
%TA.AperFunction,ComponentPad*%
G36*
G01*
X80715000Y24060200D02*
X80715000Y24860200D01*
G75*
G02*
X81115000Y25260200I400000J0D01*
G01*
X82715000Y25260200D01*
G75*
G02*
X83115000Y24860200I0J-400000D01*
G01*
X83115000Y24060200D01*
G75*
G02*
X82715000Y23660200I-400000J0D01*
G01*
X81115000Y23660200D01*
G75*
G02*
X80715000Y24060200I0J400000D01*
G01*
G37*
%TD.AperFunction*%
%TD*%
D11*
%TO.P,J3,1*%
%TO.N,GND*%
X54610000Y9220200D03*
%TO.P,J3,2*%
%TO.N,D3'*%
X53340000Y9220200D03*
%TO.P,J3,3*%
%TO.N,D4'*%
X52070000Y9220200D03*
%TO.P,J3,4*%
%TO.N,D5'*%
X50800000Y9220200D03*
%TO.P,J3,5*%
%TO.N,D6'*%
X49530000Y9220200D03*
%TO.P,J3,6*%
%TO.N,D7'*%
X48260000Y9220200D03*
%TO.P,J3,7*%
%TO.N,~CFCS*%
X46990000Y9220200D03*
%TO.P,J3,8*%
%TO.N,GND*%
X45720000Y9220200D03*
%TO.P,J3,9*%
X44450000Y9220200D03*
%TO.P,J3,10*%
X43180000Y9220200D03*
%TO.P,J3,11*%
X41910000Y9220200D03*
%TO.P,J3,12*%
X40640000Y9220200D03*
%TO.P,J3,13*%
%TO.N,+5V*%
X39370000Y9220200D03*
%TO.P,J3,14*%
%TO.N,GND*%
X38100000Y9220200D03*
%TO.P,J3,15*%
X36830000Y9220200D03*
%TO.P,J3,16*%
X35560000Y9220200D03*
%TO.P,J3,17*%
X34290000Y9220200D03*
%TO.P,J3,18*%
%TO.N,A2*%
X33020000Y9220200D03*
%TO.P,J3,19*%
%TO.N,A1*%
X31750000Y9220200D03*
%TO.P,J3,20*%
%TO.N,A0*%
X30480000Y9220200D03*
%TO.P,J3,21*%
%TO.N,D0'*%
X29210000Y9220200D03*
%TO.P,J3,22*%
%TO.N,D1'*%
X27940000Y9220200D03*
%TO.P,J3,23*%
%TO.N,D2'*%
X26670000Y9220200D03*
%TO.P,J3,24*%
%TO.N,Net-(J3-Pad24)*%
X25400000Y9220200D03*
%TO.P,J3,25*%
%TO.N,Net-(J3-Pad25)*%
X24130000Y9220200D03*
%TO.P,J3,26*%
%TO.N,Net-(J3-Pad26)*%
X54610000Y12395200D03*
%TO.P,J3,27*%
%TO.N,Net-(J3-Pad27)*%
X53340000Y12395200D03*
%TO.P,J3,28*%
%TO.N,Net-(J3-Pad28)*%
X52070000Y12395200D03*
%TO.P,J3,29*%
%TO.N,Net-(J3-Pad29)*%
X50800000Y12395200D03*
%TO.P,J3,30*%
%TO.N,Net-(J3-Pad30)*%
X49530000Y12395200D03*
%TO.P,J3,31*%
%TO.N,Net-(J3-Pad31)*%
X48260000Y12395200D03*
%TO.P,J3,32*%
%TO.N,/~CS1*%
X46990000Y12395200D03*
%TO.P,J3,33*%
%TO.N,Net-(J3-Pad33)*%
X45720000Y12395200D03*
%TO.P,J3,34*%
%TO.N,~IORD*%
X44450000Y12395200D03*
%TO.P,J3,35*%
%TO.N,~IOWR*%
X43180000Y12395200D03*
%TO.P,J3,36*%
%TO.N,/~WE*%
X41910000Y12395200D03*
%TO.P,J3,37*%
%TO.N,Net-(J3-Pad37)*%
X40640000Y12395200D03*
%TO.P,J3,38*%
%TO.N,+5V*%
X39370000Y12395200D03*
%TO.P,J3,39*%
%TO.N,GND*%
X38100000Y12395200D03*
%TO.P,J3,40*%
%TO.N,Net-(J3-Pad40)*%
X36830000Y12395200D03*
%TO.P,J3,41*%
%TO.N,~RESET*%
X35560000Y12395200D03*
%TO.P,J3,42*%
%TO.N,Net-(J3-Pad42)*%
X34290000Y12395200D03*
%TO.P,J3,43*%
%TO.N,Net-(J3-Pad43)*%
X33020000Y12395200D03*
%TO.P,J3,44*%
%TO.N,/~DMACK*%
X31750000Y12395200D03*
%TO.P,J3,45*%
%TO.N,/~ACT*%
X30480000Y12395200D03*
%TO.P,J3,46*%
%TO.N,/~PDIAG*%
X29210000Y12395200D03*
%TO.P,J3,47*%
%TO.N,Net-(J3-Pad47)*%
X27940000Y12395200D03*
%TO.P,J3,48*%
%TO.N,Net-(J3-Pad48)*%
X26670000Y12395200D03*
%TO.P,J3,49*%
%TO.N,Net-(J3-Pad49)*%
X25400000Y12395200D03*
%TO.P,J3,50*%
%TO.N,GND*%
X24130000Y12395200D03*
D12*
%TO.P,J3,MH1*%
%TO.N,N/C*%
X60756800Y17030700D03*
%TO.P,J3,MH2*%
X17983200Y17030700D03*
%TO.P,J3,MH3*%
X60756800Y38112700D03*
%TO.P,J3,MH4*%
X17983200Y38112700D03*
%TD*%
D13*
%TO.P,J1,39*%
%TO.N,Net-(J1-Pad39)*%
X97790000Y1600200D03*
%TO.P,J1,38*%
%TO.N,Net-(J1-Pad38)*%
X95250000Y1600200D03*
%TO.P,J1,37*%
%TO.N,Net-(J1-Pad37)*%
X92710000Y1600200D03*
%TO.P,J1,36*%
%TO.N,Net-(J1-Pad36)*%
X90170000Y1600200D03*
%TO.P,J1,35*%
%TO.N,Net-(J1-Pad35)*%
X87630000Y1600200D03*
%TO.P,J1,34*%
%TO.N,D7*%
X85090000Y1600200D03*
%TO.P,J1,33*%
%TO.N,D6*%
X82550000Y1600200D03*
%TO.P,J1,32*%
%TO.N,D5*%
X80010000Y1600200D03*
%TO.P,J1,31*%
%TO.N,D4*%
X77470000Y1600200D03*
%TO.P,J1,30*%
%TO.N,D3*%
X74930000Y1600200D03*
%TO.P,J1,29*%
%TO.N,D2*%
X72390000Y1600200D03*
%TO.P,J1,28*%
%TO.N,D1*%
X69850000Y1600200D03*
%TO.P,J1,27*%
%TO.N,D0*%
X67310000Y1600200D03*
%TO.P,J1,26*%
%TO.N,~IOREQ*%
X64770000Y1600200D03*
%TO.P,J1,25*%
%TO.N,~RD*%
X62230000Y1600200D03*
%TO.P,J1,24*%
%TO.N,~WR*%
X59690000Y1600200D03*
%TO.P,J1,23*%
%TO.N,Net-(J1-Pad23)*%
X57150000Y1600200D03*
%TO.P,J1,22*%
%TO.N,Net-(J1-Pad22)*%
X54610000Y1600200D03*
%TO.P,J1,21*%
%TO.N,Net-(J1-Pad21)*%
X52070000Y1600200D03*
%TO.P,J1,20*%
%TO.N,~RESET*%
X49530000Y1600200D03*
%TO.P,J1,19*%
%TO.N,~M1*%
X46990000Y1600200D03*
%TO.P,J1,18*%
%TO.N,+5V*%
X44450000Y1600200D03*
%TO.P,J1,17*%
%TO.N,GND*%
X41910000Y1600200D03*
%TO.P,J1,16*%
%TO.N,A0*%
X39370000Y1600200D03*
%TO.P,J1,15*%
%TO.N,A1*%
X36830000Y1600200D03*
%TO.P,J1,14*%
%TO.N,A2*%
X34290000Y1600200D03*
%TO.P,J1,13*%
%TO.N,A3*%
X31750000Y1600200D03*
%TO.P,J1,12*%
%TO.N,A4*%
X29210000Y1600200D03*
%TO.P,J1,11*%
%TO.N,A5*%
X26670000Y1600200D03*
%TO.P,J1,10*%
%TO.N,A6*%
X24130000Y1600200D03*
%TO.P,J1,9*%
%TO.N,A7*%
X21590000Y1600200D03*
%TO.P,J1,8*%
%TO.N,Net-(J1-Pad8)*%
X19050000Y1600200D03*
%TO.P,J1,7*%
%TO.N,Net-(J1-Pad7)*%
X16510000Y1600200D03*
%TO.P,J1,6*%
%TO.N,Net-(J1-Pad6)*%
X13970000Y1600200D03*
%TO.P,J1,5*%
%TO.N,Net-(J1-Pad5)*%
X11430000Y1600200D03*
%TO.P,J1,4*%
%TO.N,Net-(J1-Pad4)*%
X8890000Y1600200D03*
%TO.P,J1,3*%
%TO.N,Net-(J1-Pad3)*%
X6350000Y1600200D03*
%TO.P,J1,2*%
%TO.N,Net-(J1-Pad2)*%
X3810000Y1600200D03*
%TO.P,J1,1*%
%TO.N,Net-(J1-Pad1)*%
%TA.AperFunction,ComponentPad*%
G36*
G01*
X1695000Y750200D02*
X845000Y750200D01*
G75*
G02*
X420000Y1175200I0J425000D01*
G01*
X420000Y2025200D01*
G75*
G02*
X845000Y2450200I425000J0D01*
G01*
X1695000Y2450200D01*
G75*
G02*
X2120000Y2025200I0J-425000D01*
G01*
X2120000Y1175200D01*
G75*
G02*
X1695000Y750200I-425000J0D01*
G01*
G37*
%TD.AperFunction*%
%TD*%
D14*
%TO.P,C4,2*%
%TO.N,GND*%
X39370000Y4180200D03*
%TO.P,C4,1*%
%TO.N,+5V*%
X39370000Y6680200D03*
%TD*%
%TO.P,C3,2*%
%TO.N,GND*%
X63500000Y10450200D03*
%TO.P,C3,1*%
%TO.N,+5V*%
X63500000Y7950200D03*
%TD*%
%TO.P,C2,2*%
%TO.N,GND*%
X87035000Y28270200D03*
%TO.P,C2,1*%
%TO.N,+5V*%
X89535000Y28270200D03*
%TD*%
%TO.P,C1,2*%
%TO.N,GND*%
X8930000Y28270200D03*
%TO.P,C1,1*%
%TO.N,+5V*%
X11430000Y28270200D03*
%TD*%
D15*
%TO.P,RN1,5*%
%TO.N,/~PDIAG*%
X11430000Y32080200D03*
%TO.P,RN1,4*%
%TO.N,/~DMACK*%
X11430000Y34620200D03*
%TO.P,RN1,3*%
%TO.N,/~WE*%
X11430000Y37160200D03*
%TO.P,RN1,2*%
%TO.N,/~CS1*%
X11430000Y39700200D03*
%TO.P,RN1,1*%
%TO.N,+5V*%
%TA.AperFunction,ComponentPad*%
G36*
G01*
X11030000Y43040200D02*
X11830000Y43040200D01*
G75*
G02*
X12230000Y42640200I0J-400000D01*
G01*
X12230000Y41840200D01*
G75*
G02*
X11830000Y41440200I-400000J0D01*
G01*
X11030000Y41440200D01*
G75*
G02*
X10630000Y41840200I0J400000D01*
G01*
X10630000Y42640200D01*
G75*
G02*
X11030000Y43040200I400000J0D01*
G01*
G37*
%TD.AperFunction*%
%TD*%
%TO.P,R1,2*%
%TO.N,/~ACT*%
X90805000Y33350200D03*
D14*
%TO.P,R1,1*%
%TO.N,/~ACT'*%
X90805000Y40970200D03*
%TD*%
D16*
%TO.P,D1,2*%
%TO.N,+5V*%
X93345000Y46050200D03*
%TO.P,D1,1*%
%TO.N,/~ACT'*%
%TA.AperFunction,ComponentPad*%
G36*
G01*
X89905000Y45600200D02*
X89905000Y46500200D01*
G75*
G02*
X90355000Y46950200I450000J0D01*
G01*
X91255000Y46950200D01*
G75*
G02*
X91705000Y46500200I0J-450000D01*
G01*
X91705000Y45600200D01*
G75*
G02*
X91255000Y45150200I-450000J0D01*
G01*
X90355000Y45150200D01*
G75*
G02*
X89905000Y45600200I0J450000D01*
G01*
G37*
%TD.AperFunction*%
%TD*%
D10*
%TO.P,U3,20*%
%TO.N,+5V*%
X66040000Y7950200D03*
%TO.P,U3,10*%
%TO.N,GND*%
X73660000Y30810200D03*
%TO.P,U3,19*%
%TO.N,~IOCS*%
X66040000Y10490200D03*
%TO.P,U3,9*%
%TO.N,D7*%
X73660000Y28270200D03*
%TO.P,U3,18*%
%TO.N,D0'*%
X66040000Y13030200D03*
%TO.P,U3,8*%
%TO.N,D6*%
X73660000Y25730200D03*
%TO.P,U3,17*%
%TO.N,D1'*%
X66040000Y15570200D03*
%TO.P,U3,7*%
%TO.N,D5*%
X73660000Y23190200D03*
%TO.P,U3,16*%
%TO.N,D2'*%
X66040000Y18110200D03*
%TO.P,U3,6*%
%TO.N,D4*%
X73660000Y20650200D03*
%TO.P,U3,15*%
%TO.N,D3'*%
X66040000Y20650200D03*
%TO.P,U3,5*%
%TO.N,D3*%
X73660000Y18110200D03*
%TO.P,U3,14*%
%TO.N,D4'*%
X66040000Y23190200D03*
%TO.P,U3,4*%
%TO.N,D2*%
X73660000Y15570200D03*
%TO.P,U3,13*%
%TO.N,D5'*%
X66040000Y25730200D03*
%TO.P,U3,3*%
%TO.N,D1*%
X73660000Y13030200D03*
%TO.P,U3,12*%
%TO.N,D6'*%
X66040000Y28270200D03*
%TO.P,U3,2*%
%TO.N,D0*%
X73660000Y10490200D03*
%TO.P,U3,11*%
%TO.N,D7'*%
X66040000Y30810200D03*
%TO.P,U3,1*%
%TO.N,~IORD*%
%TA.AperFunction,ComponentPad*%
G36*
G01*
X74860000Y8350200D02*
X74860000Y7550200D01*
G75*
G02*
X74460000Y7150200I-400000J0D01*
G01*
X72860000Y7150200D01*
G75*
G02*
X72460000Y7550200I0J400000D01*
G01*
X72460000Y8350200D01*
G75*
G02*
X72860000Y8750200I400000J0D01*
G01*
X74460000Y8750200D01*
G75*
G02*
X74860000Y8350200I0J-400000D01*
G01*
G37*
%TD.AperFunction*%
%TD*%
%TO.P,U1,16*%
%TO.N,+5V*%
X11430000Y25730200D03*
%TO.P,U1,8*%
%TO.N,GND*%
X3810000Y7950200D03*
%TO.P,U1,15*%
%TO.N,Net-(U1-Pad15)*%
X11430000Y23190200D03*
%TO.P,U1,7*%
%TO.N,Net-(U1-Pad7)*%
X3810000Y10490200D03*
%TO.P,U1,14*%
%TO.N,Net-(U1-Pad14)*%
X11430000Y20650200D03*
%TO.P,U1,6*%
%TO.N,~M1*%
X3810000Y13030200D03*
%TO.P,U1,13*%
%TO.N,~CFCS*%
X11430000Y18110200D03*
%TO.P,U1,5*%
%TO.N,A7*%
X3810000Y15570200D03*
%TO.P,U1,12*%
%TO.N,Net-(U1-Pad12)*%
X11430000Y15570200D03*
%TO.P,U1,4*%
%TO.N,A6*%
X3810000Y18110200D03*
%TO.P,U1,11*%
%TO.N,Net-(U1-Pad11)*%
X11430000Y13030200D03*
%TO.P,U1,3*%
%TO.N,A5*%
X3810000Y20650200D03*
%TO.P,U1,10*%
%TO.N,Net-(U1-Pad10)*%
X11430000Y10490200D03*
%TO.P,U1,2*%
%TO.N,A4*%
X3810000Y23190200D03*
%TO.P,U1,9*%
%TO.N,Net-(U1-Pad9)*%
X11430000Y7950200D03*
%TO.P,U1,1*%
%TO.N,A3*%
%TA.AperFunction,ComponentPad*%
G36*
G01*
X2610000Y25330200D02*
X2610000Y26130200D01*
G75*
G02*
X3010000Y26530200I400000J0D01*
G01*
X4610000Y26530200D01*
G75*
G02*
X5010000Y26130200I0J-400000D01*
G01*
X5010000Y25330200D01*
G75*
G02*
X4610000Y24930200I-400000J0D01*
G01*
X3010000Y24930200D01*
G75*
G02*
X2610000Y25330200I0J400000D01*
G01*
G37*
%TD.AperFunction*%
%TD*%
D13*
%TO.P,J2,10*%
%TO.N,Net-(J2-Pad10)*%
X64770000Y4140200D03*
%TO.P,J2,9*%
%TO.N,Net-(J2-Pad9)*%
X62230000Y4140200D03*
%TO.P,J2,8*%
%TO.N,Net-(J2-Pad8)*%
X59690000Y4140200D03*
%TO.P,J2,7*%
%TO.N,Net-(J2-Pad7)*%
X57150000Y4140200D03*
%TO.P,J2,6*%
%TO.N,Net-(J2-Pad6)*%
X54610000Y4140200D03*
%TO.P,J2,5*%
%TO.N,Net-(J2-Pad5)*%
X52070000Y4140200D03*
%TO.P,J2,4*%
%TO.N,Net-(J2-Pad4)*%
X49530000Y4140200D03*
%TO.P,J2,3*%
%TO.N,Net-(J2-Pad3)*%
X46990000Y4140200D03*
%TO.P,J2,2*%
%TO.N,+5V*%
X44450000Y4140200D03*
D17*
%TO.P,J2,1*%
%TO.N,GND*%
X41910000Y4140200D03*
%TD*%
D18*
%TO.N,~IOREQ*%
X84137500Y2870200D03*
%TO.N,~RD*%
X83502500Y3505200D03*
%TO.N,~WR*%
X82867500Y4140200D03*
%TO.N,~RESET*%
X40005000Y16840200D03*
X56197500Y19380200D03*
X60960000Y19380200D03*
X51435000Y6045200D03*
D19*
%TO.N,+5V*%
X69215000Y15252700D03*
X26670000Y25730200D03*
X44096445Y17828751D03*
D18*
%TO.N,A1*%
X31750000Y7632700D03*
%TO.N,A2*%
X31750000Y6680200D03*
%TO.N,~M1*%
X33020000Y2870200D03*
X38417500Y2870200D03*
X16510000Y11760200D03*
%TO.N,~IOWR*%
X59372500Y10490172D03*
X71754994Y4775200D03*
%TO.N,~IORD*%
X60007500Y11125200D03*
X80645000Y15570200D03*
X72707500Y16840200D03*
%TO.N,/~PDIAG*%
X27940000Y15570200D03*
%TO.N,/~ACT*%
X34290000Y19697700D03*
%TO.N,/~DMACK*%
X31115014Y15570200D03*
%TO.N,/~WE*%
X44132500Y15570200D03*
%TO.N,/~CS1*%
X45720000Y15570200D03*
%TO.N,D2'*%
X54927500Y14617700D03*
%TO.N,D1'*%
X55562500Y13982700D03*
%TO.N,D0'*%
X56197500Y13347700D03*
%TO.N,~CFCS*%
X36195000Y5410200D03*
X33655000Y3505200D03*
X71437500Y14300200D03*
%TO.N,~IOCS*%
X81597500Y5410200D03*
X72390000Y5410200D03*
%TD*%
D20*
%TO.N,GND*%
X38100000Y12395200D02*
X38100000Y9220200D01*
D21*
%TO.N,D7*%
X84455000Y1600200D02*
X80010000Y6045200D01*
X80010000Y6045200D02*
X80010000Y21920200D01*
X85090000Y1600200D02*
X84455000Y1600200D01*
X80010000Y21920200D02*
X73660000Y28270200D01*
%TO.N,D6*%
X79375000Y4457700D02*
X79375000Y20015200D01*
X82550000Y1600200D02*
X82232500Y1600200D01*
X79375000Y20015200D02*
X73660000Y25730200D01*
X82232500Y1600200D02*
X79375000Y4457700D01*
%TO.N,D5*%
X78740000Y2870200D02*
X78740000Y18110200D01*
X78740000Y18110200D02*
X73660000Y23190200D01*
X80010000Y1600200D02*
X78740000Y2870200D01*
%TO.N,D4*%
X77470000Y1600200D02*
X77470000Y2235200D01*
X78105000Y2870200D02*
X78105000Y16205200D01*
X77470000Y2235200D02*
X78105000Y2870200D01*
X78105000Y16205200D02*
X73660000Y20650200D01*
%TO.N,D3*%
X77470000Y14300200D02*
X73660000Y18110200D01*
X77470000Y4140200D02*
X77470000Y14300200D01*
X74930000Y1600200D02*
X77470000Y4140200D01*
%TO.N,D2*%
X73025000Y1600200D02*
X76835000Y5410200D01*
X72390000Y1600200D02*
X73025000Y1600200D01*
X76835000Y5410200D02*
X76835000Y12395200D01*
X76835000Y12395200D02*
X73660000Y15570200D01*
%TO.N,D1*%
X76200000Y10490200D02*
X73660000Y13030200D01*
X70485000Y1600200D02*
X71755000Y2870200D01*
X72390000Y2870200D02*
X76200000Y6680200D01*
X71755000Y2870200D02*
X72390000Y2870200D01*
X69850000Y1600200D02*
X70485000Y1600200D01*
X76200000Y6680200D02*
X76200000Y10490200D01*
%TO.N,D0*%
X69850000Y3505200D02*
X71755000Y3505200D01*
X75565000Y7315200D02*
X75565000Y9220200D01*
X74295000Y10490200D02*
X73660000Y10490200D01*
X67310000Y1600200D02*
X67945000Y1600200D01*
X75565000Y9220200D02*
X74295000Y10490200D01*
X67945000Y1600200D02*
X69850000Y3505200D01*
X71755000Y3505200D02*
X75565000Y7315200D01*
%TO.N,~IOREQ*%
X92710000Y6680200D02*
X88900000Y2870200D01*
X88900000Y2870200D02*
X84137500Y2870200D01*
X92710000Y21285200D02*
X92710000Y6680200D01*
X90805000Y23190200D02*
X92710000Y21285200D01*
X81915000Y16840200D02*
X88265000Y23190200D01*
X88265000Y23190200D02*
X90805000Y23190200D01*
%TO.N,~RD*%
X89535000Y21920200D02*
X92075000Y19380200D01*
X92075000Y19380200D02*
X92075000Y7315200D01*
X92075000Y7315200D02*
X88265000Y3505200D01*
X88265000Y3505200D02*
X83502500Y3505200D01*
%TO.N,~WR*%
X87630000Y4140200D02*
X82867500Y4140200D01*
X89535000Y11760200D02*
X91440000Y9855200D01*
X91440000Y9855200D02*
X91440000Y7950200D01*
X91440000Y7950200D02*
X87630000Y4140200D01*
%TO.N,~RESET*%
X53657500Y16840200D02*
X40005000Y16840200D01*
X56197500Y19380200D02*
X53657500Y16840200D01*
X61648382Y19380200D02*
X62865000Y18163582D01*
X60960000Y19380200D02*
X61648382Y19380200D01*
X62865000Y18163582D02*
X62865000Y15570200D01*
X53340000Y6045200D02*
X51435000Y6045200D01*
X62865000Y15570200D02*
X53340000Y6045200D01*
D20*
%TO.N,+5V*%
X63500000Y7950200D02*
X66040000Y7950200D01*
X11430000Y25730200D02*
X11430000Y28270200D01*
X44450000Y4140200D02*
X41910000Y6680200D01*
X41910000Y6680200D02*
X39370000Y6680200D01*
X89535000Y28270200D02*
X89535000Y24460200D01*
X39370000Y9220200D02*
X39370000Y12385690D01*
D21*
X10160000Y40970200D02*
X11430000Y42240200D01*
X11430000Y28270200D02*
X10160000Y29540200D01*
X10160000Y29540200D02*
X10160000Y40970200D01*
X93345000Y32080200D02*
X89535000Y28270200D01*
X93345000Y46050200D02*
X93345000Y32080200D01*
D20*
X34571449Y17828751D02*
X44096445Y17828751D01*
X26670000Y25730200D02*
X34571449Y17828751D01*
X58665394Y32397700D02*
X44096445Y17828751D01*
X89535000Y28270200D02*
X85407500Y32397700D01*
X85407500Y32397700D02*
X58665394Y32397700D01*
X69215000Y32397700D02*
X69215000Y15252700D01*
D21*
%TO.N,A0*%
X31432500Y8267700D02*
X30480000Y9220200D01*
X32067500Y8267700D02*
X31432500Y8267700D01*
X39370000Y1600200D02*
X38735000Y1600200D01*
X38735000Y1600200D02*
X32067500Y8267700D01*
%TO.N,A1*%
X31750000Y7632700D02*
X31750000Y7632714D01*
X36830000Y1600200D02*
X36830000Y2552700D01*
X36830000Y2552700D02*
X31750000Y7632700D01*
%TO.N,A2*%
X34290000Y1600200D02*
X34290000Y4140200D01*
X34290000Y4140200D02*
X31750000Y6680200D01*
%TO.N,A3*%
X8890000Y18110200D02*
X8890000Y20650200D01*
X10160000Y16840200D02*
X8890000Y18110200D01*
X12382500Y16840200D02*
X10160000Y16840200D01*
X27940000Y5410200D02*
X21590000Y5410200D01*
X8890000Y20650200D02*
X3810000Y25730200D01*
X13970000Y15252700D02*
X12382500Y16840200D01*
X31750000Y1600200D02*
X27940000Y5410200D01*
X21590000Y5410200D02*
X13970000Y13030200D01*
X13970000Y13030200D02*
X13970000Y15252700D01*
%TO.N,A4*%
X8255000Y16205200D02*
X8255000Y18745200D01*
X10160000Y14300200D02*
X8255000Y16205200D01*
X8255000Y18745200D02*
X3810000Y23190200D01*
X12700000Y14300200D02*
X10160000Y14300200D01*
X26035000Y4775200D02*
X20955000Y4775200D01*
X13335000Y13665200D02*
X12700000Y14300200D01*
X29210000Y1600200D02*
X26035000Y4775200D01*
X13335000Y12395200D02*
X13335000Y13665200D01*
X20955000Y4775200D02*
X13335000Y12395200D01*
%TO.N,A5*%
X7620000Y16840200D02*
X3810000Y20650200D01*
X7620000Y14300200D02*
X7620000Y16840200D01*
X24130000Y4140200D02*
X20320000Y4140200D01*
X26670000Y1600200D02*
X24130000Y4140200D01*
X12700000Y11760200D02*
X10160000Y11760200D01*
X20320000Y4140200D02*
X12700000Y11760200D01*
X10160000Y11760200D02*
X7620000Y14300200D01*
%TO.N,A6*%
X6985000Y12395200D02*
X6985000Y14935200D01*
X6985000Y14935200D02*
X3810000Y18110200D01*
X22225000Y3505200D02*
X19685000Y3505200D01*
X24130000Y1600200D02*
X22225000Y3505200D01*
X19685000Y3505200D02*
X13970000Y9220200D01*
X13970000Y9220200D02*
X10160000Y9220200D01*
X10160000Y9220200D02*
X6985000Y12395200D01*
%TO.N,A7*%
X6350000Y13030200D02*
X3810000Y15570200D01*
X6350000Y10807700D02*
X6350000Y13030200D01*
X14287500Y2870200D02*
X6350000Y10807700D01*
X21590000Y1600200D02*
X20320000Y2870200D01*
X20320000Y2870200D02*
X14287500Y2870200D01*
%TO.N,~M1*%
X45720000Y2870200D02*
X38417500Y2870200D01*
X46990000Y1600200D02*
X45720000Y2870200D01*
X29845000Y6045200D02*
X22225000Y6045200D01*
X22225000Y6045200D02*
X16510000Y11760200D01*
X33020000Y2870200D02*
X29845000Y6045200D01*
%TO.N,~IOWR*%
X59372500Y10172686D02*
X59372500Y10490172D01*
X63182486Y6362700D02*
X59372500Y10172686D01*
X71754994Y4775200D02*
X70167494Y6362700D01*
X70167494Y6362700D02*
X63182486Y6362700D01*
%TO.N,~IORD*%
X89535000Y16840200D02*
X88265000Y15570200D01*
X88265000Y15570200D02*
X80645000Y15570200D01*
X72090001Y16222701D02*
X72707500Y16840200D01*
X72090001Y14000201D02*
X72090001Y16222701D01*
X69850000Y11760200D02*
X72090001Y14000201D01*
X73660000Y7950200D02*
X69850000Y11760200D01*
X69850000Y11760200D02*
X60642500Y11760200D01*
X60642500Y11760200D02*
X60007500Y11125200D01*
%TO.N,/~ACT'*%
X90805000Y46050200D02*
X90805000Y40970200D01*
%TO.N,/~PDIAG*%
X11430000Y32080200D02*
X27940000Y15570200D01*
%TO.N,/~ACT*%
X58102500Y33350200D02*
X44450000Y19697700D01*
X44450000Y19697700D02*
X34290000Y19697700D01*
X90805000Y33350200D02*
X58102500Y33350200D01*
%TO.N,/~DMACK*%
X30480000Y15570200D02*
X31115014Y15570200D01*
X11430000Y34620200D02*
X30480000Y15570200D01*
%TO.N,/~WE*%
X11430000Y37160200D02*
X33020000Y15570200D01*
X33020000Y15570200D02*
X44132500Y15570200D01*
%TO.N,/~CS1*%
X45085000Y16205200D02*
X45720000Y15570200D01*
X34925000Y16205200D02*
X45085000Y16205200D01*
X11430000Y39700200D02*
X34925000Y16205200D01*
%TO.N,D2'*%
X23633602Y14617700D02*
X54927500Y14617700D01*
X22377480Y11428823D02*
X22377480Y13361578D01*
X23316103Y10490200D02*
X22377480Y11428823D01*
X26670000Y9220200D02*
X25400000Y10490200D01*
X22377480Y13361578D02*
X23633602Y14617700D01*
X25400000Y10490200D02*
X23316103Y10490200D01*
%TO.N,D1'*%
X23564302Y13982700D02*
X55562500Y13982700D01*
X23481792Y10890211D02*
X22777491Y11594512D01*
X27940000Y9220200D02*
X26269989Y10890211D01*
X26269989Y10890211D02*
X23481792Y10890211D01*
X22777491Y11594512D02*
X22777491Y13195889D01*
X22777491Y13195889D02*
X23564302Y13982700D01*
%TO.N,D0'*%
X23647481Y11290222D02*
X23177502Y11760201D01*
X23495002Y13347700D02*
X56197500Y13347700D01*
X23177502Y11760201D02*
X23177502Y13030200D01*
X29210000Y9220200D02*
X27139978Y11290222D01*
X27139978Y11290222D02*
X23647481Y11290222D01*
X23177502Y13030200D02*
X23495002Y13347700D01*
%TO.N,~CFCS*%
X45720000Y7950200D02*
X46990000Y9220200D01*
X36195000Y5410200D02*
X38735000Y7950200D01*
X38735000Y7950200D02*
X45720000Y7950200D01*
X30480000Y6680200D02*
X33655000Y3505200D01*
X12858750Y18110200D02*
X14605000Y16363950D01*
X11430000Y18110200D02*
X12858750Y18110200D01*
X14605000Y16363950D02*
X14605000Y14935200D01*
X14605000Y14935200D02*
X22860000Y6680200D01*
X22860000Y6680200D02*
X30480000Y6680200D01*
X46990000Y9220200D02*
X50800000Y5410200D01*
X53404498Y5410200D02*
X62294498Y14300200D01*
X50800000Y5410200D02*
X53404498Y5410200D01*
X62294498Y14300200D02*
X66992500Y14300200D01*
X66992500Y14300200D02*
X71437500Y14300200D01*
%TO.N,D7'*%
X55499000Y11379200D02*
X57023000Y12903200D01*
X57023000Y12903200D02*
X57023000Y21793200D01*
X48260000Y9220200D02*
X50419000Y11379200D01*
X50419000Y11379200D02*
X55499000Y11379200D01*
X57023000Y21793200D02*
X66040000Y30810200D01*
%TO.N,D6'*%
X49530000Y9220200D02*
X51288989Y10979189D01*
X55733989Y10979189D02*
X57423011Y12668211D01*
X51288989Y10979189D02*
X55733989Y10979189D01*
X57423011Y12668211D02*
X57423011Y19653211D01*
X57423011Y19653211D02*
X66040000Y28270200D01*
%TO.N,D5'*%
X57823022Y12433222D02*
X57823022Y19100722D01*
X52158978Y10579178D02*
X55968978Y10579178D01*
X55968978Y10579178D02*
X57823022Y12433222D01*
X50800000Y9220200D02*
X52158978Y10579178D01*
X64452500Y25730200D02*
X66040000Y25730200D01*
X57823022Y19100722D02*
X64452500Y25730200D01*
%TO.N,D4'*%
X64640000Y23190200D02*
X66040000Y23190200D01*
X58223033Y12198233D02*
X58223033Y18548233D01*
X53028967Y10179167D02*
X56203967Y10179167D01*
X58223033Y18548233D02*
X62865000Y23190200D01*
X56203967Y10179167D02*
X58223033Y12198233D01*
X52070000Y9220200D02*
X53028967Y10179167D01*
X62865000Y23190200D02*
X64640000Y23190200D01*
%TO.N,D3'*%
X58623200Y18193771D02*
X61079629Y20650200D01*
X58623200Y12014200D02*
X58623200Y18193771D01*
X54940200Y8331200D02*
X58623200Y12014200D01*
X53340000Y9220200D02*
X54229000Y8331200D01*
X54229000Y8331200D02*
X54940200Y8331200D01*
X61079629Y20650200D02*
X66040000Y20650200D01*
%TO.N,~IOCS*%
X66040000Y10490200D02*
X67310000Y10490200D01*
X89535000Y19380200D02*
X91440000Y17475200D01*
X91440000Y17475200D02*
X91440000Y16205200D01*
X91440000Y16205200D02*
X89535000Y14300200D01*
X86995000Y11760200D02*
X89535000Y14300200D01*
X81915000Y11760200D02*
X86995000Y11760200D01*
X86995000Y11760200D02*
X86995000Y10807700D01*
X86995000Y10807700D02*
X81597500Y5410200D01*
X67310000Y10490200D02*
X72390000Y5410200D01*
%TD*%
M02*
