%TF.GenerationSoftware,KiCad,Pcbnew,(5.1.9)-1*%
%TF.CreationDate,2021-02-08T01:07:09-08:00*%
%TF.ProjectId,rc-cfcard,72632d63-6663-4617-9264-2e6b69636164,rev?*%
%TF.SameCoordinates,PX9157080PY9071968*%
%TF.FileFunction,Legend,Top*%
%TF.FilePolarity,Positive*%
%FSLAX46Y46*%
G04 Gerber Fmt 4.6, Leading zero omitted, Abs format (unit mm)*
G04 Created by KiCad (PCBNEW (5.1.9)-1) date 2021-02-08 01:07:09*
%MOMM*%
%LPD*%
G01*
G04 APERTURE LIST*
%ADD10C,0.150000*%
%ADD11C,0.300000*%
%ADD12C,0.200000*%
%ADD13C,0.100000*%
%ADD14C,0.120000*%
G04 APERTURE END LIST*
D10*
X89852500Y47637700D02*
X89852500Y47002700D01*
X89535000Y47320200D02*
X90170000Y47320200D01*
X48108809Y17853177D02*
X48108809Y16946034D01*
X48048333Y16764605D01*
X47927380Y16643653D01*
X47745952Y16583177D01*
X47625000Y16583177D01*
X49318333Y16583177D02*
X48713571Y16583177D01*
X48713571Y17853177D01*
X50467380Y16704129D02*
X50406904Y16643653D01*
X50225476Y16583177D01*
X50104523Y16583177D01*
X49923095Y16643653D01*
X49802142Y16764605D01*
X49741666Y16885558D01*
X49681190Y17127462D01*
X49681190Y17308891D01*
X49741666Y17550796D01*
X49802142Y17671748D01*
X49923095Y17792700D01*
X50104523Y17853177D01*
X50225476Y17853177D01*
X50406904Y17792700D01*
X50467380Y17732224D01*
X51374523Y17853177D02*
X51374523Y16946034D01*
X51314047Y16764605D01*
X51193095Y16643653D01*
X51011666Y16583177D01*
X50890714Y16583177D01*
X52584047Y16583177D02*
X51979285Y16583177D01*
X51979285Y17853177D01*
X53733095Y16704129D02*
X53672619Y16643653D01*
X53491190Y16583177D01*
X53370238Y16583177D01*
X53188809Y16643653D01*
X53067857Y16764605D01*
X53007380Y16885558D01*
X52946904Y17127462D01*
X52946904Y17308891D01*
X53007380Y17550796D01*
X53067857Y17671748D01*
X53188809Y17792700D01*
X53370238Y17853177D01*
X53491190Y17853177D01*
X53672619Y17792700D01*
X53733095Y17732224D01*
X54640238Y17853177D02*
X54640238Y16946034D01*
X54579761Y16764605D01*
X54458809Y16643653D01*
X54277380Y16583177D01*
X54156428Y16583177D01*
X55849761Y16583177D02*
X55245000Y16583177D01*
X55245000Y17853177D01*
X56998809Y16704129D02*
X56938333Y16643653D01*
X56756904Y16583177D01*
X56635952Y16583177D01*
X56454523Y16643653D01*
X56333571Y16764605D01*
X56273095Y16885558D01*
X56212619Y17127462D01*
X56212619Y17308891D01*
X56273095Y17550796D01*
X56333571Y17671748D01*
X56454523Y17792700D01*
X56635952Y17853177D01*
X56756904Y17853177D01*
X56938333Y17792700D01*
X56998809Y17732224D01*
X57905952Y17853177D02*
X57905952Y16946034D01*
X57845476Y16764605D01*
X57724523Y16643653D01*
X57543095Y16583177D01*
X57422142Y16583177D01*
X59115476Y16583177D02*
X58510714Y16583177D01*
X58510714Y17853177D01*
X60264523Y16704129D02*
X60204047Y16643653D01*
X60022619Y16583177D01*
X59901666Y16583177D01*
X59720238Y16643653D01*
X59599285Y16764605D01*
X59538809Y16885558D01*
X59478333Y17127462D01*
X59478333Y17308891D01*
X59538809Y17550796D01*
X59599285Y17671748D01*
X59720238Y17792700D01*
X59901666Y17853177D01*
X60022619Y17853177D01*
X60204047Y17792700D01*
X60264523Y17732224D01*
X91122619Y42708534D02*
X91598809Y42708534D01*
X91027380Y42422820D02*
X91360714Y43422820D01*
X91694047Y42422820D01*
X92455952Y42470439D02*
X92360714Y42422820D01*
X92170238Y42422820D01*
X92075000Y42470439D01*
X92027380Y42518058D01*
X91979761Y42613296D01*
X91979761Y42899010D01*
X92027380Y42994248D01*
X92075000Y43041867D01*
X92170238Y43089486D01*
X92360714Y43089486D01*
X92455952Y43041867D01*
X92741666Y43089486D02*
X93122619Y43089486D01*
X92884523Y43422820D02*
X92884523Y42565677D01*
X92932142Y42470439D01*
X93027380Y42422820D01*
X93122619Y42422820D01*
D11*
X67017142Y46159486D02*
X66945714Y46088058D01*
X66731428Y46016629D01*
X66588571Y46016629D01*
X66374285Y46088058D01*
X66231428Y46230915D01*
X66160000Y46373772D01*
X66088571Y46659486D01*
X66088571Y46873772D01*
X66160000Y47159486D01*
X66231428Y47302343D01*
X66374285Y47445200D01*
X66588571Y47516629D01*
X66731428Y47516629D01*
X66945714Y47445200D01*
X67017142Y47373772D01*
X67874285Y46016629D02*
X67731428Y46088058D01*
X67660000Y46159486D01*
X67588571Y46302343D01*
X67588571Y46730915D01*
X67660000Y46873772D01*
X67731428Y46945200D01*
X67874285Y47016629D01*
X68088571Y47016629D01*
X68231428Y46945200D01*
X68302857Y46873772D01*
X68374285Y46730915D01*
X68374285Y46302343D01*
X68302857Y46159486D01*
X68231428Y46088058D01*
X68088571Y46016629D01*
X67874285Y46016629D01*
X69017142Y46016629D02*
X69017142Y47016629D01*
X69017142Y46873772D02*
X69088571Y46945200D01*
X69231428Y47016629D01*
X69445714Y47016629D01*
X69588571Y46945200D01*
X69660000Y46802343D01*
X69660000Y46016629D01*
X69660000Y46802343D02*
X69731428Y46945200D01*
X69874285Y47016629D01*
X70088571Y47016629D01*
X70231428Y46945200D01*
X70302857Y46802343D01*
X70302857Y46016629D01*
X71017142Y47016629D02*
X71017142Y45516629D01*
X71017142Y46945200D02*
X71160000Y47016629D01*
X71445714Y47016629D01*
X71588571Y46945200D01*
X71660000Y46873772D01*
X71731428Y46730915D01*
X71731428Y46302343D01*
X71660000Y46159486D01*
X71588571Y46088058D01*
X71445714Y46016629D01*
X71160000Y46016629D01*
X71017142Y46088058D01*
X73017142Y46016629D02*
X73017142Y46802343D01*
X72945714Y46945200D01*
X72802857Y47016629D01*
X72517142Y47016629D01*
X72374285Y46945200D01*
X73017142Y46088058D02*
X72874285Y46016629D01*
X72517142Y46016629D01*
X72374285Y46088058D01*
X72302857Y46230915D01*
X72302857Y46373772D01*
X72374285Y46516629D01*
X72517142Y46588058D01*
X72874285Y46588058D01*
X73017142Y46659486D01*
X74374285Y46088058D02*
X74231428Y46016629D01*
X73945714Y46016629D01*
X73802857Y46088058D01*
X73731428Y46159486D01*
X73660000Y46302343D01*
X73660000Y46730915D01*
X73731428Y46873772D01*
X73802857Y46945200D01*
X73945714Y47016629D01*
X74231428Y47016629D01*
X74374285Y46945200D01*
X74802857Y47016629D02*
X75374285Y47016629D01*
X75017142Y47516629D02*
X75017142Y46230915D01*
X75088571Y46088058D01*
X75231428Y46016629D01*
X75374285Y46016629D01*
X76374285Y46802343D02*
X75874285Y46802343D01*
X75874285Y46016629D02*
X75874285Y47516629D01*
X76588571Y47516629D01*
X77374285Y46016629D02*
X77231428Y46088058D01*
X77160000Y46230915D01*
X77160000Y47516629D01*
X78588571Y46016629D02*
X78588571Y46802343D01*
X78517142Y46945200D01*
X78374285Y47016629D01*
X78088571Y47016629D01*
X77945714Y46945200D01*
X78588571Y46088058D02*
X78445714Y46016629D01*
X78088571Y46016629D01*
X77945714Y46088058D01*
X77874285Y46230915D01*
X77874285Y46373772D01*
X77945714Y46516629D01*
X78088571Y46588058D01*
X78445714Y46588058D01*
X78588571Y46659486D01*
X79231428Y46088058D02*
X79374285Y46016629D01*
X79660000Y46016629D01*
X79802857Y46088058D01*
X79874285Y46230915D01*
X79874285Y46302343D01*
X79802857Y46445200D01*
X79660000Y46516629D01*
X79445714Y46516629D01*
X79302857Y46588058D01*
X79231428Y46730915D01*
X79231428Y46802343D01*
X79302857Y46945200D01*
X79445714Y47016629D01*
X79660000Y47016629D01*
X79802857Y46945200D01*
X80517142Y46016629D02*
X80517142Y47516629D01*
X81160000Y46016629D02*
X81160000Y46802343D01*
X81088571Y46945200D01*
X80945714Y47016629D01*
X80731428Y47016629D01*
X80588571Y46945200D01*
X80517142Y46873772D01*
X66588571Y43895200D02*
X67302857Y43895200D01*
X66445714Y43466629D02*
X66945714Y44966629D01*
X67445714Y43466629D01*
X68588571Y43466629D02*
X68588571Y44966629D01*
X68588571Y43538058D02*
X68445714Y43466629D01*
X68160000Y43466629D01*
X68017142Y43538058D01*
X67945714Y43609486D01*
X67874285Y43752343D01*
X67874285Y44180915D01*
X67945714Y44323772D01*
X68017142Y44395200D01*
X68160000Y44466629D01*
X68445714Y44466629D01*
X68588571Y44395200D01*
X69945714Y43466629D02*
X69945714Y44252343D01*
X69874285Y44395200D01*
X69731428Y44466629D01*
X69445714Y44466629D01*
X69302857Y44395200D01*
X69945714Y43538058D02*
X69802857Y43466629D01*
X69445714Y43466629D01*
X69302857Y43538058D01*
X69231428Y43680915D01*
X69231428Y43823772D01*
X69302857Y43966629D01*
X69445714Y44038058D01*
X69802857Y44038058D01*
X69945714Y44109486D01*
X70660000Y44466629D02*
X70660000Y42966629D01*
X70660000Y44395200D02*
X70802857Y44466629D01*
X71088571Y44466629D01*
X71231428Y44395200D01*
X71302857Y44323772D01*
X71374285Y44180915D01*
X71374285Y43752343D01*
X71302857Y43609486D01*
X71231428Y43538058D01*
X71088571Y43466629D01*
X70802857Y43466629D01*
X70660000Y43538058D01*
X71802857Y44466629D02*
X72374285Y44466629D01*
X72017142Y44966629D02*
X72017142Y43680915D01*
X72088571Y43538058D01*
X72231428Y43466629D01*
X72374285Y43466629D01*
X73445714Y43538058D02*
X73302857Y43466629D01*
X73017142Y43466629D01*
X72874285Y43538058D01*
X72802857Y43680915D01*
X72802857Y44252343D01*
X72874285Y44395200D01*
X73017142Y44466629D01*
X73302857Y44466629D01*
X73445714Y44395200D01*
X73517142Y44252343D01*
X73517142Y44109486D01*
X72802857Y43966629D01*
X74160000Y43466629D02*
X74160000Y44466629D01*
X74160000Y44180915D02*
X74231428Y44323772D01*
X74302857Y44395200D01*
X74445714Y44466629D01*
X74588571Y44466629D01*
X77088571Y43609486D02*
X77017142Y43538058D01*
X76802857Y43466629D01*
X76660000Y43466629D01*
X76445714Y43538058D01*
X76302857Y43680915D01*
X76231428Y43823772D01*
X76160000Y44109486D01*
X76160000Y44323772D01*
X76231428Y44609486D01*
X76302857Y44752343D01*
X76445714Y44895200D01*
X76660000Y44966629D01*
X76802857Y44966629D01*
X77017142Y44895200D01*
X77088571Y44823772D01*
X78374285Y43466629D02*
X78374285Y44252343D01*
X78302857Y44395200D01*
X78160000Y44466629D01*
X77874285Y44466629D01*
X77731428Y44395200D01*
X78374285Y43538058D02*
X78231428Y43466629D01*
X77874285Y43466629D01*
X77731428Y43538058D01*
X77660000Y43680915D01*
X77660000Y43823772D01*
X77731428Y43966629D01*
X77874285Y44038058D01*
X78231428Y44038058D01*
X78374285Y44109486D01*
X79088571Y43466629D02*
X79088571Y44466629D01*
X79088571Y44180915D02*
X79160000Y44323772D01*
X79231428Y44395200D01*
X79374285Y44466629D01*
X79517142Y44466629D01*
X80660000Y43466629D02*
X80660000Y44966629D01*
X80660000Y43538058D02*
X80517142Y43466629D01*
X80231428Y43466629D01*
X80088571Y43538058D01*
X80017142Y43609486D01*
X79945714Y43752343D01*
X79945714Y44180915D01*
X80017142Y44323772D01*
X80088571Y44395200D01*
X80231428Y44466629D01*
X80517142Y44466629D01*
X80660000Y44395200D01*
X67445714Y40916629D02*
X67445714Y42416629D01*
X68017142Y42416629D01*
X68160000Y42345200D01*
X68231428Y42273772D01*
X68302857Y42130915D01*
X68302857Y41916629D01*
X68231428Y41773772D01*
X68160000Y41702343D01*
X68017142Y41630915D01*
X67445714Y41630915D01*
X68945714Y40916629D02*
X68945714Y42416629D01*
X69302857Y42416629D01*
X69517142Y42345200D01*
X69660000Y42202343D01*
X69731428Y42059486D01*
X69802857Y41773772D01*
X69802857Y41559486D01*
X69731428Y41273772D01*
X69660000Y41130915D01*
X69517142Y40988058D01*
X69302857Y40916629D01*
X68945714Y40916629D01*
X71231428Y40916629D02*
X70374285Y40916629D01*
X70802857Y40916629D02*
X70802857Y42416629D01*
X70660000Y42202343D01*
X70517142Y42059486D01*
X70374285Y41988058D01*
X72160000Y42416629D02*
X72302857Y42416629D01*
X72445714Y42345200D01*
X72517142Y42273772D01*
X72588571Y42130915D01*
X72660000Y41845200D01*
X72660000Y41488058D01*
X72588571Y41202343D01*
X72517142Y41059486D01*
X72445714Y40988058D01*
X72302857Y40916629D01*
X72160000Y40916629D01*
X72017142Y40988058D01*
X71945714Y41059486D01*
X71874285Y41202343D01*
X71802857Y41488058D01*
X71802857Y41845200D01*
X71874285Y42130915D01*
X71945714Y42273772D01*
X72017142Y42345200D01*
X72160000Y42416629D01*
X74017142Y42416629D02*
X73302857Y42416629D01*
X73231428Y41702343D01*
X73302857Y41773772D01*
X73445714Y41845200D01*
X73802857Y41845200D01*
X73945714Y41773772D01*
X74017142Y41702343D01*
X74088571Y41559486D01*
X74088571Y41202343D01*
X74017142Y41059486D01*
X73945714Y40988058D01*
X73802857Y40916629D01*
X73445714Y40916629D01*
X73302857Y40988058D01*
X73231428Y41059486D01*
X75731428Y41916629D02*
X76088571Y40916629D01*
X76445714Y41916629D01*
X77802857Y40916629D02*
X76945714Y40916629D01*
X77374285Y40916629D02*
X77374285Y42416629D01*
X77231428Y42202343D01*
X77088571Y42059486D01*
X76945714Y41988058D01*
X78445714Y41059486D02*
X78517142Y40988058D01*
X78445714Y40916629D01*
X78374285Y40988058D01*
X78445714Y41059486D01*
X78445714Y40916629D01*
X79945714Y40916629D02*
X79088571Y40916629D01*
X79517142Y40916629D02*
X79517142Y42416629D01*
X79374285Y42202343D01*
X79231428Y42059486D01*
X79088571Y41988058D01*
X1613333Y-4991942D02*
X1613333Y-4277657D01*
X2039047Y-5134800D02*
X549047Y-4634800D01*
X2039047Y-4134800D01*
X2039047Y-2849085D02*
X2039047Y-3706228D01*
X2039047Y-3277657D02*
X549047Y-3277657D01*
X761904Y-3420514D01*
X903809Y-3563371D01*
X974761Y-3706228D01*
X549047Y-1491942D02*
X549047Y-2206228D01*
X1258571Y-2277657D01*
X1187619Y-2206228D01*
X1116666Y-2063371D01*
X1116666Y-1706228D01*
X1187619Y-1563371D01*
X1258571Y-1491942D01*
X1400476Y-1420514D01*
X1755238Y-1420514D01*
X1897142Y-1491942D01*
X1968095Y-1563371D01*
X2039047Y-1706228D01*
X2039047Y-2063371D01*
X1968095Y-2206228D01*
X1897142Y-2277657D01*
X4148333Y-4991942D02*
X4148333Y-4277657D01*
X4574047Y-5134800D02*
X3084047Y-4634800D01*
X4574047Y-4134800D01*
X4574047Y-2849085D02*
X4574047Y-3706228D01*
X4574047Y-3277657D02*
X3084047Y-3277657D01*
X3296904Y-3420514D01*
X3438809Y-3563371D01*
X3509761Y-3706228D01*
X3580714Y-1563371D02*
X4574047Y-1563371D01*
X3013095Y-1920514D02*
X4077380Y-2277657D01*
X4077380Y-1349085D01*
X6683333Y-4991942D02*
X6683333Y-4277657D01*
X7109047Y-5134800D02*
X5619047Y-4634800D01*
X7109047Y-4134800D01*
X7109047Y-2849085D02*
X7109047Y-3706228D01*
X7109047Y-3277657D02*
X5619047Y-3277657D01*
X5831904Y-3420514D01*
X5973809Y-3563371D01*
X6044761Y-3706228D01*
X5619047Y-2349085D02*
X5619047Y-1420514D01*
X6186666Y-1920514D01*
X6186666Y-1706228D01*
X6257619Y-1563371D01*
X6328571Y-1491942D01*
X6470476Y-1420514D01*
X6825238Y-1420514D01*
X6967142Y-1491942D01*
X7038095Y-1563371D01*
X7109047Y-1706228D01*
X7109047Y-2134800D01*
X7038095Y-2277657D01*
X6967142Y-2349085D01*
X9218333Y-4991942D02*
X9218333Y-4277657D01*
X9644047Y-5134800D02*
X8154047Y-4634800D01*
X9644047Y-4134800D01*
X9644047Y-2849085D02*
X9644047Y-3706228D01*
X9644047Y-3277657D02*
X8154047Y-3277657D01*
X8366904Y-3420514D01*
X8508809Y-3563371D01*
X8579761Y-3706228D01*
X8295952Y-2277657D02*
X8225000Y-2206228D01*
X8154047Y-2063371D01*
X8154047Y-1706228D01*
X8225000Y-1563371D01*
X8295952Y-1491942D01*
X8437857Y-1420514D01*
X8579761Y-1420514D01*
X8792619Y-1491942D01*
X9644047Y-2349085D01*
X9644047Y-1420514D01*
X11753333Y-4991942D02*
X11753333Y-4277657D01*
X12179047Y-5134800D02*
X10689047Y-4634800D01*
X12179047Y-4134800D01*
X12179047Y-2849085D02*
X12179047Y-3706228D01*
X12179047Y-3277657D02*
X10689047Y-3277657D01*
X10901904Y-3420514D01*
X11043809Y-3563371D01*
X11114761Y-3706228D01*
X12179047Y-1420514D02*
X12179047Y-2277657D01*
X12179047Y-1849085D02*
X10689047Y-1849085D01*
X10901904Y-1991942D01*
X11043809Y-2134800D01*
X11114761Y-2277657D01*
X14288333Y-4991942D02*
X14288333Y-4277657D01*
X14714047Y-5134800D02*
X13224047Y-4634800D01*
X14714047Y-4134800D01*
X14714047Y-2849085D02*
X14714047Y-3706228D01*
X14714047Y-3277657D02*
X13224047Y-3277657D01*
X13436904Y-3420514D01*
X13578809Y-3563371D01*
X13649761Y-3706228D01*
X13224047Y-1920514D02*
X13224047Y-1777657D01*
X13295000Y-1634800D01*
X13365952Y-1563371D01*
X13507857Y-1491942D01*
X13791666Y-1420514D01*
X14146428Y-1420514D01*
X14430238Y-1491942D01*
X14572142Y-1563371D01*
X14643095Y-1634800D01*
X14714047Y-1777657D01*
X14714047Y-1920514D01*
X14643095Y-2063371D01*
X14572142Y-2134800D01*
X14430238Y-2206228D01*
X14146428Y-2277657D01*
X13791666Y-2277657D01*
X13507857Y-2206228D01*
X13365952Y-2134800D01*
X13295000Y-2063371D01*
X13224047Y-1920514D01*
X16823333Y-3563371D02*
X16823333Y-2849085D01*
X17249047Y-3706228D02*
X15759047Y-3206228D01*
X17249047Y-2706228D01*
X17249047Y-2134800D02*
X17249047Y-1849085D01*
X17178095Y-1706228D01*
X17107142Y-1634800D01*
X16894285Y-1491942D01*
X16610476Y-1420514D01*
X16042857Y-1420514D01*
X15900952Y-1491942D01*
X15830000Y-1563371D01*
X15759047Y-1706228D01*
X15759047Y-1991942D01*
X15830000Y-2134800D01*
X15900952Y-2206228D01*
X16042857Y-2277657D01*
X16397619Y-2277657D01*
X16539523Y-2206228D01*
X16610476Y-2134800D01*
X16681428Y-1991942D01*
X16681428Y-1706228D01*
X16610476Y-1563371D01*
X16539523Y-1491942D01*
X16397619Y-1420514D01*
X19358333Y-3563371D02*
X19358333Y-2849085D01*
X19784047Y-3706228D02*
X18294047Y-3206228D01*
X19784047Y-2706228D01*
X18932619Y-1991942D02*
X18861666Y-2134800D01*
X18790714Y-2206228D01*
X18648809Y-2277657D01*
X18577857Y-2277657D01*
X18435952Y-2206228D01*
X18365000Y-2134800D01*
X18294047Y-1991942D01*
X18294047Y-1706228D01*
X18365000Y-1563371D01*
X18435952Y-1491942D01*
X18577857Y-1420514D01*
X18648809Y-1420514D01*
X18790714Y-1491942D01*
X18861666Y-1563371D01*
X18932619Y-1706228D01*
X18932619Y-1991942D01*
X19003571Y-2134800D01*
X19074523Y-2206228D01*
X19216428Y-2277657D01*
X19500238Y-2277657D01*
X19642142Y-2206228D01*
X19713095Y-2134800D01*
X19784047Y-1991942D01*
X19784047Y-1706228D01*
X19713095Y-1563371D01*
X19642142Y-1491942D01*
X19500238Y-1420514D01*
X19216428Y-1420514D01*
X19074523Y-1491942D01*
X19003571Y-1563371D01*
X18932619Y-1706228D01*
X21893333Y-3563371D02*
X21893333Y-2849085D01*
X22319047Y-3706228D02*
X20829047Y-3206228D01*
X22319047Y-2706228D01*
X20829047Y-2349085D02*
X20829047Y-1349085D01*
X22319047Y-1991942D01*
X24428333Y-3563371D02*
X24428333Y-2849085D01*
X24854047Y-3706228D02*
X23364047Y-3206228D01*
X24854047Y-2706228D01*
X23364047Y-1563371D02*
X23364047Y-1849085D01*
X23435000Y-1991942D01*
X23505952Y-2063371D01*
X23718809Y-2206228D01*
X24002619Y-2277657D01*
X24570238Y-2277657D01*
X24712142Y-2206228D01*
X24783095Y-2134800D01*
X24854047Y-1991942D01*
X24854047Y-1706228D01*
X24783095Y-1563371D01*
X24712142Y-1491942D01*
X24570238Y-1420514D01*
X24215476Y-1420514D01*
X24073571Y-1491942D01*
X24002619Y-1563371D01*
X23931666Y-1706228D01*
X23931666Y-1991942D01*
X24002619Y-2134800D01*
X24073571Y-2206228D01*
X24215476Y-2277657D01*
X26963333Y-3563371D02*
X26963333Y-2849085D01*
X27389047Y-3706228D02*
X25899047Y-3206228D01*
X27389047Y-2706228D01*
X25899047Y-1491942D02*
X25899047Y-2206228D01*
X26608571Y-2277657D01*
X26537619Y-2206228D01*
X26466666Y-2063371D01*
X26466666Y-1706228D01*
X26537619Y-1563371D01*
X26608571Y-1491942D01*
X26750476Y-1420514D01*
X27105238Y-1420514D01*
X27247142Y-1491942D01*
X27318095Y-1563371D01*
X27389047Y-1706228D01*
X27389047Y-2063371D01*
X27318095Y-2206228D01*
X27247142Y-2277657D01*
X29498333Y-3563371D02*
X29498333Y-2849085D01*
X29924047Y-3706228D02*
X28434047Y-3206228D01*
X29924047Y-2706228D01*
X28930714Y-1563371D02*
X29924047Y-1563371D01*
X28363095Y-1920514D02*
X29427380Y-2277657D01*
X29427380Y-1349085D01*
X32033333Y-3563371D02*
X32033333Y-2849085D01*
X32459047Y-3706228D02*
X30969047Y-3206228D01*
X32459047Y-2706228D01*
X30969047Y-2349085D02*
X30969047Y-1420514D01*
X31536666Y-1920514D01*
X31536666Y-1706228D01*
X31607619Y-1563371D01*
X31678571Y-1491942D01*
X31820476Y-1420514D01*
X32175238Y-1420514D01*
X32317142Y-1491942D01*
X32388095Y-1563371D01*
X32459047Y-1706228D01*
X32459047Y-2134800D01*
X32388095Y-2277657D01*
X32317142Y-2349085D01*
X34568333Y-3563371D02*
X34568333Y-2849085D01*
X34994047Y-3706228D02*
X33504047Y-3206228D01*
X34994047Y-2706228D01*
X33645952Y-2277657D02*
X33575000Y-2206228D01*
X33504047Y-2063371D01*
X33504047Y-1706228D01*
X33575000Y-1563371D01*
X33645952Y-1491942D01*
X33787857Y-1420514D01*
X33929761Y-1420514D01*
X34142619Y-1491942D01*
X34994047Y-2349085D01*
X34994047Y-1420514D01*
X37103333Y-3563371D02*
X37103333Y-2849085D01*
X37529047Y-3706228D02*
X36039047Y-3206228D01*
X37529047Y-2706228D01*
X37529047Y-1420514D02*
X37529047Y-2277657D01*
X37529047Y-1849085D02*
X36039047Y-1849085D01*
X36251904Y-1991942D01*
X36393809Y-2134800D01*
X36464761Y-2277657D01*
X39638333Y-3563371D02*
X39638333Y-2849085D01*
X40064047Y-3706228D02*
X38574047Y-3206228D01*
X40064047Y-2706228D01*
X38574047Y-1920514D02*
X38574047Y-1777657D01*
X38645000Y-1634800D01*
X38715952Y-1563371D01*
X38857857Y-1491942D01*
X39141666Y-1420514D01*
X39496428Y-1420514D01*
X39780238Y-1491942D01*
X39922142Y-1563371D01*
X39993095Y-1634800D01*
X40064047Y-1777657D01*
X40064047Y-1920514D01*
X39993095Y-2063371D01*
X39922142Y-2134800D01*
X39780238Y-2206228D01*
X39496428Y-2277657D01*
X39141666Y-2277657D01*
X38857857Y-2206228D01*
X38715952Y-2134800D01*
X38645000Y-2063371D01*
X38574047Y-1920514D01*
X41180000Y-4206228D02*
X41109047Y-4349085D01*
X41109047Y-4563371D01*
X41180000Y-4777657D01*
X41321904Y-4920514D01*
X41463809Y-4991942D01*
X41747619Y-5063371D01*
X41960476Y-5063371D01*
X42244285Y-4991942D01*
X42386190Y-4920514D01*
X42528095Y-4777657D01*
X42599047Y-4563371D01*
X42599047Y-4420514D01*
X42528095Y-4206228D01*
X42457142Y-4134800D01*
X41960476Y-4134800D01*
X41960476Y-4420514D01*
X41605714Y-3491942D02*
X42599047Y-3491942D01*
X41747619Y-3491942D02*
X41676666Y-3420514D01*
X41605714Y-3277657D01*
X41605714Y-3063371D01*
X41676666Y-2920514D01*
X41818571Y-2849085D01*
X42599047Y-2849085D01*
X42599047Y-1491942D02*
X41109047Y-1491942D01*
X42528095Y-1491942D02*
X42599047Y-1634800D01*
X42599047Y-1920514D01*
X42528095Y-2063371D01*
X42457142Y-2134800D01*
X42315238Y-2206228D01*
X41889523Y-2206228D01*
X41747619Y-2134800D01*
X41676666Y-2063371D01*
X41605714Y-1920514D01*
X41605714Y-1634800D01*
X41676666Y-1491942D01*
X43644047Y-2634800D02*
X43644047Y-3349085D01*
X44353571Y-3420514D01*
X44282619Y-3349085D01*
X44211666Y-3206228D01*
X44211666Y-2849085D01*
X44282619Y-2706228D01*
X44353571Y-2634800D01*
X44495476Y-2563371D01*
X44850238Y-2563371D01*
X44992142Y-2634800D01*
X45063095Y-2706228D01*
X45134047Y-2849085D01*
X45134047Y-3206228D01*
X45063095Y-3349085D01*
X44992142Y-3420514D01*
X44140714Y-2063371D02*
X45134047Y-1706228D01*
X44140714Y-1349085D01*
X47669047Y-3920514D02*
X46179047Y-3920514D01*
X47243333Y-3420514D01*
X46179047Y-2920514D01*
X47669047Y-2920514D01*
X47669047Y-1420514D02*
X47669047Y-2277657D01*
X47669047Y-1849085D02*
X46179047Y-1849085D01*
X46391904Y-1991942D01*
X46533809Y-2134800D01*
X46604761Y-2277657D01*
X50204047Y-6063371D02*
X49494523Y-6563371D01*
X50204047Y-6920514D02*
X48714047Y-6920514D01*
X48714047Y-6349085D01*
X48785000Y-6206228D01*
X48855952Y-6134800D01*
X48997857Y-6063371D01*
X49210714Y-6063371D01*
X49352619Y-6134800D01*
X49423571Y-6206228D01*
X49494523Y-6349085D01*
X49494523Y-6920514D01*
X50133095Y-4849085D02*
X50204047Y-4991942D01*
X50204047Y-5277657D01*
X50133095Y-5420514D01*
X49991190Y-5491942D01*
X49423571Y-5491942D01*
X49281666Y-5420514D01*
X49210714Y-5277657D01*
X49210714Y-4991942D01*
X49281666Y-4849085D01*
X49423571Y-4777657D01*
X49565476Y-4777657D01*
X49707380Y-5491942D01*
X50133095Y-4206228D02*
X50204047Y-4063371D01*
X50204047Y-3777657D01*
X50133095Y-3634800D01*
X49991190Y-3563371D01*
X49920238Y-3563371D01*
X49778333Y-3634800D01*
X49707380Y-3777657D01*
X49707380Y-3991942D01*
X49636428Y-4134800D01*
X49494523Y-4206228D01*
X49423571Y-4206228D01*
X49281666Y-4134800D01*
X49210714Y-3991942D01*
X49210714Y-3777657D01*
X49281666Y-3634800D01*
X50133095Y-2349085D02*
X50204047Y-2491942D01*
X50204047Y-2777657D01*
X50133095Y-2920514D01*
X49991190Y-2991942D01*
X49423571Y-2991942D01*
X49281666Y-2920514D01*
X49210714Y-2777657D01*
X49210714Y-2491942D01*
X49281666Y-2349085D01*
X49423571Y-2277657D01*
X49565476Y-2277657D01*
X49707380Y-2991942D01*
X49210714Y-1849085D02*
X49210714Y-1277657D01*
X48714047Y-1634800D02*
X49991190Y-1634800D01*
X50133095Y-1563371D01*
X50204047Y-1420514D01*
X50204047Y-1277657D01*
X52597142Y-6063371D02*
X52668095Y-6134800D01*
X52739047Y-6349085D01*
X52739047Y-6491942D01*
X52668095Y-6706228D01*
X52526190Y-6849085D01*
X52384285Y-6920514D01*
X52100476Y-6991942D01*
X51887619Y-6991942D01*
X51603809Y-6920514D01*
X51461904Y-6849085D01*
X51320000Y-6706228D01*
X51249047Y-6491942D01*
X51249047Y-6349085D01*
X51320000Y-6134800D01*
X51390952Y-6063371D01*
X52739047Y-5206228D02*
X52668095Y-5349085D01*
X52526190Y-5420514D01*
X51249047Y-5420514D01*
X52739047Y-4420514D02*
X52668095Y-4563371D01*
X52597142Y-4634800D01*
X52455238Y-4706228D01*
X52029523Y-4706228D01*
X51887619Y-4634800D01*
X51816666Y-4563371D01*
X51745714Y-4420514D01*
X51745714Y-4206228D01*
X51816666Y-4063371D01*
X51887619Y-3991942D01*
X52029523Y-3920514D01*
X52455238Y-3920514D01*
X52597142Y-3991942D01*
X52668095Y-4063371D01*
X52739047Y-4206228D01*
X52739047Y-4420514D01*
X52668095Y-2634800D02*
X52739047Y-2777657D01*
X52739047Y-3063371D01*
X52668095Y-3206228D01*
X52597142Y-3277657D01*
X52455238Y-3349085D01*
X52029523Y-3349085D01*
X51887619Y-3277657D01*
X51816666Y-3206228D01*
X51745714Y-3063371D01*
X51745714Y-2777657D01*
X51816666Y-2634800D01*
X52739047Y-1991942D02*
X51249047Y-1991942D01*
X52171428Y-1849085D02*
X52739047Y-1420514D01*
X51745714Y-1420514D02*
X52313333Y-1991942D01*
X55274047Y-4206228D02*
X53784047Y-4206228D01*
X55274047Y-3491942D02*
X53784047Y-3491942D01*
X55274047Y-2634800D01*
X53784047Y-2634800D01*
X53784047Y-2134800D02*
X53784047Y-1277657D01*
X55274047Y-1706228D02*
X53784047Y-1706228D01*
X57809047Y-6063371D02*
X56319047Y-6063371D01*
X57383333Y-5563371D01*
X56319047Y-5063371D01*
X57809047Y-5063371D01*
X57809047Y-4349085D02*
X56815714Y-4349085D01*
X57099523Y-4349085D02*
X56957619Y-4277657D01*
X56886666Y-4206228D01*
X56815714Y-4063371D01*
X56815714Y-3920514D01*
X57738095Y-2849085D02*
X57809047Y-2991942D01*
X57809047Y-3277657D01*
X57738095Y-3420514D01*
X57596190Y-3491942D01*
X57028571Y-3491942D01*
X56886666Y-3420514D01*
X56815714Y-3277657D01*
X56815714Y-2991942D01*
X56886666Y-2849085D01*
X57028571Y-2777657D01*
X57170476Y-2777657D01*
X57312380Y-3491942D01*
X56815714Y-1491942D02*
X58305714Y-1491942D01*
X57738095Y-1491942D02*
X57809047Y-1634800D01*
X57809047Y-1920514D01*
X57738095Y-2063371D01*
X57667142Y-2134800D01*
X57525238Y-2206228D01*
X57099523Y-2206228D01*
X56957619Y-2134800D01*
X56886666Y-2063371D01*
X56815714Y-1920514D01*
X56815714Y-1634800D01*
X56886666Y-1491942D01*
X58854047Y-3563371D02*
X60344047Y-3206228D01*
X59279761Y-2920514D01*
X60344047Y-2634800D01*
X58854047Y-2277657D01*
X60344047Y-1706228D02*
X59350714Y-1706228D01*
X59634523Y-1706228D02*
X59492619Y-1634800D01*
X59421666Y-1563371D01*
X59350714Y-1420514D01*
X59350714Y-1277657D01*
X62879047Y-2777657D02*
X62169523Y-3277657D01*
X62879047Y-3634800D02*
X61389047Y-3634800D01*
X61389047Y-3063371D01*
X61460000Y-2920514D01*
X61530952Y-2849085D01*
X61672857Y-2777657D01*
X61885714Y-2777657D01*
X62027619Y-2849085D01*
X62098571Y-2920514D01*
X62169523Y-3063371D01*
X62169523Y-3634800D01*
X62879047Y-1920514D02*
X62808095Y-2063371D01*
X62737142Y-2134800D01*
X62595238Y-2206228D01*
X62169523Y-2206228D01*
X62027619Y-2134800D01*
X61956666Y-2063371D01*
X61885714Y-1920514D01*
X61885714Y-1706228D01*
X61956666Y-1563371D01*
X62027619Y-1491942D01*
X62169523Y-1420514D01*
X62595238Y-1420514D01*
X62737142Y-1491942D01*
X62808095Y-1563371D01*
X62879047Y-1706228D01*
X62879047Y-1920514D01*
X65414047Y-6134800D02*
X63924047Y-6134800D01*
X63924047Y-5134800D02*
X63924047Y-4849085D01*
X63995000Y-4706228D01*
X64136904Y-4563371D01*
X64420714Y-4491942D01*
X64917380Y-4491942D01*
X65201190Y-4563371D01*
X65343095Y-4706228D01*
X65414047Y-4849085D01*
X65414047Y-5134800D01*
X65343095Y-5277657D01*
X65201190Y-5420514D01*
X64917380Y-5491942D01*
X64420714Y-5491942D01*
X64136904Y-5420514D01*
X63995000Y-5277657D01*
X63924047Y-5134800D01*
X65414047Y-2991942D02*
X64704523Y-3491942D01*
X65414047Y-3849085D02*
X63924047Y-3849085D01*
X63924047Y-3277657D01*
X63995000Y-3134800D01*
X64065952Y-3063371D01*
X64207857Y-2991942D01*
X64420714Y-2991942D01*
X64562619Y-3063371D01*
X64633571Y-3134800D01*
X64704523Y-3277657D01*
X64704523Y-3849085D01*
X65555952Y-1349085D02*
X65485000Y-1491942D01*
X65343095Y-1634800D01*
X65130238Y-1849085D01*
X65059285Y-1991942D01*
X65059285Y-2134800D01*
X65414047Y-2063371D02*
X65343095Y-2206228D01*
X65201190Y-2349085D01*
X64917380Y-2420514D01*
X64420714Y-2420514D01*
X64136904Y-2349085D01*
X63995000Y-2206228D01*
X63924047Y-2063371D01*
X63924047Y-1777657D01*
X63995000Y-1634800D01*
X64136904Y-1491942D01*
X64420714Y-1420514D01*
X64917380Y-1420514D01*
X65201190Y-1491942D01*
X65343095Y-1634800D01*
X65414047Y-1777657D01*
X65414047Y-2063371D01*
X67949047Y-3706228D02*
X66459047Y-3706228D01*
X66459047Y-3349085D01*
X66530000Y-3134800D01*
X66671904Y-2991942D01*
X66813809Y-2920514D01*
X67097619Y-2849085D01*
X67310476Y-2849085D01*
X67594285Y-2920514D01*
X67736190Y-2991942D01*
X67878095Y-3134800D01*
X67949047Y-3349085D01*
X67949047Y-3706228D01*
X66459047Y-1920514D02*
X66459047Y-1777657D01*
X66530000Y-1634800D01*
X66600952Y-1563371D01*
X66742857Y-1491942D01*
X67026666Y-1420514D01*
X67381428Y-1420514D01*
X67665238Y-1491942D01*
X67807142Y-1563371D01*
X67878095Y-1634800D01*
X67949047Y-1777657D01*
X67949047Y-1920514D01*
X67878095Y-2063371D01*
X67807142Y-2134800D01*
X67665238Y-2206228D01*
X67381428Y-2277657D01*
X67026666Y-2277657D01*
X66742857Y-2206228D01*
X66600952Y-2134800D01*
X66530000Y-2063371D01*
X66459047Y-1920514D01*
X70484047Y-3706228D02*
X68994047Y-3706228D01*
X68994047Y-3349085D01*
X69065000Y-3134800D01*
X69206904Y-2991942D01*
X69348809Y-2920514D01*
X69632619Y-2849085D01*
X69845476Y-2849085D01*
X70129285Y-2920514D01*
X70271190Y-2991942D01*
X70413095Y-3134800D01*
X70484047Y-3349085D01*
X70484047Y-3706228D01*
X70484047Y-1420514D02*
X70484047Y-2277657D01*
X70484047Y-1849085D02*
X68994047Y-1849085D01*
X69206904Y-1991942D01*
X69348809Y-2134800D01*
X69419761Y-2277657D01*
X73019047Y-3706228D02*
X71529047Y-3706228D01*
X71529047Y-3349085D01*
X71600000Y-3134800D01*
X71741904Y-2991942D01*
X71883809Y-2920514D01*
X72167619Y-2849085D01*
X72380476Y-2849085D01*
X72664285Y-2920514D01*
X72806190Y-2991942D01*
X72948095Y-3134800D01*
X73019047Y-3349085D01*
X73019047Y-3706228D01*
X71670952Y-2277657D02*
X71600000Y-2206228D01*
X71529047Y-2063371D01*
X71529047Y-1706228D01*
X71600000Y-1563371D01*
X71670952Y-1491942D01*
X71812857Y-1420514D01*
X71954761Y-1420514D01*
X72167619Y-1491942D01*
X73019047Y-2349085D01*
X73019047Y-1420514D01*
X75554047Y-3706228D02*
X74064047Y-3706228D01*
X74064047Y-3349085D01*
X74135000Y-3134800D01*
X74276904Y-2991942D01*
X74418809Y-2920514D01*
X74702619Y-2849085D01*
X74915476Y-2849085D01*
X75199285Y-2920514D01*
X75341190Y-2991942D01*
X75483095Y-3134800D01*
X75554047Y-3349085D01*
X75554047Y-3706228D01*
X74064047Y-2349085D02*
X74064047Y-1420514D01*
X74631666Y-1920514D01*
X74631666Y-1706228D01*
X74702619Y-1563371D01*
X74773571Y-1491942D01*
X74915476Y-1420514D01*
X75270238Y-1420514D01*
X75412142Y-1491942D01*
X75483095Y-1563371D01*
X75554047Y-1706228D01*
X75554047Y-2134800D01*
X75483095Y-2277657D01*
X75412142Y-2349085D01*
X78089047Y-3706228D02*
X76599047Y-3706228D01*
X76599047Y-3349085D01*
X76670000Y-3134800D01*
X76811904Y-2991942D01*
X76953809Y-2920514D01*
X77237619Y-2849085D01*
X77450476Y-2849085D01*
X77734285Y-2920514D01*
X77876190Y-2991942D01*
X78018095Y-3134800D01*
X78089047Y-3349085D01*
X78089047Y-3706228D01*
X77095714Y-1563371D02*
X78089047Y-1563371D01*
X76528095Y-1920514D02*
X77592380Y-2277657D01*
X77592380Y-1349085D01*
X80624047Y-3706228D02*
X79134047Y-3706228D01*
X79134047Y-3349085D01*
X79205000Y-3134800D01*
X79346904Y-2991942D01*
X79488809Y-2920514D01*
X79772619Y-2849085D01*
X79985476Y-2849085D01*
X80269285Y-2920514D01*
X80411190Y-2991942D01*
X80553095Y-3134800D01*
X80624047Y-3349085D01*
X80624047Y-3706228D01*
X79134047Y-1491942D02*
X79134047Y-2206228D01*
X79843571Y-2277657D01*
X79772619Y-2206228D01*
X79701666Y-2063371D01*
X79701666Y-1706228D01*
X79772619Y-1563371D01*
X79843571Y-1491942D01*
X79985476Y-1420514D01*
X80340238Y-1420514D01*
X80482142Y-1491942D01*
X80553095Y-1563371D01*
X80624047Y-1706228D01*
X80624047Y-2063371D01*
X80553095Y-2206228D01*
X80482142Y-2277657D01*
X83159047Y-3706228D02*
X81669047Y-3706228D01*
X81669047Y-3349085D01*
X81740000Y-3134800D01*
X81881904Y-2991942D01*
X82023809Y-2920514D01*
X82307619Y-2849085D01*
X82520476Y-2849085D01*
X82804285Y-2920514D01*
X82946190Y-2991942D01*
X83088095Y-3134800D01*
X83159047Y-3349085D01*
X83159047Y-3706228D01*
X81669047Y-1563371D02*
X81669047Y-1849085D01*
X81740000Y-1991942D01*
X81810952Y-2063371D01*
X82023809Y-2206228D01*
X82307619Y-2277657D01*
X82875238Y-2277657D01*
X83017142Y-2206228D01*
X83088095Y-2134800D01*
X83159047Y-1991942D01*
X83159047Y-1706228D01*
X83088095Y-1563371D01*
X83017142Y-1491942D01*
X82875238Y-1420514D01*
X82520476Y-1420514D01*
X82378571Y-1491942D01*
X82307619Y-1563371D01*
X82236666Y-1706228D01*
X82236666Y-1991942D01*
X82307619Y-2134800D01*
X82378571Y-2206228D01*
X82520476Y-2277657D01*
X85694047Y-3706228D02*
X84204047Y-3706228D01*
X84204047Y-3349085D01*
X84275000Y-3134800D01*
X84416904Y-2991942D01*
X84558809Y-2920514D01*
X84842619Y-2849085D01*
X85055476Y-2849085D01*
X85339285Y-2920514D01*
X85481190Y-2991942D01*
X85623095Y-3134800D01*
X85694047Y-3349085D01*
X85694047Y-3706228D01*
X84204047Y-2349085D02*
X84204047Y-1349085D01*
X85694047Y-1991942D01*
X86739047Y-3349085D02*
X86739047Y-2491942D01*
X88229047Y-2920514D02*
X86739047Y-2920514D01*
X88229047Y-2134800D02*
X87235714Y-1349085D01*
X87235714Y-2134800D02*
X88229047Y-1349085D01*
X90764047Y-2634800D02*
X90054523Y-3134800D01*
X90764047Y-3491942D02*
X89274047Y-3491942D01*
X89274047Y-2920514D01*
X89345000Y-2777657D01*
X89415952Y-2706228D01*
X89557857Y-2634800D01*
X89770714Y-2634800D01*
X89912619Y-2706228D01*
X89983571Y-2777657D01*
X90054523Y-2920514D01*
X90054523Y-3491942D01*
X90764047Y-2134800D02*
X89770714Y-1349085D01*
X89770714Y-2134800D02*
X90764047Y-1349085D01*
X91809047Y-6706228D02*
X93015238Y-6706228D01*
X93157142Y-6634800D01*
X93228095Y-6563371D01*
X93299047Y-6420514D01*
X93299047Y-6134800D01*
X93228095Y-5991942D01*
X93157142Y-5920514D01*
X93015238Y-5849085D01*
X91809047Y-5849085D01*
X93228095Y-5206228D02*
X93299047Y-4991942D01*
X93299047Y-4634800D01*
X93228095Y-4491942D01*
X93157142Y-4420514D01*
X93015238Y-4349085D01*
X92873333Y-4349085D01*
X92731428Y-4420514D01*
X92660476Y-4491942D01*
X92589523Y-4634800D01*
X92518571Y-4920514D01*
X92447619Y-5063371D01*
X92376666Y-5134800D01*
X92234761Y-5206228D01*
X92092857Y-5206228D01*
X91950952Y-5134800D01*
X91880000Y-5063371D01*
X91809047Y-4920514D01*
X91809047Y-4563371D01*
X91880000Y-4349085D01*
X93299047Y-2849085D02*
X92589523Y-3349085D01*
X93299047Y-3706228D02*
X91809047Y-3706228D01*
X91809047Y-3134800D01*
X91880000Y-2991942D01*
X91950952Y-2920514D01*
X92092857Y-2849085D01*
X92305714Y-2849085D01*
X92447619Y-2920514D01*
X92518571Y-2991942D01*
X92589523Y-3134800D01*
X92589523Y-3706228D01*
X93299047Y-1420514D02*
X93299047Y-2277657D01*
X93299047Y-1849085D02*
X91809047Y-1849085D01*
X92021904Y-1991942D01*
X92163809Y-2134800D01*
X92234761Y-2277657D01*
X94344047Y-6706228D02*
X95550238Y-6706228D01*
X95692142Y-6634800D01*
X95763095Y-6563371D01*
X95834047Y-6420514D01*
X95834047Y-6134800D01*
X95763095Y-5991942D01*
X95692142Y-5920514D01*
X95550238Y-5849085D01*
X94344047Y-5849085D01*
X95763095Y-5206228D02*
X95834047Y-4991942D01*
X95834047Y-4634800D01*
X95763095Y-4491942D01*
X95692142Y-4420514D01*
X95550238Y-4349085D01*
X95408333Y-4349085D01*
X95266428Y-4420514D01*
X95195476Y-4491942D01*
X95124523Y-4634800D01*
X95053571Y-4920514D01*
X94982619Y-5063371D01*
X94911666Y-5134800D01*
X94769761Y-5206228D01*
X94627857Y-5206228D01*
X94485952Y-5134800D01*
X94415000Y-5063371D01*
X94344047Y-4920514D01*
X94344047Y-4563371D01*
X94415000Y-4349085D01*
X95834047Y-2849085D02*
X95124523Y-3349085D01*
X95834047Y-3706228D02*
X94344047Y-3706228D01*
X94344047Y-3134800D01*
X94415000Y-2991942D01*
X94485952Y-2920514D01*
X94627857Y-2849085D01*
X94840714Y-2849085D01*
X94982619Y-2920514D01*
X95053571Y-2991942D01*
X95124523Y-3134800D01*
X95124523Y-3706228D01*
X94485952Y-2277657D02*
X94415000Y-2206228D01*
X94344047Y-2063371D01*
X94344047Y-1706228D01*
X94415000Y-1563371D01*
X94485952Y-1491942D01*
X94627857Y-1420514D01*
X94769761Y-1420514D01*
X94982619Y-1491942D01*
X95834047Y-2349085D01*
X95834047Y-1420514D01*
X96879047Y-6706228D02*
X98085238Y-6706228D01*
X98227142Y-6634800D01*
X98298095Y-6563371D01*
X98369047Y-6420514D01*
X98369047Y-6134800D01*
X98298095Y-5991942D01*
X98227142Y-5920514D01*
X98085238Y-5849085D01*
X96879047Y-5849085D01*
X98298095Y-5206228D02*
X98369047Y-4991942D01*
X98369047Y-4634800D01*
X98298095Y-4491942D01*
X98227142Y-4420514D01*
X98085238Y-4349085D01*
X97943333Y-4349085D01*
X97801428Y-4420514D01*
X97730476Y-4491942D01*
X97659523Y-4634800D01*
X97588571Y-4920514D01*
X97517619Y-5063371D01*
X97446666Y-5134800D01*
X97304761Y-5206228D01*
X97162857Y-5206228D01*
X97020952Y-5134800D01*
X96950000Y-5063371D01*
X96879047Y-4920514D01*
X96879047Y-4563371D01*
X96950000Y-4349085D01*
X98369047Y-2849085D02*
X97659523Y-3349085D01*
X98369047Y-3706228D02*
X96879047Y-3706228D01*
X96879047Y-3134800D01*
X96950000Y-2991942D01*
X97020952Y-2920514D01*
X97162857Y-2849085D01*
X97375714Y-2849085D01*
X97517619Y-2920514D01*
X97588571Y-2991942D01*
X97659523Y-3134800D01*
X97659523Y-3706228D01*
X96879047Y-2349085D02*
X96879047Y-1420514D01*
X97446666Y-1920514D01*
X97446666Y-1706228D01*
X97517619Y-1563371D01*
X97588571Y-1491942D01*
X97730476Y-1420514D01*
X98085238Y-1420514D01*
X98227142Y-1491942D01*
X98298095Y-1563371D01*
X98369047Y-1706228D01*
X98369047Y-2134800D01*
X98298095Y-2277657D01*
X98227142Y-2349085D01*
D12*
X2743200Y4947920D02*
X2743200Y233680D01*
X1173480Y4947920D02*
X2743200Y4947920D01*
X-7620Y3766820D02*
X1173480Y4947920D01*
X-7620Y233680D02*
X-7620Y3766820D01*
D11*
X2207651Y4251272D02*
X2207651Y3394129D01*
X2207651Y3822700D02*
X707651Y3822700D01*
X921937Y3679843D01*
X1064794Y3536986D01*
X1136222Y3394129D01*
D13*
%TO.C,J3*%
X18288000Y14808200D02*
X65532000Y14808200D01*
X18288000Y40398700D02*
X65532000Y40398700D01*
X65532000Y40398700D02*
X65532000Y14808200D01*
X18288000Y14808200D02*
X18288000Y40398700D01*
D14*
%TO.C,U2*%
X68520000Y24730200D02*
X68520000Y23480200D01*
X68520000Y23480200D02*
X86420000Y23480200D01*
X86420000Y23480200D02*
X86420000Y27980200D01*
X86420000Y27980200D02*
X68520000Y27980200D01*
X68520000Y27980200D02*
X68520000Y26730200D01*
X68520000Y26730200D02*
G75*
G02*
X68520000Y24730200I0J-1000000D01*
G01*
%TO.C,J1*%
X-60000Y270200D02*
X-60000Y1600200D01*
X1270000Y270200D02*
X-60000Y270200D01*
X2540000Y270200D02*
X2540000Y2930200D01*
X2540000Y2930200D02*
X99120000Y2930200D01*
X2540000Y270200D02*
X99120000Y270200D01*
X99120000Y270200D02*
X99120000Y2930200D01*
%TO.C,C4*%
X38575000Y3410200D02*
X37950000Y3410200D01*
X40790000Y3410200D02*
X40165000Y3410200D01*
X38575000Y7450200D02*
X37950000Y7450200D01*
X40790000Y7450200D02*
X40165000Y7450200D01*
X37950000Y7450200D02*
X37950000Y3410200D01*
X40790000Y7450200D02*
X40790000Y3410200D01*
%TO.C,C3*%
X69201000Y17190200D02*
X70459000Y17190200D01*
X69201000Y19030200D02*
X70459000Y19030200D01*
%TO.C,C2*%
X70471000Y31160200D02*
X71729000Y31160200D01*
X70471000Y33000200D02*
X71729000Y33000200D01*
%TO.C,C1*%
X10809000Y29190200D02*
X9551000Y29190200D01*
X10809000Y27350200D02*
X9551000Y27350200D01*
%TO.C,RN1*%
X16640000Y24460200D02*
X13840000Y24460200D01*
X16640000Y14130200D02*
X16640000Y27170200D01*
X13840000Y14130200D02*
X16640000Y14130200D01*
X13840000Y27170200D02*
X13840000Y14130200D01*
X16640000Y27170200D02*
X13840000Y27170200D01*
%TO.C,R1*%
X91975000Y33890200D02*
X92305000Y33890200D01*
X91975000Y40430200D02*
X91975000Y33890200D01*
X92305000Y40430200D02*
X91975000Y40430200D01*
X94715000Y33890200D02*
X94385000Y33890200D01*
X94715000Y40430200D02*
X94715000Y33890200D01*
X94385000Y40430200D02*
X94715000Y40430200D01*
%TO.C,D1*%
X93635000Y47130200D02*
X93635000Y47286200D01*
X93635000Y44814200D02*
X93635000Y44970200D01*
X91033870Y47130037D02*
G75*
G02*
X93115961Y47130200I1041130J-1079837D01*
G01*
X91033870Y44970363D02*
G75*
G03*
X93115961Y44970200I1041130J1079837D01*
G01*
X90402665Y47128808D02*
G75*
G02*
X93635000Y47285716I1672335J-1078608D01*
G01*
X90402665Y44971592D02*
G75*
G03*
X93635000Y44814684I1672335J1078608D01*
G01*
%TO.C,U3*%
X67250000Y14010200D02*
X67250000Y12760200D01*
X92770000Y14010200D02*
X67250000Y14010200D01*
X92770000Y9510200D02*
X92770000Y14010200D01*
X67250000Y9510200D02*
X92770000Y9510200D01*
X67250000Y10760200D02*
X67250000Y9510200D01*
X67250000Y12760200D02*
G75*
G02*
X67250000Y10760200I0J-1000000D01*
G01*
%TO.C,U1*%
X6620000Y27060200D02*
X5370000Y27060200D01*
X5370000Y27060200D02*
X5370000Y6620200D01*
X5370000Y6620200D02*
X9870000Y6620200D01*
X9870000Y6620200D02*
X9870000Y27060200D01*
X9870000Y27060200D02*
X8620000Y27060200D01*
X8620000Y27060200D02*
G75*
G02*
X6620000Y27060200I-1000000J0D01*
G01*
%TO.C,J2*%
X40580000Y2810200D02*
X40580000Y4140200D01*
X41910000Y2810200D02*
X40580000Y2810200D01*
X43180000Y2810200D02*
X43180000Y5470200D01*
X43180000Y5470200D02*
X66100000Y5470200D01*
X43180000Y2810200D02*
X66100000Y2810200D01*
X66100000Y2810200D02*
X66100000Y5470200D01*
%TD*%
D13*
%TO.C,*%
X6630000Y33350200D02*
G75*
G03*
X6630000Y33350200I-1550000J0D01*
G01*
%TD*%
%TO.C,U2*%
D10*
X66972380Y24968296D02*
X67781904Y24968296D01*
X67877142Y25015915D01*
X67924761Y25063534D01*
X67972380Y25158772D01*
X67972380Y25349248D01*
X67924761Y25444486D01*
X67877142Y25492105D01*
X67781904Y25539724D01*
X66972380Y25539724D01*
X67067619Y25968296D02*
X67020000Y26015915D01*
X66972380Y26111153D01*
X66972380Y26349248D01*
X67020000Y26444486D01*
X67067619Y26492105D01*
X67162857Y26539724D01*
X67258095Y26539724D01*
X67400952Y26492105D01*
X67972380Y25920677D01*
X67972380Y26539724D01*
X74303333Y26277820D02*
X74970000Y26277820D01*
X74541428Y25277820D01*
X75779523Y25944486D02*
X75779523Y25277820D01*
X75541428Y26325439D02*
X75303333Y25611153D01*
X75922380Y25611153D01*
X76303333Y25277820D02*
X76303333Y26277820D01*
X76303333Y25801629D02*
X76874761Y25801629D01*
X76874761Y25277820D02*
X76874761Y26277820D01*
X77922380Y25373058D02*
X77874761Y25325439D01*
X77731904Y25277820D01*
X77636666Y25277820D01*
X77493809Y25325439D01*
X77398571Y25420677D01*
X77350952Y25515915D01*
X77303333Y25706391D01*
X77303333Y25849248D01*
X77350952Y26039724D01*
X77398571Y26134962D01*
X77493809Y26230200D01*
X77636666Y26277820D01*
X77731904Y26277820D01*
X77874761Y26230200D01*
X77922380Y26182581D01*
X78208095Y26277820D02*
X78779523Y26277820D01*
X78493809Y25277820D02*
X78493809Y26277820D01*
X79017619Y26277820D02*
X79636666Y26277820D01*
X79303333Y25896867D01*
X79446190Y25896867D01*
X79541428Y25849248D01*
X79589047Y25801629D01*
X79636666Y25706391D01*
X79636666Y25468296D01*
X79589047Y25373058D01*
X79541428Y25325439D01*
X79446190Y25277820D01*
X79160476Y25277820D01*
X79065238Y25325439D01*
X79017619Y25373058D01*
X80017619Y26182581D02*
X80065238Y26230200D01*
X80160476Y26277820D01*
X80398571Y26277820D01*
X80493809Y26230200D01*
X80541428Y26182581D01*
X80589047Y26087343D01*
X80589047Y25992105D01*
X80541428Y25849248D01*
X79970000Y25277820D01*
X80589047Y25277820D01*
%TO.C,C4*%
X37187142Y5263534D02*
X37234761Y5215915D01*
X37282380Y5073058D01*
X37282380Y4977820D01*
X37234761Y4834962D01*
X37139523Y4739724D01*
X37044285Y4692105D01*
X36853809Y4644486D01*
X36710952Y4644486D01*
X36520476Y4692105D01*
X36425238Y4739724D01*
X36330000Y4834962D01*
X36282380Y4977820D01*
X36282380Y5073058D01*
X36330000Y5215915D01*
X36377619Y5263534D01*
X36615714Y6120677D02*
X37282380Y6120677D01*
X36234761Y5882581D02*
X36949047Y5644486D01*
X36949047Y6263534D01*
%TO.C,C3*%
X67032142Y17943534D02*
X67079761Y17895915D01*
X67127380Y17753058D01*
X67127380Y17657820D01*
X67079761Y17514962D01*
X66984523Y17419724D01*
X66889285Y17372105D01*
X66698809Y17324486D01*
X66555952Y17324486D01*
X66365476Y17372105D01*
X66270238Y17419724D01*
X66175000Y17514962D01*
X66127380Y17657820D01*
X66127380Y17753058D01*
X66175000Y17895915D01*
X66222619Y17943534D01*
X66127380Y18276867D02*
X66127380Y18895915D01*
X66508333Y18562581D01*
X66508333Y18705439D01*
X66555952Y18800677D01*
X66603571Y18848296D01*
X66698809Y18895915D01*
X66936904Y18895915D01*
X67032142Y18848296D01*
X67079761Y18800677D01*
X67127380Y18705439D01*
X67127380Y18419724D01*
X67079761Y18324486D01*
X67032142Y18276867D01*
%TO.C,C2*%
X68302142Y31913534D02*
X68349761Y31865915D01*
X68397380Y31723058D01*
X68397380Y31627820D01*
X68349761Y31484962D01*
X68254523Y31389724D01*
X68159285Y31342105D01*
X67968809Y31294486D01*
X67825952Y31294486D01*
X67635476Y31342105D01*
X67540238Y31389724D01*
X67445000Y31484962D01*
X67397380Y31627820D01*
X67397380Y31723058D01*
X67445000Y31865915D01*
X67492619Y31913534D01*
X67492619Y32294486D02*
X67445000Y32342105D01*
X67397380Y32437343D01*
X67397380Y32675439D01*
X67445000Y32770677D01*
X67492619Y32818296D01*
X67587857Y32865915D01*
X67683095Y32865915D01*
X67825952Y32818296D01*
X68397380Y32246867D01*
X68397380Y32865915D01*
%TO.C,C1*%
X9993333Y29818058D02*
X9945714Y29770439D01*
X9802857Y29722820D01*
X9707619Y29722820D01*
X9564761Y29770439D01*
X9469523Y29865677D01*
X9421904Y29960915D01*
X9374285Y30151391D01*
X9374285Y30294248D01*
X9421904Y30484724D01*
X9469523Y30579962D01*
X9564761Y30675200D01*
X9707619Y30722820D01*
X9802857Y30722820D01*
X9945714Y30675200D01*
X9993333Y30627581D01*
X10945714Y29722820D02*
X10374285Y29722820D01*
X10660000Y29722820D02*
X10660000Y30722820D01*
X10564761Y30579962D01*
X10469523Y30484724D01*
X10374285Y30437105D01*
%TO.C,RN1*%
X14549523Y27817820D02*
X14216190Y28294010D01*
X13978095Y27817820D02*
X13978095Y28817820D01*
X14359047Y28817820D01*
X14454285Y28770200D01*
X14501904Y28722581D01*
X14549523Y28627343D01*
X14549523Y28484486D01*
X14501904Y28389248D01*
X14454285Y28341629D01*
X14359047Y28294010D01*
X13978095Y28294010D01*
X14978095Y27817820D02*
X14978095Y28817820D01*
X15549523Y27817820D01*
X15549523Y28817820D01*
X16549523Y27817820D02*
X15978095Y27817820D01*
X16263809Y27817820D02*
X16263809Y28817820D01*
X16168571Y28674962D01*
X16073333Y28579724D01*
X15978095Y28532105D01*
%TO.C,R1*%
X91257380Y36993534D02*
X90781190Y36660200D01*
X91257380Y36422105D02*
X90257380Y36422105D01*
X90257380Y36803058D01*
X90305000Y36898296D01*
X90352619Y36945915D01*
X90447857Y36993534D01*
X90590714Y36993534D01*
X90685952Y36945915D01*
X90733571Y36898296D01*
X90781190Y36803058D01*
X90781190Y36422105D01*
X91257380Y37945915D02*
X91257380Y37374486D01*
X91257380Y37660200D02*
X90257380Y37660200D01*
X90400238Y37564962D01*
X90495476Y37469724D01*
X90543095Y37374486D01*
%TO.C,D1*%
X89034880Y45312105D02*
X88034880Y45312105D01*
X88034880Y45550200D01*
X88082500Y45693058D01*
X88177738Y45788296D01*
X88272976Y45835915D01*
X88463452Y45883534D01*
X88606309Y45883534D01*
X88796785Y45835915D01*
X88892023Y45788296D01*
X88987261Y45693058D01*
X89034880Y45550200D01*
X89034880Y45312105D01*
X89034880Y46835915D02*
X89034880Y46264486D01*
X89034880Y46550200D02*
X88034880Y46550200D01*
X88177738Y46454962D01*
X88272976Y46359724D01*
X88320595Y46264486D01*
%TO.C,U3*%
X65492380Y10998296D02*
X66301904Y10998296D01*
X66397142Y11045915D01*
X66444761Y11093534D01*
X66492380Y11188772D01*
X66492380Y11379248D01*
X66444761Y11474486D01*
X66397142Y11522105D01*
X66301904Y11569724D01*
X65492380Y11569724D01*
X65492380Y11950677D02*
X65492380Y12569724D01*
X65873333Y12236391D01*
X65873333Y12379248D01*
X65920952Y12474486D01*
X65968571Y12522105D01*
X66063809Y12569724D01*
X66301904Y12569724D01*
X66397142Y12522105D01*
X66444761Y12474486D01*
X66492380Y12379248D01*
X66492380Y12093534D01*
X66444761Y11998296D01*
X66397142Y11950677D01*
X76748095Y12307820D02*
X77414761Y12307820D01*
X76986190Y11307820D01*
X78224285Y11974486D02*
X78224285Y11307820D01*
X77986190Y12355439D02*
X77748095Y11641153D01*
X78367142Y11641153D01*
X78748095Y11307820D02*
X78748095Y12307820D01*
X78748095Y11831629D02*
X79319523Y11831629D01*
X79319523Y11307820D02*
X79319523Y12307820D01*
X80367142Y11403058D02*
X80319523Y11355439D01*
X80176666Y11307820D01*
X80081428Y11307820D01*
X79938571Y11355439D01*
X79843333Y11450677D01*
X79795714Y11545915D01*
X79748095Y11736391D01*
X79748095Y11879248D01*
X79795714Y12069724D01*
X79843333Y12164962D01*
X79938571Y12260200D01*
X80081428Y12307820D01*
X80176666Y12307820D01*
X80319523Y12260200D01*
X80367142Y12212581D01*
X80748095Y12212581D02*
X80795714Y12260200D01*
X80890952Y12307820D01*
X81129047Y12307820D01*
X81224285Y12260200D01*
X81271904Y12212581D01*
X81319523Y12117343D01*
X81319523Y12022105D01*
X81271904Y11879248D01*
X80700476Y11307820D01*
X81319523Y11307820D01*
X82176666Y11974486D02*
X82176666Y11307820D01*
X81938571Y12355439D02*
X81700476Y11641153D01*
X82319523Y11641153D01*
X83176666Y12307820D02*
X82700476Y12307820D01*
X82652857Y11831629D01*
X82700476Y11879248D01*
X82795714Y11926867D01*
X83033809Y11926867D01*
X83129047Y11879248D01*
X83176666Y11831629D01*
X83224285Y11736391D01*
X83224285Y11498296D01*
X83176666Y11403058D01*
X83129047Y11355439D01*
X83033809Y11307820D01*
X82795714Y11307820D01*
X82700476Y11355439D01*
X82652857Y11403058D01*
%TO.C,U1*%
X6858095Y5957820D02*
X6858095Y5148296D01*
X6905714Y5053058D01*
X6953333Y5005439D01*
X7048571Y4957820D01*
X7239047Y4957820D01*
X7334285Y5005439D01*
X7381904Y5053058D01*
X7429523Y5148296D01*
X7429523Y5957820D01*
X8429523Y4957820D02*
X7858095Y4957820D01*
X8143809Y4957820D02*
X8143809Y5957820D01*
X8048571Y5814962D01*
X7953333Y5719724D01*
X7858095Y5672105D01*
X7072380Y12768772D02*
X7072380Y13435439D01*
X8072380Y13006867D01*
X7405714Y14244962D02*
X8072380Y14244962D01*
X7024761Y14006867D02*
X7739047Y13768772D01*
X7739047Y14387820D01*
X7786666Y14721153D02*
X7786666Y15197343D01*
X8072380Y14625915D02*
X7072380Y14959248D01*
X8072380Y15292581D01*
X8072380Y15625915D02*
X7072380Y15625915D01*
X7548571Y15625915D02*
X7548571Y16197343D01*
X8072380Y16197343D02*
X7072380Y16197343D01*
X7977142Y17244962D02*
X8024761Y17197343D01*
X8072380Y17054486D01*
X8072380Y16959248D01*
X8024761Y16816391D01*
X7929523Y16721153D01*
X7834285Y16673534D01*
X7643809Y16625915D01*
X7500952Y16625915D01*
X7310476Y16673534D01*
X7215238Y16721153D01*
X7120000Y16816391D01*
X7072380Y16959248D01*
X7072380Y17054486D01*
X7120000Y17197343D01*
X7167619Y17244962D01*
X7072380Y17530677D02*
X7072380Y18102105D01*
X8072380Y17816391D02*
X7072380Y17816391D01*
X8072380Y18959248D02*
X8072380Y18387820D01*
X8072380Y18673534D02*
X7072380Y18673534D01*
X7215238Y18578296D01*
X7310476Y18483058D01*
X7358095Y18387820D01*
X7072380Y19292581D02*
X7072380Y19911629D01*
X7453333Y19578296D01*
X7453333Y19721153D01*
X7500952Y19816391D01*
X7548571Y19864010D01*
X7643809Y19911629D01*
X7881904Y19911629D01*
X7977142Y19864010D01*
X8024761Y19816391D01*
X8072380Y19721153D01*
X8072380Y19435439D01*
X8024761Y19340200D01*
X7977142Y19292581D01*
X7500952Y20483058D02*
X7453333Y20387820D01*
X7405714Y20340200D01*
X7310476Y20292581D01*
X7262857Y20292581D01*
X7167619Y20340200D01*
X7120000Y20387820D01*
X7072380Y20483058D01*
X7072380Y20673534D01*
X7120000Y20768772D01*
X7167619Y20816391D01*
X7262857Y20864010D01*
X7310476Y20864010D01*
X7405714Y20816391D01*
X7453333Y20768772D01*
X7500952Y20673534D01*
X7500952Y20483058D01*
X7548571Y20387820D01*
X7596190Y20340200D01*
X7691428Y20292581D01*
X7881904Y20292581D01*
X7977142Y20340200D01*
X8024761Y20387820D01*
X8072380Y20483058D01*
X8072380Y20673534D01*
X8024761Y20768772D01*
X7977142Y20816391D01*
X7881904Y20864010D01*
X7691428Y20864010D01*
X7596190Y20816391D01*
X7548571Y20768772D01*
X7500952Y20673534D01*
%TD*%
M02*
