M48
; DRILL file {KiCad (5.1.9)-1} date 02/08/21 01:07:11
; FORMAT={-:-/ absolute / inch / decimal}
; #@! TF.CreationDate,2021-02-08T01:07:11-08:00
; #@! TF.GenerationSoftware,Kicad,Pcbnew,(5.1.9)-1
; #@! TF.FileFunction,Plated,1,2,PTH
FMAT,2
INCH
T1C0.0157
T2C0.0236
T3C0.0256
T4C0.0315
T5C0.0354
T6C0.0394
T7C0.1000
%
G90
G05
T1
X0.65Y0.463
X0.95Y0.4755
X1.05Y0.5755
X1.225Y0.419
X1.2745Y0.4355
X1.3125Y0.3005
X1.3249Y0.4515
X1.3375Y0.2755
X1.3625Y0.2505
X1.4625Y0.6505
X1.8625Y0.5755
X2.439Y0.4695
X2.512Y0.501
X2.53Y0.2825
X2.6417Y0.4794
X2.75Y0.653
X2.825Y1.338
X2.9Y0.113
X3.05Y0.963
X3.05Y0.378
X3.0875Y0.513
X3.15Y0.378
X3.1625Y0.488
X3.225Y1.238
T2
X1.65Y0.613
X2.5Y0.913
T3
X1.05Y0.488
X1.05Y0.363
X1.1Y0.488
X1.1Y0.363
X1.15Y0.488
X1.15Y0.363
X1.2Y0.488
X1.2Y0.363
X1.25Y0.488
X1.25Y0.363
X1.3Y0.488
X1.3Y0.363
X1.35Y0.488
X1.35Y0.363
X1.4Y0.488
X1.4Y0.363
X1.45Y0.488
X1.45Y0.363
X1.5Y0.488
X1.5Y0.363
X1.55Y0.488
X1.55Y0.363
X1.6Y0.488
X1.6Y0.363
X1.65Y0.488
X1.65Y0.363
X1.7Y0.488
X1.7Y0.363
X1.75Y0.488
X1.75Y0.363
X1.8Y0.488
X1.8Y0.363
X1.85Y0.488
X1.85Y0.363
X1.9Y0.488
X1.9Y0.363
X1.95Y0.488
X1.95Y0.363
X2.0Y0.488
X2.0Y0.363
X2.05Y0.488
X2.05Y0.363
X2.1Y0.488
X2.1Y0.363
X2.15Y0.488
X2.15Y0.363
X2.2Y0.488
X2.2Y0.363
X2.25Y0.488
X2.25Y0.363
T4
X0.15Y1.013
X0.15Y0.913
X0.15Y0.813
X0.15Y0.713
X0.15Y0.613
X0.15Y0.513
X0.15Y0.413
X0.15Y0.313
X0.3516Y1.113
X0.45Y1.113
X0.45Y1.013
X0.45Y0.913
X0.45Y0.813
X0.45Y0.713
X0.45Y0.613
X0.45Y0.513
X0.45Y0.413
X0.45Y0.313
X0.6Y1.013
X0.6Y0.913
X0.6Y0.813
X0.6Y0.713
X0.6Y0.613
X1.55Y0.263
X1.55Y0.1646
X2.7Y0.713
X2.7Y0.613
X2.7Y0.313
X2.75Y1.263
X2.75Y1.163
X2.75Y0.863
X2.7984Y0.713
X2.8Y0.613
X2.8Y0.313
X2.8484Y1.263
X2.85Y1.163
X2.85Y0.863
X2.9Y0.613
X2.9Y0.313
X2.95Y1.163
X2.95Y0.863
X3.0Y0.613
X3.0Y0.313
X3.05Y1.163
X3.05Y0.863
X3.1Y0.613
X3.1Y0.313
X3.15Y1.163
X3.15Y0.863
X3.2Y0.613
X3.2Y0.313
X3.25Y1.163
X3.25Y0.863
X3.3Y0.613
X3.3Y0.313
X3.35Y1.163
X3.35Y0.863
X3.4Y0.613
X3.4Y0.313
X3.5Y0.613
X3.5Y0.313
X3.6Y0.613
X3.6Y0.313
X3.675Y1.613
X3.675Y1.313
T5
X3.575Y1.813
X3.675Y1.813
T6
X0.05Y0.063
X0.15Y0.063
X0.25Y0.063
X0.35Y0.063
X0.45Y0.063
X0.55Y0.063
X0.65Y0.063
X0.75Y0.063
X0.85Y0.063
X0.95Y0.063
X1.05Y0.063
X1.15Y0.063
X1.25Y0.063
X1.35Y0.063
X1.45Y0.063
X1.55Y0.063
X1.65Y0.163
X1.65Y0.063
X1.75Y0.163
X1.75Y0.063
X1.85Y0.163
X1.85Y0.063
X1.95Y0.163
X1.95Y0.063
X2.05Y0.163
X2.05Y0.063
X2.15Y0.163
X2.15Y0.063
X2.25Y0.163
X2.25Y0.063
X2.35Y0.163
X2.35Y0.063
X2.45Y0.163
X2.45Y0.063
X2.55Y0.163
X2.55Y0.063
X2.65Y0.063
X2.75Y0.063
X2.85Y0.063
X2.95Y0.063
X3.05Y0.063
X3.15Y0.063
X3.25Y0.063
X3.35Y0.063
X3.45Y0.063
X3.55Y0.063
X3.65Y0.063
X3.75Y0.063
X3.85Y0.063
T7
X0.808Y1.5005
X0.808Y0.6705
X2.492Y1.5005
X2.492Y0.6705
T0
M30
