%TF.GenerationSoftware,KiCad,Pcbnew,(5.1.6)-1*%
%TF.CreationDate,2021-01-19T23:52:39-08:00*%
%TF.ProjectId,rc-cfcard,72632d63-6663-4617-9264-2e6b69636164,rev?*%
%TF.SameCoordinates,PX9157080PY9071968*%
%TF.FileFunction,Soldermask,Top*%
%TF.FilePolarity,Negative*%
%FSLAX46Y46*%
G04 Gerber Fmt 4.6, Leading zero omitted, Abs format (unit mm)*
G04 Created by KiCad (PCBNEW (5.1.6)-1) date 2021-01-19 23:52:39*
%MOMM*%
%LPD*%
G01*
G04 APERTURE LIST*
%ADD10O,2.654000X1.854000*%
%ADD11C,1.254000*%
%ADD12C,3.810000*%
%ADD13O,1.954000X1.954000*%
%ADD14C,1.854000*%
%ADD15O,1.854000X1.854000*%
%ADD16C,2.054000*%
%ADD17C,1.954000*%
%ADD18C,3.454000*%
G04 APERTURE END LIST*
D10*
%TO.C,U2*%
X89535000Y24460200D03*
X81915000Y9220200D03*
X89535000Y21920200D03*
X81915000Y11760200D03*
X89535000Y19380200D03*
X81915000Y14300200D03*
X89535000Y16840200D03*
X81915000Y16840200D03*
X89535000Y14300200D03*
X81915000Y19380200D03*
X89535000Y11760200D03*
X81915000Y21920200D03*
X89535000Y9220200D03*
G36*
G01*
X80588000Y23996700D02*
X80588000Y24923700D01*
G75*
G02*
X81051500Y25387200I463500J0D01*
G01*
X82778500Y25387200D01*
G75*
G02*
X83242000Y24923700I0J-463500D01*
G01*
X83242000Y23996700D01*
G75*
G02*
X82778500Y23533200I-463500J0D01*
G01*
X81051500Y23533200D01*
G75*
G02*
X80588000Y23996700I0J463500D01*
G01*
G37*
%TD*%
D11*
%TO.C,J3*%
X54610000Y9220200D03*
X53340000Y9220200D03*
X52070000Y9220200D03*
X50800000Y9220200D03*
X49530000Y9220200D03*
X48260000Y9220200D03*
X46990000Y9220200D03*
X45720000Y9220200D03*
X44450000Y9220200D03*
X43180000Y9220200D03*
X41910000Y9220200D03*
X40640000Y9220200D03*
X39370000Y9220200D03*
X38100000Y9220200D03*
X36830000Y9220200D03*
X35560000Y9220200D03*
X34290000Y9220200D03*
X33020000Y9220200D03*
X31750000Y9220200D03*
X30480000Y9220200D03*
X29210000Y9220200D03*
X27940000Y9220200D03*
X26670000Y9220200D03*
X25400000Y9220200D03*
X24130000Y9220200D03*
X54610000Y12395200D03*
X53340000Y12395200D03*
X52070000Y12395200D03*
X50800000Y12395200D03*
X49530000Y12395200D03*
X48260000Y12395200D03*
X46990000Y12395200D03*
X45720000Y12395200D03*
X44450000Y12395200D03*
X43180000Y12395200D03*
X41910000Y12395200D03*
X40640000Y12395200D03*
X39370000Y12395200D03*
X38100000Y12395200D03*
X36830000Y12395200D03*
X35560000Y12395200D03*
X34290000Y12395200D03*
X33020000Y12395200D03*
X31750000Y12395200D03*
X30480000Y12395200D03*
X29210000Y12395200D03*
X27940000Y12395200D03*
X26670000Y12395200D03*
X25400000Y12395200D03*
X24130000Y12395200D03*
D12*
X60756800Y17030700D03*
X17983200Y17030700D03*
X60756800Y38112700D03*
X17983200Y38112700D03*
%TD*%
D13*
%TO.C,J1*%
X97790000Y1600200D03*
X95250000Y1600200D03*
X92710000Y1600200D03*
X90170000Y1600200D03*
X87630000Y1600200D03*
X85090000Y1600200D03*
X82550000Y1600200D03*
X80010000Y1600200D03*
X77470000Y1600200D03*
X74930000Y1600200D03*
X72390000Y1600200D03*
X69850000Y1600200D03*
X67310000Y1600200D03*
X64770000Y1600200D03*
X62230000Y1600200D03*
X59690000Y1600200D03*
X57150000Y1600200D03*
X54610000Y1600200D03*
X52070000Y1600200D03*
X49530000Y1600200D03*
X46990000Y1600200D03*
X44450000Y1600200D03*
X41910000Y1600200D03*
X39370000Y1600200D03*
X36830000Y1600200D03*
X34290000Y1600200D03*
X31750000Y1600200D03*
X29210000Y1600200D03*
X26670000Y1600200D03*
X24130000Y1600200D03*
X21590000Y1600200D03*
X19050000Y1600200D03*
X16510000Y1600200D03*
X13970000Y1600200D03*
X11430000Y1600200D03*
X8890000Y1600200D03*
X6350000Y1600200D03*
X3810000Y1600200D03*
G36*
G01*
X1758500Y623200D02*
X781500Y623200D01*
G75*
G02*
X293000Y1111700I0J488500D01*
G01*
X293000Y2088700D01*
G75*
G02*
X781500Y2577200I488500J0D01*
G01*
X1758500Y2577200D01*
G75*
G02*
X2247000Y2088700I0J-488500D01*
G01*
X2247000Y1111700D01*
G75*
G02*
X1758500Y623200I-488500J0D01*
G01*
G37*
%TD*%
D14*
%TO.C,C4*%
X39370000Y4180200D03*
X39370000Y6680200D03*
%TD*%
%TO.C,C3*%
X63500000Y10450200D03*
X63500000Y7950200D03*
%TD*%
%TO.C,C2*%
X87035000Y28270200D03*
X89535000Y28270200D03*
%TD*%
%TO.C,C1*%
X8930000Y28270200D03*
X11430000Y28270200D03*
%TD*%
D15*
%TO.C,RN1*%
X11430000Y32080200D03*
X11430000Y34620200D03*
X11430000Y37160200D03*
X11430000Y39700200D03*
G36*
G01*
X10966500Y43167200D02*
X11893500Y43167200D01*
G75*
G02*
X12357000Y42703700I0J-463500D01*
G01*
X12357000Y41776700D01*
G75*
G02*
X11893500Y41313200I-463500J0D01*
G01*
X10966500Y41313200D01*
G75*
G02*
X10503000Y41776700I0J463500D01*
G01*
X10503000Y42703700D01*
G75*
G02*
X10966500Y43167200I463500J0D01*
G01*
G37*
%TD*%
%TO.C,R1*%
X90805000Y33350200D03*
D14*
X90805000Y40970200D03*
%TD*%
D16*
%TO.C,D1*%
X93345000Y46050200D03*
G36*
G01*
X89778000Y45536700D02*
X89778000Y46563700D01*
G75*
G02*
X90291500Y47077200I513500J0D01*
G01*
X91318500Y47077200D01*
G75*
G02*
X91832000Y46563700I0J-513500D01*
G01*
X91832000Y45536700D01*
G75*
G02*
X91318500Y45023200I-513500J0D01*
G01*
X90291500Y45023200D01*
G75*
G02*
X89778000Y45536700I0J513500D01*
G01*
G37*
%TD*%
D10*
%TO.C,U3*%
X66040000Y7950200D03*
X73660000Y30810200D03*
X66040000Y10490200D03*
X73660000Y28270200D03*
X66040000Y13030200D03*
X73660000Y25730200D03*
X66040000Y15570200D03*
X73660000Y23190200D03*
X66040000Y18110200D03*
X73660000Y20650200D03*
X66040000Y20650200D03*
X73660000Y18110200D03*
X66040000Y23190200D03*
X73660000Y15570200D03*
X66040000Y25730200D03*
X73660000Y13030200D03*
X66040000Y28270200D03*
X73660000Y10490200D03*
X66040000Y30810200D03*
G36*
G01*
X74987000Y8413700D02*
X74987000Y7486700D01*
G75*
G02*
X74523500Y7023200I-463500J0D01*
G01*
X72796500Y7023200D01*
G75*
G02*
X72333000Y7486700I0J463500D01*
G01*
X72333000Y8413700D01*
G75*
G02*
X72796500Y8877200I463500J0D01*
G01*
X74523500Y8877200D01*
G75*
G02*
X74987000Y8413700I0J-463500D01*
G01*
G37*
%TD*%
%TO.C,U1*%
X11430000Y25730200D03*
X3810000Y7950200D03*
X11430000Y23190200D03*
X3810000Y10490200D03*
X11430000Y20650200D03*
X3810000Y13030200D03*
X11430000Y18110200D03*
X3810000Y15570200D03*
X11430000Y15570200D03*
X3810000Y18110200D03*
X11430000Y13030200D03*
X3810000Y20650200D03*
X11430000Y10490200D03*
X3810000Y23190200D03*
X11430000Y7950200D03*
G36*
G01*
X2483000Y25266700D02*
X2483000Y26193700D01*
G75*
G02*
X2946500Y26657200I463500J0D01*
G01*
X4673500Y26657200D01*
G75*
G02*
X5137000Y26193700I0J-463500D01*
G01*
X5137000Y25266700D01*
G75*
G02*
X4673500Y24803200I-463500J0D01*
G01*
X2946500Y24803200D01*
G75*
G02*
X2483000Y25266700I0J463500D01*
G01*
G37*
%TD*%
D13*
%TO.C,J2*%
X64770000Y4140200D03*
X62230000Y4140200D03*
X59690000Y4140200D03*
X57150000Y4140200D03*
X54610000Y4140200D03*
X52070000Y4140200D03*
X49530000Y4140200D03*
X46990000Y4140200D03*
X44450000Y4140200D03*
D17*
X41910000Y4140200D03*
%TD*%
D18*
%TO.C,*%
X5080000Y33350200D03*
%TD*%
M02*
