%TF.GenerationSoftware,KiCad,Pcbnew,(5.1.9)-1*%
%TF.CreationDate,2021-02-08T01:07:09-08:00*%
%TF.ProjectId,rc-cfcard,72632d63-6663-4617-9264-2e6b69636164,rev?*%
%TF.SameCoordinates,PX9157080PY9071968*%
%TF.FileFunction,Soldermask,Bot*%
%TF.FilePolarity,Negative*%
%FSLAX46Y46*%
G04 Gerber Fmt 4.6, Leading zero omitted, Abs format (unit mm)*
G04 Created by KiCad (PCBNEW (5.1.9)-1) date 2021-02-08 01:07:09*
%MOMM*%
%LPD*%
G01*
G04 APERTURE LIST*
%ADD10C,1.000000*%
%ADD11C,3.556000*%
%ADD12O,1.600000X2.400000*%
%ADD13O,1.700000X1.700000*%
%ADD14C,1.600000*%
%ADD15O,1.600000X1.600000*%
%ADD16C,1.800000*%
%ADD17O,2.400000X1.600000*%
%ADD18C,1.700000*%
%ADD19C,3.200000*%
G04 APERTURE END LIST*
D10*
%TO.C,J3*%
X57150000Y9220200D03*
X55880000Y9220200D03*
X54610000Y9220200D03*
X53340000Y9220200D03*
X52070000Y9220200D03*
X50800000Y9220200D03*
X49530000Y9220200D03*
X48260000Y9220200D03*
X46990000Y9220200D03*
X45720000Y9220200D03*
X44450000Y9220200D03*
X43180000Y9220200D03*
X41910000Y9220200D03*
X40640000Y9220200D03*
X39370000Y9220200D03*
X38100000Y9220200D03*
X36830000Y9220200D03*
X35560000Y9220200D03*
X34290000Y9220200D03*
X33020000Y9220200D03*
X31750000Y9220200D03*
X30480000Y9220200D03*
X29210000Y9220200D03*
X27940000Y9220200D03*
X26670000Y9220200D03*
X57150000Y12395200D03*
X55880000Y12395200D03*
X54610000Y12395200D03*
X53340000Y12395200D03*
X52070000Y12395200D03*
X50800000Y12395200D03*
X49530000Y12395200D03*
X48260000Y12395200D03*
X46990000Y12395200D03*
X45720000Y12395200D03*
X44450000Y12395200D03*
X43180000Y12395200D03*
X41910000Y12395200D03*
X40640000Y12395200D03*
X39370000Y12395200D03*
X38100000Y12395200D03*
X36830000Y12395200D03*
X35560000Y12395200D03*
X34290000Y12395200D03*
X33020000Y12395200D03*
X31750000Y12395200D03*
X30480000Y12395200D03*
X29210000Y12395200D03*
X27940000Y12395200D03*
X26670000Y12395200D03*
D11*
X63296800Y17030700D03*
X20523200Y17030700D03*
X63296800Y38112700D03*
X20523200Y38112700D03*
%TD*%
D12*
%TO.C,U2*%
X69850000Y29540200D03*
X85090000Y21920200D03*
X72390000Y29540200D03*
X82550000Y21920200D03*
X74930000Y29540200D03*
X80010000Y21920200D03*
X77470000Y29540200D03*
X77470000Y21920200D03*
X80010000Y29540200D03*
X74930000Y21920200D03*
X82550000Y29540200D03*
X72390000Y21920200D03*
X85090000Y29540200D03*
G36*
G01*
X70250000Y20720200D02*
X69450000Y20720200D01*
G75*
G02*
X69050000Y21120200I0J400000D01*
G01*
X69050000Y22720200D01*
G75*
G02*
X69450000Y23120200I400000J0D01*
G01*
X70250000Y23120200D01*
G75*
G02*
X70650000Y22720200I0J-400000D01*
G01*
X70650000Y21120200D01*
G75*
G02*
X70250000Y20720200I-400000J0D01*
G01*
G37*
%TD*%
D13*
%TO.C,J1*%
X97790000Y1600200D03*
X95250000Y1600200D03*
X92710000Y1600200D03*
X90170000Y1600200D03*
X87630000Y1600200D03*
X85090000Y1600200D03*
X82550000Y1600200D03*
X80010000Y1600200D03*
X77470000Y1600200D03*
X74930000Y1600200D03*
X72390000Y1600200D03*
X69850000Y1600200D03*
X67310000Y1600200D03*
X64770000Y1600200D03*
X62230000Y1600200D03*
X59690000Y1600200D03*
X57150000Y1600200D03*
X54610000Y1600200D03*
X52070000Y1600200D03*
X49530000Y1600200D03*
X46990000Y1600200D03*
X44450000Y1600200D03*
X41910000Y1600200D03*
X39370000Y1600200D03*
X36830000Y1600200D03*
X34290000Y1600200D03*
X31750000Y1600200D03*
X29210000Y1600200D03*
X26670000Y1600200D03*
X24130000Y1600200D03*
X21590000Y1600200D03*
X19050000Y1600200D03*
X16510000Y1600200D03*
X13970000Y1600200D03*
X11430000Y1600200D03*
X8890000Y1600200D03*
X6350000Y1600200D03*
X3810000Y1600200D03*
G36*
G01*
X1695000Y750200D02*
X845000Y750200D01*
G75*
G02*
X420000Y1175200I0J425000D01*
G01*
X420000Y2025200D01*
G75*
G02*
X845000Y2450200I425000J0D01*
G01*
X1695000Y2450200D01*
G75*
G02*
X2120000Y2025200I0J-425000D01*
G01*
X2120000Y1175200D01*
G75*
G02*
X1695000Y750200I-425000J0D01*
G01*
G37*
%TD*%
D14*
%TO.C,C4*%
X39370000Y4180200D03*
X39370000Y6680200D03*
%TD*%
%TO.C,C3*%
X71080000Y18110200D03*
X68580000Y18110200D03*
%TD*%
%TO.C,C2*%
X72350000Y32080200D03*
X69850000Y32080200D03*
%TD*%
%TO.C,C1*%
X8930000Y28270200D03*
X11430000Y28270200D03*
%TD*%
D15*
%TO.C,RN1*%
X15240000Y15570200D03*
X15240000Y18110200D03*
X15240000Y20650200D03*
X15240000Y23190200D03*
G36*
G01*
X14840000Y26530200D02*
X15640000Y26530200D01*
G75*
G02*
X16040000Y26130200I0J-400000D01*
G01*
X16040000Y25330200D01*
G75*
G02*
X15640000Y24930200I-400000J0D01*
G01*
X14840000Y24930200D01*
G75*
G02*
X14440000Y25330200I0J400000D01*
G01*
X14440000Y26130200D01*
G75*
G02*
X14840000Y26530200I400000J0D01*
G01*
G37*
%TD*%
%TO.C,R1*%
X93345000Y33350200D03*
D14*
X93345000Y40970200D03*
%TD*%
D16*
%TO.C,D1*%
X90805000Y46050200D03*
G36*
G01*
X94245000Y46500200D02*
X94245000Y45600200D01*
G75*
G02*
X93795000Y45150200I-450000J0D01*
G01*
X92895000Y45150200D01*
G75*
G02*
X92445000Y45600200I0J450000D01*
G01*
X92445000Y46500200D01*
G75*
G02*
X92895000Y46950200I450000J0D01*
G01*
X93795000Y46950200D01*
G75*
G02*
X94245000Y46500200I0J-450000D01*
G01*
G37*
%TD*%
%TO.C,U3*%
G36*
G01*
X68980000Y6750200D02*
X68180000Y6750200D01*
G75*
G02*
X67780000Y7150200I0J400000D01*
G01*
X67780000Y8750200D01*
G75*
G02*
X68180000Y9150200I400000J0D01*
G01*
X68980000Y9150200D01*
G75*
G02*
X69380000Y8750200I0J-400000D01*
G01*
X69380000Y7150200D01*
G75*
G02*
X68980000Y6750200I-400000J0D01*
G01*
G37*
D12*
X91440000Y15570200D03*
X71120000Y7950200D03*
X88900000Y15570200D03*
X73660000Y7950200D03*
X86360000Y15570200D03*
X76200000Y7950200D03*
X83820000Y15570200D03*
X78740000Y7950200D03*
X81280000Y15570200D03*
X81280000Y7950200D03*
X78740000Y15570200D03*
X83820000Y7950200D03*
X76200000Y15570200D03*
X86360000Y7950200D03*
X73660000Y15570200D03*
X88900000Y7950200D03*
X71120000Y15570200D03*
X91440000Y7950200D03*
X68580000Y15570200D03*
%TD*%
D17*
%TO.C,U1*%
X11430000Y25730200D03*
X3810000Y7950200D03*
X11430000Y23190200D03*
X3810000Y10490200D03*
X11430000Y20650200D03*
X3810000Y13030200D03*
X11430000Y18110200D03*
X3810000Y15570200D03*
X11430000Y15570200D03*
X3810000Y18110200D03*
X11430000Y13030200D03*
X3810000Y20650200D03*
X11430000Y10490200D03*
X3810000Y23190200D03*
X11430000Y7950200D03*
G36*
G01*
X2610000Y25330200D02*
X2610000Y26130200D01*
G75*
G02*
X3010000Y26530200I400000J0D01*
G01*
X4610000Y26530200D01*
G75*
G02*
X5010000Y26130200I0J-400000D01*
G01*
X5010000Y25330200D01*
G75*
G02*
X4610000Y24930200I-400000J0D01*
G01*
X3010000Y24930200D01*
G75*
G02*
X2610000Y25330200I0J400000D01*
G01*
G37*
%TD*%
D13*
%TO.C,J2*%
X64770000Y4140200D03*
X62230000Y4140200D03*
X59690000Y4140200D03*
X57150000Y4140200D03*
X54610000Y4140200D03*
X52070000Y4140200D03*
X49530000Y4140200D03*
X46990000Y4140200D03*
X44450000Y4140200D03*
D18*
X41910000Y4140200D03*
%TD*%
D19*
%TO.C,*%
X5080000Y33350200D03*
%TD*%
M02*
